<?xml version="1.0" encoding="UTF-8"?>
<svg id="Layer_1" xmlns="http://www.w3.org/2000/svg" version="1.1" xmlns:xlink="http://www.w3.org/1999/xlink" viewBox="0 0 250 250">
  <!-- Generator: Adobe Illustrator 29.4.0, SVG Export Plug-In . SVG Version: 2.1.0 Build 152)  -->
  <defs>
    <style>
      .st0 {
        fill: url(#linear-gradient1);
      }

      .st0, .st1, .st2, .st3, .st4 {
        fill-rule: evenodd;
      }

      .st1 {
        fill: #f78e1e;
      }

      .st2 {
        fill: url(#linear-gradient3);
      }

      .st3 {
        fill: url(#linear-gradient);
      }

      .st4 {
        fill: url(#linear-gradient2);
      }
    </style>
    <linearGradient id="linear-gradient" x1="125" y1="232.87" x2="125" y2="21.94" gradientUnits="userSpaceOnUse">
      <stop offset=".02" stop-color="#f36e21"/>
      <stop offset="1" stop-color="#f79324"/>
    </linearGradient>
    <linearGradient id="linear-gradient1" x1="116.63" y1="247.46" x2="167.11" y2="191.39" gradientUnits="userSpaceOnUse">
      <stop offset=".02" stop-color="#f6891f"/>
      <stop offset=".11" stop-color="#f6851f"/>
      <stop offset=".51" stop-color="#f37321"/>
      <stop offset="1" stop-color="#f15f22"/>
    </linearGradient>
    <linearGradient id="linear-gradient2" x1="105.24" y1="212.78" x2="144.65" y2="164.12" gradientUnits="userSpaceOnUse">
      <stop offset=".02" stop-color="#da4d27"/>
      <stop offset=".37" stop-color="#be3b26"/>
      <stop offset=".71" stop-color="#91321e"/>
      <stop offset="1" stop-color="#6b2d1e"/>
    </linearGradient>
    <linearGradient id="linear-gradient3" x1="88.47" y1="185.4" x2="162.27" y2="185.4" gradientUnits="userSpaceOnUse">
      <stop offset=".02" stop-color="#e25726"/>
      <stop offset="1" stop-color="#e25a26"/>
    </linearGradient>
  </defs>
  <path class="st1" d="M32.31,203.29h-.08s.1-.01.1-.01c.1-.06.22-.11.35-.14.55-.12,1.19-.03,1.48.17.07,0,.15,0,.22,0,.08-.08.23-.1.5-.04.1,0,.23.03.38.05.67.1,1.34.25,1.99.46.13.02.28.07.45.15,1.15.4,2.28.97,3.42,1.71.08.04.17.1.28.18.06.04.12.08.18.13v-.1s.61.55.61.55c.16.12.32.25.48.38v-.05s.38.37.38.37c.82.7,1.56,1.43,1.89,1.89l.29.42.1.12.33.37h2.26c.09-.01.19-.02.33-.02s.24,0,.33.02h1.33c1.77,0,3.44-.05,4.31-.11h.02c.09-.03.19-.05.3-.07.09-.05.21-.09.34-.11.31-.07.74-.25.94-.38.21-.15.35-.23.45-.23.34-.25.89-.73,1.31-1.17l.1-.11c.65-.89.88-1.39,1.09-2.3.03-.1.05-.2.08-.29.07-.48.13-.93.16-1.38-.03-.1-.04-.24-.04-.44,0-.15,0-.27.02-.36,0-.16,0-.34,0-.53-.01-1,0-1.47.05-1.69,0-.16-.01-.33-.02-.5-.08-2.22-.1-2.86.04-3.04v-1.72c-.08-1.02-.07-2.97-.08-6.68-.02-3.36.01-6.21.08-8.67-.06-.05-.1-.13-.1-.22h0c0-.12,0-.24.02-.34-.02-.11-.02-.26-.02-.46h0c0-.64.06-1.1.19-1.35.02-.48.05-.95.07-1.4-.05-.04-.08-.08-.08-.13h0c0-.07,0-.15.01-.22,0-.04-.01-.09-.01-.14h0c0-.4.07-.74.18-.96.02-.31.05-.61.07-.9-.04-.04-.07-.08-.07-.12h0c0-.09,0-.17.02-.25,0-.13.02-.3.06-.56.12-.82.19-1.29.28-1.55.02-.12.03-.24.05-.36-.03-.02-.05-.04-.05-.07,0-.03.01-.12.03-.25,0-.11.01-.29.06-.56.2-1.21.77-4.12,1.08-5.52.09-.4.18-.71.27-.92,0-.09.08-.48.21-.94.18-.82,1.01-3.61,1.44-4.79.09-.26.19-.49.27-.67.07-.27.17-.55.28-.79h-.04l.43-1.15h0c.35-.9.57-1.42.74-1.68.1-.25.19-.47.28-.67,0,0-.01-.02-.01-.02h0s.03-.11.07-.22c.34-.85,1.84-3.79,2.41-4.76.07-.13.15-.27.22-.4,0,0,0-.01,0-.02h0c0-.16.33-.71.56-.99.06-.1.11-.19.17-.29,0-.01-.01-.02-.01-.04h0c0-.2,2.52-4.12,3.65-5.68.23-.32.58-.78,1-1.3.06-.08.12-.15.17-.21.37-.47.79-.98,1.22-1.5.08-.1.17-.21.26-.31l.02-.02c.54-.65,1.08-1.29,1.56-1.85.67-.78,1.22-1.4,1.47-1.63l.56-.54v.1c.18-.18.36-.36.53-.53.14-.14.27-.27.41-.4h-.13s1.08-1.01,1.08-1.01h0c.07-.07.15-.13.22-.2.11-.1.22-.2.34-.3,1.77-1.57,4.24-3.55,6.12-4.88,1.82-1.28,6.01-3.85,6.26-3.85,0,0,.01,0,.02.01.31-.17.63-.34.95-.51.17-.13.47-.31.82-.49l.09-.04c.88-.44,1.29-.65,1.48-.66.24-.12.48-.23.72-.34.26-.2.76-.45,1.34-.67.17-.06.27-.09.34-.08.55-.24,1.1-.47,1.65-.69.86-.4,2.53-1.02,4.19-1.57,1.6-.53,3.18-1.01,4.04-1.17.11-.02.2-.04.28-.05.34-.09.68-.17,1.02-.25.58-.21,1.79-.46,4.03-.86,1.62-.3,2.28-.41,2.54-.33h.06c.62-.09,1.06-.15,1.36-.16.14-.01.28-.03.42-.04.19-.14.51-.2,1-.2.12,0,.21.01.27.05.24-.04.47-.05.57,0,.23-.02.47-.03.7-.05.28-.12.83-.16,1.8-.18.14,0,.29,0,.44,0h1.65v.04c.93-.06,2.52-.06,3.38.01.15-.09.44-.07.9.05.06.02.11.03.16.05.24.01.49.03.73.05.12-.02.33-.02.72.01.14-.05.42-.03,1,.03,6.35.7,12.97,2.25,18.11,4.28,6.81,2.68,13.13,6.4,18.27,10.72.53.44,1.04.89,1.54,1.34.26.24.53.48.78.72l1.44,1.37h-.04c.26.25.56.56.85.86h0s.65.61.65.61c.31.28,1.13,1.18,1.93,2.1l.04.05c.07.07.17.17.28.32l.03.04c.92,1.04,1.73,1.98,1.83,2.1,1.12,1.28,2.88,2.9,3.65,3.33.16.09.32.19.46.28.21.1.43.19.66.28h0s.99.27.99.27c.23.06.43.13.58.2.38.08.78.15,1.2.2.05,0,.1,0,.16,0,.15,0,.29,0,.4.02.2-.05.52-.02.94.09.03,0,.05.01.08.02.22,0,.44.01.68.02,1.18.02.96,0,2.48-.02.54-.01,1.03-.03,1.5-.05.19-.04.41-.07.65-.07.05,0,.1,0,.14.01.07,0,.14-.01.22-.01.01,0,.03,0,.04,0,.42-.03.82-.07,1.21-.11.07-.02.14-.04.22-.06.7-.15,1.07-.21,1.26-.16.35-.06.7-.13,1.04-.2.15-.06.34-.12.58-.17.45-.1.75-.15.93-.17.19-.05.38-.1.58-.15.23-.08.5-.16.83-.26l.39-.11c.21-.09.44-.17.69-.25l1.44-.49h0c.15-.06.26-.1.34-.12.31-.12.61-.25.92-.39.95-.55,2.56-1.39,2.92-1.49h.02c.37-.22,1.19-.75,1.91-1.23.21-.16.45-.33.69-.51.1-.07.2-.14.31-.22.63-.46,1.38-1.06,1.8-1.43l.9-.81v.03c.68-.63,1.33-1.29,1.94-1.97l.02-.02h0c1.26-1.55,2.73-3.58,3.31-4.59.15-.26.3-.51.43-.7.15-.29.3-.59.45-.9.01-.03.02-.07.04-.11h0c.26-.67.55-1.3.78-1.75.16-.41.32-.82.47-1.22l.37-1.21.02-.05c.07-.22.14-.42.2-.6.05-.18.1-.39.16-.63.07-.25.13-.51.19-.77,0-.01,0-.03,0-.04,0-.29.11-.73.24-1.1l.02-.09h0c.01-.08.03-.16.04-.23.04-.23.07-.46.11-.69-.03-.11-.01-.3.02-.62,0-.05.01-.11.02-.16h0c.06-.57.12-.98.18-1.27,0-.11.02-.23.02-.34.03-.57.04-1.16.04-1.77,0-.56-.01-1.12-.03-1.67-.01-.29-.03-.58-.04-.87,0-.07-.01-.14-.02-.2-.05-.33-.11-.78-.15-1.16-.05-.38-.07-.61-.05-.75-.07-.51-.15-1.02-.24-1.53-.35-1.69-.92-3.76-1.29-4.61-.18-.44-.32-.76-.41-.99-.3-.67-.64-1.35-1.02-2.03v-.02h-.01c-.09-.15-.16-.27-.2-.37-.22-.4-.46-.8-.7-1.2-.1-.13-.22-.3-.33-.49h0c-.39-.61-1.45-2.06-2.8-3.83-.18-.21-.35-.41-.53-.61-.57-.62-1.16-1.23-1.76-1.8-.14-.13-.29-.26-.43-.41-.31-.28-.62-.56-.93-.83-1.18-.98-3.36-2.5-4.75-3.3-.34-.19-.65-.38-.89-.54-.31-.16-.62-.32-.93-.48h-.02s-.08-.05-.08-.05c0,.01,0,.02,0,.02-.04-.02-.29-.13-.59-.25-.21-.09-.58-.25-.94-.41l-.41-.18c-2.39-1.1-7.23-2.27-10.16-2.48-.67-.04-1.38-.11-1.8-.16h-.02c-.92-.04-1.84-.04-2.76,0-.4.06-1.03.11-1.98.17-3.8.29-8.13,1.53-12.05,3.47-.75.38-1.45.72-1.92.96-.68.4-1.34.82-1.98,1.27l-1.23.95c-.9.68-2.28,1.92-3.11,2.77l-1.12,1.14c-.46.52-.9,1.05-1.33,1.6-.57.81-1.44,2.12-2.06,3.09-.21.33-.39.62-.53.84-.07.13-.14.26-.22.4h0s0,.03-.03.05c-.08.16-.17.31-.25.47-.31.62-.61,1.26-.89,1.91l-.11.29c-.72,1.78-1.44,3.99-1.8,5.61-.11.46-.22.88-.31,1.19-.01.05-.03.1-.04.14-.02.05-.03.1-.05.15-.05.14-.08.23-.11.25-.01.01-.06.01-.14,0-.02.01-.03.01-.04,0-.18-.03-.49-.12-.84-.24-.08-.03-.17-.06-.26-.1h0c-1.15-.43-1.51-.54-5.13-1.65-1.74-.54-4.57-1.3-5.49-1.49-.25-.05-1.3-.25-2.34-.47-1.85-.38-2.9-.56-5.58-.92-.67-.09-1.16-.16-1.5-.23-.59-.06-1.19-.12-1.78-.17-.12.03-.29,0-.53-.04-3.16-.25-6.29-.32-9.25-.2-.22.06-.5.1-.82.1-.14,0-.24-.01-.32-.04-.41.02-.81.05-1.21.09-.03,0-.06.02-.09.03-.42.11-.65.13-.76.05-.38.04-.76.07-1.14.11-.02,0-.05.02-.08.02-.42.11-.69.14-.85.07-.35.04-.69.08-1.04.12-.32.05-.93.14-1.52.24-.11.02-.22.04-.33.05-.74.11-1.74.27-2.21.36-.61.12-.96.17-1.15.14-.46.09-.92.17-1.37.27-.21.07-.47.14-.79.2-2.26.5-5.32,1.32-6.98,1.89l-.05.02c-.64.21-1.08.35-1.38.43-.37.13-.75.26-1.12.4-.05.05-.11.08-.18.11-.14.03-.52.17-.92.33-.11.05-.23.09-.34.14l-.95.38v-.04c-.41.16-.83.33-1.24.5-.3.16-.69.35-1.18.57-2.2.97-3.2,1.45-5.07,2.46-.28.15-.59.32-.92.5-.45.25-.88.49-1.25.68-.58.34-1.16.69-1.74,1.04-.36.25-.87.57-1.22.76-.23.15-.46.3-.69.44-.59.39-1.18.79-1.77,1.19-.66.51-1.84,1.39-4.04,3.02-.03.02-.06.04-.08.06l-.06.05c-.55.46-.99.81-1.33,1.08-.49.45-1.13.99-1.4,1.2l-.12.08c-.41.37-.84.76-1.26,1.17-.02.05-.05.1-.11.16-.17.21-.52.51-.79.71-.5.49-1.01,1.01-1.51,1.53-.23.32-.39.49-.49.52-.14.15-.28.29-.41.44-.22.24-.46.5-.71.77-.27.3-.54.6-.81.9h0s0,0,0,0c-.37.44-.83.97-1.04,1.22l-.3.35-.04.05c-.1.16-.27.39-.55.73v.02s-.03.01-.03.02h0c-.07.09-.15.18-.23.28l-.1.13c-.21.27-.49.63-.76,1.01-.33.42-.64.79-.83,1-.08.11-.17.24-.27.38h.02l-.38.54c-.13.18-.23.32-.32.42-.14.2-.28.39-.42.58l-1.06,1.67c-.41.66-.85,1.31-1.17,1.78l-.14.24h.04l-.68,1.13c-.38.61-.95,1.62-1.28,2.25-.12.22-.22.41-.32.57-.23.44-.46.87-.67,1.29-.5.98-.96,1.92-1.39,2.86l-.02.04c-.04.1-.09.2-.13.28-.25.56-.5,1.11-.73,1.67h.02l-.38.94c-.21.53-.33.83-.43,1,0,.08-.06.22-.15.44-.04.09-.08.18-.11.25-.07.18-.13.36-.2.54.02.16-.04.37-.17.63-.02.04-.05.08-.07.12-.04.12-.09.22-.14.32-.11.33-.23.67-.34,1,0,.12-.05.26-.12.43-.02.09-.06.21-.11.36-.03.11-.08.22-.12.31-.04.14-.09.28-.13.43-.02.09-.06.2-.1.34h0c-.23.76-.45,1.53-.66,2.34v.03c0,.07-.02.16-.04.27-.02.08-.04.18-.07.29-.03.11-.07.19-.1.25-.03.16-.09.39-.18.7-.05.16-.1.29-.15.39,0,.03.01.06.01.09,0,.08-.03.18-.07.28-.07.14-.17.28-.29.39l-.04.04-.14.23h-4.88c-.08,0-.16,0-.25,0-.09,0-.18,0-.26-.02h-1.14c-.8,0-1.57-.01-2.29-.02-.63,0-1.22,0-1.77-.01-.47.03-1.23.02-2.12-.04-.08.05-.2.07-.37.05-.21.05-.53.03-.96-.06h0c-.14-.04-.58-.11-.94-.18-.04,0-.07-.01-.11-.02-.31-.04-.61-.08-.91-.13-.25.09-.83-.02-2.13-.34h0c-.43-.1-.76-.19-1-.28-.32-.08-.63-.16-.95-.25-.27.01-.79-.14-1.73-.46h0c-.46-.15-.84-.31-1.09-.45-.13-.02-.3-.07-.52-.15,0,0,0,.01,0,.01-.04-.02-.32-.13-.63-.27h0c-.17-.07-.3-.14-.39-.2-.14-.07-.25-.14-.34-.2-.08-.04-.17-.08-.25-.11,0,.05-.02.07-.03.07-.04,0-.58-.25-1.17-.56h0c-.55-.28-.89-.48-1.02-.63-.07-.04-.14-.08-.21-.12-.08.02-.23-.04-.47-.18-.11-.03-.28-.12-.52-.28h0c-.17-.1-.3-.19-.38-.26-.34-.21-.59-.41-.65-.5-.31-.2-.63-.41-.93-.63,0,.06-.02.09-.03.09-.02,0-.7-.52-1.47-1.15h0c-.79-.63-1.76-1.44-2.16-1.8l-.72-.65h.15c-.1-.09-.21-.2-.31-.3l-.02.17-.68-.79c-.18-.12-.52-.52-1.24-1.38h0c-1-1.19-1.89-2.39-2.68-3.61-.14-.19-.24-.34-.28-.44-1.44-2.3-2.54-4.69-3.37-7.35-.03-.09-.06-.18-.08-.27-.23-.74-.43-1.5-.62-2.29-.06-.19-.09-.33-.1-.45-.04-.18-.08-.37-.12-.56-.18-.83-.61-3.51-.61-3.81,0-.1.03-.18.09-.23-.09-1.37-.11-2.81-.06-4.25,0-.52.02-.95.05-1.29-.09-.1-.07-.37,0-1.05h0c.34-3.26,1.08-6.53,2.07-9.25.58-1.62,1.82-4.28,2.23-4.83.17-.32.35-.63.53-.95,0-.04,0-.09.03-.16h0c.25-.68,2.55-3.88,3.8-5.32.63-.73,1.05-1.17,1.35-1.39.17-.17.33-.35.5-.52.27-.27.55-.54.82-.8-.03-.04.02-.11.11-.22h0c1.11-1.33,6.17-4.77,8.9-6.03.7-.32,1.33-.63,1.42-.68,0,0,.01,0,.02,0h0s.11-.59.11-.59c-.01-.04-.02-.09-.02-.16,0-.65.86-4.35,1.51-6.48,1.79-5.91,4.94-10.96,9.13-14.89.07-.08.25-.25.5-.46,4.25-3.82,9.52-6.51,15.51-7.79,1.47-.31,2.15-.43,3.84-.46.46-.1,1.02-.15,1.12-.06.02.02.03.03.04.05h.27c.16-.07.47-.12.88-.12.71,0,1.42.06,1.93.14,2.64.06,4.18.25,5.7.68.45.13.47.09,1.83-3.44,1.94-5.07,4.64-9.91,7.99-14.39,8.91-11.95,22.49-20.18,37.24-22.73.02-.02.04-.02.07-.02.01,0,.07,0,.16-.02,1.02-.17,2.05-.32,3.08-.43.75-.09,1.68-.16,2.7-.21.15-.02.29-.03.39-.02.57-.02,1.17-.04,1.77-.06.71-.06,1.54-.08,2-.02,2.07,0,4.02.06,5.22.2,7.73.9,13.29,2.54,19.98,5.86,11.15,5.58,20.38,14.91,26.3,26.62,2.1,4.19,3.38,7.66,4.62,12.5.45,1.73.64,2.5.84,2.82.19.1.6.11,1.51.06.22-.01.56-.03.99-.04.15,0,.32-.01.48-.02.21-.02.4-.05.54-.07.42-.05.69-.05.79.01.57-.04,1.39-.06,2.28-.06.06,0,.13-.01.2-.01.07,0,.15,0,.21.01.68,0,1.38.02,2.04.04.17,0,.34,0,.51,0,.22-.03.65-.02,1.21.03.53.02.96.05,1.24.08,9.32,1.15,18.54,5.81,25.63,12.95,2.39,2.39,4.57,5.14,5.95,7.48.99,1.65,2.5,4.48,2.5,4.64,0,0,0,0,0,.01.22.43.44.86.65,1.28.14.15.32.49.58,1.03.01.03,0,.05-.04.07.1.21.2.42.3.63.32.44.8,1.55,1.4,3.22.38,1.08.7,1.65,1.13,2.01,2.75,2.41,3.88,3.6,5.58,5.85.04.05.06.09.05.12.12.18.26.37.42.6l.4.58h-.05c.35.45,1.06,1.59,1.11,1.83.19.32.36.65.36.76,0,.01,0,.03,0,.04.33.66.64,1.34.92,2.03.09.11.19.28.29.52.12.28.17.42.14.49l.04.1c.04.1.07.19.1.28.02.02.04.05.06.08.14.25.97,3.22.97,3.53,0,.03,0,.06-.02.09.05.2.09.4.14.62.05.07.1.17.13.3.1.39.13.61.06.73.05.31.1.63.13.94.09.35.11.56.05.67,0,.06,0,.1-.01.14.01.11.02.21.03.32.03.07.07.15.1.26.11.42.14.74.09.94.02.16.01.27-.03.34.04.48.05,1.08.04,1.75,0,.56-.02,1.12-.06,1.68.06.06.08.17.06.33,0,.13-.02.33-.06.63-.05.34-.09.63-.13.86,0,.05-.02.09-.03.15-.04.21-.08.37-.11.49-.03.2-.05.4-.08.59.06.08.04.26,0,.61-.23,1.34-.38,2.01-.52,2.33-.08.35-.16.69-.25,1.02-.01.06-.04.14-.07.24-.07.26-.15.51-.23.76h.04l-.41,1.22c-.16.46-.41,1.07-.69,1.71-.03.09-.08.2-.17.37-.46,1.01-.96,2-1.24,2.43-.25.48-.51.94-.77,1.39-.05.13-.12.25-.2.35-.08.25-.39.72-1.02,1.62-.64.93-.99,1.41-1.19,1.55-.14.17-.28.35-.42.52h.03l-.38.54c-.28.4-.47.61-.58.61l-.49.55v-.09s-.08.09-.12.13c-.02.13-.25.37-.72.84-.5.51-.75.74-.87.73-.06.06-.13.12-.19.18-.11.13-.3.31-.52.52.02.04-.02.11-.11.22-.13.16-.47.45-.76.67l-.42.29-.12.1c-.38.32-1.17.94-1.76,1.35l-1.08.76v-.06c-.59.45-2.43,1.58-2.93,1.77-.05.02-.1.03-.14.03-.53.31-1.24.68-1.73.88-.1.06-.22.12-.38.19-.25.11-.39.16-.47.15-.45.19-.9.37-1.36.55-.1.07-.25.14-.4.19-.03.02-.07.05-.12.07-.28.15-.51.2-.67.17-.1.03-.19.07-.29.1-.24.14-.62.28-1.08.37-.1.02-.18.03-.25.04h-.03c-.7.31-2.47.71-4.65,1.04-1.29.18-1.93.27-2.26.24-.18.03-.29.02-.37-.02-.83.06-1.44.06-1.65-.03-2.23.06-5.21.07-9.5.07h-1.34s-.07,0-.07,0h-.36c-4.55,0-7.1.03-8.35.09-.24.01-.42.03-.56.05-.22.13-.33.39-.33.76,0,.08,0,.19.02.32.02.07.04.14.05.22.14.66.2,1.03.17,1.22l.06.34s.02.07.04.11c.06.21.09.38.1.5.03.06.06.13.08.22.11.4.13.62.05.74.05.29.09.57.13.85.04.15.07.34.12.59.02.05.04.1.06.16.09.35.12.56.08.69,0,.11,0,.18-.02.24.02.14.04.29.06.43.09.27.16.74.28,1.53.05.38.07.59.04.71,0,.15,0,.23-.06.27.02.19.03.37.04.56.14.21.23.63.23,1.16,0,.23-.04.36-.13.43.02.41.04.83.06,1.26.16.22.25.72.25,1.46,0,.27,0,.45-.05.56.03.31.05.72.05,1.24,0,.79-.02,1.1-.13,1.22v.35c.12.19.13.73.13,2.24,0,1.42,0,1.98-.1,2.2,0,.54,0,1.09,0,1.66.09.11.11.36.11.91s-.02.81-.12.92c0,.38,0,.76,0,1.15v.56c.13.48.13,2.07.13,7.35,0,3.03,0,4.84-.02,5.93.04.97.09,1.63.17,2.11.01.04.03.08.04.12.14.41.49,1.1.76,1.53l.24.35c.09.1.18.21.28.32l.51.55.34.23c.27.2.92.5,1.44.68.22.08.43.17.59.26.12,0,.27.04.47.09.6.06,1.47.09,2.97.09.14-.01.33-.02.59-.02s.46,0,.61.02h3.57s.05-.02.07-.02c.09,0,.58-.42,1.2-1.02.04-.05.09-.1.13-.15l.81-.9v.12c.83-.85,1.14-1.16,1.28-1.14.25-.21.51-.41.76-.59l.06-.05h0c.16-.14.43-.33.75-.53.39-.3,1.4-.86,2.05-1.11.2-.08.32-.12.39-.11.09-.07.21-.13.37-.2.26-.11.66-.23,1.13-.36.17-.13.49-.24.83-.25.2-.11.49-.18.79-.18.02,0,.04,0,.06.02h.06c.67-.29,2.51-.41,3.98-.2h.07c.07.02.15.03.25.05,1.12.17,1.84.34,2.19.52.43.12,1.34.54,2.01.89.1,0,.29.1.61.28.15.09.26.17.34.23v-.02l.5.36c.27.2.77.59,1.12.9l.63.54h-.06c.09.1.19.2.29.31.07,0,.18.1.34.28.17.17.45.53.87,1.13.85,1.18,1.52,2.52,2.01,3.98.05.07.09.17.13.3.04.16.07.3.09.41.2.71.37,1.45.49,2.2.04.24.06.4.05.51.02.12,0,.22-.02.28,0,.17-.02.25-.08.29,0,.25.01.5,0,.75,0,.19,0,.39-.01.58.08.05.1.17.08.42.05.11.03.32-.03.75-.14,1.08-.63,3.09-.86,3.53-.01.03-.03.06-.04.08-.19.56-.38.97-.51,1.08-.13.29-.27.57-.42.84-.03.06-.06.13-.1.2.03.1-.07.28-.28.64-.13.22-.24.36-.33.44-.05.06-.11.13-.18.21l-.1.11c-.31.43-.63.81-.85.99-.29.33-.6.64-.92.94l-.04.04s.02.01.02.02c0,.14-1.83,1.55-2.01,1.55,0,0-.01,0-.02,0-.61.4-1.49.9-1.64.9,0,0-.02,0-.03-.01-.34.18-.83.39-1.32.55h0c-.22.12-.42.17-.57.18-.14.04-.28.07-.4.09-.12.03-.22.04-.3.06-.06.04-.13.08-.22.11-.18.04-.68.08-1.25.1h-.02c-.05.03-.11.06-.17.08-.22.05-.69.08-1.17.08-.08.02-.16.02-.23.01-.01,0-.03,0-.05-.01-.44,0-.86-.04-1.07-.09-.08-.02-.15-.05-.2-.1-.14-.01-.27-.02-.41-.04-.07.05-.18.07-.33.06-.21.02-.58-.06-1.18-.24h0c-.27-.08-.52-.15-.74-.22-.28-.09-.52-.17-.73-.24,0,.01,0,.02,0,.02-.03-.01-.31-.13-.7-.29-.15,0-.47-.16-1.19-.52h0c-.53-.27-1-.54-1.2-.7-.18-.11-.35-.22-.5-.32,0,.02,0,.03-.01.03-.04,0-.49-.32-.99-.74h0c-.52-.4-.95-.76-.95-.79,0-.01.01-.02.04-.03-.36-.32-.7-.65-1.02-.99v.13s-.5-.63-.5-.63h0l-.33-.41-.17-.19c-.25-.14-1.46-.17-4.38-.14-3.78.05-4.9,0-5.12-.3h-.09c-.06.1-.19.13-.44.12-.09,0-.18-.01-.27-.02-.05.01-.12.02-.19.01-.18.03-.47-.02-.94-.15h0c-.29-.07-.85-.2-1.21-.25-.08-.01-.15-.03-.21-.04-.12-.03-.22-.07-.3-.11-.23-.04-.56-.12-1.02-.26h0c-.11-.03-.22-.07-.31-.1-.04-.01-.08-.03-.12-.04h0c-.75-.27-1.29-.5-1.62-.69,0,.04-.01.06-.02.06-.04,0-.32-.14-.63-.29h0c-.29-.14-.47-.26-.54-.36-.07-.03-.13-.07-.2-.11-.11.01-.3-.09-.61-.29h0c-.16-.1-.29-.18-.36-.25-.08-.02-.2-.08-.35-.18,0,.02-.01.04-.02.04-.02,0-.3-.22-.63-.51l-.07-.05s0,.02,0,.02c-.04,0-.52-.36-1.08-.81h0c-.58-.45-1.04-.85-1.04-.9,0,0,0-.01.01-.02l-.28-.23h.04s-.22-.18-.22-.18h.11c-.09-.09-.18-.18-.27-.27v.16s-.19-.23-.19-.23v.05s-.28-.36-.28-.36c-.14-.13-.36-.4-.6-.7h0c-.76-.9-2.27-3.17-2.27-3.38,0,0,0-.01,0-.02-.02-.04-.04-.07-.06-.11h0c-.25-.45-.39-.71-.43-.87-.08-.16-.15-.3-.22-.45-.03-.02-.06-.06-.08-.1h0c-.04-.07-.25-.56-.45-1.08l-.38-.94h.09c-.06-.09-.12-.23-.18-.43-.06-.07-.11-.17-.16-.32-.07-.27-.11-.46-.1-.59v-.04s-.02-.03-.02-.03c-.05-.12-.1-.26-.14-.42h0c-.04-.16-.09-.37-.13-.59l-.16-.55v-.35s-.01-.09-.02-.13c-.08-.52-.1-.73,0-.81-.01-.13-.02-.26-.03-.38-.05-.07-.1-.15-.13-.24-.05-.23-.11-7.03-.11-15.11,0-9.07,0-12.55.09-13.88v-.11s0-.1,0-.1c-.12-.51-.13-.9-.03-1.12v-.11c-.03-.64-.07-1.19-.12-1.72v-.04c-.02-.05-.04-.1-.05-.15-.05-.22-.07-.38-.06-.49-.01-.1,0-.18.01-.24-.01-.13-.03-.27-.05-.4-.02-.05-.04-.1-.06-.16-.1-.37-.13-.63-.09-.8-.01-.09-.01-.16,0-.22-.05-.38-.1-.76-.16-1.14,0-.03-.01-.06-.02-.09l-.04-.22-.04-.2v-.03c-.06-.22-.1-.38-.1-.51-.33-1.63-.53-2.46-1.02-4.17-.34-1.17-.81-2.64-1.06-3.29l-.43-1.17h.02l-.02-.05c-.12-.31-.25-.61-.37-.91-.04-.08-.08-.16-.11-.24h0c-2.07-4.73-4.71-9.01-7.84-12.72-.83-.97-1.69-2-1.92-2.28l-.12-.14c-.34-.36-.69-.72-1.04-1.08-.26-.24-.54-.51-.84-.8-.26-.25-.52-.5-.78-.75-.2-.16-.46-.39-.83-.71l-.27-.24h0c-.9-.77-2.37-1.94-3.29-2.63l-.05-.03-.21-.15h0c-.41-.29-.79-.57-1.07-.8-.33-.22-.66-.45-1-.66-.24-.12-.69-.39-1.17-.7h0c-.27-.17-.52-.33-.73-.47-.24-.14-.49-.28-.73-.42-.09-.02-.21-.09-.37-.18-.14-.04-.36-.15-.69-.35h0c-.09-.05-.17-.1-.24-.14-.08-.05-.15-.1-.21-.15-.63-.33-1.26-.64-1.9-.94-.09-.03-.6-.25-1.19-.5-.18-.08-.36-.16-.52-.24-.06-.03-.12-.06-.17-.09-.5-.21-1-.41-1.5-.6-.19-.04-.51-.15-1.02-.34l-.08-.03h0c-.76-.27-1.91-.63-2.55-.81-.1-.03-.19-.06-.28-.08-.05-.02-.1-.03-.14-.05-.11-.03-.22-.07-.35-.1h0c-.18-.05-.34-.1-.47-.16-.1-.03-.2-.05-.3-.08-.04.01-.09.02-.14.02-.18,0-.38-.04-.41-.09-.08-.07-1.24-.32-2.53-.55-.94-.17-1.95-.33-2.67-.42-.94-.12-1.55-.2-1.95-.28-.52-.05-1.03-.09-1.55-.12l-.49-.02c-.18,0-.41-.01-.65-.02-.11.04-.3.05-.6.04-.4-.02-.85-.05-1.04-.1-.45,0-.89,0-1.33,0-.25.07-.6.11-1.04.11-.17,0-.29,0-.39-.02-.23.04-.39.03-.49-.02-.54.03-1.07.06-1.6.11h-.03c-.39.11-.62.14-.74.07l-.24.02h0s0,0,0,0h-.03c-.4.06-.82.11-1.25.18-.38.07-.87.15-1.3.21-1.83.3-3.53.66-5.11,1.09-.36.1-.72.2-1.07.3-.66.2-1.29.4-1.91.62-.68.24-1.16.41-1.51.51-.1.03-.19.05-.26.07-.37.15-.82.33-1.35.54-.11.06-.24.12-.36.18l-.05.02c-.9.38-1.42.61-2.07.94-.02,0-.04,0-.06-.01-.4.22-.88.47-1.12.55-.06.04-.14.08-.22.12-.08.04-.15.08-.21.11-.15.08-.26.12-.34.13-.26.14-.52.28-.79.42-.27.17-.63.39-1.1.66l-.15.09c-.22.15-.5.33-.79.51-1.08.63-3.53,2.35-5.13,3.58-.06.05-.13.1-.19.14-1.28,1.04-2.52,2.16-3.73,3.35h.02s-.72.72-.72.72l-.22.21c-.48.5-.96,1.01-1.43,1.53l-.04.04c-.21.29-.35.46-.46.52-.6.69-1.19,1.4-1.75,2.14-.17.24-.31.42-.43.57-.2.27-.4.54-.59.81l-.9,1.38c-.33.51-.65.96-.88,1.27-.25.4-.49.8-.73,1.2,0,.02-.01.04-.02.06-.04.11-.13.25-.24.45-.06.1-.11.18-.16.25-.09.16-.18.32-.28.47-.07.12-.13.24-.2.36-.03.13-.15.35-.35.72-.06.11-.12.21-.18.3,0,0,0,0,0,.01-.14.28-.25.51-.35.68h0s0,.02,0,.04c-.06.13-.12.25-.18.36-.04.07-.07.14-.11.2-.08.18-.17.35-.25.53-.01.12-.12.35-.33.74-.02.05-.05.09-.07.14-.08.19-.17.38-.25.57-.02.06-.06.14-.09.23-.01.04-.03.07-.04.1s-.03.06-.04.09c-.04.1-.09.2-.13.31-.02.09-.07.21-.14.39-.04.1-.08.19-.12.27-.08.2-.16.4-.23.6h.01l-.59,1.76c-.13.36-.27.79-.41,1.23-.23.75-.46,1.54-.6,2.1-.11.44-.21.79-.3,1.05l-.06.27c0,.18-.06.45-.15.88l-.02.08c.03.15-.02.44-.14.96-.09.34-.19.84-.25,1.21-.01.08-.03.16-.04.22-.01.07-.02.13-.04.19-.06.36-.11.63-.16.83-.04.35-.08.7-.12,1.06.05.1.06.24.03.45.03.13.02.33-.04.59-.01.06-.03.13-.05.21-.02.06-.04.11-.06.16,0,.13-.02.26-.03.39v.13c.03.16.02.39-.04.68-.12,2.83-.13,7.04-.13,14.65,0,5.33,0,9.03-.06,11.73h.06v1.67c0,.54-.03,1.09-.07,1.64.12.13.08.47-.09,1.31-.09.47-.22,1.17-.29,1.55-.02.13-.06.25-.1.35-.01.12-.04.27-.09.46-.02.07-.04.13-.07.19l-.02.09c0,.16-.06.43-.2.86-.06.19-.12.35-.19.46-.05.2-.15.48-.31.85-.06.15-.13.29-.18.39-.27.69-.58,1.37-.92,2.02,0,.09-.08.23-.2.45-.04.11-.13.27-.26.5-.13.21-.24.36-.32.43-.34.54-.69,1.06-1.02,1.53h.05l-.38.54c-.29.41-.47.61-.58.61-.26.3-.49.52-.67.65-.09.1-.19.2-.29.3,0,.05-.04.12-.1.22-.13.18-.36.41-.54.54-.07.04-.12.07-.17.09-.03.03-.07.06-.1.09-.03.11-.23.29-.61.56l-.32.22c-.08.14-.35.36-.8.69-.39.28-.64.43-.8.48-.35.24-.74.48-.94.56-.06.04-.13.08-.2.12-.24.13-.4.21-.51.23-.13.11-.36.24-.7.4-.91.43-1.32.61-1.51.61-.19.07-.38.13-.58.2-.07.06-.18.12-.33.17-.27.07-.46.1-.59.1-.09.02-.19.05-.28.07,0,.07-.02.12-.03.12-.02,0-.17.03-.41.07l-.45.08h-.04s0,0,0,0h0c-.21.04-.44.08-.68.12-.82.15-1.26.23-1.51.25-.13.02-.23.02-.3,0-.2.01-.28-.01-.32-.07-.1,0-.2.01-.3.02-.28.22-1.28.26-4.26.26-1.93,0-2.82,0-3.22-.07h-1.02s-.46-.02-.46-.02l-.52.54-.17.18-.33.35v-.03h-.02c-.27.3-.6.62-.96.94,0,.04-.03.08-.08.14-.07.08-.19.2-.34.33-.01.02-.03.03-.04.05-.13.16-.47.45-.76.67l-.52.36v-.03s-.52.37-.52.37v-.07c-.13.09-.26.17-.39.25-.08.14-.44.35-1.09.66-.02,0-.03,0-.05,0h0s-.06.03-.06.03c-.39.28-1.46.77-1.94.88-.18.09-.45.18-.78.27-.27.07-.59.14-.94.2-.1.02-.19.03-.27.04-.07.04-.16.09-.27.12-.35.09-.56.12-.69.08-.09.02-.16.03-.19.03s-.06-.04-.09-.1c-.06,0-.13.01-.19.02-.07.06-.17.11-.28.15-.15.04-.45.06-.8.07-.12.01-.25.01-.39,0-.59,0-1.27-.03-1.74-.1h0c-.62-.09-1.42-.28-2.08-.49-.23-.06-.41-.12-.49-.16-.13-.05-.25-.09-.35-.14-.17,0-.4-.06-.67-.2v.04s-.76-.38-.76-.38h0c-.27-.13-.47-.25-.59-.34-.09-.02-.46-.26-.93-.59,0,.03-.02.05-.03.05-.02,0-.32-.23-.67-.54l-.03-.03s-.01.03-.02.03c-.02,0-.32-.23-.67-.54l-.63-.52h0c-.06-.06-.1-.1-.1-.11,0-.02.03-.03.08-.04-.1-.1-.2-.2-.29-.3-.04.08-.11.03-.26-.12-.09-.08-.42-.47-.77-.94h0c-.38-.52-.95-1.44-1.26-2.01-.19-.36-.3-.63-.33-.82h0s-.09-.09-.13-.15h0c-.05-.11-.22-.5-.36-.9-.12-.34-.18-.53-.17-.62-.01-.04-.03-.09-.04-.14-.08-.14-.15-.36-.22-.64h0c-.11-.49-.23-1.24-.31-1.71-.06-.41-.07-.62-.03-.74,0-.12.02-.2.06-.24-.02-.26-.03-.53-.03-.79-.02-.06-.02-.22-.01-.44,0-.23.01-.37.03-.41,0-.1.01-.19.02-.29-.06-.04-.1-.09-.1-.14h0c0-.15.02-.29.05-.42,0-.08.02-.18.04-.3.13-.93.21-1.38.32-1.59.05-.18.1-.36.15-.55-.01-.03-.02-.06-.02-.09h0c0-.21.1-.5.24-.71.05-.15.11-.28.17-.39.02-.04.03-.09.05-.13-.03-.07.02-.22.14-.5.06-.15.12-.28.18-.37.09-.21.19-.44.3-.64,0,0,0,0,0-.01h0c0-.08.22-.47.52-.94.08-.14.19-.31.32-.49.49-.73,1.05-1.5,1.22-1.65h0c.18-.21.29-.29.36-.24.18-.2.37-.39.55-.57-.03-.03-.04-.05-.01-.09.01-.02.05-.06.09-.11.12-.35,3.6-2.59,4.04-2.59,0,0,.02,0,.02.01.41-.2.86-.37,1.06-.37.02,0,.03,0,.05,0l.13-.04c.06-.02.12-.04.19-.06.16-.12.57-.21,1.58-.38.1-.02.19-.03.26-.04.12-.02.24-.04.37-.04.05,0,.11.04.15.11.06,0,.13,0,.19-.01.01-.01.03-.02.05-.03h0Z"/>
  <path class="st3" d="M187,143.48v-.22c0-.59-.02-.59-.94-.72-.52-.05-1.22-.11-1.53-.11-.32,0-.59-.07-.59-.18,0-.09-.14-.18-.32-.18s-.67-.16-1.08-.36c-.4-.2-.85-.36-.97-.36s-.56-.29-.95-.65c-.4-.34-.94-.77-1.21-.94-.29-.16-.5-.36-.5-.43,0-.36-1.22-1.91-1.65-2.1-.27-.13-.59-.5-.74-.88-.31-.72-2.97-3.63-3.35-3.63-.11,0-.25-.13-.31-.27-.05-.14-.25-.31-.45-.36-.18-.07-.34-.2-.34-.32,0-.27-2.32-2.5-3.35-3.2-.47-.31-1.12-.88-1.44-1.24-.34-.38-.86-.77-1.15-.9-.31-.13-.54-.29-.54-.36,0-.09-.34-.31-.76-.52-.43-.2-1.04-.61-1.37-.92-.32-.29-.72-.54-.86-.54s-.4-.16-.56-.36c-.18-.2-.4-.36-.49-.36s-.34-.16-.54-.34c-.32-.31-1.76-1.12-3.44-1.96-.29-.16-.58-.32-.63-.4-.11-.13-1.08-.58-2.16-1.01-.45-.16-.94-.41-1.1-.56-.14-.13-.45-.23-.65-.23s-.47-.13-.59-.27c-.13-.14-.38-.27-.56-.27-.2,0-.34-.07-.34-.18,0-.09-.2-.18-.43-.18-.25,0-.5-.07-.56-.18-.05-.09-.29-.18-.52-.18-.22,0-.47-.07-.58-.14-.09-.09-.68-.34-1.33-.56-.65-.22-1.4-.52-1.67-.67-.27-.16-.94-.32-1.47-.38-.54-.05-.99-.18-.99-.25,0-.09-.27-.16-.61-.16s-.67-.07-.72-.14c-.07-.14-1.01-.38-2.45-.65-.25-.05-.77-.18-1.17-.29-.4-.13-1.33-.29-2.07-.36-.74-.09-2.45-.34-3.78-.56-1.46-.23-3.26-.4-4.5-.4-1.87-.02-6.03-.02-8.09,0-.76,0-1.96.14-5.22.59-.74.09-1.91.23-2.57.29-.67.07-1.26.2-1.31.27-.05.09-.32.16-.61.16s-.7.07-.94.16c-.23.09-1.01.27-1.71.4-.72.13-1.31.29-1.31.38,0,.07-.18.14-.4.14-.38,0-1.26.23-2.03.56-.2.07-1.04.38-1.89.68-3.87,1.35-5.4,1.98-5.4,2.23,0,.07-.16.13-.36.13s-.36.09-.36.18c0,.11-.23.18-.54.18-.29,0-.54.09-.54.18,0,.11-.16.18-.36.18s-.36.09-.36.18c0,.11-.14.18-.31.18-.18,0-.52.16-.77.36-.25.2-.59.36-.76.36-.18,0-.32.07-.32.16s-.23.25-.54.38c-.29.13-.54.29-.54.38s-.16.16-.34.16c-.2,0-.47.11-.59.23-.4.36-2.28,1.56-2.48,1.56-.09,0-.18.05-.18.14,0,.07-.23.23-.52.36-.29.13-.72.41-.95.63-.23.22-.83.67-1.33.99-.49.31-1.08.77-1.31,1.03-.23.25-.52.45-.67.45s-.25.09-.25.18c0,.11-.11.18-.23.18s-.59.32-1.03.74c-.45.4-1.08.94-1.38,1.19-.32.25-.59.58-.59.7,0,.14-.11.25-.23.25s-.63.47-1.13,1.03c-.49.58-1.17,1.28-1.51,1.58-.34.29-.79.72-.99.95-.2.23-.79.85-1.3,1.38-.52.54-.95,1.03-.95,1.08,0,.16-1.85,2.5-2.1,2.66-.13.07-.36.43-.52.77-.18.36-.59.92-.94,1.26-.7.68-1.12,1.38-1.12,1.89,0,.2-.07.34-.16.34-.22,0-1.28,1.55-1.28,1.85,0,.13-.16.32-.36.45s-.36.34-.36.49c0,.27-.34.99-.56,1.17-.25.2-1.6,3.2-1.6,3.56,0,.22-.07.4-.18.4-.09,0-.18.16-.18.36s-.07.36-.18.36c-.09,0-.18.09-.18.22,0,.34-.77,1.94-.94,1.94-.07,0-.14.2-.14.43,0,.25-.07.5-.18.56-.09.05-.18.34-.18.65,0,.29-.07.52-.18.52-.09,0-.18.25-.18.54,0,.31-.07.54-.18.54-.09,0-.18.25-.18.54,0,.31-.07.54-.18.54-.09,0-.18.25-.18.54,0,.31-.07.54-.18.54-.09,0-.18.25-.18.54,0,.31-.05.54-.14.54-.16,0-.58,1.69-.58,2.37,0,.27-.07.52-.16.58-.09.05-.2.41-.25.77-.05.38-.22,1.26-.36,1.94-1.26,5.94-1.37,8.04-1.38,24.52,0,9.01-.05,13.71-.18,13.71-.09,0-.18.2-.18.41,0,.5-.47,1.51-.79,1.69-.13.09-.36.36-.54.61-.36.56-1.47,1.13-2.77,1.4-.54.11-2.39.2-4.12.2h-3.17l-.41-.49c-.23-.29-.43-.58-.43-.65,0-.18-.11-.29-1.55-1.53-.59-.5-1.17-.94-1.26-.94-.11,0-.34-.14-.54-.31-.5-.45-1.1-.77-1.42-.77-.14,0-.27-.07-.27-.18,0-.09-.13-.18-.27-.18-.16,0-.32-.13-.38-.27-.07-.14-.65-.43-1.31-.65-2.39-.76-5.02-.95-7.66-.54-.79.11-1.76.25-2.14.32-.4.05-.83.22-.97.34-.13.14-.45.31-.72.38-.27.05-.52.16-.58.23-.05.05-.38.31-.72.54-.95.67-1.24.9-2.36,1.94-.97.9-2.68,3.2-2.68,3.6,0,.11-.05.22-.13.25-.23.09-1.26,2.7-1.47,3.72-.11.54-.25,1.94-.32,3.11-.13,2.37.23,5.16.86,6.57.2.43.34.9.34,1.04s.07.27.16.27.36.41.58.9c.22.5.47.9.54.9s.2.16.25.36.23.36.38.36.25.13.25.27c0,.49,1.15,1.55,3.02,2.81,1.03.68,2.07,1.24,2.3,1.24s.43.09.43.18c0,.11.2.18.43.18.25,0,.5.09.56.18.05.11.45.18.83.18s.7.07.7.16.22.22.5.25h0c.95.14,3.38.11,4.62-.07.7-.09,1.6-.22,2.03-.27.41-.07.76-.18.76-.27s.2-.16.45-.16.59-.07.77-.16c.16-.11.77-.4,1.33-.65.56-.27,1.26-.68,1.53-.92.27-.23.61-.43.74-.43.11,0,.22-.07.22-.18,0-.09.11-.18.23-.18.32,0,2.48-2.12,2.81-2.75l.27-.49,5.43.04c4.17.04,5.5,0,5.67-.16.13-.13.56-.23.99-.23s.83-.07.88-.18c.05-.09.34-.18.61-.18s.83-.16,1.24-.36c.4-.2.83-.36.94-.36.18,0,.9-.36,1.08-.54.22-.22.92-.54,1.15-.54.14,0,.29-.05.32-.13.07-.18,1.03-.76,1.46-.9.16-.05.31-.22.31-.34,0-.14.07-.25.16-.25s.47-.29.85-.63c.38-.34.77-.63.86-.63.23,0,1.1-1.06,1.4-1.69.11-.25.29-.47.38-.47.23,0,1.03-.94,1.03-1.21,0-.13.07-.23.16-.23s.25-.23.38-.54c.13-.29.29-.54.38-.54s.16-.11.16-.23c0-.31.41-1.21.56-1.21.05,0,.29-.43.5-.94.23-.52.49-1.1.58-1.26.09-.18.16-.49.16-.68s.11-.56.25-.77c.32-.52.65-2.09.65-3.18,0-.49.11-1.1.23-1.38.16-.38.25-4.26.34-16.24.05-9.07.2-16.39.31-17.27.41-3.4.52-4.08.81-4.86.14-.45.29-1.03.29-1.3,0-.25.16-.85.36-1.31.2-.47.36-.99.36-1.19,0-.18.05-.34.14-.34.13,0,.58-1.26.58-1.67,0-.32.41-1.21.59-1.21.07,0,.13-.13.13-.29,0-.32.74-1.74.95-1.83.07-.04.13-.18.13-.32s.16-.61.36-1.01c.2-.41.36-.86.36-.99s.09-.23.18-.23c.11,0,.18-.16.18-.36s.07-.36.14-.36c.09,0,.27-.22.4-.49.14-.29.4-.72.58-.99.18-.25.32-.56.32-.67,0-.13.2-.41.43-.65.25-.23.49-.61.56-.81.05-.2.2-.36.29-.36s.16-.14.16-.32c0-.16.16-.41.36-.54s.36-.36.36-.54.16-.43.36-.58c.2-.14.36-.4.36-.58s.13-.32.32-.32c.16,0,.5-.31.76-.68.23-.36.67-.88.94-1.17.29-.27.5-.56.5-.65,0-.29,3.63-3.76,4.15-3.94.09-.04.16-.18.16-.31s.31-.45.68-.74c.36-.27.79-.65.95-.83s.4-.32.5-.32c.36,0,1.1-.56,1.1-.83,0-.14.13-.25.27-.25.16,0,.49-.2.72-.43.23-.25.61-.49.81-.56.2-.05.36-.18.36-.25s.38-.34.86-.58c.47-.23.97-.58,1.13-.74.16-.18.43-.32.59-.32s.29-.07.29-.18c0-.09.22-.18.47-.18.27,0,.61-.14.77-.32.36-.38.94-.67,1.96-.95.41-.13.76-.29.76-.38,0-.07.16-.14.36-.14s.36-.07.36-.18c0-.09.25-.18.54-.18.31,0,.54-.07.54-.16s.27-.25.59-.38c.31-.11.92-.36,1.35-.56.41-.18.97-.34,1.2-.34.25,0,.45-.07.45-.18,0-.09.23-.18.52-.18.31,0,.59-.07.65-.18.05-.09.32-.18.59-.18s.97-.16,1.55-.36c.59-.2,1.3-.36,1.56-.36s.54-.07.59-.16c.05-.07.68-.2,1.4-.25.72-.07,2-.22,2.84-.34,2.12-.29,8.54-.29,10.34,0,.79.14,1.91.32,2.48.41,3.67.58,4.24.7,4.37.9.05.09.43.16.81.16s.7.09.7.18c0,.11.18.18.4.18.49,0,1.47.31,2.36.74.4.2.86.34,1.04.34.2,0,.52.16.74.36.23.22.65.36.99.36.32,0,.59.09.59.18,0,.11.11.18.23.18.27,0,2.05.88,2.91,1.42.31.2.68.36.85.36.16.02.32.07.36.16.04.07.41.32.86.56.45.25.85.49.9.56.2.23,1.24.9,1.42.9s.79.45,1.49,1.13c.18.16.41.31.5.31.11,0,.18.07.18.14,0,.09.22.27.49.41.27.14.99.72,1.58,1.3.59.56,1.17,1.03,1.29,1.03s.23.11.23.25c0,.36,1.55,1.91,1.89,1.91.14,0,.27.16.27.36s.07.36.18.36c.09,0,.49.32.88.72.4.4.79.72.9.72s.2.13.2.27c0,.16.09.38.18.5.7.83.9,1.1.9,1.24,0,.07.13.14.27.14s.27.07.27.16.11.29.23.41c.13.13.43.52.67.86.4.59,2.69,4.26,2.73,4.28.07.04.14.16.14.27,0,.13.2.45.45.74.25.31.5.74.58.99.05.25.5,1.26.99,2.21.47.97.86,1.87.86,2.03,0,.14.09.27.18.27.11,0,.18.2.18.43,0,.25.09.5.18.56.11.05.18.29.18.52,0,.22.14.72.34,1.12.18.38.38,1.01.43,1.37.05.36.22.94.36,1.26.38.85.63,1.89.76,3.02.07.54.18,1.03.25,1.08.07.05.29,1.38.49,2.97.29,2.55.34,4.73.43,19.68.07,13.22.14,16.82.32,16.89.13.04.22.36.22.77,0,.38.09.7.18.7.11,0,.18.23.18.52,0,.31.09.59.18.65.09.05.18.27.18.47,0,.36.29.97.67,1.37.11.13.27.4.32.59.05.2.2.36.29.36s.16.16.16.36.09.36.18.36c.11,0,.18.16.18.36s.09.36.18.36c.11,0,.18.11.18.23s.32.59.72,1.03c.4.45.72.86.72.95,0,.18,1.56,1.74,1.74,1.74.09.02.58.4,1.08.88.52.47,1.31,1.04,1.76,1.28.45.23.81.49.81.58,0,.07.16.14.34.14.2,0,.38.05.41.14.11.23,2.36,1.3,2.77,1.3.22,0,.45.07.5.16.11.16.61.29,2.27.56.54.09,1.4.23,1.89.34.54.11,2.52.13,4.98.07,4.69-.13,4.77-.11,6.08,1.38.85.95,2.61,2.41,3.35,2.73.23.11.43.27.43.36,0,.07.13.14.27.14.16,0,.45.16.67.36.22.2.58.36.81.36.22,0,.67.14,1.01.34.85.47,1.74.59,5.41.68,2.1.04,3.29,0,3.42-.13.09-.09.45-.18.77-.18s.59-.07.59-.18c0-.09.25-.18.54-.18.31,0,.54-.07.54-.18,0-.09.16-.18.36-.18s.36-.07.36-.18c0-.09.16-.18.36-.18s.36-.07.36-.18c0-.09.11-.18.23-.18s.4-.14.59-.32c.59-.54,1.47-1.12,1.71-1.12.31,0,1.06-.72,1.06-1.01,0-.13.31-.54.68-.92.86-.86,1.47-1.74,1.47-2.1,0-.16.05-.29.14-.29.14,0,.58-.88.58-1.21,0-.13.14-.49.34-.81.18-.34.38-.88.45-1.22.47-2.28.76-6.03.5-6.35-.09-.13-.23-.61-.31-1.1-.14-1.08-1.28-4.32-1.53-4.39-.09-.04-.18-.27-.18-.5,0-.25-.11-.49-.25-.54-.14-.05-.34-.32-.47-.59-.11-.29-.4-.61-.65-.74-.23-.14-.43-.4-.43-.58s-.07-.32-.18-.32c-.09,0-.18-.07-.18-.18,0-.23-.67-.9-.9-.9-.09,0-.18-.07-.18-.18,0-.09-.11-.18-.22-.18-.13,0-.45-.2-.72-.43-.27-.22-.88-.61-1.35-.85-.49-.23-.94-.54-1.01-.65-.07-.13-.34-.23-.58-.23-.25,0-.45-.07-.45-.18,0-.09-.23-.18-.54-.18-.29,0-.54-.07-.54-.16,0-.2-1.89-.38-4.05-.41-2.16-.05-4.82.4-5.97.99-.32.18-.67.31-.77.31s-.36.16-.58.36c-.22.2-.52.36-.67.36-.16,0-.49.16-.74.36-.25.2-.52.36-.59.36s-.34.2-.59.45c-.25.25-.54.45-.63.45-.11,0-.88.68-1.71,1.53l-1.51,1.53h-2.2c-2.7,0-5.32-.27-5.94-.59-.25-.13-.68-.49-.95-.81-.27-.31-.7-.7-.99-.88-.4-.23-.54-.47-.63-1.12-.07-.45-.2-8.24-.25-17.28-.09-12.34-.18-16.66-.36-17.27-.13-.45-.29-1.49-.36-2.34-.09-.85-.29-2.09-.45-2.79-.45-1.96-.41-2.21.4-2.39.36-.09,5.56-.18,11.55-.22,5.99-.02,10.97-.09,11.06-.14.11-.07.67-.18,1.26-.25,1.17-.14,2.46-.38,3.6-.67.4-.11,1.04-.25,1.44-.34.4-.09,1.03-.29,1.42-.45.38-.18.81-.31.95-.31s.38-.13.54-.27c.14-.16.5-.34.79-.4.29-.05.52-.16.52-.25s.16-.16.36-.16.36-.07.36-.18c0-.09.2-.18.41-.18.54,0,1.56-.5,1.69-.83.05-.14.25-.25.43-.25s.34-.07.34-.18c0-.09.14-.18.32-.18s.43-.16.58-.36c.14-.2.38-.36.54-.36s.4-.16.54-.36c.14-.2.36-.36.47-.36s.54-.32.95-.72c.4-.4.86-.72,1.01-.72s.34-.16.45-.36c.11-.2.31-.36.47-.36.14,0,.31-.13.38-.29.14-.4.92-1.15,1.17-1.15.31,0,1.04-.74,1.04-1.03s.79-1.13,1.08-1.13c.09,0,.18-.07.18-.14,0-.09.2-.4.45-.68.25-.29.45-.59.45-.67s.2-.34.43-.58c.25-.25.59-.68.76-.99.18-.29.38-.54.45-.54s.22-.23.34-.54c.13-.31.29-.54.38-.54s.16-.16.16-.36.09-.36.18-.36c.11,0,.18-.11.18-.23s.16-.41.36-.63c.2-.22.36-.5.36-.67,0-.14.09-.27.18-.27.11,0,.18-.16.18-.36s.09-.36.18-.36c.11,0,.18-.23.18-.54,0-.29.07-.54.14-.54.22,0,.7-1.1.85-1.87.07-.36.2-.7.29-.76.09-.05.16-.29.16-.54,0-.23.09-.43.18-.43.11,0,.18-.27.18-.61s.09-.68.18-.74c.11-.05.18-.52.18-1.01s.07-.88.16-.88.2-.34.25-.76c.07-.43.22-1.42.32-2.21.29-1.85.29-6.28.02-7.12-.2-.56-.34-1.56-.7-4.87-.05-.49-.16-.86-.25-.86s-.16-.23-.16-.54c0-.29-.2-.97-.43-1.51-.23-.52-.49-1.21-.54-1.51-.07-.29-.29-.7-.47-.9-.2-.22-.36-.54-.36-.74s-.07-.41-.18-.47c-.09-.05-.18-.25-.18-.41,0-.18-.16-.43-.36-.58s-.36-.36-.36-.47c0-.13-.32-.76-.72-1.4-.4-.65-.72-1.24-.72-1.31,0-.09-.32-.34-.72-.59-.4-.23-.72-.54-.72-.67s-.07-.23-.18-.23c-.09,0-.18-.11-.18-.23,0-.29-3.71-3.9-4.01-3.9-.25,0-.67-.81-.67-1.31,0-.18-.11-.45-.25-.58-.14-.14-.4-.72-.58-1.3-.16-.58-.47-1.35-.65-1.71-.18-.38-.32-.81-.32-.99,0-.2-.23-.61-.54-.95-.29-.34-.52-.68-.54-.76,0-.07-.23-.52-.54-.99-.29-.47-.54-1.01-.54-1.22s-.14-.54-.31-.74c-.18-.18-.52-.65-.77-1.01-.25-.38-.5-.68-.58-.68-.09,0-.14-.16-.14-.36s-.07-.36-.18-.36c-.09,0-.18-.23-.18-.54,0-.29-.05-.54-.14-.54-.07,0-.22-.18-.31-.41-.11-.22-.36-.47-.58-.58-.23-.09-.41-.29-.41-.41,0-.14-.25-.49-.54-.76-.31-.27-.54-.59-.54-.72s-.23-.45-.54-.72c-.29-.27-.54-.59-.54-.7s-.16-.27-.36-.38c-.2-.11-.36-.29-.38-.41,0-.13-.58-.74-1.26-1.38-.7-.65-1.76-1.64-2.36-2.19-.58-.58-1.15-1.04-1.24-1.04s-.16-.07-.16-.14-.22-.27-.49-.43c-.45-.27-.94-.63-1.67-1.26-.14-.13-.49-.34-.77-.45-.29-.13-.67-.41-.85-.65-.18-.23-1.19-.85-2.23-1.37-1.04-.52-1.91-1.03-1.91-1.12s-.31-.31-.67-.45c-.38-.16-.83-.36-.99-.45-.18-.09-.43-.16-.59-.16-.14,0-.54-.16-.9-.36-.36-.2-.76-.36-.9-.36s-.27-.07-.27-.18c0-.09-.13-.18-.27-.18-.23,0-1.35-.45-2.28-.92-.18-.09-.63-.16-1.03-.16s-.77-.07-.83-.18c-.05-.09-.31-.18-.54-.18s-.47-.07-.52-.16c-.11-.16-.81-.29-3.17-.56-.74-.09-2.07-.29-2.97-.45-1.26-.23-2.3-.27-4.77-.2-1.73.05-3.62.14-4.17.22-1.03.11-1.03.09-1.4-.5-.22-.38-.36-.9-.36-1.44,0-.49-.05-.86-.14-.86-.07,0-.23-.54-.36-1.22-.13-.67-.31-1.28-.41-1.38-.09-.09-.16-.29-.16-.45,0-.14-.25-.86-.54-1.6-.31-.72-.54-1.51-.54-1.73,0-.23-.09-.49-.18-.54-.09-.05-.18-.27-.18-.45,0-.2-.23-.74-.54-1.21-.29-.47-.54-.99-.54-1.15,0-.18-.07-.36-.16-.41-.09-.05-.58-.94-1.1-1.94-.52-1.03-1.01-1.89-1.1-1.91-.09-.04-.16-.22-.16-.41,0-.18-.07-.34-.18-.34-.09,0-.18-.11-.18-.23,0-.43-.86-2-1.33-2.45-.27-.23-.47-.52-.47-.67s-.07-.25-.18-.25c-.09,0-.18-.13-.18-.27,0-.16-.16-.45-.36-.67-.2-.22-.36-.5-.36-.63s-.07-.23-.18-.23c-.09,0-.18-.16-.18-.34,0-.2-.22-.54-.49-.77-.29-.23-.61-.63-.74-.86-.13-.25-.41-.54-.63-.63-.22-.11-.47-.36-.58-.59-.09-.22-.32-.45-.49-.5-.18-.05-.32-.2-.32-.31-.02-.29-.65-1.03-.86-1.03-.11,0-.23-.14-.29-.31-.05-.18-.31-.54-.54-.79-.23-.25-.49-.63-.56-.85-.05-.23-.34-.54-.59-.72-.27-.16-.77-.59-1.12-.95-.36-.34-.97-.81-1.37-1.04-.4-.23-.88-.65-1.04-.94-.16-.29-.4-.52-.49-.52-.2,0-.56-.27-1.03-.77-.16-.16-.34-.31-.41-.31s-.47-.34-.9-.74c-.43-.41-1.21-1.03-1.69-1.33-.5-.32-1.03-.72-1.15-.88-.13-.16-.4-.29-.58-.29-.2,0-.34-.05-.34-.13,0-.14-.86-.59-1.13-.59-.07,0-.36-.23-.61-.54-.23-.29-.63-.54-.83-.54-.22,0-.59-.16-.85-.36-.25-.2-.63-.36-.85-.36-.23,0-.41-.07-.41-.18,0-.09-.13-.18-.27-.18s-.27-.07-.27-.18c0-.09-.18-.18-.41-.18-.22,0-.52-.16-.67-.36-.14-.2-.36-.36-.49-.36s-.49-.16-.81-.36c-.32-.2-.72-.36-.86-.36s-.47-.16-.72-.36c-.25-.2-.63-.36-.85-.36s-.52-.13-.67-.29c-.16-.14-.59-.32-.95-.38-.38-.07-.95-.27-1.28-.45s-.92-.38-1.35-.43c-.41-.07-1.15-.29-1.65-.52-.49-.22-1.51-.49-2.25-.61-.74-.13-2.03-.38-2.88-.56-.85-.18-2.21-.4-3.06-.45-.85-.07-2.45-.23-3.56-.38-2.57-.32-4.37-.32-8.31.02-3.51.31-4.33.41-8.18,1.15-.49.09-1.22.22-1.62.29-.94.16-1.71.45-1.71.65,0,.09-.27.16-.61.16s-.67.07-.72.16c-.05.09-.4.22-.74.27-.34.05-.92.16-1.26.22-.34.05-.63.16-.63.23,0,.09-.47.25-1.03.4-.58.13-1.21.38-1.38.56-.2.18-.47.32-.59.32s-.23.07-.23.14c0,.09-.4.27-.9.4-.49.13-.9.31-.9.4,0,.07-.23.14-.52.14s-.65.11-.77.23-.7.47-1.26.76c-.58.29-1.04.59-1.04.67s-.13.14-.29.14c-.32,0-1.64.68-2.01,1.03-.13.13-.49.34-.81.5-.32.14-.86.5-1.21.81-.34.29-.74.54-.85.54-.13,0-.23.09-.23.18,0,.11-.14.18-.32.18s-.5.2-.7.43c-.2.23-.63.58-.94.76-.31.18-.56.4-.56.47s-.11.14-.25.14-.83.56-1.51,1.24c-.7.68-1.38,1.31-1.55,1.4-.36.2-2.91,2.5-3.42,3.08-.22.23-.7.76-1.1,1.17-.41.41-.94,1.04-1.17,1.38s-.56.76-.72.9c-.23.22-1.12,1.33-1.65,2.07-.07.11-.5.63-.95,1.17-.43.54-.95,1.29-1.12,1.65-.18.38-.38.68-.45.68-.09,0-.14.16-.14.34s-.11.38-.23.43c-.38.14-1.56,2.01-1.56,2.45,0,.22-.07.38-.18.38-.09,0-.18.09-.18.18,0,.11-.32.72-.72,1.37-.4.65-.72,1.26-.72,1.35s-.07.31-.18.49c-.38.7-.9,1.92-.9,2.14,0,.13-.07.23-.18.23-.09,0-.18.11-.18.25,0,.22-.25.79-.92,2.12-.09.18-.16.47-.16.65,0,.2-.13.61-.29.92l-.29.59-1.1-.13c-.61-.07-3.29-.13-5.97-.13-4.51-.02-7.41.2-8.27.56-.2.09-.97.34-1.71.58-.74.22-1.42.47-1.53.56-.09.07-.34.14-.58.14s-.41.09-.41.18c0,.11-.27.18-.61.18s-.68.09-.74.18c-.05.11-.27.18-.47.18-.18,0-.34.05-.34.14,0,.07-.56.41-1.26.76-.68.34-1.26.68-1.26.77,0,.07-.16.13-.34.13-.2,0-.47.16-.59.34-.14.2-.47.45-.74.58-.27.13-.49.29-.49.38,0,.07-.13.14-.29.14s-.43.14-.59.32c-.16.18-.7.61-1.2.97-.5.38-1.06.88-1.26,1.13-.18.25-.49.45-.65.45-.18,0-.32.05-.32.14,0,.11-.49.7-1.69,2.01-.22.25-.68.81-1.03,1.26s-.67.85-.72.9c-.23.22-1.24,1.78-1.24,1.94,0,.11-.11.22-.25.27-.14.05-.54.67-.88,1.35-.74,1.44-1.08,2.07-1.22,2.19-.05.05-.29.72-.54,1.47-.23.77-.49,1.4-.56,1.4-.09,0-.14.14-.14.32,0,.2-.13.61-.29.94-.29.56-.4.94-.81,2.61-.41,1.71-.54,2.21-.7,3.13-.31,1.71-.7,2.72-1.1,2.72-.18,0-.34.09-.34.18,0,.11-.11.18-.23.18-.32,0-1.21.43-1.21.59,0,.07-.09.13-.22.13-.41,0-1.58.61-1.58.85,0,.13-.14.23-.34.23-.18,0-.52.14-.76.34-.23.18-.67.45-.97.61-.29.14-.83.54-1.17.88-.36.32-.95.85-1.35,1.13-.99.76-2.25,2-2.25,2.23,0,.11-.11.2-.25.2-.13,0-.56.38-.94.86-.38.47-.81.97-.97,1.11-.14.14-.49.56-.74.9-.27.34-.65.83-.86,1.06-.2.23-.38.49-.38.56s-.2.36-.45.65c-.25.29-.45.59-.45.67s-.2.34-.45.59c-.25.25-.5.7-.58.99-.05.29-.16.52-.25.52s-.16.16-.16.36-.07.36-.18.36c-.09,0-.18.11-.18.23,0,.32-.43,1.21-.58,1.21-.09,0-.14.13-.14.29,0,.14-.13.4-.27.54s-.31.56-.38.94c-.07.36-.18.7-.23.76-.07.05-.31.7-.56,1.44-.23.74-.56,1.64-.72,1.98-.18.34-.36,1.08-.43,1.62-.54,4.46-.65,5.58-.74,7.55-.09,2.09.04,4.44.45,7.73.4,3.2.32,2.86.99,4.37.16.38.34.97.4,1.31.05.34.18.67.25.72.09.05.16.29.16.54,0,.23.05.43.14.43.07,0,.23.31.36.68.59,1.64.67,1.83.79,1.83.09,0,.14.11.14.23s.14.4.32.59c.18.18.59.85.92,1.44.32.61.9,1.46,1.3,1.89.38.43.7.88.7,1.01s.05.23.14.23c.07,0,.29.25.49.54s.45.54.54.54c.11.02.49.5.88,1.08.38.59.79,1.08.9,1.08.13,0,.4.18.59.41.2.22.72.68,1.13,1.03.43.34.97.81,1.19,1.04.23.22.5.4.59.4.11,0,.27.16.38.36.11.2.29.36.41.36s.34.16.49.36c.14.2.4.36.58.36s.32.07.32.14c0,.09.22.27.5.41.27.14.65.4.83.58.2.16.47.31.59.31s.23.09.23.18c0,.11.13.18.27.18s.27.09.27.18c0,.11.25.18.54.18.31,0,.72.16.94.36.22.2.54.36.7.36.18,0,.38.09.43.18.05.11.27.18.47.18.18,0,.34.09.34.18,0,.11.2.18.45.18s.63.16.83.34c.22.2.76.38,1.21.43,1.21.14,2.05.31,2.46.49.2.09.72.2,1.17.25.45.05,1.26.18,1.8.27,2.1.41,6.3.59,11.51.49,3.38-.05,5.32-.16,5.36-.29.04-.09.18-.18.32-.18s.31-.23.38-.54c.05-.29.16-.54.25-.54s.16-.27.16-.58c0-.32.16-1.03.36-1.55.2-.52.36-1.22.36-1.56s.07-.63.14-.63c.22,0,.58-.85.58-1.35,0-.25.05-.45.14-.45.18,0,.58-1.33.58-1.98,0-.29.07-.54.14-.54.2,0,.58-.81.58-1.19,0-.16.14-.5.34-.76.18-.27.43-.81.58-1.21.14-.4.29-.76.34-.81.05-.05.2-.41.32-.81.32-.99.61-1.56.99-1.96.16-.2.31-.47.31-.59s.09-.23.18-.23c.11,0,.18-.16.18-.36s.09-.36.18-.36c.11,0,.18-.23.18-.54,0-.29.09-.54.18-.54.11,0,.18-.11.18-.23s.14-.4.32-.59c.16-.18.5-.72.76-1.19.25-.49.5-.86.58-.86.09,0,.14-.16.14-.36s.07-.36.14-.36.41-.47.76-1.03c.34-.58.76-1.17.94-1.33.18-.16.32-.47.32-.7,0-.22.27-.65.59-.97.83-.77,1.56-1.78,1.56-2.14,0-.18.13-.31.27-.31s.27-.07.27-.18c0-.09.27-.45.59-.77.31-.34.68-.83.83-1.08.14-.27.32-.49.41-.49.07,0,.34-.31.59-.68.25-.4.67-.81.9-.94.25-.13.45-.36.45-.49,0-.32,3.72-4.01,4.07-4.01.14,0,.25-.13.25-.27,0-.29.77-1.17,1.03-1.17.07,0,.67-.49,1.31-1.08.65-.59,1.22-1.08,1.3-1.08.09,0,.45-.29.81-.63.36-.34.74-.63.81-.63s.41-.29.76-.63c.36-.34.76-.63.92-.63.14,0,.27-.05.27-.13,0-.09.32-.31.72-.49.4-.2.72-.45.72-.59,0-.13.14-.23.32-.23s.43-.16.58-.36c.14-.2.4-.36.58-.36s.32-.07.32-.18c0-.09.14-.18.32-.18s.43-.16.58-.36c.14-.2.43-.36.63-.36s.65-.25.99-.54c.34-.29.74-.54.86-.54.11,0,.22-.07.22-.18,0-.09.16-.18.36-.18s.36-.05.36-.13c0-.16.86-.59,1.19-.59.31,0,1.69-.76,1.69-.94,0-.07.16-.14.36-.14s.36-.07.36-.18c0-.09.13-.18.27-.18s.54-.16.9-.36.88-.36,1.17-.36.63-.11.76-.23c.22-.23.92-.58,2.12-1.06.25-.11.59-.25.76-.34.18-.09.52-.16.76-.16.25,0,.5-.07.56-.18.05-.11.27-.18.47-.18.18,0,.49-.07.67-.16.76-.38,2.41-.94,3.9-1.31.9-.23,1.65-.47,1.67-.54.04-.09.56-.14,1.13-.14s1.06-.07,1.06-.16c0-.16.59-.31,2.12-.49.41-.07.76-.16.76-.25,0-.07.83-.2,1.85-.27,1.01-.05,2.64-.23,3.63-.38,2.64-.38,9.73-.52,12.86-.25,4.37.36,4.68.4,4.68.54,0,.09.59.2,1.31.25,2.03.14,3.72.4,4.86.72.58.16,1.28.29,1.56.29.31,0,.54.09.54.18,0,.11.23.18.52.18.31,0,.59.09.65.18.05.11.4.18.74.18.59,0,3.69.9,4.42,1.28.18.09.52.16.76.16.25,0,.5.09.56.18.05.11.31.18.56.18.23,0,.43.07.43.16,0,.2.97.38,2.66.5,1.12.07,1.29.04,1.29-.22,0-.16.16-.63.36-1.03.2-.41.36-1.03.36-1.35s.07-.59.14-.59c.25,0,.58-.86.58-1.49,0-.32.07-.67.16-.76.09-.11.32-.63.52-1.17.2-.54.61-1.47.92-2.07.31-.59.56-1.22.56-1.38,0-.18.07-.32.14-.32.09,0,.29-.29.45-.63.16-.36.43-.68.58-.74.14-.07.27-.23.27-.36,0-.14.16-.43.36-.65.2-.22.36-.58.36-.81,0-.25.11-.41.27-.41.14,0,.27-.07.27-.18,0-.09.29-.45.63-.79.34-.36.63-.7.63-.79s.32-.41.72-.74c.4-.31.72-.68.72-.83s.13-.27.27-.27.36-.16.49-.36c.13-.2.29-.36.36-.36s.43-.31.81-.67c.38-.38.9-.79,1.19-.94.27-.14.49-.32.49-.41,0-.07.14-.14.32-.14.2,0,.49-.16.67-.36.18-.2.41-.36.52-.36.13,0,.32-.16.47-.36.14-.2.4-.36.58-.36s.32-.07.32-.18c0-.09.16-.18.36-.18s.36-.07.36-.18c0-.09.16-.18.36-.18s.36-.05.36-.13c0-.16.86-.59,1.17-.59.11,0,.31-.16.45-.36.14-.22.47-.36.76-.36.27,0,.5-.07.5-.18,0-.09.16-.18.34-.18.2,0,.41-.07.47-.18s.43-.18.81-.18,1.06-.16,1.53-.36c.47-.2,1.1-.36,1.42-.36s.65-.07.76-.16c.09-.09.81-.22,1.6-.25.79-.05,2.09-.18,2.88-.29,1.56-.22,5.67-.09,5.67.18,0,.09.65.16,1.44.16.85,0,1.44.07,1.44.18s.4.18.9.18.9.09.9.18c0,.11.16.18.34.18.2,0,.41.09.47.18.05.11.4.18.74.18s.61.09.61.18c0,.11.25.18.54.18.31,0,.54.09.54.18,0,.11.25.18.54.18.31,0,.54.05.54.14,0,.14.88.58,1.21.58.13,0,.23.05.23.14,0,.07.27.23.59.36,1.24.5,2.28,1.03,2.28,1.17,0,.07.09.13.2.13.22,0,1.85,1.08,1.92,1.3.04.07.16.14.31.14.2,0,1.19.81,3.29,2.72.41.38.76.81.76.97,0,.14.11.27.23.27.27,0,1.92,1.55,1.92,1.82,0,.11.18.41.41.68.22.27.56.72.76.99.2.29.45.61.56.72.13.13.43.67.7,1.21.27.54.54,1.01.61,1.06.22.18.56.9.56,1.17,0,.14.09.27.18.27.11,0,.18.16.18.36s.07.36.14.36.25.49.38,1.08c.14.59.29,1.08.36,1.08.14,0,.56,1.33.56,1.8,0,.2.07.36.16.36.07,0,.22.47.29,1.04.07.56.22,1.6.31,2.28.27,1.8.27,5.9,0,7.37-.13.7-.27,1.55-.31,1.89-.14.92-.5,2.05-.68,2.18-.09.05-.34.77-.58,1.58-.4,1.35-.85,2.34-2.09,4.69-.23.45-.52.92-.65,1.04s-.36.47-.54.76c-.16.31-.38.54-.45.54s-.25.23-.41.54c-.45.86-3.85,4.12-5.41,5.18-.4.25-.81.56-.94.68-.11.13-.38.29-.58.34-.2.05-.36.2-.36.29s-.09.16-.2.16-.54.25-.97.54c-.43.31-.92.54-1.06.54-.16,0-.29.07-.29.16s-.29.22-.63.27c-.34.07-.68.23-.76.36-.09.13-.31.27-.5.32-.2.05-.92.32-1.62.58-.68.25-1.42.47-1.62.47-.22,0-.45.07-.56.14-.09.09-.72.25-1.42.38-.68.13-1.87.38-2.61.56-.74.18-2.01.38-2.82.45l-4.07.14.24.82h0Z"/>
  <path class="st1" d="M204.73,63.13h0c.14.25,2.97-.04,3.76-.38.2-.09.65-.2.99-.23.34-.04.99-.2,1.44-.36.45-.16,1.17-.38,1.62-.49.45-.13,1.1-.38,1.46-.56.34-.18,1.17-.43,1.83-.56.67-.13,1.2-.29,1.2-.36,0-.09.2-.14.43-.14.25,0,.5-.07.56-.18.05-.09.5-.18.97-.18.61,0,.99-.11,1.28-.36.23-.2.61-.36.85-.36s.56-.07.74-.16c.16-.09.77-.31,1.35-.47.58-.16,1.15-.41,1.29-.56.13-.14.34-.25.45-.25.49,0,1.49-1.74,1.73-2.99.14-.77-.5-3.13-.86-3.13-.09,0-.14-.13-.14-.29,0-.36-.43-.79-.79-.79-.16,0-.29-.07-.29-.16,0-.4-2.72-.54-4.23-.23-2.18.47-4.66,1.17-4.73,1.35-.04.07-.23.13-.45.13-.2,0-.83.14-1.37.34-.56.18-1.46.43-2,.56-1.17.25-2.21.59-2.34.74-.05.05-.43.16-.86.23-.41.05-1.37.32-2.1.56-.72.25-1.53.45-1.78.45s-.5.09-.56.18c-.05.11-.23.18-.38.18-.36,0-1.87,1.51-1.87,1.87,0,.16-.07.29-.18.29-.32,0-.22,3.18.13,4.15.18.49.4.88.49.88s.29.14.45.32c.4.43,1.03.76,1.44.76.2,0,.41.09.49.2h0Z"/>
  <path class="st1" d="M191.13,48.72h0c0,.11.77.18,1.98.18s1.98-.07,1.98-.18c0-.09.13-.18.29-.18.18,0,.7-.4,1.17-.9.47-.49.94-.9,1.04-.9.27,0,1.1-.88,1.1-1.17,0-.14.09-.27.18-.27.11,0,.18-.16.18-.36,0-.23.13-.36.32-.36.18,0,.45-.23.63-.52.38-.63,1.3-1.64,1.51-1.64.16,0,1.13-1.04,1.13-1.2,0-.05.22-.32.5-.58.27-.27.59-.7.74-.95.13-.27.49-.58.76-.7.32-.13.52-.34.52-.54s.11-.34.23-.34c.32-.02,1.21-.85,1.21-1.17,0-.14.13-.27.27-.27s.27-.07.27-.16.43-.59.97-1.13c.52-.54.99-1.08,1.03-1.17.14-.38,1.62-1.85,1.85-1.85.13,0,.34-.22.49-.49.14-.29.72-.97,1.3-1.53.56-.56,1.03-1.11,1.03-1.22,0-.13.22-.43.5-.7.27-.25.59-.65.72-.88.27-.49.31-4.17.04-4.17-.09,0-.18-.23-.18-.5,0-.56-1.01-1.65-1.51-1.65-.14,0-.32-.07-.38-.18-.05-.09-.31-.18-.56-.18-.23,0-.43-.07-.43-.18,0-.25-2.01-.22-2.88.04-.4.13-.72.29-.72.36,0,.09-.14.14-.34.14-.18,0-.61.31-.94.68-.34.38-1.12,1.26-1.74,1.96-.63.7-1.6,1.76-2.16,2.36-1.42,1.49-2.01,2.16-2.01,2.34,0,.09-.2.27-.45.4-.23.13-.49.38-.56.58-.05.18-.22.32-.38.32-.29,0-2.21,1.89-2.21,2.18,0,.27-1.58,2.07-3.51,4.01-.88.9-1.91,1.98-2.25,2.41-.34.41-.74.76-.85.76-.13,0-.23.07-.23.16s-.32.52-.72.95c-.38.41-.81.88-.92,1.03-.7.79-.95,3.76-.43,5,.32.76,1.71,2.21,2.14,2.21.16,0,.29.09.29.18h0Z"/>
  <path class="st1" d="M174.22,36.49h0c0,.27,3.35.23,3.81-.04.67-.4,1.89-1.65,2.03-2.12.07-.23.25-.54.38-.68.14-.13.25-.56.25-.95s.09-.86.18-1.06c.11-.2.27-.52.36-.72.11-.2.18-.54.18-.77,0-.22.16-.72.36-1.12.2-.4.36-.94.36-1.2s.05-.5.14-.5c.16,0,.58-1.71.58-2.39,0-.27.05-.49.14-.49.16,0,.58-1.31.58-1.87,0-.25.09-.5.18-.56.11-.05.18-.27.18-.49,0-.43.49-2.01.83-2.7.14-.25.25-.74.25-1.1s.09-.7.18-.76c.11-.07.18-.95.18-2.07s-.07-2-.18-2.07c-.09-.05-.18-.27-.18-.47,0-.7-1.19-1.49-2.66-1.8-1.33-.27-3.08,0-3.69.58-.2.18-.43.34-.5.34-.29,0-.88,1.26-1.51,3.15-.34,1.1-.72,2.14-.81,2.34-.14.34-.29.95-.47,2.25-.05.34-.16.79-.23.99-.09.2-.5,1.46-.92,2.79-.41,1.33-.83,2.57-.92,2.73-.09.18-.16.54-.16.81,0,.45-.22,1.26-.56,2.12-.18.49-.34,1.21-.56,2.75-.25,1.8.11,3.38,1.01,4.28.34.34.74.61.9.61s.29.09.29.18Z"/>
  <path class="st0" d="M83.58,230.23c.2-.29,1.33-1.51,2.52-2.73l1.8-1.87c.21-.28.31-.47.35-.62,1-1.48.84-1.48,1-1.48.09,0,.56-.45,1.06-.99.47-.52.93-.95,1.06-.99.05-.13.14-.17.32-.18.06-.05.11-.09.16-.12.03-.03.06-.06.09-.08.11-.12.23-.23.36-.35.05-.14.14-.22.29-.27.26-.24.52-.47.77-.66.03-.04.06-.07.12-.09.32-.25.59-.45.75-.53.04-.15.14-.21.35-.23.03-.08.24-.28.58-.56.04-.08.1-.13.18-.15.17-.14.36-.29.58-.45.07-.15.21-.25.37-.28.15-.11.3-.22.46-.34.03-.11.12-.2.24-.2.01,0,.03,0,.04,0,.09-.07.19-.14.29-.21.01-.02.02-.04.03-.06.04-.12.19-.2.39-.25.28-.2.56-.4.84-.59.04-.09.12-.15.21-.15h.01c.11-.07.21-.15.32-.22.01-.02.02-.03.03-.05.05-.14.22-.27.38-.27.03,0,.05,0,.08,0l.18-.12s.01-.03.01-.05c0-.09.11-.18.25-.18.04,0,.07,0,.11-.01.08-.05.15-.1.22-.14.23-.38,3.96-2.64,6.65-4.01.04-.08.12-.12.27-.14.59-.3,1.22-.6,1.87-.9.04-.14.15-.18.42-.19.28-.13.57-.25.86-.38.18-.26.77-.52,1.21-.52.02,0,.03,0,.05,0,.1-.04.2-.08.29-.12.01-.02.02-.04.02-.06,0-.08.25-.17.58-.18.31-.12.62-.24.93-.36.13-.22.43-.33.98-.36.34-.12.67-.24,1-.35.09-.14.28-.23.64-.34.46-.14.83-.21,1.1-.22.34-.1.67-.2.99-.29l.07-.02c.21-.11.5-.22.81-.3.08-.09.24-.12.54-.12.06,0,.12,0,.18,0,.17-.04.33-.09.49-.13,0,0,.01-.02.02-.03.09-.23,4.44-1.22,7.99-1.82,2.49-.41,3.45-.56,3.82-.51.16-.02.32-.04.49-.06.13-.1.41-.16,1-.23,1.06-.11,1.5-.14,1.67-.06.29-.03.57-.05.87-.08.08-.13.28-.16.77-.16.2,0,.36.02.49.05.35-.03.71-.05,1.07-.08.08-.14.32-.16.95-.16.35,0,.59.02.75.05.92-.05,1.87-.1,2.86-.14.1-.08.31-.1.71-.1.19,0,.35.02.48.05l2.85-.1c1.16-.02,1.22.02,1.19.74-.05,1.06-.16,3.27-.22,4.95-.06,1.47-.09,2.22-.16,2.61v.54l.02,3,.05.11c.17.06.24.25.31.69v.07s.25.56.25.56l.04.1s.08.12.11.26c.31.7.68,1.44.88,1.75.19.3.34.6.39.77.06.09.13.19.19.27h0c.09,0,.15.1.17.25.13.16.29.36.48.57.08.04.14.1.18.2.81.91,1.92,2.06,2.37,2.45.1.03.16.07.19.13h0c.06,0,.29.16.54.39.08.03.15.09.18.16.13.12.29.24.45.35.13.01.21.06.25.17.1.07.2.13.28.17.27.14.49.32.49.41,0,.02,0,.04.03.06.04.02.09.05.13.07.02,0,.05,0,.08,0,.13,0,.41.16.63.36.22.2.47.36.58.36.09,0,.18.07.18.14,0,0,0,.02.01.03l.05.03c.36.05.59.17.64.34.26.1.47.23.54.32l.08.04c.38.06.71.23.88.46.07.03.13.07.19.1.21.05.49.14.71.23.16.07.33.16.52.27.15.01.35.09.54.18.05,0,.09.01.12.02.03-.02.07-.03.11-.03.14,0,.27.09.27.22s.22.45.49.72l.42.43.27.23h-.02c.12.11.24.23.37.34.24.19.63.55,1.27,1.17l1.62,1.55h-.08c.37.37.75.74,1.15,1.12l.14.13c.19.07.61.47,1.58,1.41l1.71,1.65h-.09c.18.18.36.35.51.51l.1.1v-.07s.78.65.78.65c.94.81,1.16,1.18.94,1.65h0c0,.11-.04.18-.1.25-.03.04-.07.09-.11.13,0,0-.03.01-.08.02-.15.13-.34.2-.52.2-.08,0-.14,0-.19-.01-.22.01-.4-.03-.43-.12-.26,0-.56.01-.91.02v.11h-2.34v-.09h-.71s-.01,0-.01,0h-.01s-.01,0-.01,0h-.03s-.01,0-.01,0h-.01s-.01,0-.01,0h-.01c-.09.07-.24.08-.52.08s-.42,0-.51-.07c-4.07.03-10.36.05-19.61.06-.06,0-.13,0-.2,0s-.14,0-.21,0h-1.7c-.08,0-.16,0-.25,0s-.17,0-.24,0h-2.06c-.07,0-.14,0-.21,0s-.14,0-.21,0c-1.59,0-3.25,0-4.98,0-.07,0-.14,0-.21,0s-.14,0-.2,0c-1.98,0-4.05,0-6.22,0h-.06s-.05,0-.05,0h-2.25s-3.3,0-3.3,0h-2.19c-6.15,0-11.46,0-16.07,0h0s-.05,0-.07,0-.05,0-.07,0h0s0,0,0,0h-2.08c-.06,0-.12,0-.18,0s-.12,0-.18,0h0c-6.53,0-11.5,0-15.27-.02-.09.02-.21.02-.37.02s-.3,0-.39-.02c-1.23,0-2.33,0-3.3-.01v.03h-5.58v-.1h-.18s0,.1,0,.1h-.47s-.02,0-.02,0h-.01s-.64,0-.64,0c-.06,0-.12,0-.18,0-.11,0-.23,0-.35-.02-.41-.03-.73-.1-.82-.19-.13-.13-.19-.27-.21-.44-.02-.06-.02-.12,0-.19,0,0,0-.02,0-.02,0-.03.02-.07.05-.12h0c.09-.3.31-.63.65-1.01l.72-.79v.07c.16-.16.32-.33.5-.52.02-.04.05-.09.1-.14.13-.2,1.42-1.56,2.86-3.08.92-.96,1.53-1.58,1.93-1.96l.37-.4h0l.36-.49h0ZM127.97,239.53h-.08.04s.04,0,.04,0Z"/>
  <path class="st4" d="M135.49,203.93c-.27.1-.76.18-1.65.28-.37.05-.6.07-.74.05l-.49.07s-.08.03-.12.04c-.36.1-.58.13-.71.07h-.05c-.09.02-.18.04-.28.06l-28.44,9.22.02-9.82c0-3.13.02-6,.05-7.6-.01-.72-.02-1.6-.03-2.61-.02-.68-.03-1.81-.03-3.14-.03-.04-.05-.09-.06-.14-.14-.54-.14-2.81,0-3.33.02-.06.05-.13.08-.18.02-2.58.06-5.15.11-6.48,0-.33.02-.63.02-.92,0-.14,0-.27.01-.4h0c-.07-.05-.11-.16-.11-.29-.02-.03-.03-.06-.03-.09h0c0-.32.08-.63.2-.83,0-.12.02-.23.02-.33-.03-.09-.02-.26.03-.55h0c.09-.52.15-.88.21-1.12.02-.08.04-.17.06-.26l.02-.1s0-.02,0-.03c0-.36.17-.98.36-1.39.09-.33.17-.6.22-.75h-.04l.32-.85c.1-.28.21-.5.31-.65-.05-.07.03-.24.18-.61h0c.21-.49.48-1.04.81-1.61,0-.19.43-.87.65-1.08.14-.23.29-.45.45-.68.03-.08.09-.18.17-.29h-.04l.36-.49c.2-.29.65-.83.99-1.22l.63-.72h0s.08-.07.11-.1l.07-.08h0c.1-.11.18-.17.24-.16.12-.12.26-.25.41-.39-.02-.02-.02-.05,0-.07,0,0,0-.01.01-.02h-.01s.05-.04.05-.04c.06-.07.17-.17.3-.27,0,0,0-.02.01-.03.05-.09.34-.34.63-.54l.08-.05c.4-.34.84-.7,1.06-.86l.5-.38v.02s.51-.36.51-.36c.23-.2.4-.3.51-.32.32-.22.67-.43.87-.52.09-.05.17-.1.25-.14.19-.11.43-.24.71-.39.29-.2.67-.42.8-.42,0,0,.02,0,.02.01.1-.05.2-.1.32-.16.01,0,.02,0,.03,0,.88-.42,1.31-.61,1.52-.64.2-.07.38-.11.48-.11.01,0,.02,0,.03,0,.11-.04.23-.07.35-.11.17-.13.48-.23.81-.25.47-.18,1.32-.38,2.42-.57.19-.09.46-.15.73-.15.03,0,.06.01.09.03.03,0,.06,0,.09,0,.09-.01.17-.01.22,0,.08-.01.16-.02.25-.03.2-.11.49-.18.79-.18.01,0,.03,0,.04,0,.11-.01.2,0,.27,0,.07,0,.15-.01.22-.01.01,0,.02,0,.03,0,.05,0,.1,0,.14,0,.01,0,.03,0,.04,0,.11-.01.2,0,.27,0,.07,0,.15-.01.22-.01.02,0,.04,0,.07.02.13-.01.27-.02.42-.02.16,0,.31,0,.45.02.06-.02.13-.02.22,0,.05,0,.11,0,.18,0,.05,0,.11,0,.18,0,.05,0,.11,0,.18,0,.05,0,.11,0,.18,0,.13-.02.34.01.64.09.09.02.16.05.21.08.02,0,.03,0,.05,0,.05,0,.11,0,.18,0,.05,0,.11,0,.18,0,.09-.01.22,0,.39.03.07.01.15.02.25.04,1.04.18,1.83.36,2.34.51.05.01.11.03.17.04.08.02.15.05.2.08.2.02.47.11.73.22v-.04l.85.32c.2.07.37.15.51.22.04.02.08.03.12.05.16.07.29.13.39.19.16.07.28.12.37.16.02-.02.04-.03.07-.02.45.22.76.39.94.51.13.04.41.19.72.38.11.02.28.12.56.28.17.1.29.19.37.26.11.02.28.12.52.32l.53.37c.17.12.3.22.4.3.03.02.07.05.11.08.23.18.46.37.68.55.07.05.12.1.17.14.78.66,1.45,1.31,1.61,1.57.04.06.08.11.1.16h0c.05.05.12.11.18.17h0s.06.06.06.06c.08.08.16.17.23.27,0,0,.02,0,.03,0,.05.04.14.12.25.25.11.08.27.27.48.57l.24.34c.14.11.35.39.66.84l.56.79h-.07s.07.1.1.16c.05.09.09.16.13.23.63.85,2.15,3.98,2.15,4.57,0,.03,0,.05-.02.08.03.06.06.14.09.23.01.05.02.09.03.13.02.06.05.13.07.2.03.06.05.13.08.21.02.09.04.17.06.24v.05c.24.8.36,1.24.38,1.5.03.15.03.26,0,.34l.04.23s.04.1.06.17c.09.34.12.56.08.69,0,.08,0,.14,0,.19,0,.1.01.22.02.34.03.06.06.13.08.22.08.29.11.49.09.62.03.21.03.37,0,.5.04.26.02.43-.07.53.05.85.07,1.72.07,2.62,0,.93-.02,1.62-.05,2.08l.03,4.45c0,1.18,0,2.22,0,3.14.02,1.34.03,3.06.03,4.83v5.75c.03.06.05.12.07.19.07.27.11.5.07.52-.04.04-.56.13-1.19.2-.43.04-.69.07-.86.05-.31.05-.53.03-.66-.06l-.4.02c-.07.05-.17.09-.31.13-.6.16-.98.15-1.14-.02l-.12.02c-.52.05-1.65.11-2.5.11-.07,0-.15,0-.23,0-.24.11-.63.18-1.14.18-.15,0-.27,0-.36-.03-.16.02-.34.03-.54.03s-.34-.01-.43-.05h-.09c-.07.05-.17.09-.29.12-.45.12-.77.15-.98.08-.14.02-.3.03-.46.03-.15,0-.27-.02-.35-.05-.14.01-.29.03-.43.04Z"/>
  <path class="st2" d="M162.18,208.59c.08,2.79.13,9.07.05,9.47-.02.08-.04.15-.05.2,0,3.37-.02,5.84-.04,6.88.07.07.08.18.06.36.01.07.02.14.02.24,0,.41-.06.75-.15.99-.02.34-.05.59-.1.78.05.06.07.14.07.25,0,.36-.04.38-.58.23h0c-.11-.03-.19-.07-.25-.13-.2-.05-.46-.13-.78-.25-.26-.1-.45-.19-.59-.28-.01.04-.02.07-.04.07-.04,0-.61-.29-1.26-.63h0c-.93-.49-1.5-.81-1.75-1.02,0,.01,0,.01,0,.01-.04,0-.45-.27-.94-.61h0c-.23-.16-.47-.33-.67-.49,0,.03,0,.04-.01.04-.04,0-.65-.45-1.35-1.01h0c-.72-.54-1.31-1.03-1.31-1.06,0,0,0-.01.01-.02l-.28-.23h.06c-.62-.57-1.17-1.16-1.67-1.77v.04s-.49-.63-.49-.63h0s-.5-.63-.5-.63h.09c-.19-.29-.36-.58-.53-.87-.08-.06-.17-.2-.28-.42h0c-.14-.29-.29-.56-.32-.63-.01-.03,0-.06.03-.08-.05-.11-.1-.23-.15-.34-.09-.14-.19-.33-.29-.57h0c-.2-.49-.41-1.08-.47-1.35-.04-.21-.05-.33-.02-.41-.13-.62-.22-1.27-.22-1.66,0-.19.05-.31.14-.37,0-.14,0-.29,0-.45-.11-.07-.14-.23-.14-.53h0c0-.52.07-.93.18-1.16.02-.62.04-1.29.07-1.96-.05-.07-.08-.16-.08-.29h0c0-.34.05-.64.13-.85.02-.38.04-.75.07-1.09.03-.59.07-1.27.1-2.05-.08-.08-.11-.22-.11-.47l-.03-.36-.51-1.8s.02,0,.02,0v-1.61s-.02,0-.02,0c-.11,0-.18-.67-.18-1.62s.07-1.57.17-1.62v-1.09c-.09-.04-.17-.31-.17-.63s.07-.57.15-.62l-.02-2.37c-.19-.17-.18-1.41-.01-1.86v-.34c-.16-.22-.16-.86,0-1.14v-.96c-.12-1.51-.16-5.01-.09-7.06-.02-.94-.05-1.71-.09-2.36-.08-.06-.11-.17-.11-.33h0c0-.16-.02-.49-.06-.84-.03-.17-.07-.37-.11-.6h0c-.05-.33-.1-.63-.14-.88-.05-.09-.09-.21-.13-.36h0c-.05-.26-.09-.62-.1-.87v-.05c-.12-.05-.17-.18-.18-.44,0-.02-.02-.05-.02-.07-.08-.03-.15-.27-.16-.55h0c-.03-.09-.06-.17-.08-.25-.05-.06-.08-.14-.09-.26-.03-.08-.06-.15-.08-.23-.04-.04-.07-.12-.08-.22l-.05-.12s-.1-.15-.12-.31c-.05-.11-.09-.23-.14-.34-.05-.09-.11-.22-.16-.37-.05-.11-.1-.22-.15-.33-.18-.17-.36-.52-.43-.86-.03-.06-.06-.12-.1-.18-.02-.03-.04-.06-.06-.1l-.02-.03c-.15-.03-.2-.13-.22-.36-.08-.04-.14-.13-.16-.3l-.05-.09c-.11-.07-.2-.23-.26-.41h0s-.07-.12-.07-.12c-.08-.04-.12-.1-.15-.23l-.07-.11c-.06-.02-.11-.09-.13-.18l-.04-.05c-.1-.04-.15-.12-.15-.21h0s-.06-.09-.09-.13c-.02-.02-.03-.04-.05-.06l-.06-.07s-.06-.05-.08-.11l-.07-.1c-.1-.04-.15-.1-.18-.23-.06-.08-.12-.15-.18-.22-.04-.04-.07-.08-.1-.13-.04-.05-.09-.11-.13-.16-.05-.03-.08-.07-.1-.12l-.02-.03c-.08-.03-.13-.09-.16-.19-.23-.26-.46-.53-.7-.79-.1-.07-.21-.18-.3-.32-.08-.09-.17-.17-.25-.26-.13-.07-.26-.16-.36-.27h0c-.07-.08-.14-.17-.2-.28-.35-.33-.71-.65-1.08-.96-.07-.02-.12-.06-.15-.12l-.1-.08s-.04-.03-.05-.04c-.2-.16-.41-.32-.61-.48-.05-.02-.09-.05-.12-.09-.12-.09-.25-.18-.37-.27-.14-.03-.23-.08-.23-.14h0s0-.01,0-.02c-.08-.05-.15-.11-.23-.16-.01,0-.02,0-.04,0-.1,0-.18-.06-.22-.17-.11-.07-.22-.14-.33-.21-.12-.02-.18-.06-.22-.14-.15-.09-.29-.18-.44-.26-.38-.11-.83-.34-.86-.47l-.05-.03c-.14-.02-.22-.05-.26-.13-.05-.03-.11-.05-.16-.08-.02,0-.03,0-.05,0-.24-.04-.53-.18-.7-.31-.23-.01-.33-.06-.37-.18l-.11-.05c-.21-.02-.4-.05-.49-.08h0c-.11-.03-.19-.1-.25-.2-.06-.02-.12-.04-.18-.06-.22-.01-.45-.04-.65-.1-.11-.03-.19-.1-.24-.19-.11-.03-.21-.06-.31-.09-.38-.04-.88-.13-1.51-.27h0c-.07-.02-.14-.03-.2-.04-.12,0-.21-.03-.27-.06-.16-.04-.29-.07-.39-.11h0c-.28,0-.44-.02-.53-.09-.22-.03-.41-.07-.57-.1-.05,0-.1,0-.16,0-.04,0-.08,0-.11,0-.02,0-.05,0-.07,0-.04,0-.08,0-.11,0-.02,0-.05,0-.07,0-.25,0-.41-.02-.51-.07-.35-.01-.72-.02-1.11-.02-.32,0-.63,0-.94.02-.1.05-.25.07-.5.07-.04,0-.07,0-.1,0-.05,0-.11,0-.17,0-.05,0-.09,0-.13,0-.03,0-.06,0-.09,0-.33.03-.66.07-.99.11-.06.03-.14.05-.26.06-.25.07-.61.15-1.1.24-.54.1-.95.18-1.27.22-.11.03-.22.06-.32.09-.05.1-.16.15-.38.17-.15.07-.38.13-.67.16-.08.03-.15.05-.23.08-.06.09-.18.13-.36.13-.06.02-.13.05-.19.07-.05.05-.12.08-.25.1l-.04.02c0,.08-.18.14-.41.17-.18.07-.36.15-.53.23-.05.06-.14.1-.27.12l-.09.04c-.04.09-.13.13-.3.14l-.05.03c-.04.1-.13.14-.31.15l-.04.02c-.05.1-.14.2-.26.24-.1.04-.22.07-.35.09l-.13.07s-.09.07-.16.09c-.13.07-.25.15-.37.22-.05.12-.13.18-.23.18-.03,0-.06,0-.08,0l-.07.04s-.06.05-.11.07c0,.02-.02.04-.02.06,0,.07-.13.13-.33.16l-.08.05c-.03.06-.09.1-.18.12-.14.09-.27.19-.41.28-.04.04-.08.07-.12.09-.03.11-.11.16-.25.18l-.09.07s-.06.06-.11.09c-.06.05-.12.09-.18.14-.04.09-.11.14-.21.17-.17.14-.34.27-.51.41-.06.07-.13.13-.2.17l-.07.06c-.03.06-.07.1-.15.13h-.01c-.02.1-.08.15-.19.18-.03.11-.09.16-.21.19-.49.45-.96.93-1.41,1.43-.03.1-.07.15-.16.18l-.03.04c-.02.07-.06.11-.12.14l-.09.11s-.02.02-.03.03c-.22.26-.44.53-.66.81-.02.05-.05.08-.08.11-.16.21-.31.42-.47.63-.02.04-.04.06-.06.08-.04.05-.07.1-.11.15,0,.02-.02.03-.03.04-.05.08-.11.16-.16.23-.03.1-.07.17-.12.18-.06.1-.13.19-.19.29,0,.09-.06.17-.14.21-.15.23-.29.47-.43.71-.05.28-.16.48-.31.55l-.04.08c-.02.15-.05.28-.09.38-.03.09-.12.16-.23.22l-.04.07c-.03.34-.13.54-.31.64l-.06.14c-.03.15-.07.26-.13.29l-.04.09c-.02.12-.06.22-.11.26-.02.05-.04.11-.06.16,0,.17-.04.27-.12.33-.03.07-.05.14-.08.21-.02.17-.04.36-.09.53-.03.11-.09.2-.17.27-.28.91-.52,1.9-.71,2.87-.03.39-.09.71-.14.87.03.1.05.25.05.43,0,.39-.04.55-.19.61-.02.44-.03,1.02-.04,1.7.04.34.06.94.06,1.92,0,1.12-.01,1.73-.07,2.05,0,.71,0,1.5,0,2.34.06.28.08.83.08,1.82,0,1.09-.02,1.65-.1,1.89,0,.46,0,.92,0,1.37.09.89.11,3.23.11,8.77,0,5.09.05,9.37.11,9.53l.05,2.73s.02.11.02.18c0,.03,0,.05-.02.08v.67c-3.24,2.18-6.82,4.62-9.78,7.01-.36.3-.72.6-1.1.91-.54.46-1.05.92-1.52,1.37-.23.22-.45.42-.65.6,0,.11-.19.29-.61.59l-.54.38v-.03c-.32.21-.54.29-.67.25h0c-.16-.06-.22-3.66-.23-16.5v-.1s0,0,0,0c0-1.94,0-4.08,0-6.46,0-10.99.04-20.52.09-23.14-.07-.08-.09-.23-.09-.48h0c0-.19,0-.36.02-.51-.02-.04-.02-.08-.02-.12h0c0-.08,0-.15,0-.22,0-.02,0-.03,0-.05h0s0-.1,0-.14c0-.01,0-.02,0-.04h0c0-.15.02-.29.05-.42.01-.08.02-.18.04-.3.07-.49.12-.84.18-1.1.03-.19.06-.4.1-.64,0-.06,0-.12.02-.17-.01-.02-.02-.05-.02-.07h0s0-.05,0-.08c0,0,0,0,0-.01h0s0-.03,0-.07c0-.1.02-.2.05-.29.05-.29.13-.72.22-1.19.14-.77.27-1.46.27-1.49,0-.02.02-.03.06-.04.04-.14.08-.26.14-.35.03-.15.09-.4.16-.68.01-.34.11-.65.24-.83.02-.06.04-.12.06-.17.06-.19.12-.39.19-.59.02-.05.03-.09.05-.14,0-.02-.01-.05-.01-.08h0c0-.23.12-.54.26-.75,0-.08.06-.22.15-.44.05-.13.1-.23.15-.32h-.03l.18-.45s0-.01,0-.02h0c0-.24.13-.57.29-.78.24-.6.44-1.05.61-1.35l.02-.05h0c.16-.42.44-.99.71-1.44.06-.21.46-.93.76-1.4.1-.23.33-.59.5-.81.07-.23.38-.73.59-.96.09-.14.2-.31.33-.48h-.05l.38-.54h0c.16-.23.29-.39.39-.49l.35-.48c.31-.45.79-1.08,1.08-1.4l.5-.59v.02c.17-.19.35-.4.52-.6l.04-.05c.27-.39.45-.59.56-.61l.34-.38v.02c.24-.25.51-.52.77-.75l.02-.02s0-.03.01-.05c.02-.04.1-.11.19-.2.03-.04.1-.11.18-.18.08-.1.35-.33.62-.52l.28-.2h0s-.01,0-.01,0l.05-.04c.06-.07.17-.17.3-.27,0,0,0-.02.01-.03.02-.04.1-.11.2-.2.18-.23,1.14-.96,2.26-1.76.08-.06.16-.12.24-.18l.81-.58v.02c.37-.25.74-.5,1.08-.73.04-.03.09-.07.14-.1.03-.02.06-.04.09-.06.82-.54,1.46-.92,1.6-.92,0,0,0,0,0,0,.26-.17.57-.33.72-.36.23-.12.43-.22.56-.29.23-.13.49-.26.74-.36.28-.19.73-.41,1.25-.61l.06-.02c.13-.07.29-.14.44-.19l.85-.32v.04c.28-.11.65-.24,1.15-.41.27-.13.67-.27,1.15-.42.9-.27,1.4-.41,1.68-.44.2-.12.51-.21.84-.21,0,0,0,0,.01,0,.35-.12,1.07-.27,2.51-.54.46-.09.76-.14.95-.16.1-.02.2-.02.31-.02.01,0,.02,0,.04,0,.05,0,.1,0,.14,0,.03,0,.06.01.09.04.23-.03.35-.02.42.03.08,0,.16-.02.24-.02.07-.05.15-.09.24-.12.35-.09.6-.13.77-.09.07,0,.15-.01.22-.01.01,0,.02,0,.04,0,.05,0,.1,0,.14,0,.04,0,.08.02.11.06.29-.02.52-.02.59.02.2,0,.39-.02.59-.02h.2c.1-.06.22-.11.35-.14.55-.12,1.24-.05,1.57.13.38,0,.76.02,1.14.04.07,0,.14,0,.22,0,.06-.07.17-.09.33-.07.05,0,.12,0,.2,0,.17-.04.43,0,.8.09.12.03.21.07.28.12h.05c.08-.04.2-.05.38-.02h.04s.1,0,.17,0c.13-.05.35-.01.7.08.06.02.11.04.16.06.34.06.58.11.75.16l.36.06c.13-.05.35-.02.7.08.12.03.21.07.27.12.08.01.16.03.27.04.12.02.3.06.51.11.11.02.23.04.39.08.06.02.11.03.15.05.23.06.49.13.75.2.15,0,.34.05.57.16.69.2,1.38.42,1.87.59.12.04.22.08.31.12.07.02.15.05.25.08.15.05.29.11.4.17.04.01.09.03.13.04.07-.03.22.03.5.14.15.06.27.12.36.18.6.24,1.23.58,1.55.81.04.02.09.05.13.07.09-.03.27.05.63.24.09.05.17.09.23.13.08.03.2.09.35.17.08.04.21.1.36.18.09.03.21.09.38.19.11.04.27.13.5.26.15.09.26.17.34.23h0l.63.4h0c.81.4,5.07,3.66,5.64,4.35.06.07.1.12.12.16l.53.47h-.02c.1.1.19.19.27.27l.07.08s.02.02.03.03c.08.06.2.18.32.32.01.01.03.02.04.04.16.13.45.47.65.76l.31.43c.06,0,.14.07.25.19.06.06.12.14.21.23.16.12.41.44.82,1.01l.5.71c.54.73,1.1,1.52,1.5,2.11.02.03.04.06.06.09.18.28.33.5.4.65.49.73,1.33,2.18,1.33,2.36h0c.4.74.76,1.45.88,1.78l.02.05c.16.29.36.73.59,1.3.04.05.08.12.12.2.13.26.19.47.17.63l.16.4s.02.03.03.05c.13.26.19.48.17.64.06.12.12.27.18.44h0c.09.19.15.35.17.48.05.15.1.32.16.49.28.91.45,1.46.51,1.79.05.19.06.34.05.44l.02.06c.03.07.05.15.08.24.06.07.12.18.17.34.09.35.12.56.08.69.06.32.13.69.21,1.13l.04.24s.02.06.03.1c.09.33.12.55.08.67,0,.03,0,.06,0,.09.03.19.02.33-.01.43,0,.06.01.13.02.19.03.06.06.14.09.23.08.3.11.49.09.63,0,.07,0,.13,0,.18.02.16.02.29-.01.38.04.06.07.15.1.25.08.3.11.49.09.63.01.1,0,.17-.01.23.02.17.03.37.03.58,0,.16,0,.28-.02.38.03.19.01.31-.05.38,0,.42-.02.69-.1.86.08,3.83.09,9.81.12,19.91,0,2.05.02,4.07.02,6.02,0,.16,0,.33,0,.48,0,.69,0,1.36,0,2.03h0ZM88.47,225.48h0c0,.32.04.34.18.13.23-.34.23-.54,0-.54-.09,0-.18.18-.18.41Z"/>
</svg>
