<svg width="250" height="238.673" xmlns="http://www.w3.org/2000/svg" xmlns:svg="http://www.w3.org/2000/svg" version="1.1">
 <!-- Generator: Adobe Illustrator 29.4.0, SVG Export Plug-In . SVG Version: 2.1.0 Build 152)  -->
 <defs>
  <style>.st0 {
        fill: url(#linear-gradient1);
      }

      .st0, .st1, .st2, .st3, .st4 {
        fill-rule: evenodd;
      }

      .st1 {
        fill: #f78e1e;
      }

      .st2 {
        fill: url(#linear-gradient3);
      }

      .st3 {
        fill: url(#linear-gradient);
      }

      .st4 {
        fill: url(#linear-gradient2);
      }</style>
 </defs>
 <g class="layer">
  <title>Layer 1</title>
  <g id="svg_8" transform="translate(0 1) translate(4 5) translate(0.97432 -0.999137) matrix(0.579752 0 0 0.579752 -0.172895 0.97122)">
   <path class="st3" d="m314.01,231.08l0,-0.38c0,-1.02 -0.03,-1.02 -1.6,-1.23c-0.89,-0.09 -2.1,-0.19 -2.62,-0.19c-0.55,0 -1.02,-0.12 -1.02,-0.31c0,-0.15 -0.25,-0.31 -0.56,-0.31s-1.14,-0.28 -1.85,-0.62c-0.68,-0.34 -1.45,-0.62 -1.67,-0.62s-0.96,-0.49 -1.63,-1.11c-0.68,-0.59 -1.6,-1.33 -2.07,-1.6c-0.49,-0.28 -0.86,-0.62 -0.86,-0.74c0,-0.62 -2.1,-3.27 -2.84,-3.61c-0.46,-0.22 -1.02,-0.86 -1.26,-1.51c-0.52,-1.23 -5.09,-6.23 -5.74,-6.23c-0.19,0 -0.43,-0.22 -0.52,-0.46c-0.09,-0.25 -0.43,-0.52 -0.77,-0.62c-0.31,-0.12 -0.59,-0.34 -0.59,-0.55c0,-0.46 -3.98,-4.29 -5.74,-5.49c-0.8,-0.52 -1.91,-1.51 -2.47,-2.13c-0.59,-0.65 -1.48,-1.33 -1.97,-1.54c-0.52,-0.22 -0.93,-0.49 -0.93,-0.62c0,-0.15 -0.59,-0.52 -1.3,-0.89c-0.74,-0.34 -1.79,-1.05 -2.34,-1.57c-0.56,-0.49 -1.23,-0.93 -1.48,-0.93s-0.68,-0.28 -0.96,-0.62c-0.31,-0.34 -0.68,-0.62 -0.83,-0.62s-0.59,-0.28 -0.93,-0.59c-0.55,-0.52 -3.02,-1.91 -5.89,-3.36c-0.49,-0.28 -0.99,-0.56 -1.08,-0.68c-0.18,-0.22 -1.85,-0.99 -3.7,-1.73c-0.77,-0.28 -1.6,-0.71 -1.88,-0.96c-0.25,-0.22 -0.77,-0.4 -1.11,-0.4s-0.8,-0.22 -1.02,-0.46c-0.22,-0.25 -0.65,-0.46 -0.96,-0.46c-0.34,0 -0.59,-0.12 -0.59,-0.31c0,-0.15 -0.34,-0.31 -0.74,-0.31c-0.43,0 -0.86,-0.12 -0.96,-0.31c-0.09,-0.15 -0.49,-0.31 -0.89,-0.31c-0.37,0 -0.8,-0.12 -0.99,-0.25c-0.15,-0.15 -1.17,-0.59 -2.28,-0.96c-1.11,-0.37 -2.41,-0.89 -2.87,-1.14c-0.46,-0.28 -1.6,-0.56 -2.53,-0.65s-1.7,-0.31 -1.7,-0.43c0,-0.15 -0.46,-0.28 -1.05,-0.28s-1.14,-0.12 -1.23,-0.25c-0.12,-0.25 -1.73,-0.65 -4.19,-1.11c-0.43,-0.09 -1.33,-0.31 -2,-0.49c-0.68,-0.22 -2.28,-0.49 -3.55,-0.62c-1.26,-0.15 -4.19,-0.59 -6.48,-0.96c-2.5,-0.4 -5.58,-0.68 -7.71,-0.68c-3.21,-0.03 -10.33,-0.03 -13.88,0c-1.3,0 -3.36,0.25 -8.94,1.02c-1.26,0.15 -3.27,0.4 -4.41,0.49c-1.14,0.12 -2.16,0.34 -2.25,0.46c-0.09,0.15 -0.55,0.28 -1.05,0.28s-1.2,0.12 -1.6,0.28c-0.4,0.15 -1.73,0.46 -2.93,0.68c-1.23,0.22 -2.25,0.49 -2.25,0.65c0,0.12 -0.31,0.25 -0.68,0.25c-0.65,0 -2.16,0.4 -3.49,0.96c-0.34,0.12 -1.79,0.65 -3.24,1.17c-6.63,2.31 -9.25,3.39 -9.25,3.82c0,0.12 -0.28,0.22 -0.62,0.22s-0.62,0.15 -0.62,0.31c0,0.19 -0.4,0.31 -0.93,0.31c-0.49,0 -0.93,0.15 -0.93,0.31c0,0.19 -0.28,0.31 -0.62,0.31s-0.62,0.15 -0.62,0.31c0,0.19 -0.25,0.31 -0.52,0.31c-0.31,0 -0.89,0.28 -1.33,0.62c-0.43,0.34 -1.02,0.62 -1.3,0.62c-0.31,0 -0.56,0.12 -0.56,0.28s-0.4,0.43 -0.93,0.65c-0.49,0.22 -0.93,0.49 -0.93,0.65s-0.28,0.28 -0.59,0.28c-0.34,0 -0.8,0.19 -1.02,0.4c-0.68,0.62 -3.92,2.68 -4.26,2.68c-0.15,0 -0.31,0.09 -0.31,0.25c0,0.12 -0.4,0.4 -0.89,0.62s-1.23,0.71 -1.63,1.08c-0.4,0.37 -1.42,1.14 -2.28,1.7c-0.83,0.52 -1.85,1.33 -2.25,1.76s-0.89,0.77 -1.14,0.77s-0.43,0.15 -0.43,0.31c0,0.19 -0.19,0.31 -0.4,0.31s-1.02,0.56 -1.76,1.26c-0.77,0.68 -1.85,1.6 -2.37,2.04c-0.55,0.43 -1.02,0.99 -1.02,1.2c0,0.25 -0.19,0.43 -0.4,0.43s-1.08,0.8 -1.94,1.76c-0.83,0.99 -2,2.19 -2.59,2.71c-0.59,0.49 -1.36,1.23 -1.7,1.63c-0.34,0.4 -1.36,1.45 -2.22,2.37c-0.89,0.93 -1.63,1.76 -1.63,1.85c0,0.28 -3.18,4.29 -3.61,4.56c-0.22,0.12 -0.62,0.74 -0.89,1.33c-0.31,0.62 -1.02,1.57 -1.6,2.16c-1.2,1.17 -1.91,2.37 -1.91,3.24c0,0.34 -0.12,0.59 -0.28,0.59c-0.37,0 -2.19,2.65 -2.19,3.18c0,0.22 -0.28,0.56 -0.62,0.77s-0.62,0.59 -0.62,0.83c0,0.46 -0.59,1.7 -0.96,2c-0.43,0.34 -2.74,5.49 -2.74,6.11c0,0.37 -0.12,0.68 -0.31,0.68c-0.15,0 -0.31,0.28 -0.31,0.62s-0.12,0.62 -0.31,0.62c-0.15,0 -0.31,0.15 -0.31,0.37c0,0.59 -1.33,3.33 -1.6,3.33c-0.12,0 -0.25,0.34 -0.25,0.74c0,0.43 -0.12,0.86 -0.31,0.96c-0.15,0.09 -0.31,0.59 -0.31,1.11c0,0.49 -0.12,0.89 -0.31,0.89c-0.15,0 -0.31,0.43 -0.31,0.93s-0.12,0.93 -0.31,0.93c-0.15,0 -0.31,0.43 -0.31,0.93s-0.12,0.93 -0.31,0.93c-0.15,0 -0.31,0.43 -0.31,0.93s-0.12,0.93 -0.31,0.93c-0.15,0 -0.31,0.43 -0.31,0.93s-0.09,0.93 -0.25,0.93c-0.28,0 -0.99,2.9 -0.99,4.07c0,0.46 -0.12,0.89 -0.28,0.99c-0.15,0.09 -0.34,0.71 -0.43,1.33c-0.09,0.65 -0.37,2.16 -0.62,3.33c-2.16,10.18 -2.34,13.79 -2.37,42.04c0,15.45 -0.09,23.5 -0.31,23.5c-0.15,0 -0.31,0.34 -0.31,0.71c0,0.86 -0.8,2.59 -1.36,2.9c-0.22,0.15 -0.62,0.62 -0.93,1.05c-0.62,0.96 -2.53,1.94 -4.75,2.41c-0.93,0.18 -4.1,0.34 -7.06,0.34l-5.43,0l-0.71,-0.83c-0.4,-0.49 -0.74,-0.99 -0.74,-1.11c0,-0.31 -0.19,-0.49 -2.65,-2.62c-1.02,-0.86 -2,-1.6 -2.16,-1.6c-0.19,0 -0.59,-0.25 -0.93,-0.52c-0.86,-0.77 -1.88,-1.33 -2.44,-1.33c-0.25,0 -0.46,-0.12 -0.46,-0.31c0,-0.15 -0.22,-0.31 -0.46,-0.31c-0.28,0 -0.56,-0.22 -0.65,-0.46c-0.12,-0.25 -1.11,-0.74 -2.25,-1.11c-4.1,-1.3 -8.6,-1.63 -13.14,-0.93c-1.36,0.19 -3.02,0.43 -3.67,0.56c-0.68,0.09 -1.42,0.37 -1.67,0.59c-0.22,0.25 -0.77,0.52 -1.23,0.65c-0.46,0.09 -0.89,0.28 -0.99,0.4c-0.09,0.09 -0.65,0.52 -1.23,0.93c-1.63,1.14 -2.13,1.54 -4.04,3.33c-1.67,1.54 -4.6,5.49 -4.6,6.17c0,0.18 -0.09,0.37 -0.22,0.43c-0.4,0.15 -2.16,4.63 -2.53,6.38c-0.19,0.93 -0.43,3.33 -0.56,5.34c-0.22,4.07 0.4,8.85 1.48,11.26c0.34,0.74 0.59,1.54 0.59,1.79s0.12,0.46 0.28,0.46s0.62,0.71 0.99,1.54c0.37,0.86 0.8,1.54 0.93,1.54s0.34,0.28 0.43,0.62s0.4,0.62 0.65,0.62s0.43,0.22 0.43,0.46c0,0.83 1.97,2.65 5.18,4.81c1.76,1.17 3.55,2.13 3.95,2.13s0.74,0.15 0.74,0.31c0,0.19 0.34,0.31 0.74,0.31c0.43,0 0.86,0.15 0.96,0.31c0.09,0.19 0.77,0.31 1.42,0.31s1.2,0.12 1.2,0.28s0.37,0.37 0.86,0.43c1.63,0.25 5.8,0.19 7.93,-0.12c1.2,-0.15 2.74,-0.37 3.49,-0.46c0.71,-0.12 1.3,-0.31 1.3,-0.46s0.34,-0.28 0.77,-0.28s1.02,-0.12 1.33,-0.28c0.28,-0.19 1.33,-0.68 2.28,-1.11c0.96,-0.46 2.16,-1.17 2.62,-1.57s1.05,-0.74 1.26,-0.74c0.19,0 0.37,-0.12 0.37,-0.31c0,-0.15 0.19,-0.31 0.4,-0.31c0.56,0 4.26,-3.64 4.81,-4.72l0.46,-0.83l9.31,0.06c7.16,0.06 9.44,0 9.72,-0.28c0.22,-0.22 0.96,-0.4 1.7,-0.4s1.42,-0.12 1.51,-0.31c0.09,-0.15 0.59,-0.31 1.05,-0.31s1.42,-0.28 2.13,-0.62c0.68,-0.34 1.42,-0.62 1.6,-0.62c0.31,0 1.54,-0.62 1.85,-0.93c0.37,-0.37 1.57,-0.93 1.97,-0.93c0.25,0 0.49,-0.09 0.56,-0.22c0.12,-0.31 1.76,-1.3 2.5,-1.54c0.28,-0.09 0.52,-0.37 0.52,-0.59c0,-0.25 0.12,-0.43 0.28,-0.43s0.8,-0.49 1.45,-1.08c0.65,-0.59 1.33,-1.08 1.48,-1.08c0.4,0 1.88,-1.82 2.41,-2.9c0.19,-0.43 0.49,-0.8 0.65,-0.8c0.4,0 1.76,-1.6 1.76,-2.07c0,-0.22 0.12,-0.4 0.28,-0.4s0.43,-0.4 0.65,-0.93c0.22,-0.49 0.49,-0.93 0.65,-0.93s0.28,-0.19 0.28,-0.4c0,-0.52 0.71,-2.07 0.96,-2.07c0.09,0 0.49,-0.74 0.86,-1.6c0.4,-0.89 0.83,-1.88 0.99,-2.16c0.15,-0.31 0.28,-0.83 0.28,-1.17s0.19,-0.96 0.43,-1.33c0.56,-0.89 1.11,-3.58 1.11,-5.46c0,-0.83 0.19,-1.88 0.4,-2.37c0.28,-0.65 0.43,-7.31 0.59,-27.85c0.09,-15.54 0.34,-28.1 0.52,-29.61c0.71,-5.83 0.89,-7 1.39,-8.33c0.25,-0.77 0.49,-1.76 0.49,-2.22c0,-0.43 0.28,-1.45 0.62,-2.25c0.34,-0.8 0.62,-1.7 0.62,-2.04c0,-0.31 0.09,-0.59 0.25,-0.59c0.22,0 0.99,-2.16 0.99,-2.87c0,-0.56 0.71,-2.07 1.02,-2.07c0.12,0 0.22,-0.22 0.22,-0.49c0,-0.55 1.26,-2.99 1.63,-3.15c0.12,-0.06 0.22,-0.31 0.22,-0.56s0.28,-1.05 0.62,-1.73c0.34,-0.71 0.62,-1.48 0.62,-1.7s0.15,-0.4 0.31,-0.4c0.19,0 0.31,-0.28 0.31,-0.62s0.12,-0.62 0.25,-0.62c0.15,0 0.46,-0.37 0.68,-0.83c0.25,-0.49 0.68,-1.23 0.99,-1.7c0.31,-0.43 0.56,-0.96 0.56,-1.14c0,-0.22 0.34,-0.71 0.74,-1.11c0.43,-0.4 0.83,-1.05 0.96,-1.39c0.09,-0.34 0.34,-0.62 0.49,-0.62s0.28,-0.25 0.28,-0.56c0,-0.28 0.28,-0.71 0.62,-0.93s0.62,-0.62 0.62,-0.93s0.28,-0.74 0.62,-0.99s0.62,-0.68 0.62,-0.99s0.22,-0.56 0.56,-0.56c0.28,0 0.86,-0.52 1.3,-1.17c0.4,-0.62 1.14,-1.51 1.6,-2c0.49,-0.46 0.86,-0.96 0.86,-1.11c0,-0.49 6.23,-6.45 7.12,-6.75c0.15,-0.06 0.28,-0.31 0.28,-0.52s0.52,-0.77 1.17,-1.26c0.62,-0.46 1.36,-1.11 1.63,-1.42s0.68,-0.55 0.86,-0.55c0.62,0 1.88,-0.96 1.88,-1.42c0,-0.25 0.22,-0.43 0.46,-0.43c0.28,0 0.83,-0.34 1.23,-0.74c0.4,-0.43 1.05,-0.83 1.39,-0.96c0.34,-0.09 0.62,-0.31 0.62,-0.43s0.65,-0.59 1.48,-0.99c0.8,-0.4 1.67,-0.99 1.94,-1.26c0.28,-0.31 0.74,-0.56 1.02,-0.56s0.49,-0.12 0.49,-0.31c0,-0.15 0.37,-0.31 0.8,-0.31c0.46,0 1.05,-0.25 1.33,-0.56c0.62,-0.65 1.6,-1.14 3.36,-1.63c0.71,-0.22 1.3,-0.49 1.3,-0.65c0,-0.12 0.28,-0.25 0.62,-0.25s0.62,-0.12 0.62,-0.31c0,-0.15 0.43,-0.31 0.93,-0.31s0.93,-0.12 0.93,-0.28s0.46,-0.43 1.02,-0.65c0.52,-0.18 1.57,-0.62 2.31,-0.96c0.71,-0.31 1.67,-0.59 2.07,-0.59c0.43,0 0.77,-0.12 0.77,-0.31c0,-0.15 0.4,-0.31 0.89,-0.31c0.52,0 1.02,-0.12 1.11,-0.31c0.09,-0.15 0.56,-0.31 1.02,-0.31s1.67,-0.28 2.65,-0.62c1.02,-0.34 2.22,-0.62 2.68,-0.62s0.93,-0.12 1.02,-0.28c0.09,-0.12 1.17,-0.34 2.41,-0.43c1.23,-0.12 3.42,-0.37 4.87,-0.59c3.64,-0.49 14.65,-0.49 17.73,0c1.36,0.25 3.27,0.55 4.26,0.71c6.29,0.99 7.28,1.2 7.49,1.54c0.09,0.15 0.74,0.28 1.39,0.28s1.2,0.15 1.2,0.31c0,0.19 0.31,0.31 0.68,0.31c0.83,0 2.53,0.52 4.04,1.26c0.68,0.34 1.48,0.59 1.79,0.59c0.34,0 0.89,0.28 1.26,0.62c0.4,0.37 1.11,0.62 1.7,0.62c0.55,0 1.02,0.15 1.02,0.31c0,0.19 0.19,0.31 0.4,0.31c0.46,0 3.52,1.51 5,2.44c0.52,0.34 1.17,0.62 1.45,0.62c0.28,0.03 0.56,0.12 0.62,0.28c0.06,0.12 0.71,0.56 1.48,0.96c0.77,0.43 1.45,0.83 1.54,0.96c0.34,0.4 2.13,1.54 2.44,1.54s1.36,0.77 2.56,1.94c0.31,0.28 0.71,0.52 0.86,0.52c0.19,0 0.31,0.12 0.31,0.25c0,0.15 0.37,0.46 0.83,0.71s1.7,1.23 2.71,2.22c1.02,0.96 2,1.76 2.22,1.76s0.4,0.19 0.4,0.43c0,0.62 2.65,3.27 3.24,3.27c0.25,0 0.46,0.28 0.46,0.62s0.12,0.62 0.31,0.62c0.15,0 0.83,0.56 1.51,1.23c0.68,0.68 1.36,1.23 1.54,1.23s0.34,0.22 0.34,0.46c0,0.28 0.15,0.65 0.31,0.86c1.2,1.42 1.54,1.88 1.54,2.13c0,0.12 0.22,0.25 0.46,0.25s0.46,0.12 0.46,0.28s0.19,0.49 0.4,0.71c0.22,0.22 0.74,0.89 1.14,1.48c0.69,1 4.61,7.31 4.69,7.34c0.12,0.06 0.25,0.28 0.25,0.46c0,0.22 0.34,0.77 0.77,1.26c0.43,0.52 0.86,1.26 0.99,1.7c0.09,0.43 0.86,2.16 1.7,3.79c0.8,1.67 1.48,3.21 1.48,3.49c0,0.25 0.15,0.46 0.31,0.46c0.19,0 0.31,0.34 0.31,0.74c0,0.43 0.15,0.86 0.31,0.96c0.19,0.09 0.31,0.49 0.31,0.89c0,0.37 0.25,1.23 0.59,1.91c0.31,0.65 0.65,1.73 0.74,2.34c0.09,0.62 0.37,1.6 0.62,2.16c0.65,1.45 1.08,3.24 1.3,5.18c0.12,0.93 0.31,1.76 0.43,1.85s0.49,2.37 0.83,5.09c0.49,4.38 0.59,8.11 0.74,33.74c0.12,22.67 0.25,28.84 0.56,28.96c0.22,0.06 0.37,0.62 0.37,1.33c0,0.65 0.15,1.2 0.31,1.2c0.19,0 0.31,0.4 0.31,0.89c0,0.52 0.15,1.02 0.31,1.11c0.15,0.09 0.31,0.46 0.31,0.8c0,0.62 0.49,1.67 1.14,2.34c0.19,0.22 0.46,0.68 0.55,1.02s0.34,0.62 0.49,0.62s0.28,0.28 0.28,0.62s0.15,0.62 0.31,0.62c0.19,0 0.31,0.28 0.31,0.62s0.15,0.62 0.31,0.62c0.19,0 0.31,0.19 0.31,0.4s0.56,1.02 1.23,1.76c0.68,0.77 1.23,1.48 1.23,1.63c0,0.31 2.68,2.99 2.99,2.99c0.15,0.03 0.99,0.68 1.85,1.51c0.89,0.8 2.25,1.79 3.02,2.19s1.39,0.83 1.39,0.99c0,0.12 0.28,0.25 0.59,0.25c0.34,0 0.65,0.09 0.71,0.25c0.19,0.4 4.04,2.22 4.75,2.22c0.37,0 0.77,0.12 0.86,0.28c0.19,0.28 1.05,0.49 3.89,0.96c0.93,0.15 2.41,0.4 3.24,0.59c0.93,0.19 4.32,0.22 8.54,0.12c8.05,-0.22 8.17,-0.18 10.42,2.37c1.45,1.63 4.47,4.13 5.74,4.69c0.4,0.19 0.74,0.46 0.74,0.62c0,0.12 0.22,0.25 0.46,0.25c0.28,0 0.77,0.28 1.14,0.62c0.37,0.34 0.99,0.62 1.39,0.62c0.37,0 1.14,0.25 1.73,0.59c1.45,0.8 2.99,1.02 9.28,1.17c3.61,0.06 5.64,0 5.86,-0.22c0.15,-0.15 0.77,-0.31 1.33,-0.31s1.02,-0.12 1.02,-0.31c0,-0.15 0.43,-0.31 0.93,-0.31s0.93,-0.12 0.93,-0.31c0,-0.15 0.28,-0.31 0.62,-0.31s0.62,-0.12 0.62,-0.31c0,-0.15 0.28,-0.31 0.62,-0.31s0.62,-0.12 0.62,-0.31c0,-0.15 0.19,-0.31 0.4,-0.31s0.68,-0.25 1.02,-0.56c1.02,-0.93 2.53,-1.91 2.93,-1.91c0.52,0 1.82,-1.23 1.82,-1.73c0,-0.22 0.52,-0.93 1.17,-1.57c1.48,-1.48 2.53,-2.99 2.53,-3.61c0,-0.28 0.09,-0.49 0.25,-0.49c0.25,0 0.99,-1.51 0.99,-2.07c0,-0.22 0.25,-0.83 0.59,-1.39c0.31,-0.59 0.65,-1.51 0.77,-2.1c0.8,-3.92 1.3,-10.33 0.86,-10.89c-0.15,-0.22 -0.4,-1.05 -0.52,-1.88c-0.25,-1.85 -2.19,-7.4 -2.62,-7.53c-0.15,-0.06 -0.31,-0.46 -0.31,-0.86c0,-0.43 -0.19,-0.83 -0.43,-0.93c-0.25,-0.09 -0.59,-0.56 -0.8,-1.02c-0.18,-0.49 -0.68,-1.05 -1.11,-1.26c-0.4,-0.25 -0.74,-0.68 -0.74,-0.99s-0.12,-0.56 -0.31,-0.56c-0.15,0 -0.31,-0.12 -0.31,-0.31c0,-0.4 -1.14,-1.54 -1.54,-1.54c-0.15,0 -0.31,-0.12 -0.31,-0.31c0,-0.15 -0.19,-0.31 -0.37,-0.31c-0.22,0 -0.77,-0.34 -1.23,-0.74c-0.46,-0.37 -1.51,-1.05 -2.31,-1.45c-0.83,-0.4 -1.6,-0.93 -1.73,-1.11c-0.12,-0.22 -0.59,-0.4 -0.99,-0.4c-0.43,0 -0.77,-0.12 -0.77,-0.31c0,-0.15 -0.4,-0.31 -0.93,-0.31c-0.49,0 -0.93,-0.12 -0.93,-0.28c0,-0.34 -3.24,-0.65 -6.94,-0.71c-3.7,-0.09 -8.27,0.68 -10.24,1.7c-0.55,0.31 -1.14,0.52 -1.33,0.52s-0.62,0.28 -0.99,0.62s-0.89,0.62 -1.14,0.62c-0.28,0 -0.83,0.28 -1.26,0.62c-0.43,0.34 -0.89,0.62 -1.02,0.62s-0.59,0.34 -1.02,0.77s-0.92,0.77 -1.08,0.77c-0.19,0 -1.51,1.17 -2.93,2.62l-2.59,2.62l-3.77,0c-4.63,0 -9.13,-0.46 -10.18,-1.02c-0.43,-0.22 -1.17,-0.83 -1.63,-1.39c-0.46,-0.52 -1.2,-1.2 -1.7,-1.51c-0.68,-0.4 -0.93,-0.8 -1.08,-1.91c-0.12,-0.77 -0.34,-14.13 -0.43,-29.64c-0.15,-21.16 -0.31,-28.56 -0.62,-29.61c-0.22,-0.77 -0.49,-2.56 -0.62,-4.01c-0.15,-1.45 -0.49,-3.58 -0.77,-4.78c-0.77,-3.36 -0.71,-3.79 0.68,-4.1c0.62,-0.15 9.53,-0.31 19.8,-0.37c10.27,-0.03 18.81,-0.15 18.97,-0.25c0.19,-0.12 1.14,-0.31 2.16,-0.43c2,-0.25 4.23,-0.65 6.17,-1.14c0.68,-0.18 1.79,-0.43 2.47,-0.59c0.68,-0.15 1.76,-0.49 2.44,-0.77c0.65,-0.31 1.39,-0.52 1.63,-0.52s0.65,-0.22 0.93,-0.46c0.25,-0.28 0.86,-0.59 1.36,-0.68c0.49,-0.09 0.89,-0.28 0.89,-0.43s0.28,-0.28 0.62,-0.28s0.62,-0.12 0.62,-0.31c0,-0.15 0.34,-0.31 0.71,-0.31c0.93,0 2.68,-0.86 2.9,-1.42c0.09,-0.25 0.43,-0.43 0.74,-0.43s0.59,-0.12 0.59,-0.31c0,-0.15 0.25,-0.31 0.56,-0.31s0.74,-0.28 0.99,-0.62s0.65,-0.62 0.93,-0.62s0.68,-0.28 0.93,-0.62s0.62,-0.62 0.8,-0.62s0.93,-0.56 1.63,-1.23c0.68,-0.68 1.48,-1.23 1.73,-1.23s0.59,-0.28 0.77,-0.62s0.52,-0.62 0.8,-0.62c0.25,0 0.52,-0.22 0.65,-0.49c0.25,-0.68 1.57,-1.97 2,-1.97c0.52,0 1.79,-1.26 1.79,-1.76s1.36,-1.94 1.85,-1.94c0.15,0 0.31,-0.12 0.31,-0.25c0,-0.15 0.34,-0.68 0.77,-1.17s0.77,-1.02 0.77,-1.14s0.34,-0.59 0.74,-0.99c0.43,-0.43 1.02,-1.17 1.3,-1.7c0.31,-0.49 0.65,-0.93 0.77,-0.93s0.37,-0.4 0.59,-0.93c0.22,-0.52 0.49,-0.93 0.65,-0.93s0.28,-0.28 0.28,-0.62s0.15,-0.62 0.31,-0.62c0.19,0 0.31,-0.19 0.31,-0.4s0.28,-0.71 0.62,-1.08s0.62,-0.86 0.62,-1.14c0,-0.25 0.15,-0.46 0.31,-0.46c0.19,0 0.31,-0.28 0.31,-0.62s0.15,-0.62 0.31,-0.62c0.19,0 0.31,-0.4 0.31,-0.93c0,-0.49 0.12,-0.93 0.25,-0.93c0.37,0 1.2,-1.88 1.45,-3.21c0.12,-0.62 0.34,-1.2 0.49,-1.3c0.15,-0.09 0.28,-0.49 0.28,-0.93c0,-0.4 0.15,-0.74 0.31,-0.74c0.19,0 0.31,-0.46 0.31,-1.05s0.15,-1.17 0.31,-1.26c0.19,-0.09 0.31,-0.89 0.31,-1.73s0.12,-1.51 0.28,-1.51s0.34,-0.59 0.43,-1.3c0.12,-0.74 0.37,-2.44 0.56,-3.79c0.49,-3.18 0.49,-10.76 0.03,-12.21c-0.34,-0.96 -0.59,-2.68 -1.2,-8.36c-0.09,-0.83 -0.28,-1.48 -0.43,-1.48s-0.28,-0.4 -0.28,-0.93c0,-0.49 -0.34,-1.67 -0.74,-2.59c-0.4,-0.89 -0.83,-2.07 -0.93,-2.59c-0.12,-0.49 -0.49,-1.2 -0.8,-1.54c-0.34,-0.37 -0.62,-0.93 -0.62,-1.26s-0.12,-0.71 -0.31,-0.8c-0.15,-0.09 -0.31,-0.43 -0.31,-0.71c0,-0.31 -0.28,-0.74 -0.62,-0.99s-0.62,-0.62 -0.62,-0.8c0,-0.22 -0.56,-1.3 -1.23,-2.41c-0.68,-1.11 -1.23,-2.13 -1.23,-2.25c0,-0.15 -0.55,-0.59 -1.23,-1.02c-0.68,-0.4 -1.23,-0.93 -1.23,-1.14s-0.12,-0.4 -0.31,-0.4c-0.15,0 -0.31,-0.19 -0.31,-0.4c0,-0.49 -6.35,-6.69 -6.88,-6.69c-0.43,0 -1.14,-1.39 -1.14,-2.25c0,-0.31 -0.19,-0.77 -0.43,-0.99c-0.25,-0.25 -0.68,-1.23 -0.99,-2.22c-0.28,-0.99 -0.8,-2.31 -1.11,-2.93c-0.31,-0.65 -0.56,-1.39 -0.56,-1.7c0,-0.34 -0.4,-1.05 -0.93,-1.63c-0.49,-0.59 -0.89,-1.17 -0.93,-1.3c0,-0.12 -0.4,-0.89 -0.93,-1.7c-0.49,-0.8 -0.93,-1.73 -0.93,-2.1s-0.25,-0.93 -0.52,-1.26c-0.31,-0.31 -0.89,-1.11 -1.33,-1.73c-0.43,-0.65 -0.86,-1.17 -0.99,-1.17c-0.15,0 -0.25,-0.28 -0.25,-0.62s-0.12,-0.62 -0.31,-0.62c-0.15,0 -0.31,-0.4 -0.31,-0.93c0,-0.49 -0.09,-0.93 -0.25,-0.93c-0.12,0 -0.37,-0.31 -0.52,-0.71c-0.19,-0.37 -0.62,-0.8 -0.99,-0.99c-0.4,-0.15 -0.71,-0.49 -0.71,-0.71c0,-0.25 -0.43,-0.83 -0.93,-1.3c-0.52,-0.46 -0.93,-1.02 -0.93,-1.23s-0.4,-0.77 -0.93,-1.23c-0.49,-0.46 -0.93,-1.02 -0.93,-1.2s-0.28,-0.46 -0.62,-0.65c-0.34,-0.18 -0.62,-0.49 -0.65,-0.71c0,-0.22 -0.99,-1.26 -2.16,-2.37c-1.2,-1.11 -3.02,-2.81 -4.04,-3.76c-0.99,-0.99 -1.97,-1.79 -2.13,-1.79s-0.28,-0.12 -0.28,-0.25s-0.37,-0.46 -0.83,-0.74c-0.77,-0.46 -1.6,-1.08 -2.87,-2.16c-0.4,-0.32 -0.85,-0.58 -1.33,-0.77c-0.49,-0.22 -1.14,-0.71 -1.45,-1.11s-2.04,-1.45 -3.82,-2.34c-1.79,-0.89 -3.27,-1.76 -3.27,-1.91s-0.52,-0.52 -1.14,-0.77c-0.65,-0.28 -1.42,-0.62 -1.7,-0.77c-0.31,-0.15 -0.74,-0.28 -1.02,-0.28c-0.25,0 -0.93,-0.28 -1.54,-0.62c-0.62,-0.34 -1.3,-0.62 -1.54,-0.62s-0.46,-0.12 -0.46,-0.31c0,-0.15 -0.22,-0.31 -0.46,-0.31c-0.4,0 -2.31,-0.77 -3.92,-1.57c-0.31,-0.15 -1.08,-0.28 -1.76,-0.28s-1.33,-0.12 -1.42,-0.31c-0.09,-0.15 -0.52,-0.31 -0.93,-0.31s-0.8,-0.12 -0.89,-0.28c-0.19,-0.28 -1.39,-0.49 -5.43,-0.96c-1.26,-0.15 -3.55,-0.49 -5.09,-0.77c-2.16,-0.4 -3.95,-0.46 -8.17,-0.34c-2.96,0.09 -6.2,0.25 -7.16,0.37c-1.76,0.19 -1.76,0.15 -2.41,-0.86c-0.37,-0.65 -0.62,-1.54 -0.62,-2.47c0,-0.83 -0.09,-1.48 -0.25,-1.48c-0.12,0 -0.4,-0.93 -0.62,-2.1c-0.22,-1.14 -0.52,-2.19 -0.71,-2.37c-0.15,-0.15 -0.28,-0.49 -0.28,-0.77c0,-0.25 -0.43,-1.48 -0.93,-2.75c-0.52,-1.23 -0.93,-2.59 -0.93,-2.96c0,-0.4 -0.15,-0.83 -0.31,-0.93c-0.15,-0.09 -0.31,-0.46 -0.31,-0.77c0,-0.34 -0.4,-1.26 -0.93,-2.07c-0.49,-0.8 -0.93,-1.7 -0.93,-1.97c0,-0.31 -0.12,-0.62 -0.28,-0.71c-0.15,-0.09 -0.99,-1.6 -1.88,-3.33c-0.89,-1.76 -1.73,-3.24 -1.88,-3.27c-0.15,-0.06 -0.28,-0.37 -0.28,-0.71c0,-0.31 -0.12,-0.59 -0.31,-0.59c-0.15,0 -0.31,-0.19 -0.31,-0.4c0,-0.74 -1.48,-3.42 -2.28,-4.19c-0.46,-0.4 -0.8,-0.89 -0.8,-1.14s-0.12,-0.43 -0.31,-0.43c-0.15,0 -0.31,-0.22 -0.31,-0.46c0,-0.28 -0.28,-0.77 -0.62,-1.14c-0.34,-0.37 -0.62,-0.86 -0.62,-1.08s-0.12,-0.4 -0.31,-0.4c-0.15,0 -0.31,-0.28 -0.31,-0.59c0,-0.34 -0.37,-0.93 -0.83,-1.33c-0.49,-0.4 -1.05,-1.08 -1.26,-1.48c-0.22,-0.43 -0.71,-0.93 -1.08,-1.08c-0.37,-0.19 -0.8,-0.62 -0.99,-1.02c-0.15,-0.37 -0.56,-0.77 -0.83,-0.86c-0.31,-0.09 -0.56,-0.34 -0.56,-0.52c-0.03,-0.49 -1.11,-1.76 -1.48,-1.76c-0.19,0 -0.4,-0.25 -0.49,-0.52c-0.09,-0.31 -0.52,-0.93 -0.93,-1.36c-0.4,-0.43 -0.83,-1.08 -0.96,-1.45c-0.09,-0.4 -0.59,-0.93 -1.02,-1.23c-0.46,-0.28 -1.33,-1.02 -1.91,-1.63c-0.62,-0.59 -1.67,-1.39 -2.34,-1.79c-0.68,-0.4 -1.51,-1.11 -1.79,-1.6s-0.68,-0.89 -0.83,-0.89c-0.34,0 -0.96,-0.46 -1.76,-1.33c-0.28,-0.28 -0.59,-0.52 -0.71,-0.52s-0.8,-0.59 -1.54,-1.26c-0.74,-0.71 -2.07,-1.76 -2.9,-2.28c-0.86,-0.56 -1.76,-1.23 -1.97,-1.51c-0.22,-0.28 -0.68,-0.49 -0.99,-0.49c-0.34,0 -0.59,-0.09 -0.59,-0.22c0,-0.25 -1.48,-1.02 -1.94,-1.02c-0.12,0 -0.62,-0.4 -1.05,-0.93c-0.4,-0.49 -1.08,-0.93 -1.42,-0.93c-0.37,0 -1.02,-0.28 -1.45,-0.62s-1.08,-0.62 -1.45,-0.62c-0.4,0 -0.71,-0.12 -0.71,-0.31c0,-0.15 -0.22,-0.31 -0.46,-0.31s-0.46,-0.12 -0.46,-0.31c0,-0.15 -0.31,-0.31 -0.71,-0.31c-0.37,0 -0.89,-0.28 -1.14,-0.62s-0.62,-0.62 -0.83,-0.62s-0.83,-0.28 -1.39,-0.62c-0.55,-0.34 -1.23,-0.62 -1.48,-0.62s-0.8,-0.28 -1.23,-0.62s-1.08,-0.62 -1.45,-0.62s-0.89,-0.22 -1.14,-0.49c-0.28,-0.25 -1.02,-0.56 -1.63,-0.65c-0.65,-0.12 -1.63,-0.46 -2.19,-0.77s-1.57,-0.65 -2.31,-0.74c-0.71,-0.12 -1.97,-0.49 -2.84,-0.89c-0.83,-0.37 -2.59,-0.83 -3.86,-1.05c-1.26,-0.22 -3.49,-0.65 -4.93,-0.96c-1.45,-0.31 -3.79,-0.68 -5.24,-0.77c-1.45,-0.12 -4.19,-0.4 -6.11,-0.65c-4.41,-0.56 -7.49,-0.56 -14.25,0.03c-6.01,0.52 -7.43,0.71 -14.03,1.97c-0.83,0.15 -2.1,0.37 -2.78,0.49c-1.6,0.28 -2.93,0.77 -2.93,1.11c0,0.15 -0.46,0.28 -1.05,0.28s-1.14,0.12 -1.23,0.28c-0.09,0.15 -0.68,0.37 -1.26,0.46c-0.59,0.09 -1.57,0.28 -2.16,0.37s-1.08,0.28 -1.08,0.4c0,0.15 -0.8,0.43 -1.76,0.68c-0.99,0.22 -2.07,0.65 -2.37,0.96c-0.34,0.31 -0.8,0.56 -1.02,0.56s-0.4,0.12 -0.4,0.25c0,0.15 -0.68,0.46 -1.54,0.68c-0.83,0.22 -1.54,0.52 -1.54,0.68c0,0.12 -0.4,0.25 -0.89,0.25s-1.11,0.19 -1.33,0.4s-1.2,0.8 -2.16,1.3c-0.99,0.49 -1.79,1.02 -1.79,1.14s-0.22,0.25 -0.49,0.25c-0.55,0 -2.81,1.17 -3.45,1.76c-0.22,0.22 -0.83,0.59 -1.39,0.86c-0.56,0.25 -1.48,0.86 -2.07,1.39c-0.59,0.49 -1.26,0.93 -1.45,0.93c-0.22,0 -0.4,0.15 -0.4,0.31c0,0.19 -0.25,0.31 -0.56,0.31s-0.86,0.34 -1.2,0.74s-1.08,0.99 -1.6,1.3c-0.52,0.31 -0.96,0.68 -0.96,0.8s-0.18,0.25 -0.43,0.25s-1.42,0.96 -2.59,2.13c-1.2,1.17 -2.37,2.25 -2.65,2.41c-0.62,0.34 -5,4.29 -5.86,5.27c-0.37,0.4 -1.2,1.3 -1.88,2c-0.71,0.71 -1.6,1.79 -2,2.37s-0.96,1.3 -1.23,1.54c-0.4,0.37 -1.91,2.28 -2.84,3.55c-0.12,0.19 -0.86,1.08 -1.63,2c-0.74,0.93 -1.63,2.22 -1.91,2.84c-0.31,0.65 -0.65,1.17 -0.77,1.17c-0.15,0 -0.25,0.28 -0.25,0.59s-0.19,0.65 -0.4,0.74c-0.65,0.25 -2.68,3.45 -2.68,4.19c0,0.37 -0.12,0.65 -0.31,0.65c-0.15,0 -0.31,0.15 -0.31,0.31c0,0.19 -0.55,1.23 -1.23,2.34c-0.68,1.11 -1.23,2.16 -1.23,2.31s-0.12,0.52 -0.31,0.83c-0.65,1.2 -1.54,3.3 -1.54,3.67c0,0.22 -0.12,0.4 -0.31,0.4c-0.15,0 -0.31,0.19 -0.31,0.43c0,0.37 -0.43,1.36 -1.57,3.64c-0.15,0.31 -0.28,0.8 -0.28,1.11c0,0.34 -0.22,1.05 -0.49,1.57l-0.49,1.02l-1.88,-0.22c-1.05,-0.12 -5.64,-0.22 -10.24,-0.22c-7.74,-0.03 -12.71,0.34 -14.19,0.96c-0.34,0.15 -1.67,0.59 -2.93,0.99c-1.26,0.37 -2.44,0.8 -2.62,0.96c-0.15,0.12 -0.59,0.25 -0.99,0.25s-0.71,0.15 -0.71,0.31c0,0.19 -0.46,0.31 -1.05,0.31s-1.17,0.15 -1.26,0.31c-0.09,0.19 -0.46,0.31 -0.8,0.31c-0.31,0 -0.59,0.09 -0.59,0.25c0,0.12 -0.96,0.71 -2.16,1.3c-1.17,0.59 -2.16,1.17 -2.16,1.33c0,0.12 -0.28,0.22 -0.59,0.22c-0.34,0 -0.8,0.28 -1.02,0.59c-0.25,0.34 -0.8,0.77 -1.26,0.99c-0.46,0.22 -0.83,0.49 -0.83,0.65c0,0.12 -0.22,0.25 -0.49,0.25s-0.74,0.25 -1.02,0.56s-1.2,1.05 -2.07,1.67c-0.86,0.65 -1.82,1.51 -2.16,1.94c-0.31,0.43 -0.83,0.77 -1.11,0.77c-0.31,0 -0.56,0.09 -0.56,0.25c0,0.19 -0.83,1.2 -2.9,3.45c-0.37,0.43 -1.17,1.39 -1.76,2.16s-1.14,1.45 -1.23,1.54c-0.4,0.37 -2.13,3.05 -2.13,3.33c0,0.19 -0.19,0.37 -0.43,0.46c-0.25,0.09 -0.93,1.14 -1.51,2.31c-1.26,2.47 -1.85,3.55 -2.1,3.76c-0.09,0.09 -0.49,1.23 -0.93,2.53c-0.4,1.33 -0.83,2.41 -0.96,2.41c-0.15,0 -0.25,0.25 -0.25,0.56c0,0.34 -0.22,1.05 -0.49,1.6c-0.49,0.96 -0.68,1.6 -1.39,4.47c-0.71,2.93 -0.93,3.79 -1.2,5.37c-0.52,2.93 -1.2,4.66 -1.88,4.66c-0.31,0 -0.59,0.15 -0.59,0.31c0,0.19 -0.19,0.31 -0.4,0.31c-0.56,0 -2.07,0.74 -2.07,1.02c0,0.12 -0.15,0.22 -0.37,0.22c-0.71,0 -2.71,1.05 -2.71,1.45c0,0.22 -0.25,0.4 -0.59,0.4c-0.31,0 -0.89,0.25 -1.3,0.59c-0.4,0.31 -1.14,0.77 -1.67,1.05c-0.49,0.25 -1.42,0.93 -2,1.51c-0.62,0.56 -1.63,1.45 -2.31,1.94c-1.7,1.3 -3.86,3.42 -3.86,3.82c0,0.18 -0.18,0.34 -0.43,0.34c-0.22,0 -0.96,0.65 -1.6,1.48c-0.65,0.8 -1.39,1.67 -1.67,1.91c-0.25,0.25 -0.83,0.96 -1.26,1.54c-0.46,0.59 -1.11,1.42 -1.48,1.82c-0.34,0.4 -0.65,0.83 -0.65,0.96s-0.34,0.62 -0.77,1.11s-0.77,1.02 -0.77,1.14s-0.34,0.59 -0.77,1.02c-0.43,0.43 -0.86,1.2 -0.99,1.7c-0.09,0.49 -0.28,0.89 -0.43,0.89s-0.28,0.28 -0.28,0.62s-0.12,0.62 -0.31,0.62c-0.15,0 -0.31,0.19 -0.31,0.4c0,0.56 -0.74,2.07 -0.99,2.07c-0.15,0 -0.25,0.22 -0.25,0.49c0,0.25 -0.22,0.68 -0.46,0.93s-0.52,0.96 -0.65,1.6c-0.12,0.62 -0.31,1.2 -0.4,1.3c-0.12,0.09 -0.52,1.2 -0.96,2.47c-0.4,1.26 -0.96,2.81 -1.23,3.39c-0.31,0.59 -0.62,1.85 -0.74,2.78c-0.93,7.65 -1.11,9.56 -1.26,12.95c-0.15,3.58 0.06,7.62 0.77,13.26c0.68,5.49 0.55,4.9 1.7,7.49c0.28,0.65 0.59,1.67 0.68,2.25c0.09,0.59 0.31,1.14 0.43,1.23c0.15,0.09 0.28,0.49 0.28,0.93c0,0.4 0.09,0.74 0.25,0.74c0.12,0 0.4,0.52 0.62,1.17c1.02,2.81 1.14,3.15 1.36,3.15c0.15,0 0.25,0.19 0.25,0.4s0.25,0.68 0.56,1.02c0.31,0.31 1.02,1.45 1.57,2.47c0.55,1.05 1.54,2.5 2.22,3.24c0.65,0.74 1.2,1.51 1.2,1.73s0.09,0.4 0.25,0.4c0.12,0 0.49,0.43 0.83,0.93s0.77,0.93 0.93,0.93c0.19,0.03 0.83,0.86 1.51,1.85c0.65,1.02 1.36,1.85 1.54,1.85c0.22,0 0.68,0.31 1.02,0.71c0.34,0.37 1.23,1.17 1.94,1.76c0.74,0.59 1.67,1.39 2.04,1.79c0.4,0.37 0.86,0.68 1.02,0.68c0.18,0 0.46,0.28 0.65,0.62s0.49,0.62 0.71,0.62s0.59,0.28 0.83,0.62c0.25,0.34 0.68,0.62 0.99,0.62s0.56,0.12 0.56,0.25c0,0.15 0.37,0.46 0.86,0.71c0.46,0.25 1.11,0.68 1.42,0.99c0.34,0.28 0.8,0.52 1.02,0.52s0.4,0.15 0.4,0.31c0,0.19 0.22,0.31 0.46,0.31s0.46,0.15 0.46,0.31c0,0.19 0.43,0.31 0.93,0.31s1.23,0.28 1.6,0.62s0.93,0.62 1.2,0.62c0.31,0 0.65,0.15 0.74,0.31c0.09,0.19 0.46,0.31 0.8,0.31c0.31,0 0.59,0.15 0.59,0.31c0,0.19 0.34,0.31 0.77,0.31s1.08,0.28 1.42,0.59c0.37,0.34 1.3,0.65 2.07,0.74c2.07,0.25 3.52,0.52 4.23,0.83c0.34,0.15 1.23,0.34 2,0.43s2.16,0.31 3.08,0.46c3.61,0.71 10.79,1.02 19.74,0.83c5.8,-0.09 9.13,-0.28 9.19,-0.49c0.06,-0.15 0.31,-0.31 0.56,-0.31s0.52,-0.4 0.65,-0.93c0.09,-0.49 0.28,-0.93 0.43,-0.93s0.28,-0.46 0.28,-0.99c0,-0.56 0.28,-1.76 0.62,-2.65c0.34,-0.89 0.62,-2.1 0.62,-2.68s0.12,-1.08 0.25,-1.08c0.37,0 0.99,-1.45 0.99,-2.31c0,-0.43 0.09,-0.77 0.25,-0.77c0.31,0 0.99,-2.28 0.99,-3.39c0,-0.49 0.12,-0.93 0.25,-0.93c0.34,0 0.99,-1.39 0.99,-2.04c0,-0.28 0.25,-0.86 0.59,-1.3c0.31,-0.46 0.74,-1.39 0.99,-2.07c0.25,-0.68 0.49,-1.3 0.59,-1.39c0.09,-0.09 0.34,-0.71 0.56,-1.39c0.55,-1.7 1.05,-2.68 1.7,-3.36c0.28,-0.34 0.52,-0.8 0.52,-1.02s0.15,-0.4 0.31,-0.4c0.19,0 0.31,-0.28 0.31,-0.62s0.15,-0.62 0.31,-0.62c0.19,0 0.31,-0.4 0.31,-0.93c0,-0.49 0.15,-0.93 0.31,-0.93c0.19,0 0.31,-0.19 0.31,-0.4s0.25,-0.68 0.56,-1.02c0.28,-0.31 0.86,-1.23 1.3,-2.04c0.43,-0.83 0.86,-1.48 0.99,-1.48c0.15,0 0.25,-0.28 0.25,-0.62s0.12,-0.62 0.25,-0.62s0.71,-0.8 1.3,-1.76c0.59,-0.99 1.3,-2 1.6,-2.28c0.31,-0.28 0.56,-0.8 0.56,-1.2c0,-0.37 0.46,-1.11 1.02,-1.67c1.42,-1.33 2.68,-3.05 2.68,-3.67c0,-0.31 0.22,-0.52 0.46,-0.52s0.46,-0.12 0.46,-0.31c0,-0.15 0.46,-0.77 1.02,-1.33c0.52,-0.59 1.17,-1.42 1.42,-1.85c0.25,-0.46 0.55,-0.83 0.71,-0.83c0.12,0 0.59,-0.52 1.02,-1.17c0.43,-0.68 1.14,-1.39 1.54,-1.6c0.43,-0.22 0.77,-0.62 0.77,-0.83c0,-0.56 6.38,-6.88 6.97,-6.88c0.25,0 0.43,-0.22 0.43,-0.46c0,-0.49 1.33,-2 1.76,-2c0.12,0 1.14,-0.83 2.25,-1.85s2.1,-1.85 2.22,-1.85c0.15,0 0.77,-0.49 1.39,-1.08s1.26,-1.08 1.39,-1.08s0.71,-0.49 1.3,-1.08c0.62,-0.59 1.3,-1.08 1.57,-1.08c0.25,0 0.46,-0.09 0.46,-0.22c0,-0.15 0.55,-0.52 1.23,-0.83c0.68,-0.34 1.23,-0.77 1.23,-1.02c0,-0.22 0.25,-0.4 0.56,-0.4s0.74,-0.28 0.99,-0.62s0.68,-0.62 0.99,-0.62s0.56,-0.12 0.56,-0.31c0,-0.15 0.25,-0.31 0.56,-0.31s0.74,-0.28 0.99,-0.62s0.74,-0.62 1.08,-0.62s1.11,-0.43 1.7,-0.93c0.59,-0.49 1.26,-0.93 1.48,-0.93c0.19,0 0.37,-0.12 0.37,-0.31c0,-0.15 0.28,-0.31 0.62,-0.31s0.62,-0.09 0.62,-0.22c0,-0.28 1.48,-1.02 2.04,-1.02c0.52,0 2.9,-1.3 2.9,-1.6c0,-0.12 0.28,-0.25 0.62,-0.25s0.62,-0.12 0.62,-0.31c0,-0.15 0.22,-0.31 0.46,-0.31s0.93,-0.28 1.54,-0.62s1.51,-0.62 2,-0.62s1.08,-0.19 1.3,-0.4c0.37,-0.4 1.57,-0.99 3.64,-1.82c0.43,-0.19 1.02,-0.43 1.3,-0.59c0.31,-0.15 0.89,-0.28 1.3,-0.28s0.86,-0.12 0.96,-0.31c0.09,-0.19 0.46,-0.31 0.8,-0.31c0.31,0 0.83,-0.12 1.14,-0.28c1.3,-0.65 4.13,-1.6 6.69,-2.25c1.54,-0.4 2.84,-0.8 2.87,-0.93c0.06,-0.15 0.96,-0.25 1.94,-0.25s1.82,-0.12 1.82,-0.28c0,-0.28 1.02,-0.52 3.64,-0.83c0.71,-0.12 1.3,-0.28 1.3,-0.43c0,-0.12 1.42,-0.34 3.18,-0.46c1.73,-0.09 4.53,-0.4 6.23,-0.65c4.53,-0.65 16.69,-0.89 22.05,-0.43c7.49,0.62 8.02,0.68 8.02,0.93c0,0.15 1.02,0.34 2.25,0.43c3.48,0.25 6.38,0.68 8.33,1.23c0.99,0.28 2.19,0.49 2.68,0.49c0.52,0 0.93,0.15 0.93,0.31c0,0.19 0.4,0.31 0.89,0.31c0.52,0 1.02,0.15 1.11,0.31c0.09,0.19 0.68,0.31 1.26,0.31c1.02,0 6.32,1.54 7.59,2.19c0.31,0.15 0.89,0.28 1.3,0.28s0.86,0.15 0.96,0.31c0.09,0.19 0.52,0.31 0.96,0.31c0.4,0 0.74,0.12 0.74,0.28c0,0.34 1.67,0.65 4.56,0.86c1.91,0.12 2.22,0.06 2.22,-0.37c0,-0.28 0.28,-1.08 0.62,-1.76c0.34,-0.71 0.62,-1.76 0.62,-2.31s0.12,-1.02 0.25,-1.02c0.43,0 0.99,-1.48 0.99,-2.56c0,-0.56 0.12,-1.14 0.28,-1.3c0.15,-0.19 0.56,-1.08 0.89,-2c0.34,-0.93 1.05,-2.53 1.57,-3.55s0.96,-2.1 0.96,-2.37c0,-0.31 0.12,-0.56 0.25,-0.56c0.15,0 0.49,-0.49 0.77,-1.08c0.28,-0.62 0.74,-1.17 0.99,-1.26c0.25,-0.12 0.46,-0.4 0.46,-0.62c0,-0.25 0.28,-0.74 0.62,-1.11s0.62,-0.99 0.62,-1.39c0,-0.43 0.19,-0.71 0.46,-0.71c0.25,0 0.46,-0.12 0.46,-0.31c0,-0.15 0.49,-0.77 1.08,-1.36c0.59,-0.62 1.08,-1.2 1.08,-1.36s0.55,-0.71 1.23,-1.26c0.68,-0.52 1.23,-1.17 1.23,-1.42s0.22,-0.46 0.46,-0.46s0.62,-0.28 0.83,-0.62c0.22,-0.34 0.49,-0.62 0.62,-0.62s0.74,-0.52 1.39,-1.14c0.65,-0.65 1.54,-1.36 2.04,-1.6c0.46,-0.25 0.83,-0.55 0.83,-0.71c0,-0.12 0.25,-0.25 0.55,-0.25c0.34,0 0.83,-0.28 1.14,-0.62c0.31,-0.34 0.71,-0.62 0.89,-0.62c0.22,0 0.56,-0.28 0.8,-0.62c0.25,-0.34 0.68,-0.62 0.99,-0.62s0.56,-0.12 0.56,-0.31c0,-0.15 0.28,-0.31 0.62,-0.31s0.62,-0.12 0.62,-0.31c0,-0.15 0.28,-0.31 0.62,-0.31s0.62,-0.09 0.62,-0.22c0,-0.28 1.48,-1.02 2,-1.02c0.19,0 0.52,-0.28 0.77,-0.62c0.25,-0.37 0.8,-0.62 1.3,-0.62c0.46,0 0.86,-0.12 0.86,-0.31c0,-0.15 0.28,-0.31 0.59,-0.31c0.34,0 0.71,-0.12 0.8,-0.31s0.74,-0.31 1.39,-0.31s1.82,-0.28 2.62,-0.62s1.88,-0.62 2.44,-0.62s1.11,-0.12 1.3,-0.28c0.15,-0.15 1.39,-0.37 2.74,-0.43c1.36,-0.09 3.58,-0.31 4.93,-0.49c2.68,-0.37 9.72,-0.15 9.72,0.31c0,0.15 1.11,0.28 2.47,0.28c1.45,0 2.47,0.12 2.47,0.31s0.68,0.31 1.54,0.31s1.54,0.15 1.54,0.31c0,0.19 0.28,0.31 0.59,0.31c0.34,0 0.71,0.15 0.8,0.31c0.09,0.19 0.68,0.31 1.26,0.31s1.05,0.15 1.05,0.31c0,0.19 0.43,0.31 0.93,0.31s0.93,0.15 0.93,0.31c0,0.19 0.43,0.31 0.93,0.31s0.93,0.09 0.93,0.25c0,0.25 1.51,0.99 2.07,0.99c0.22,0 0.4,0.09 0.4,0.25c0,0.12 0.46,0.4 1.02,0.62c2.13,0.86 3.92,1.76 3.92,2c0,0.12 0.15,0.22 0.34,0.22c0.37,0 3.18,1.85 3.3,2.22c0.06,0.12 0.28,0.25 0.52,0.25c0.34,0 2.04,1.39 5.64,4.66c0.71,0.65 1.3,1.39 1.3,1.67c0,0.25 0.19,0.46 0.4,0.46c0.46,0 3.3,2.65 3.3,3.12c0,0.18 0.31,0.71 0.71,1.17c0.37,0.46 0.96,1.23 1.3,1.7c0.34,0.49 0.77,1.05 0.96,1.23c0.22,0.22 0.74,1.14 1.2,2.07c0.46,0.93 0.93,1.73 1.05,1.82c0.37,0.31 0.96,1.54 0.96,2c0,0.25 0.15,0.46 0.31,0.46c0.19,0 0.31,0.28 0.31,0.62s0.12,0.62 0.25,0.62s0.43,0.83 0.65,1.85c0.25,1.02 0.49,1.85 0.62,1.85c0.25,0 0.96,2.28 0.96,3.08c0,0.34 0.12,0.62 0.28,0.62c0.12,0 0.37,0.8 0.49,1.79c0.12,0.96 0.37,2.74 0.52,3.92c0.46,3.08 0.46,10.12 0,12.65c-0.22,1.2 -0.46,2.65 -0.52,3.24c-0.25,1.57 -0.86,3.52 -1.17,3.73c-0.15,0.09 -0.59,1.33 -0.99,2.71c-0.68,2.31 -1.45,4.01 -3.58,8.05c-0.4,0.77 -0.89,1.57 -1.11,1.79s-0.62,0.8 -0.93,1.3c-0.28,0.52 -0.65,0.93 -0.77,0.93s-0.43,0.4 -0.71,0.93c-0.77,1.48 -6.6,7.06 -9.28,8.88c-0.68,0.43 -1.39,0.96 -1.6,1.17c-0.19,0.22 -0.65,0.49 -0.99,0.59c-0.34,0.09 -0.62,0.34 -0.62,0.49s-0.15,0.28 -0.34,0.28s-0.93,0.43 -1.67,0.93c-0.74,0.52 -1.57,0.93 -1.82,0.93c-0.28,0 -0.49,0.12 -0.49,0.28s-0.49,0.37 -1.08,0.46c-0.59,0.12 -1.17,0.4 -1.3,0.62c-0.15,0.22 -0.52,0.46 -0.86,0.56c-0.34,0.09 -1.57,0.56 -2.78,0.99c-1.17,0.43 -2.44,0.8 -2.78,0.8c-0.37,0 -0.77,0.12 -0.96,0.25c-0.15,0.15 -1.23,0.43 -2.44,0.65c-1.17,0.22 -3.21,0.65 -4.47,0.96c-1.26,0.31 -3.45,0.65 -4.84,0.77l-6.98,0.24l0.42,1.4l-0.19,0.08z" id="svg_2"/>
   <path class="st1" d="m342.42,90.3c0.25,0.43 5.09,-0.06 6.45,-0.65c0.34,-0.15 1.11,-0.34 1.7,-0.4c0.59,-0.06 1.7,-0.34 2.47,-0.62c0.77,-0.28 2,-0.65 2.78,-0.83c0.77,-0.22 1.88,-0.65 2.5,-0.96c0.59,-0.31 2,-0.74 3.15,-0.96c1.14,-0.22 2.07,-0.49 2.07,-0.62c0,-0.15 0.34,-0.25 0.74,-0.25c0.43,0 0.86,-0.12 0.96,-0.31c0.09,-0.15 0.86,-0.31 1.67,-0.31c1.05,0 1.7,-0.19 2.19,-0.62c0.4,-0.34 1.05,-0.62 1.45,-0.62s0.96,-0.12 1.26,-0.28c0.28,-0.15 1.33,-0.52 2.31,-0.8c0.99,-0.28 1.97,-0.71 2.22,-0.96c0.22,-0.25 0.59,-0.43 0.77,-0.43c0.83,0 2.56,-2.99 2.96,-5.12c0.25,-1.33 -0.86,-5.37 -1.48,-5.37c-0.15,0 -0.25,-0.22 -0.25,-0.49c0,-0.62 -0.74,-1.36 -1.36,-1.36c-0.28,0 -0.49,-0.12 -0.49,-0.28c0,-0.68 -4.66,-0.93 -7.25,-0.4c-3.73,0.8 -7.99,2 -8.11,2.31c-0.06,0.12 -0.4,0.22 -0.77,0.22c-0.34,0 -1.42,0.25 -2.34,0.59c-0.96,0.31 -2.5,0.74 -3.42,0.96c-2,0.43 -3.79,1.02 -4.01,1.26c-0.09,0.09 -0.74,0.28 -1.48,0.4c-0.71,0.09 -2.34,0.55 -3.61,0.96c-1.23,0.43 -2.62,0.77 -3.05,0.77s-0.86,0.15 -0.96,0.31c-0.09,0.19 -0.4,0.31 -0.65,0.31c-0.62,0 -3.21,2.59 -3.21,3.21c0,0.28 -0.12,0.49 -0.31,0.49c-0.56,0 -0.37,5.46 0.22,7.12c0.31,0.83 0.68,1.51 0.83,1.51s0.49,0.25 0.77,0.56c0.68,0.74 1.76,1.3 2.47,1.3c0.34,0 0.71,0.15 0.83,0.34l-0.02,0.02zm-23.31,-24.7c0,0.19 1.33,0.31 3.39,0.31s3.39,-0.12 3.39,-0.31c0,-0.15 0.22,-0.31 0.49,-0.31c0.31,0 1.2,-0.68 2,-1.54c0.8,-0.83 1.6,-1.54 1.79,-1.54c0.46,0 1.88,-1.51 1.88,-2c0,-0.25 0.15,-0.46 0.31,-0.46c0.19,0 0.31,-0.28 0.31,-0.62c0,-0.4 0.22,-0.62 0.56,-0.62c0.31,0 0.77,-0.4 1.08,-0.89c0.65,-1.08 2.22,-2.81 2.59,-2.81c0.28,0 1.94,-1.79 1.94,-2.07c0,-0.09 0.37,-0.56 0.86,-0.99c0.46,-0.46 1.02,-1.2 1.26,-1.63c0.22,-0.46 0.83,-0.99 1.3,-1.2c0.56,-0.22 0.89,-0.59 0.89,-0.93s0.19,-0.59 0.4,-0.59c0.55,-0.03 2.07,-1.45 2.07,-2c0,-0.25 0.22,-0.46 0.46,-0.46s0.46,-0.12 0.46,-0.28s0.74,-1.02 1.67,-1.94c0.89,-0.93 1.7,-1.85 1.76,-2c0.25,-0.65 2.78,-3.18 3.18,-3.18c0.22,0 0.59,-0.37 0.83,-0.83c0.25,-0.49 1.23,-1.67 2.22,-2.62c0.96,-0.96 1.76,-1.91 1.76,-2.1c0,-0.22 0.37,-0.74 0.86,-1.2c0.46,-0.43 1.02,-1.11 1.23,-1.51c0.46,-0.83 0.52,-7.16 0.06,-7.16c-0.15,0 -0.31,-0.4 -0.31,-0.86c0,-0.96 -1.73,-2.84 -2.59,-2.84c-0.25,0 -0.55,-0.12 -0.65,-0.31c-0.09,-0.15 -0.52,-0.31 -0.96,-0.31c-0.4,0 -0.74,-0.12 -0.74,-0.31c0,-0.43 -3.45,-0.37 -4.93,0.06c-0.68,0.22 -1.23,0.49 -1.23,0.62c0,0.15 -0.25,0.25 -0.59,0.25c-0.31,0 -1.05,0.52 -1.6,1.17c-0.59,0.65 -1.91,2.16 -2.99,3.36s-2.74,3.02 -3.7,4.04c-2.44,2.56 -3.45,3.7 -3.45,4.01c0,0.15 -0.34,0.46 -0.77,0.68c-0.4,0.22 -0.83,0.65 -0.96,0.99c-0.09,0.31 -0.37,0.56 -0.65,0.56c-0.49,0 -3.79,3.24 -3.79,3.73c0,0.46 -2.71,3.55 -6.01,6.88c-1.51,1.54 -3.27,3.39 -3.86,4.13c-0.59,0.71 -1.26,1.3 -1.45,1.3c-0.22,0 -0.4,0.12 -0.4,0.28s-0.56,0.89 -1.23,1.63c-0.65,0.71 -1.39,1.51 -1.57,1.76c-1.2,1.36 -1.63,6.45 -0.74,8.57c0.56,1.3 2.93,3.79 3.67,3.79c0.28,0 0.49,0.15 0.49,0.31l0,0l0.01,-0.01zm-28.99,-20.98c0,0.46 5.74,0.4 6.54,-0.06c1.14,-0.68 3.24,-2.84 3.49,-3.64c0.12,-0.4 0.43,-0.93 0.65,-1.17c0.25,-0.22 0.43,-0.96 0.43,-1.63s0.15,-1.48 0.31,-1.82c0.19,-0.34 0.46,-0.89 0.62,-1.23c0.19,-0.34 0.31,-0.93 0.31,-1.33c0,-0.37 0.28,-1.23 0.62,-1.91s0.62,-1.6 0.62,-2.07s0.09,-0.86 0.25,-0.86c0.28,0 0.99,-2.93 0.99,-4.1c0,-0.46 0.09,-0.83 0.25,-0.83c0.28,0 0.99,-2.25 0.99,-3.21c0,-0.43 0.15,-0.86 0.31,-0.96c0.19,-0.09 0.31,-0.46 0.31,-0.83c0,-0.74 0.83,-3.45 1.42,-4.63c0.25,-0.43 0.43,-1.26 0.43,-1.88s0.15,-1.2 0.31,-1.3c0.19,-0.12 0.31,-1.63 0.31,-3.55s-0.12,-3.42 -0.31,-3.55c-0.15,-0.09 -0.31,-0.46 -0.31,-0.8c0,-1.2 -2.04,-2.56 -4.56,-3.08c-2.28,-0.46 -5.27,0 -6.32,0.99c-0.34,0.31 -0.74,0.59 -0.86,0.59c-0.49,0 -1.51,2.16 -2.59,5.4c-0.59,1.88 -1.23,3.67 -1.39,4.01c-0.25,0.59 -0.49,1.63 -0.8,3.86c-0.09,0.59 -0.28,1.36 -0.4,1.7c-0.15,0.34 -0.86,2.5 -1.57,4.78c-0.71,2.28 -1.42,4.41 -1.57,4.69c-0.15,0.31 -0.28,0.93 -0.28,1.39c0,0.77 -0.37,2.16 -0.96,3.64c-0.31,0.83 -0.59,2.07 -0.96,4.72c-0.43,3.08 0.19,5.8 1.73,7.34c0.59,0.59 1.26,1.05 1.54,1.05s0.49,0.15 0.49,0.31l-0.04,-0.03z" id="svg_3"/>
   <path class="st0" d="m134.69,376.83c0.34,-0.49 2.28,-2.59 4.32,-4.69l3.08,-3.21c0.36,-0.48 0.53,-0.81 0.61,-1.06c1.71,-2.54 1.44,-2.54 1.71,-2.54c0.15,0 0.96,-0.77 1.82,-1.7c0.8,-0.89 1.6,-1.63 1.82,-1.69c0.08,-0.22 0.24,-0.3 0.55,-0.31c0.1,-0.08 0.19,-0.15 0.27,-0.2c0.05,-0.05 0.11,-0.09 0.16,-0.14c0.19,-0.2 0.4,-0.4 0.61,-0.6c0.08,-0.23 0.24,-0.38 0.49,-0.46c0.44,-0.41 0.9,-0.8 1.32,-1.14c0.05,-0.07 0.12,-0.13 0.2,-0.16c0.54,-0.43 1.01,-0.77 1.28,-0.91c0.06,-0.26 0.25,-0.37 0.6,-0.39c0.05,-0.14 0.41,-0.48 0.99,-0.95c0.06,-0.13 0.17,-0.22 0.32,-0.26c0.29,-0.23 0.62,-0.49 0.99,-0.77c0.11,-0.26 0.35,-0.44 0.63,-0.48c0.25,-0.19 0.52,-0.38 0.79,-0.58c0.05,-0.2 0.21,-0.35 0.42,-0.35l0.07,0c0.16,-0.12 0.33,-0.24 0.49,-0.36c0.02,-0.03 0.04,-0.07 0.06,-0.1c0.07,-0.2 0.32,-0.35 0.67,-0.42c0.48,-0.34 0.96,-0.68 1.44,-1.01c0.08,-0.16 0.2,-0.26 0.35,-0.26l0.02,0c0.18,-0.13 0.36,-0.25 0.54,-0.37c0.02,-0.03 0.04,-0.06 0.05,-0.09c0.09,-0.25 0.37,-0.46 0.65,-0.46c0.05,0 0.09,0 0.14,-0.01l0.31,-0.21s0.02,-0.06 0.02,-0.09c0,-0.15 0.19,-0.31 0.43,-0.31c0.06,0 0.13,0 0.19,-0.02c0.13,-0.08 0.26,-0.17 0.38,-0.25c0.4,-0.66 6.79,-4.52 11.41,-6.87c0.07,-0.14 0.21,-0.21 0.46,-0.24c1.01,-0.51 2.09,-1.03 3.21,-1.54c0.07,-0.24 0.26,-0.31 0.73,-0.33c0.49,-0.22 0.98,-0.43 1.48,-0.65c0.3,-0.44 1.32,-0.9 2.07,-0.9l0.08,0c0.17,-0.07 0.34,-0.14 0.5,-0.2c0.02,-0.03 0.03,-0.07 0.03,-0.1c0,-0.14 0.44,-0.29 1,-0.31c0.53,-0.21 1.06,-0.41 1.59,-0.61c0.22,-0.37 0.75,-0.57 1.67,-0.62c0.58,-0.21 1.15,-0.41 1.71,-0.6c0.15,-0.24 0.48,-0.4 1.09,-0.58c0.78,-0.24 1.42,-0.35 1.88,-0.37c0.58,-0.18 1.15,-0.34 1.7,-0.49l0.12,-0.03c0.36,-0.2 0.85,-0.38 1.39,-0.51c0.14,-0.15 0.42,-0.2 0.93,-0.2c0.1,0 0.21,0 0.3,-0.01c0.28,-0.08 0.56,-0.15 0.84,-0.22c0,-0.01 0.02,-0.03 0.03,-0.04c0.15,-0.4 7.62,-2.1 13.69,-3.11c4.26,-0.71 5.92,-0.97 6.55,-0.87c0.28,-0.03 0.55,-0.07 0.83,-0.1c0.22,-0.18 0.7,-0.27 1.72,-0.39c1.82,-0.19 2.57,-0.23 2.87,-0.09c0.49,-0.05 0.99,-0.09 1.48,-0.13c0.13,-0.22 0.48,-0.27 1.32,-0.27c0.34,0 0.62,0.04 0.85,0.09c0.61,-0.05 1.22,-0.09 1.84,-0.13c0.14,-0.24 0.54,-0.27 1.63,-0.27c0.59,0 1.01,0.03 1.28,0.09c1.57,-0.09 3.2,-0.17 4.9,-0.24c0.18,-0.13 0.54,-0.16 1.22,-0.16c0.32,0 0.59,0.03 0.81,0.09l4.89,-0.18c1.99,-0.03 2.1,0.04 2.04,1.26c-0.09,1.82 -0.28,5.61 -0.37,8.48c-0.1,2.52 -0.16,3.81 -0.28,4.48l0,0.92l0.03,5.15l0.08,0.2c0.29,0.1 0.41,0.42 0.53,1.19l0.02,0.11l0.41,0.97l0.07,0.16c0.08,0.04 0.15,0.21 0.19,0.44c0.52,1.2 1.16,2.47 1.5,3c0.32,0.52 0.58,1.04 0.67,1.32c0.11,0.16 0.22,0.32 0.33,0.47l0.02,0c0.15,0 0.26,0.17 0.3,0.42c0.22,0.28 0.51,0.61 0.83,0.98c0.14,0.07 0.24,0.18 0.3,0.34c1.39,1.56 3.3,3.53 4.07,4.2c0.17,0.05 0.27,0.13 0.33,0.23c0.11,0 0.49,0.28 0.93,0.67c0.15,0.06 0.26,0.16 0.31,0.28c0.23,0.2 0.5,0.41 0.77,0.6c0.22,0.02 0.35,0.11 0.42,0.29c0.18,0.12 0.34,0.21 0.47,0.29c0.46,0.25 0.83,0.56 0.83,0.71c0,0.04 0.02,0.07 0.04,0.11c0.07,0.04 0.15,0.08 0.23,0.13c0.04,0 0.09,0.01 0.13,0.01c0.22,0 0.71,0.28 1.08,0.62s0.8,0.62 0.99,0.62c0.15,0 0.31,0.12 0.31,0.25c0,0.02 0,0.04 0.03,0.06l0.08,0.05c0.62,0.08 1,0.28 1.1,0.59c0.44,0.18 0.81,0.4 0.92,0.55l0.14,0.08c0.65,0.09 1.21,0.4 1.51,0.79c0.11,0.06 0.22,0.11 0.33,0.17c0.36,0.08 0.84,0.23 1.23,0.4c0.27,0.11 0.57,0.27 0.89,0.47c0.25,0.03 0.6,0.15 0.93,0.31c0.08,0 0.15,0.02 0.21,0.04c0.05,-0.03 0.12,-0.05 0.19,-0.05c0.25,0 0.46,0.15 0.46,0.37s0.37,0.77 0.83,1.23l0.72,0.74l0.46,0.4l-0.04,0c0.21,0.19 0.42,0.39 0.63,0.59c0.41,0.32 1.07,0.95 2.18,2l2.78,2.65l-0.14,0c0.64,0.63 1.29,1.26 1.97,1.91l0.24,0.23c0.33,0.12 1.05,0.81 2.71,2.42l2.93,2.84l-0.15,0c0.32,0.31 0.61,0.6 0.88,0.87l0.18,0.17l0,-0.12l1.34,1.11c1.61,1.39 1.99,2.02 1.61,2.83l0,0.02c0,0.16 -0.07,0.29 -0.18,0.41c-0.05,0.08 -0.12,0.15 -0.2,0.23c-0.01,0.01 -0.06,0.02 -0.13,0.03c-0.26,0.22 -0.58,0.34 -0.89,0.34c-0.13,0 -0.24,0 -0.33,-0.02c-0.38,0.02 -0.68,-0.04 -0.74,-0.2c-0.44,0 -0.96,0.02 -1.55,0.03l0,0.19l-4.01,0l0,-0.15l-1.23,0s-0.17,0.01 -0.17,0.01c-0.15,0.12 -0.42,0.14 -0.9,0.14s-0.72,-0.01 -0.88,-0.12c-6.97,0.05 -17.77,0.09 -33.63,0.1c-0.1,0.01 -0.22,0.02 -0.34,0.02s-0.25,0 -0.36,-0.02l-2.91,0c-0.13,0.01 -0.28,0.02 -0.43,0.02s-0.28,0 -0.42,-0.01l-3.54,0c-0.12,0 -0.24,0.01 -0.36,0.01l-65.67,0c-11.21,0 -19.71,-0.01 -26.18,-0.03c-0.15,0.03 -0.36,0.03 -0.64,0.03s-0.51,0 -0.66,-0.04c-2.11,0 -3.99,-0.01 -5.66,-0.02l0,0.06l-9.56,0l0,-0.17l-0.31,0l0,0.17l-2.26,0c-0.19,0 -0.39,0 -0.6,-0.03c-0.7,-0.06 -1.25,-0.18 -1.4,-0.33c-0.22,-0.22 -0.33,-0.46 -0.36,-0.75c-0.03,-0.1 -0.03,-0.2 -0.01,-0.32l0,-0.04s0.03,-0.12 0.08,-0.21c0.15,-0.51 0.52,-1.08 1.12,-1.73l1.23,-1.36l0.02,0.12c0.25,-0.27 0.53,-0.57 0.83,-0.89c0.04,-0.07 0.09,-0.15 0.17,-0.25c0.22,-0.34 2.44,-2.68 4.9,-5.27c1.59,-1.65 2.62,-2.71 3.31,-3.36l0.64,-0.68l0.62,-0.83l-0.03,-0.06zm76.12,15.95l-0.13,0l0.14,0l0,0l-0.01,0z" id="svg_4"/>
   <path class="st4" d="m223.7,331.74c-0.46,0.17 -1.31,0.3 -2.83,0.47c-0.64,0.08 -1.03,0.12 -1.27,0.09l-0.83,0.12c-0.06,0.02 -0.13,0.05 -0.21,0.07c-0.62,0.16 -1,0.21 -1.22,0.13l-0.08,0c-0.15,0.04 -0.31,0.07 -0.48,0.11l-48.76,15.81l0.03,-16.84c0,-5.37 0.03,-10.28 0.09,-13.03c-0.02,-1.24 -0.04,-2.74 -0.05,-4.47c-0.03,-1.17 -0.05,-3.1 -0.05,-5.38c-0.04,-0.08 -0.08,-0.16 -0.11,-0.25c-0.25,-0.93 -0.25,-4.81 0,-5.71c0.03,-0.11 0.08,-0.22 0.13,-0.31c0.03,-4.42 0.1,-8.82 0.18,-11.12c0,-0.56 0.03,-1.08 0.04,-1.57c0,-0.24 0,-0.47 0.02,-0.69c-0.12,-0.08 -0.18,-0.27 -0.19,-0.5c-0.04,-0.04 -0.06,-0.09 -0.06,-0.15c0,-0.55 0.14,-1.08 0.34,-1.42c0,-0.2 0.03,-0.39 0.04,-0.57c-0.06,-0.16 -0.03,-0.45 0.05,-0.94c0.15,-0.88 0.26,-1.5 0.37,-1.93c0.03,-0.15 0.06,-0.29 0.1,-0.45l0.04,-0.17l0,-0.05c0,-0.63 0.3,-1.69 0.61,-2.38c0.15,-0.57 0.29,-1.03 0.38,-1.29l-0.06,0l0.55,-1.45c0.18,-0.48 0.36,-0.85 0.53,-1.11c-0.08,-0.12 0.05,-0.4 0.31,-1.04c0.36,-0.84 0.83,-1.78 1.39,-2.76c0.02,-0.33 0.74,-1.49 1.12,-1.85c0.25,-0.39 0.51,-0.78 0.77,-1.16c0.05,-0.13 0.16,-0.3 0.3,-0.49l-0.06,0l0.62,-0.83c0.34,-0.49 1.11,-1.42 1.7,-2.1l1.08,-1.23c0.07,-0.06 0.13,-0.12 0.19,-0.17l0.12,-0.14c0.18,-0.19 0.31,-0.28 0.41,-0.28c0.21,-0.21 0.44,-0.43 0.7,-0.67c-0.03,-0.04 -0.03,-0.08 0,-0.13c0,0 0,-0.02 0.02,-0.03l-0.02,0l0.09,-0.08c0.11,-0.12 0.29,-0.28 0.51,-0.46c0,-0.02 0,-0.03 0.02,-0.05c0.09,-0.15 0.59,-0.59 1.08,-0.93l0.13,-0.09c0.68,-0.57 1.43,-1.2 1.81,-1.48l0.86,-0.65l0,0.04l0.88,-0.62c0.4,-0.34 0.68,-0.52 0.88,-0.55c0.54,-0.37 1.14,-0.74 1.49,-0.9c0.15,-0.09 0.3,-0.17 0.43,-0.24c0.32,-0.19 0.74,-0.42 1.22,-0.66c0.49,-0.35 1.15,-0.72 1.36,-0.72c0,0 0.03,0 0.04,0.02c0.17,-0.08 0.35,-0.17 0.55,-0.27c0.02,0 0.04,-0.01 0.05,0c1.51,-0.72 2.24,-1.05 2.6,-1.1c0.34,-0.12 0.64,-0.2 0.83,-0.2l0.06,0c0.2,-0.06 0.4,-0.13 0.6,-0.19c0.29,-0.23 0.82,-0.4 1.39,-0.43c0.8,-0.31 2.25,-0.66 4.15,-0.98c0.33,-0.16 0.79,-0.26 1.26,-0.26c0.05,0 0.1,0.02 0.15,0.06l0.15,0c0.16,-0.02 0.28,-0.02 0.38,0c0.14,-0.02 0.28,-0.04 0.43,-0.04c0.34,-0.18 0.84,-0.31 1.36,-0.31c0.02,0 0.05,0 0.07,0c0.19,-0.02 0.34,-0.02 0.47,0c0.12,0 0.25,-0.02 0.38,-0.02l0.31,0s0.05,0 0.07,0c0.19,-0.02 0.34,-0.02 0.47,0c0.12,0 0.25,-0.02 0.38,-0.02c0.04,0 0.08,0 0.11,0.03c0.22,-0.02 0.46,-0.03 0.72,-0.03c0.28,0 0.54,0 0.77,0.04c0.1,-0.03 0.22,-0.03 0.38,0c0.09,0 0.19,0 0.31,0c0.09,0 0.19,0 0.31,0c0.08,0 0.19,0 0.31,0c0.09,0 0.19,0 0.31,0c0.23,-0.03 0.58,0.02 1.1,0.16c0.15,0.04 0.27,0.09 0.37,0.14l0.08,0c0.09,0 0.19,0 0.31,0c0.09,0 0.19,0 0.31,0c0.16,-0.02 0.38,0 0.67,0.06c0.12,0.02 0.26,0.04 0.43,0.07c1.79,0.31 3.13,0.61 4.02,0.88c0.09,0.02 0.19,0.05 0.3,0.07c0.14,0.04 0.25,0.08 0.35,0.13c0.34,0.03 0.81,0.18 1.26,0.37l0,-0.07l1.45,0.56c0.34,0.13 0.64,0.25 0.87,0.38c0.06,0.03 0.13,0.05 0.21,0.09c0.28,0.11 0.5,0.23 0.67,0.33c0.27,0.11 0.48,0.2 0.63,0.28c0.03,-0.04 0.07,-0.05 0.11,-0.03c0.77,0.37 1.31,0.66 1.61,0.88c0.23,0.07 0.71,0.33 1.24,0.65c0.19,0.04 0.48,0.2 0.95,0.47c0.28,0.17 0.5,0.32 0.64,0.45c0.2,0.03 0.48,0.21 0.89,0.55l0.91,0.64c0.29,0.2 0.51,0.37 0.68,0.52c0.05,0.03 0.11,0.08 0.18,0.13c0.39,0.3 0.79,0.63 1.17,0.95c0.11,0.09 0.21,0.17 0.29,0.24c1.33,1.13 2.49,2.24 2.76,2.69c0.07,0.11 0.13,0.2 0.18,0.27c0.09,0.08 0.2,0.18 0.31,0.29s0.1,0.11 0.1,0.11c0.13,0.14 0.27,0.3 0.4,0.46c0.02,0 0.03,0 0.05,0.01c0.09,0.06 0.24,0.21 0.44,0.43c0.19,0.13 0.46,0.46 0.83,0.99l0.41,0.59c0.24,0.19 0.59,0.66 1.13,1.44l0.96,1.36l-0.11,0c0.06,0.08 0.11,0.18 0.18,0.28c0.09,0.15 0.16,0.28 0.23,0.4c1.07,1.45 3.69,6.83 3.69,7.84c0,0.05 0,0.09 -0.03,0.13c0.06,0.1 0.11,0.24 0.15,0.39l0.06,0.23c0.04,0.11 0.08,0.22 0.12,0.35c0.05,0.1 0.09,0.22 0.13,0.35c0.04,0.15 0.08,0.29 0.1,0.42l0.02,0.08c0.38,1.37 0.59,2.13 0.63,2.57c0.04,0.26 0.05,0.44 0,0.57l0.07,0.4c0.04,0.08 0.07,0.18 0.1,0.29c0.16,0.59 0.21,0.96 0.13,1.18c0,0.14 0,0.24 0,0.32c0,0.17 0.02,0.37 0.03,0.59c0.05,0.1 0.1,0.23 0.14,0.38c0.13,0.5 0.19,0.84 0.16,1.06c0.05,0.36 0.05,0.64 0,0.85c0.07,0.45 0.03,0.75 -0.11,0.91c0.09,1.45 0.13,2.95 0.12,4.48c0,1.59 -0.04,2.78 -0.09,3.57l0.05,7.63c0,2.02 0,3.81 0,5.38c0.03,2.31 0.06,5.25 0.06,8.28l0,9.85c0.05,0.1 0.09,0.2 0.12,0.33c0.12,0.46 0.19,0.86 0.12,0.89c-0.06,0.06 -0.96,0.22 -2.04,0.34c-0.73,0.07 -1.19,0.11 -1.47,0.09c-0.53,0.08 -0.91,0.04 -1.13,-0.1l-0.69,0.03c-0.12,0.08 -0.3,0.16 -0.53,0.22c-1.03,0.27 -1.68,0.26 -1.95,-0.03l-0.21,0.03c-0.89,0.09 -2.84,0.19 -4.29,0.19l-0.39,0c-0.41,0.19 -1.09,0.31 -1.96,0.31c-0.26,0 -0.46,-0.01 -0.62,-0.05c-0.28,0.03 -0.59,0.05 -0.93,0.05s-0.58,-0.02 -0.74,-0.09l-0.15,0c-0.12,0.08 -0.28,0.15 -0.5,0.21c-0.77,0.2 -1.33,0.25 -1.67,0.14c-0.24,0.03 -0.51,0.05 -0.79,0.05c-0.26,0 -0.46,-0.03 -0.59,-0.09c-0.25,0.02 -0.49,0.05 -0.74,0.08l-0.02,0.03l-0.01,0z" id="svg_5"/>
   <path class="st2" d="m269.47,339.73c0.15,4.78 0.23,15.55 0.08,16.25c-0.03,0.14 -0.06,0.25 -0.09,0.34c-0.01,5.78 -0.04,10.01 -0.08,11.79c0.11,0.11 0.14,0.31 0.1,0.62c0.02,0.11 0.03,0.25 0.03,0.41c0,0.7 -0.1,1.29 -0.26,1.69c-0.04,0.58 -0.09,1.02 -0.17,1.33c0.08,0.1 0.12,0.24 0.12,0.43c0,0.62 -0.06,0.65 -0.99,0.4c-0.16,-0.04 -0.3,-0.11 -0.42,-0.22c-0.35,-0.08 -0.79,-0.22 -1.33,-0.43c-0.44,-0.17 -0.78,-0.33 -1.02,-0.48c-0.02,0.07 -0.04,0.11 -0.06,0.11c-0.06,0 -1.05,-0.49 -2.16,-1.08c-1.6,-0.85 -2.56,-1.4 -3.01,-1.75c0,0.02 -0.01,0.02 -0.02,0.02c-0.06,0 -0.77,-0.46 -1.6,-1.05c-0.39,-0.28 -0.8,-0.57 -1.15,-0.84c0,0.04 -0.01,0.07 -0.02,0.07c-0.06,0 -1.11,-0.77 -2.31,-1.73c-1.23,-0.93 -2.25,-1.76 -2.25,-1.82c0,-0.01 0,-0.02 0.02,-0.03l-0.48,-0.4l0.1,0c-1.06,-0.98 -2.01,-1.99 -2.87,-3.03l0,0.07l-0.84,-1.08l-0.86,-1.08l0.15,-0.02c-0.32,-0.48 -0.62,-0.97 -0.9,-1.48c-0.14,-0.11 -0.3,-0.35 -0.48,-0.73c-0.25,-0.49 -0.49,-0.96 -0.56,-1.08c-0.02,-0.05 0,-0.09 0.05,-0.13c-0.09,-0.19 -0.17,-0.39 -0.26,-0.58c-0.15,-0.23 -0.32,-0.56 -0.5,-0.98c-0.34,-0.83 -0.71,-1.85 -0.8,-2.31c-0.07,-0.36 -0.09,-0.57 -0.03,-0.7c-0.22,-1.07 -0.37,-2.18 -0.37,-2.85c0,-0.32 0.08,-0.52 0.24,-0.63l0,-0.78c-0.19,-0.12 -0.25,-0.39 -0.25,-0.91c0,-0.9 0.11,-1.59 0.31,-2c0.03,-1.06 0.08,-2.22 0.13,-3.37c-0.09,-0.11 -0.13,-0.28 -0.13,-0.49c0,-0.58 0.09,-1.09 0.23,-1.47c0.04,-0.65 0.07,-1.28 0.11,-1.87c0.06,-1.01 0.11,-2.18 0.16,-3.51c-0.14,-0.13 -0.19,-0.38 -0.19,-0.8l-0.06,-0.62l-0.87,-3.08s0.03,0 0.04,-0.01l-0.02,-2.76l-0.02,0c-0.19,0 -0.31,-1.14 -0.31,-2.78s0.12,-2.7 0.29,-2.77l0,-1.86c-0.16,-0.06 -0.29,-0.53 -0.29,-1.07s0.12,-0.98 0.26,-1.06l-0.03,-4.06c-0.32,-0.29 -0.31,-2.42 -0.02,-3.19l0,-0.58c-0.27,-0.37 -0.27,-1.48 -0.02,-1.95l0,-1.65c-0.21,-2.6 -0.27,-8.6 -0.16,-12.11c-0.04,-1.61 -0.09,-2.93 -0.16,-4.05c-0.13,-0.1 -0.19,-0.28 -0.19,-0.56s-0.04,-0.83 -0.1,-1.44c-0.06,-0.29 -0.11,-0.63 -0.18,-1.03c-0.09,-0.57 -0.17,-1.07 -0.24,-1.52c-0.09,-0.15 -0.16,-0.36 -0.22,-0.61c-0.08,-0.44 -0.16,-1.06 -0.18,-1.49l-0.03,-0.08c-0.19,-0.09 -0.26,-0.31 -0.28,-0.75c0,-0.04 -0.03,-0.08 -0.04,-0.13c-0.13,-0.06 -0.25,-0.46 -0.27,-0.94c-0.05,-0.15 -0.1,-0.29 -0.14,-0.43c-0.09,-0.09 -0.14,-0.24 -0.16,-0.45c-0.05,-0.13 -0.1,-0.26 -0.15,-0.4c-0.06,-0.07 -0.11,-0.21 -0.14,-0.37l-0.08,-0.2c-0.09,-0.06 -0.17,-0.26 -0.21,-0.53c-0.08,-0.19 -0.16,-0.39 -0.24,-0.58c-0.09,-0.15 -0.19,-0.37 -0.28,-0.63c-0.09,-0.19 -0.17,-0.38 -0.26,-0.57c-0.31,-0.28 -0.62,-0.9 -0.74,-1.48c-0.06,-0.1 -0.11,-0.21 -0.17,-0.31c-0.04,-0.05 -0.07,-0.11 -0.1,-0.17l-0.03,-0.06c-0.25,-0.06 -0.34,-0.22 -0.37,-0.62c-0.14,-0.06 -0.23,-0.23 -0.28,-0.51l-0.09,-0.15c-0.18,-0.12 -0.35,-0.39 -0.44,-0.7s-0.13,-0.21 -0.13,-0.21c-0.13,-0.06 -0.21,-0.18 -0.26,-0.39l-0.12,-0.18c-0.1,-0.03 -0.18,-0.16 -0.22,-0.32l-0.06,-0.09c-0.17,-0.08 -0.26,-0.2 -0.26,-0.36c-0.05,-0.08 -0.11,-0.16 -0.16,-0.23c-0.03,-0.03 -0.06,-0.07 -0.08,-0.11l-0.09,-0.13c-0.05,-0.02 -0.1,-0.09 -0.14,-0.19l-0.12,-0.16c-0.18,-0.06 -0.27,-0.18 -0.3,-0.39l-0.3,-0.39c-0.07,-0.07 -0.13,-0.14 -0.18,-0.22c-0.07,-0.09 -0.15,-0.18 -0.22,-0.27c-0.08,-0.05 -0.14,-0.12 -0.17,-0.21l-0.04,-0.04c-0.14,-0.05 -0.23,-0.15 -0.28,-0.33c-0.39,-0.45 -0.79,-0.9 -1.21,-1.35c-0.17,-0.11 -0.35,-0.31 -0.52,-0.55c-0.14,-0.15 -0.29,-0.3 -0.43,-0.45c-0.23,-0.12 -0.44,-0.28 -0.62,-0.46c-0.12,-0.13 -0.24,-0.3 -0.34,-0.48c-0.6,-0.57 -1.22,-1.12 -1.85,-1.65c-0.13,-0.04 -0.21,-0.1 -0.26,-0.21l-0.16,-0.13s-0.07,-0.05 -0.09,-0.08c-0.35,-0.28 -0.7,-0.55 -1.05,-0.82c-0.08,-0.02 -0.15,-0.08 -0.2,-0.15c-0.21,-0.16 -0.43,-0.31 -0.64,-0.46c-0.24,-0.05 -0.39,-0.14 -0.39,-0.24l0,-0.04c-0.13,-0.09 -0.26,-0.18 -0.4,-0.27l-0.06,0c-0.17,0 -0.3,-0.1 -0.38,-0.29c-0.19,-0.12 -0.37,-0.24 -0.56,-0.36c-0.2,-0.04 -0.31,-0.1 -0.37,-0.23l-0.75,-0.45c-0.65,-0.18 -1.42,-0.59 -1.47,-0.81l-0.09,-0.04c-0.24,-0.03 -0.38,-0.09 -0.45,-0.23c-0.09,-0.05 -0.18,-0.09 -0.28,-0.14c-0.03,0 -0.05,-0.01 -0.08,-0.02c-0.41,-0.08 -0.9,-0.3 -1.2,-0.53c-0.39,-0.02 -0.56,-0.1 -0.63,-0.3l-0.19,-0.08c-0.35,-0.03 -0.68,-0.08 -0.85,-0.13c-0.18,-0.05 -0.34,-0.17 -0.43,-0.34c-0.1,-0.04 -0.21,-0.07 -0.31,-0.11c-0.38,-0.02 -0.78,-0.07 -1.12,-0.17c-0.18,-0.05 -0.33,-0.17 -0.42,-0.33c-0.18,-0.06 -0.36,-0.11 -0.53,-0.16c-0.65,-0.07 -1.5,-0.23 -2.59,-0.46c-0.12,-0.03 -0.23,-0.05 -0.34,-0.07c-0.21,-0.02 -0.35,-0.05 -0.46,-0.11c-0.27,-0.07 -0.49,-0.13 -0.68,-0.19c-0.47,0 -0.75,-0.04 -0.91,-0.15c-0.37,-0.05 -0.7,-0.11 -0.99,-0.17c-0.08,0 -0.17,0 -0.27,0l-0.62,0c-0.43,0 -0.71,-0.03 -0.87,-0.13c-0.6,-0.02 -1.23,-0.03 -1.91,-0.03c-0.54,0 -1.08,0 -1.62,0.04c-0.16,0.09 -0.43,0.12 -0.85,0.12l-0.85,0c-0.57,0.05 -1.13,0.12 -1.69,0.19c-0.1,0.06 -0.25,0.09 -0.45,0.1c-0.43,0.12 -1.04,0.25 -1.89,0.41c-0.93,0.17 -1.64,0.3 -2.18,0.38l-0.56,0.15c-0.08,0.18 -0.28,0.26 -0.66,0.29c-0.26,0.13 -0.65,0.22 -1.15,0.27c-0.13,0.04 -0.26,0.09 -0.39,0.13c-0.11,0.15 -0.3,0.21 -0.62,0.22l-0.33,0.12c-0.08,0.09 -0.21,0.14 -0.43,0.16l-0.07,0.03c0,0.14 -0.3,0.24 -0.7,0.28c-0.31,0.13 -0.61,0.26 -0.91,0.4c-0.08,0.11 -0.24,0.18 -0.47,0.21l-0.15,0.07c-0.08,0.15 -0.23,0.22 -0.52,0.25l-0.09,0.04c-0.07,0.17 -0.22,0.24 -0.53,0.27l-0.07,0.04c-0.08,0.18 -0.25,0.34 -0.45,0.41c-0.17,0.07 -0.38,0.12 -0.6,0.15l-0.22,0.12c-0.06,0.06 -0.16,0.12 -0.27,0.16c-0.22,0.12 -0.43,0.25 -0.64,0.38c-0.08,0.2 -0.22,0.3 -0.39,0.3c-0.05,0 -0.09,0 -0.14,0.02l-0.11,0.07s-0.11,0.09 -0.18,0.13c-0.02,0.03 -0.03,0.06 -0.03,0.09c0,0.13 -0.23,0.22 -0.56,0.27l-0.13,0.09c-0.06,0.1 -0.15,0.17 -0.3,0.2c-0.23,0.16 -0.47,0.32 -0.7,0.49c-0.07,0.07 -0.14,0.12 -0.21,0.15c-0.06,0.19 -0.18,0.28 -0.43,0.31l-0.16,0.12c-0.04,0.06 -0.1,0.11 -0.2,0.15c-0.1,0.08 -0.21,0.16 -0.31,0.24c-0.08,0.15 -0.19,0.23 -0.37,0.29c-0.29,0.23 -0.58,0.47 -0.87,0.71c-0.1,0.13 -0.22,0.23 -0.34,0.29l-0.12,0.11c-0.05,0.11 -0.13,0.18 -0.25,0.22l-0.02,0.02c-0.04,0.16 -0.13,0.25 -0.32,0.3c-0.05,0.19 -0.15,0.28 -0.37,0.33c-0.84,0.78 -1.64,1.6 -2.41,2.45c-0.03,0.15 -0.13,0.27 -0.28,0.31l-0.06,0.07c-0.04,0.12 -0.11,0.19 -0.2,0.23l-0.16,0.19s-0.03,0.04 -0.05,0.06c-0.39,0.45 -0.76,0.91 -1.13,1.39c-0.03,0.08 -0.08,0.14 -0.14,0.18c-0.27,0.35 -0.54,0.71 -0.8,1.08c-0.03,0.06 -0.06,0.11 -0.1,0.15c-0.06,0.09 -0.12,0.18 -0.19,0.26c0,0.03 -0.03,0.05 -0.05,0.07c-0.09,0.13 -0.18,0.27 -0.28,0.4c-0.05,0.18 -0.12,0.29 -0.2,0.31c-0.11,0.16 -0.22,0.33 -0.32,0.5c0,0.15 -0.1,0.29 -0.23,0.37c-0.25,0.4 -0.5,0.81 -0.74,1.22c-0.09,0.48 -0.28,0.82 -0.53,0.95l-0.07,0.13c-0.03,0.25 -0.08,0.49 -0.15,0.66c-0.05,0.15 -0.2,0.28 -0.39,0.37l-0.06,0.13c-0.06,0.58 -0.23,0.93 -0.53,1.1l-0.11,0.24c-0.05,0.26 -0.12,0.45 -0.22,0.5l-0.06,0.15c-0.03,0.21 -0.1,0.38 -0.18,0.44c-0.04,0.09 -0.07,0.19 -0.11,0.28c0,0.3 -0.07,0.47 -0.21,0.57c-0.04,0.12 -0.09,0.24 -0.13,0.37c-0.03,0.3 -0.08,0.61 -0.15,0.91c-0.05,0.19 -0.16,0.34 -0.3,0.46c-0.48,1.56 -0.9,3.25 -1.22,4.93c-0.06,0.66 -0.15,1.22 -0.23,1.49c0.06,0.18 0.09,0.43 0.09,0.74c0,0.66 -0.07,0.94 -0.33,1.04c-0.03,0.76 -0.06,1.75 -0.08,2.92c0.07,0.59 0.1,1.61 0.1,3.29c0,1.91 -0.02,2.97 -0.12,3.51c0,1.21 0,2.57 0,4.01c0.1,0.48 0.14,1.42 0.14,3.12c0,1.87 -0.04,2.82 -0.17,3.25c0,0.79 0,1.57 -0.02,2.35c0.15,1.52 0.18,5.54 0.18,15.04c0,8.73 0.09,16.07 0.19,16.35l0.09,4.69c0.03,0.08 0.04,0.19 0.04,0.31c0,0.05 0,0.09 -0.03,0.13l0.02,1.15c-5.58,3.75 -11.71,7.92 -16.78,12.03c-0.61,0.51 -1.24,1.03 -1.88,1.56c-0.92,0.79 -1.79,1.57 -2.61,2.34c-0.4,0.38 -0.77,0.72 -1.11,1.02c0.02,0.18 -0.33,0.5 -1.05,1.01l-0.93,0.65l0,-0.05c-0.55,0.37 -0.93,0.5 -1.14,0.42c-0.27,-0.11 -0.37,-6.27 -0.4,-28.3l0,-11.24c0,-18.84 0.07,-35.19 0.15,-39.68c-0.11,-0.15 -0.15,-0.4 -0.15,-0.82c0,-0.32 0,-0.61 0.04,-0.87c-0.03,-0.07 -0.04,-0.14 -0.04,-0.21c0,-0.13 0,-0.26 0.02,-0.38c0,-0.03 -0.02,-0.05 -0.02,-0.08l0,-0.31c0,-0.25 0.03,-0.5 0.08,-0.72c0.02,-0.14 0.04,-0.31 0.07,-0.51c0.12,-0.84 0.21,-1.45 0.3,-1.89c0.05,-0.32 0.1,-0.69 0.17,-1.09c0,-0.1 0.02,-0.2 0.03,-0.3c-0.02,-0.04 -0.04,-0.08 -0.04,-0.12l0,-0.15s0,-0.06 0,-0.11c0,-0.17 0.04,-0.34 0.08,-0.5c0.09,-0.5 0.22,-1.24 0.37,-2.04c0.25,-1.33 0.46,-2.5 0.46,-2.56c0,-0.03 0.04,-0.05 0.1,-0.07c0.06,-0.23 0.14,-0.44 0.24,-0.6c0.05,-0.26 0.15,-0.68 0.28,-1.17c0.02,-0.58 0.19,-1.12 0.42,-1.42c0.04,-0.1 0.07,-0.2 0.11,-0.29c0.1,-0.33 0.21,-0.67 0.33,-1.01c0.03,-0.08 0.06,-0.16 0.08,-0.24c-0.01,-0.04 -0.02,-0.09 -0.02,-0.13c0,-0.4 0.21,-0.93 0.45,-1.29c0,-0.14 0.1,-0.38 0.26,-0.75c0.09,-0.22 0.18,-0.4 0.26,-0.56l-0.05,0l0.31,-0.77l0,-0.03c0,-0.42 0.23,-0.98 0.49,-1.34c0.41,-1.02 0.76,-1.79 1.05,-2.31l0.03,-0.09c0.27,-0.72 0.76,-1.7 1.21,-2.47c0.09,-0.37 0.78,-1.59 1.31,-2.41c0.17,-0.39 0.56,-1.01 0.87,-1.38c0.12,-0.39 0.66,-1.24 1.01,-1.64c0.16,-0.24 0.35,-0.53 0.56,-0.82l-0.08,0l0.65,-0.93c0.28,-0.39 0.5,-0.67 0.67,-0.85l0.59,-0.82c0.52,-0.77 1.36,-1.85 1.85,-2.41l0.86,-1.02l0,0.04c0.28,-0.33 0.59,-0.69 0.89,-1.03l0.06,-0.09c0.47,-0.66 0.77,-1.01 0.96,-1.05l0.58,-0.65l0,0.03c0.41,-0.43 0.88,-0.89 1.33,-1.29l0.04,-0.04s0,-0.06 0.02,-0.09c0.04,-0.07 0.16,-0.2 0.33,-0.34c0.06,-0.07 0.17,-0.18 0.31,-0.31c0.14,-0.18 0.6,-0.57 1.05,-0.89l0.48,-0.34l-0.02,0l0.08,-0.07c0.11,-0.12 0.29,-0.29 0.52,-0.46c0,-0.02 0,-0.03 0.02,-0.05c0.04,-0.07 0.17,-0.2 0.34,-0.35c0.31,-0.4 1.96,-1.65 3.87,-3.01c0.14,-0.1 0.28,-0.21 0.42,-0.31l1.39,-0.99l0,0.03c0.64,-0.44 1.26,-0.86 1.85,-1.25c0.07,-0.06 0.16,-0.12 0.25,-0.17c0.05,-0.03 0.1,-0.06 0.16,-0.1c1.41,-0.92 2.51,-1.57 2.74,-1.57l0,0c0.44,-0.29 0.97,-0.57 1.24,-0.61c0.4,-0.21 0.74,-0.38 0.97,-0.49c0.39,-0.22 0.84,-0.45 1.27,-0.63c0.47,-0.32 1.26,-0.71 2.15,-1.05l0.1,-0.04c0.23,-0.12 0.49,-0.23 0.76,-0.33l1.45,-0.56l0,0.07c0.47,-0.19 1.12,-0.41 1.98,-0.7c0.47,-0.21 1.14,-0.46 1.97,-0.72c1.55,-0.46 2.4,-0.71 2.88,-0.76c0.34,-0.21 0.88,-0.35 1.44,-0.35l0.02,0c0.6,-0.21 1.83,-0.46 4.3,-0.93c0.79,-0.15 1.3,-0.24 1.63,-0.27c0.17,-0.03 0.35,-0.04 0.53,-0.04l0.31,0c0.05,0 0.11,0.02 0.15,0.06c0.4,-0.05 0.61,-0.03 0.72,0.06c0.13,0 0.27,-0.03 0.41,-0.04c0.12,-0.08 0.26,-0.16 0.42,-0.21c0.6,-0.16 1.03,-0.22 1.31,-0.16c0.12,0 0.25,-0.02 0.38,-0.02l0.31,0c0.07,0 0.13,0.04 0.19,0.1c0.49,-0.04 0.89,-0.04 1.02,0.04c0.34,-0.02 0.67,-0.03 1.01,-0.04l0.35,0c0.17,-0.11 0.38,-0.19 0.61,-0.25c0.94,-0.2 2.12,-0.08 2.7,0.22c0.66,0 1.3,0.04 1.95,0.07c0.12,0 0.24,0 0.38,0.02c0.1,-0.11 0.28,-0.15 0.57,-0.12c0.09,0 0.21,0 0.34,0c0.29,-0.07 0.73,0 1.37,0.16c0.21,0.06 0.37,0.13 0.48,0.2l0.08,0c0.13,-0.07 0.34,-0.08 0.64,-0.04l0.36,0c0.22,-0.08 0.6,-0.03 1.2,0.13c0.1,0.03 0.19,0.06 0.27,0.1c0.59,0.11 1,0.2 1.29,0.28l0.62,0.11c0.22,-0.08 0.6,-0.03 1.21,0.13c0.2,0.06 0.35,0.13 0.47,0.2c0.13,0.02 0.28,0.04 0.46,0.08c0.21,0.04 0.51,0.11 0.88,0.19c0.18,0.03 0.4,0.08 0.66,0.15c0.1,0.03 0.18,0.06 0.26,0.09c0.4,0.11 0.83,0.22 1.28,0.35c0.25,0 0.59,0.08 0.98,0.28c1.19,0.35 2.37,0.71 3.21,1.01c0.2,0.07 0.38,0.14 0.53,0.21c0.12,0.03 0.26,0.08 0.42,0.13c0.25,0.08 0.49,0.18 0.68,0.3c0.07,0.02 0.15,0.05 0.23,0.08c0.13,-0.05 0.37,0.04 0.85,0.24c0.25,0.1 0.46,0.21 0.62,0.3c1.03,0.42 2.11,0.99 2.65,1.39c0.07,0.04 0.15,0.08 0.21,0.12c0.16,-0.06 0.47,0.09 1.07,0.41c0.15,0.08 0.28,0.16 0.4,0.23c0.14,0.05 0.34,0.15 0.6,0.3c0.14,0.06 0.35,0.17 0.61,0.31c0.15,0.05 0.36,0.15 0.65,0.32c0.19,0.06 0.46,0.22 0.86,0.45c0.25,0.15 0.45,0.29 0.59,0.4l1.08,0.68c1.39,0.68 8.69,6.28 9.68,7.46c0.1,0.12 0.17,0.21 0.2,0.28l0.91,0.8l-0.03,0c0.17,0.17 0.33,0.32 0.46,0.46l0.13,0.14s0.04,0.03 0.06,0.05c0.14,0.11 0.34,0.32 0.54,0.56c0.02,0.02 0.05,0.04 0.07,0.06c0.28,0.22 0.77,0.8 1.11,1.3l0.53,0.74c0.1,0 0.24,0.11 0.42,0.32c0.1,0.1 0.21,0.23 0.35,0.39c0.27,0.2 0.71,0.76 1.41,1.72l0.86,1.21c0.93,1.26 1.89,2.61 2.57,3.62c0.04,0.06 0.08,0.11 0.11,0.16c0.32,0.47 0.56,0.86 0.69,1.11c0.83,1.25 2.28,3.74 2.28,4.04c0.69,1.28 1.3,2.48 1.51,3.05l0.03,0.08c0.28,0.5 0.62,1.24 1.02,2.23c0.07,0.09 0.14,0.2 0.21,0.34c0.23,0.44 0.33,0.81 0.29,1.08l0.27,0.68s0.03,0.06 0.05,0.09c0.23,0.45 0.33,0.82 0.29,1.09c0.1,0.21 0.21,0.46 0.32,0.75c0.16,0.32 0.26,0.6 0.29,0.83c0.09,0.26 0.18,0.55 0.27,0.85c0.48,1.57 0.77,2.51 0.88,3.08c0.08,0.33 0.11,0.57 0.09,0.75l0.03,0.11c0.05,0.12 0.09,0.25 0.14,0.41c0.11,0.12 0.21,0.31 0.29,0.59c0.16,0.6 0.21,0.97 0.13,1.18c0.11,0.55 0.23,1.19 0.36,1.93l0.07,0.41s0.04,0.11 0.05,0.17c0.15,0.57 0.21,0.94 0.14,1.15l0,0.15c0.05,0.33 0.04,0.57 -0.02,0.74l0.03,0.33c0.06,0.1 0.11,0.24 0.15,0.39c0.14,0.51 0.19,0.85 0.16,1.07c0.01,0.12 0.01,0.22 0,0.31c0.04,0.28 0.03,0.5 -0.02,0.66c0.06,0.11 0.12,0.26 0.17,0.43c0.14,0.51 0.19,0.85 0.16,1.07c0.02,0.17 0.01,0.3 -0.02,0.4c0.03,0.29 0.05,0.63 0.05,1c0,0.28 -0.01,0.49 -0.04,0.65c0.05,0.33 0.02,0.53 -0.08,0.65c0,0.71 -0.04,1.18 -0.17,1.48c0.13,6.57 0.15,16.83 0.2,34.14c0.01,3.52 0.03,6.98 0.03,10.32c0.02,0.27 0.02,0.57 0,0.83l0,3.48l0.06,0.05l0.01,0.01zm-126.4,28.95c0,0.56 0.06,0.59 0.31,0.22c0.4,-0.59 0.4,-0.93 0,-0.93c-0.15,0 -0.31,0.31 -0.31,0.71z" id="svg_6"/>
  </g>
 </g>
</svg>
