<svg xmlns="http://www.w3.org/2000/svg" id="Layer_1" data-name="Layer 1" viewBox="0 0 411.42 392.78">
  <defs>
    <linearGradient id="linear-gradient" x1="205.71" x2="205.71" y1="381.35" y2="19.66" gradientUnits="userSpaceOnUse">
      <stop offset=".02" stop-color="#f36e21"/>
      <stop offset="1" stop-color="#f79324"/>
    </linearGradient>
    <linearGradient id="linear-gradient-2" x1="191.35" x2="277.92" y1="406.37" y2="310.24" gradientUnits="userSpaceOnUse">
      <stop offset=".02" stop-color="#f6891f"/>
      <stop offset=".11" stop-color="#f6851f"/>
      <stop offset=".51" stop-color="#f37321"/>
      <stop offset="1" stop-color="#f15f22"/>
    </linearGradient>
    <linearGradient id="linear-gradient-3" x1="171.82" x2="239.4" y1="346.92" y2="263.46" gradientUnits="userSpaceOnUse">
      <stop offset=".02" stop-color="#da4d27"/>
      <stop offset=".37" stop-color="#be3b26"/>
      <stop offset=".71" stop-color="#91321e"/>
      <stop offset="1" stop-color="#6b2d1e"/>
    </linearGradient>
    <linearGradient id="linear-gradient-4" x1="143.07" x2="269.62" y1="299.96" y2="299.96" gradientUnits="userSpaceOnUse">
      <stop offset=".02" stop-color="#e25726"/>
      <stop offset="1" stop-color="#e25a26"/>
    </linearGradient>
    <style>
      .cls-3{fill-rule:evenodd;fill:#f78e1e}
    </style>
  </defs>
  <path d="m46.76 330.64-.14-.02h.18c.16-.1.37-.19.59-.25.93-.21 2.05-.05 2.53.28.13 0 .25 0 .37.01.14-.15.4-.16.85-.08.17.01.39.04.65.09 1.16.18 2.29.44 3.41.79.22.03.48.11.78.26 1.97.69 3.9 1.66 5.86 2.93.13.07.29.17.47.32l.31.22.02-.17 1.02.95c.27.21.54.43.82.66v-.09l.65.64c1.4 1.2 2.68 2.46 3.24 3.24l.49.71.18.2.56.63h3.88c.15-.02.33-.03.56-.03s.41 0 .56.03h2.28c3.03 0 5.9-.09 7.38-.19h.03c.16-.05.33-.09.52-.12.16-.08.36-.15.58-.18.52-.12 1.26-.43 1.6-.65.36-.26.61-.39.77-.4.57-.42 1.52-1.25 2.25-2.01l.17-.18c1.11-1.52 1.51-2.38 1.86-3.95.05-.18.09-.34.14-.49.13-.83.22-1.59.28-2.37-.06-.17-.08-.41-.08-.75 0-.27.01-.47.04-.63 0-.27 0-.58-.01-.92-.02-1.71-.02-2.52.09-2.9 0-.28-.02-.56-.03-.86-.13-3.81-.17-4.9.07-5.21l.02-2.94c-.15-1.75-.13-5.09-.15-11.46-.03-5.75.02-10.66.14-14.86a.472.472 0 0 1-.17-.38c0-.2.01-.4.04-.59-.03-.19-.04-.45-.04-.8 0-1.1.11-1.88.32-2.32.04-.83.08-1.63.12-2.39-.08-.06-.13-.14-.13-.22 0-.13 0-.25.02-.37a1.66 1.66 0 0 1-.02-.24c0-.68.12-1.27.3-1.65.04-.53.08-1.04.13-1.53a.274.274 0 0 1-.12-.21c0-.15.01-.29.03-.43 0-.21.03-.52.09-.95.2-1.4.33-2.21.49-2.66.03-.21.05-.41.08-.62-.05-.03-.08-.07-.08-.11 0-.05.02-.2.06-.43-.02-.19.02-.49.1-.96.34-2.07 1.33-7.06 1.85-9.47.16-.68.31-1.21.46-1.57 0-.15.15-.82.37-1.62.3-1.4 1.73-6.19 2.47-8.22.16-.45.32-.83.47-1.15.13-.46.3-.94.47-1.35h-.08l.74-1.97c.59-1.55.97-2.43 1.26-2.88.16-.42.33-.81.48-1.15a.076.076 0 0 1-.02-.04c0-.05.04-.18.12-.38.59-1.47 3.16-6.5 4.14-8.16.12-.23.25-.46.38-.69v-.03c0-.27.57-1.21.97-1.69.09-.17.19-.33.29-.5-.01-.02-.02-.04-.02-.06 0-.34 4.32-7.06 6.26-9.75.4-.55 1-1.33 1.71-2.23.11-.14.2-.26.29-.36.64-.8 1.36-1.69 2.09-2.58.14-.18.29-.36.44-.54l.03-.03c.92-1.11 1.85-2.21 2.67-3.16 1.15-1.34 2.1-2.4 2.52-2.79l.96-.93v.17c.3-.31.61-.61.92-.92.23-.23.47-.46.7-.69h-.23l1.85-1.73.38-.35.58-.52c3.04-2.7 7.26-6.08 10.49-8.36 3.11-2.19 10.3-6.6 10.73-6.6.01 0 .02 0 .03.02l1.62-.87c.29-.22.8-.53 1.4-.84l.15-.08c1.5-.76 2.21-1.11 2.54-1.14.41-.2.83-.39 1.24-.58.45-.34 1.3-.77 2.29-1.15.28-.1.47-.16.58-.14.94-.41 1.89-.8 2.84-1.18 1.47-.68 4.33-1.74 7.18-2.69 2.74-.91 5.46-1.72 6.92-2 .19-.03.34-.06.47-.08.58-.15 1.16-.29 1.75-.43.99-.36 3.07-.79 6.91-1.47 2.78-.51 3.91-.7 4.36-.57h.1c1.05-.16 1.81-.25 2.33-.28.24-.03.48-.05.72-.07.32-.24.87-.34 1.71-.34.21 0 .35.02.46.09.42-.06.8-.08.98-.01.4-.03.8-.05 1.2-.08.48-.2 1.43-.28 3.09-.3H204.98v.07c1.59-.1 4.33-.11 5.79.03.26-.15.76-.12 1.55.09.1.03.19.06.27.09.42.02.84.05 1.26.08.2-.04.57-.04 1.23.02.24-.08.73-.04 1.71.06 10.89 1.2 22.24 3.86 31.06 7.34 11.68 4.59 22.51 10.97 31.33 18.38.9.76 1.78 1.53 2.64 2.3.45.41.9.83 1.34 1.24l2.47 2.34h-.08c.45.43.96.95 1.47 1.48v-.03l1.11 1.08c.54.48 1.94 2.02 3.31 3.59l.08.09c.13.11.28.29.47.55l.05.06c1.57 1.79 2.96 3.39 3.15 3.61 1.91 2.19 4.93 4.97 6.26 5.71.28.16.55.33.78.49.36.17.73.33 1.13.48s1.7.46 1.7.46c.4.11.73.23.99.35.65.14 1.33.26 2.06.35.08-.01.17-.02.28-.02.26 0 .49 0 .69.03.35-.09.89-.04 1.62.15.05.01.09.03.13.04.37.01.76.03 1.16.03 2.02.03 1.65 0 4.26-.04.92-.02 1.77-.05 2.58-.09.32-.08.7-.12 1.12-.12.09 0 .17 0 .24.02.12-.01.25-.02.37-.02.02 0 .04 0 .07.01.72-.05 1.41-.12 2.08-.19.12-.03.25-.06.38-.1 1.21-.26 1.84-.37 2.16-.28.6-.11 1.2-.23 1.79-.35.25-.11.59-.21.99-.3.78-.16 1.28-.26 1.6-.29.32-.08.65-.17.99-.26.39-.14.86-.28 1.42-.44l.66-.18c.35-.15.76-.3 1.19-.43l2.47-.83c.26-.1.44-.17.58-.21.53-.21 1.05-.44 1.57-.67 1.63-.95 4.38-2.39 5-2.56l.03-.02c.64-.36 2.04-1.26 3.28-2.09.35-.27.76-.57 1.19-.87.17-.12.35-.25.53-.38 1.07-.79 2.37-1.82 3.08-2.46l1.54-1.39v.06c1.16-1.08 2.27-2.21 3.33-3.38l.03-.04c2.16-2.65 4.69-6.14 5.67-7.86.26-.45.52-.87.74-1.2.26-.5.52-1.01.77-1.54.02-.06.04-.12.07-.19.45-1.15.94-2.23 1.34-3.01.28-.7.55-1.4.8-2.1l.64-2.08.03-.09c.12-.38.23-.72.34-1.02.08-.31.17-.66.28-1.08.11-.43.22-.87.32-1.32 0-.02-.01-.05-.01-.07 0-.49.18-1.25.41-1.89l.03-.15c.02-.14.04-.27.07-.4.07-.39.13-.78.18-1.18-.05-.19-.03-.51.04-1.07l.03-.28c.11-.98.2-1.68.3-2.18.01-.19.03-.39.04-.58.05-.98.07-1.99.07-3.03 0-.95-.02-1.93-.05-2.86-.02-.5-.04-1-.07-1.49 0-.12-.02-.23-.03-.35-.09-.56-.19-1.34-.26-1.99-.08-.66-.12-1.05-.09-1.29-.12-.88-.26-1.75-.41-2.62-.59-2.89-1.58-6.45-2.21-7.9-.31-.75-.55-1.3-.7-1.7a56.87 56.87 0 0 0-1.75-3.49l-.02-.03c-.15-.26-.27-.47-.35-.63-.39-.68-.79-1.37-1.21-2.05-.17-.23-.37-.52-.57-.83-.66-1.04-2.49-3.54-4.8-6.56-.3-.35-.6-.7-.91-1.04-.97-1.07-1.98-2.1-3.03-3.09-.24-.22-.49-.45-.74-.69-.52-.48-1.06-.95-1.6-1.42-2.02-1.67-5.77-4.28-8.14-5.67-.58-.32-1.11-.65-1.52-.92-.53-.28-1.06-.55-1.6-.82h-.03l-.14-.08c0 .02-.01.03-.02.03-.06-.03-.49-.22-1.02-.43-.35-.15-.99-.44-1.61-.71l-.7-.31c-4.1-1.88-12.4-3.89-17.43-4.26-1.15-.07-2.36-.19-3.09-.28h-.04a62.15 62.15 0 0 0-4.73-.02c-.69.1-1.76.18-3.4.29-6.51.49-13.94 2.62-20.66 5.95-1.29.65-2.48 1.24-3.3 1.64-1.16.69-2.29 1.41-3.39 2.18l-2.1 1.63c-1.54 1.17-3.92 3.3-5.34 4.75l-1.93 1.95c-.79.89-1.55 1.81-2.28 2.75-.98 1.4-2.47 3.64-3.53 5.3-.36.57-.68 1.07-.9 1.44-.12.23-.25.45-.37.68s-.02.06-.04.08l-.42.81c-.53 1.06-1.04 2.16-1.53 3.27l-.2.49c-1.23 3.05-2.47 6.85-3.08 9.62-.19.78-.37 1.51-.53 2.04-.02.09-.05.17-.07.24-.03.09-.05.18-.08.25-.08.24-.14.39-.18.42-.02.02-.11.03-.24 0-.03.02-.05.02-.07-.01-.32-.06-.84-.2-1.43-.41-.15-.05-.3-.11-.45-.17-1.97-.74-2.59-.93-8.79-2.84-2.99-.93-7.83-2.22-9.41-2.56-.43-.09-2.22-.43-4.01-.8-3.18-.65-4.97-.96-9.56-1.57-1.16-.16-1.98-.28-2.58-.39-1.02-.11-2.03-.21-3.05-.29-.21.04-.5.02-.91-.07-5.41-.43-10.78-.55-15.86-.34-.37.11-.86.17-1.41.17-.24 0-.42-.02-.55-.07-.7.04-1.39.09-2.08.15-.05.02-.1.03-.15.05-.72.19-1.11.23-1.31.08-.66.06-1.31.12-1.95.19-.04.01-.08.03-.13.04-.71.19-1.19.23-1.46.13-.6.07-1.19.13-1.78.21-.55.09-1.6.24-2.61.41-.19.03-.38.06-.56.09-1.26.19-2.99.46-3.79.62-1.05.2-1.64.29-1.97.24-.79.15-1.57.3-2.35.46-.36.11-.81.23-1.35.35-3.88.86-9.12 2.26-11.98 3.24l-.08.03c-1.1.37-1.85.61-2.37.74-.64.22-1.28.45-1.93.69-.09.08-.19.14-.3.18-.24.05-.89.28-1.58.56-.19.08-.39.16-.58.24l-1.63.65v-.07c-.71.28-1.42.57-2.13.86-.51.27-1.19.6-2.03.97-3.77 1.66-5.48 2.48-8.69 4.22-.49.26-1.01.55-1.58.86-.78.43-1.52.83-2.14 1.17-.99.58-1.99 1.18-2.98 1.78-.61.43-1.48.97-2.09 1.31-.4.25-.79.51-1.18.76-1.02.67-2.03 1.35-3.03 2.04-1.13.87-3.15 2.38-6.93 5.18-.05.04-.1.07-.14.1l-.1.09c-.94.78-1.69 1.4-2.29 1.86-.83.77-1.94 1.69-2.4 2.06l-.2.14c-.71.64-1.43 1.31-2.17 2.01-.03.08-.09.17-.19.28-.29.35-.9.88-1.35 1.22-.86.85-1.73 1.73-2.59 2.62-.4.56-.67.85-.84.88-.24.25-.47.5-.71.75-.38.41-.79.87-1.23 1.33-.47.51-.93 1.03-1.39 1.54-.64.76-1.43 1.67-1.79 2.08l-.51.6-.07.08c-.16.27-.47.67-.94 1.25l-.02.04s-.02.02-.03.04c-.12.15-.25.31-.4.49l-.17.21c-.36.46-.83 1.09-1.31 1.73-.56.72-1.09 1.35-1.42 1.72-.13.19-.29.41-.46.65h.03l-.65.93c-.22.31-.4.54-.55.72-.24.34-.48.68-.71.99l-1.82 2.86c-.71 1.13-1.46 2.25-2.01 3.05l-.24.4h.07l-1.17 1.94c-.65 1.05-1.63 2.78-2.19 3.86-.2.39-.38.71-.54.97-.4.75-.79 1.49-1.15 2.2-.85 1.68-1.64 3.3-2.38 4.9l-.03.07c-.07.18-.15.34-.22.47-.44.96-.86 1.91-1.26 2.86h.03l-.65 1.6c-.36.9-.57 1.42-.73 1.71 0 .14-.1.38-.26.75-.07.16-.13.3-.2.43-.12.31-.23.62-.34.93.03.27-.07.64-.29 1.08-.04.07-.08.14-.12.2-.07.2-.15.39-.24.54-.2.57-.39 1.14-.58 1.72-.01.2-.08.45-.2.74-.03.15-.1.36-.19.63-.06.19-.13.37-.21.53-.08.24-.15.49-.23.73-.03.15-.09.34-.18.59-.39 1.3-.77 2.63-1.14 4.01l-.02.06c0 .13-.02.28-.05.46-.03.15-.07.31-.12.5-.05.18-.11.32-.18.43-.04.28-.15.67-.31 1.2-.08.27-.17.49-.27.67.01.05.02.1.02.16 0 .14-.05.31-.13.48-.11.24-.29.48-.49.66l-.07.07-.23.4-8.36-.02c-.13.02-.28.02-.43.02-.16 0-.31 0-.45-.03h-1.96c-1.38-.01-2.69-.02-3.92-.04-1.07 0-2.1-.01-3.03-.02-.81.05-2.12.03-3.63-.06-.13.09-.34.12-.63.09-.36.08-.91.05-1.65-.1-.25-.06-.99-.19-1.6-.31-.06 0-.13-.02-.18-.03-.53-.07-1.05-.14-1.57-.22-.42.15-1.43-.04-3.65-.58-.73-.17-1.31-.33-1.72-.48-.55-.14-1.09-.28-1.63-.43-.47.02-1.36-.23-2.97-.79-.79-.26-1.45-.54-1.87-.77-.23-.03-.52-.12-.89-.26 0 .01 0 .02-.01.02-.06-.03-.56-.22-1.08-.46-.29-.12-.51-.24-.67-.35-.24-.13-.44-.24-.58-.35a8.27 8.27 0 0 1-.43-.2c-.02.08-.03.12-.04.12-.06 0-.99-.43-2-.96-.95-.48-1.53-.83-1.76-1.08-.12-.07-.24-.13-.36-.2-.15.03-.39-.07-.81-.31-.2-.05-.48-.21-.9-.48-.3-.18-.51-.33-.64-.45-.58-.37-1.02-.71-1.12-.85-.54-.35-1.07-.71-1.6-1.08-.01.1-.03.16-.06.16s-1.2-.89-2.53-1.97c-1.36-1.08-3.02-2.47-3.7-3.08l-1.23-1.11h.25c-.18-.16-.36-.34-.54-.51l-.03.3-1.17-1.36c-.3-.2-.9-.9-2.13-2.37-1.71-2.05-3.24-4.1-4.6-6.19-.25-.33-.41-.58-.49-.76-2.47-3.94-4.35-8.05-5.78-12.6-.05-.15-.1-.31-.14-.46-.39-1.27-.74-2.58-1.07-3.93-.1-.32-.16-.57-.18-.77l-.21-.95c-.31-1.42-1.05-6.01-1.05-6.54 0-.17.05-.31.15-.4-.16-2.35-.2-4.82-.11-7.29 0-.89.04-1.63.09-2.22-.15-.17-.13-.63 0-1.81.59-5.58 1.85-11.2 3.55-15.85.99-2.78 3.11-7.33 3.82-8.28.29-.55.6-1.09.91-1.63-.02-.07 0-.16.05-.28.43-1.17 4.38-6.66 6.51-9.13 1.09-1.26 1.8-2 2.31-2.38.29-.3.57-.6.87-.89.47-.47.94-.93 1.41-1.38-.04-.06.04-.18.19-.38 1.91-2.28 10.58-8.17 15.27-10.33 1.2-.56 2.28-1.08 2.44-1.17.01 0 .02-.01.03-.01v-.02l.19-.99c-.02-.07-.03-.16-.03-.27 0-1.11 1.48-7.46 2.59-11.1 3.08-10.13 8.47-18.8 15.66-25.53.12-.14.42-.43.86-.79 7.29-6.55 16.33-11.16 26.6-13.37 2.51-.54 3.69-.73 6.59-.79.79-.17 1.75-.26 1.92-.11.03.03.05.06.06.09h.47c.27-.12.81-.21 1.5-.21 1.22 0 2.44.1 3.3.25 4.53.1 7.17.43 9.77 1.17.77.22.8.15 3.15-5.89 3.33-8.7 7.96-16.99 13.69-24.67 15.27-20.5 38.56-34.61 63.85-38.97a.15.15 0 0 1 .11-.04c.03 0 .12 0 .27-.03 1.75-.3 3.51-.54 5.28-.74 1.28-.15 2.88-.27 4.63-.35.26-.03.5-.05.67-.03.98-.04 2-.08 3.03-.1 1.21-.1 2.64-.13 3.43-.04 3.54 0 6.89.1 8.96.34 13.26 1.54 22.79 4.35 34.27 10.05 19.12 9.56 34.94 25.57 45.09 45.65 3.61 7.19 5.8 13.14 7.93 21.44.76 2.97 1.09 4.29 1.44 4.84.32.18 1.02.19 2.6.1.37-.02.96-.05 1.7-.07l.83-.03c.36-.04.68-.08.93-.12.72-.09 1.18-.08 1.36.02.98-.07 2.38-.1 3.92-.1.11-.01.22-.02.34-.02.13 0 .25 0 .37.02 1.16 0 2.37.04 3.51.08.3 0 .59 0 .87.01.37-.06 1.11-.03 2.08.06.9.04 1.64.08 2.12.14 15.98 1.97 31.8 9.96 43.95 22.21 4.1 4.1 7.83 8.82 10.21 12.83 1.7 2.84 4.29 7.68 4.29 7.96v.02c.38.74.75 1.47 1.11 2.2.23.27.56.85.99 1.76.02.05 0 .09-.07.12.17.37.34.73.51 1.09.54.76 1.38 2.66 2.4 5.51.65 1.85 1.2 2.84 1.94 3.45 4.72 4.13 6.66 6.17 9.56 10.02.07.09.1.16.09.21.21.3.45.64.72 1.02l.68.99h-.09c.61.77 1.83 2.72 1.9 3.14.33.55.62 1.12.62 1.3 0 .02 0 .04-.01.06.57 1.14 1.1 2.3 1.58 3.48.15.18.32.48.5.9.2.47.29.72.24.85l.06.17c.06.17.12.33.18.48.03.04.06.09.1.14.25.43 1.67 5.52 1.67 6.04 0 .05-.01.1-.04.15.08.34.16.69.24 1.06.09.12.17.29.23.52.18.66.22 1.05.1 1.25.09.54.17 1.08.23 1.61.16.6.19.95.09 1.15 0 .1 0 .17-.02.24l.06.55c.06.11.12.26.16.45.2.72.25 1.26.15 1.61.04.27.02.46-.05.58.07.83.09 1.85.07 3 0 .97-.04 1.91-.1 2.89.1.11.13.29.1.57.01.22-.03.56-.1 1.08-.08.59-.15 1.07-.22 1.47-.01.08-.03.16-.04.25-.07.36-.13.64-.2.84-.05.35-.09.68-.14 1.01.1.14.08.44-.02 1.05-.4 2.29-.65 3.45-.89 3.99-.13.6-.28 1.18-.43 1.75-.02.11-.06.25-.12.42-.12.44-.25.88-.39 1.31h.07l-.71 2.1c-.27.79-.7 1.84-1.18 2.92-.04.15-.14.35-.28.63-.79 1.74-1.65 3.43-2.13 4.16-.43.83-.87 1.62-1.32 2.38-.08.23-.2.44-.35.61-.13.43-.67 1.24-1.74 2.77-1.09 1.59-1.71 2.42-2.04 2.66-.24.3-.48.59-.73.89h.06l-.65.93c-.49.69-.8 1.04-.99 1.05l-.83.95v-.15c-.07.08-.14.15-.21.22-.03.22-.42.64-1.24 1.44-.87.88-1.29 1.27-1.49 1.24-.11.1-.21.2-.32.31-.2.22-.51.53-.9.88.04.07-.04.18-.19.37-.22.28-.8.77-1.3 1.14l-.73.5-.2.18c-.65.56-2 1.6-3.02 2.31l-1.85 1.3v-.11c-1.01.76-4.17 2.7-5.03 3.04-.09.04-.17.05-.23.06-.91.53-2.12 1.16-2.97 1.51-.17.1-.39.21-.65.32-.43.18-.67.27-.81.25-.77.33-1.55.64-2.34.94-.18.12-.42.24-.69.33-.06.04-.13.08-.2.12-.48.25-.88.34-1.15.28-.17.06-.33.11-.5.17-.41.24-1.07.49-1.86.63-.17.03-.31.05-.43.07h-.04c-1.21.53-4.24 1.21-7.98 1.78-2.21.32-3.32.46-3.87.42-.3.05-.51.04-.64-.03-1.42.11-2.46.1-2.84-.05-3.82.1-8.94.13-16.28.13h-3.03c-7.8 0-12.17.05-14.32.15-.42.03-.73.05-.95.09-.38.23-.57.66-.57 1.3 0 .14.01.32.03.55.03.12.06.24.09.38.24 1.14.35 1.76.3 2.1l.1.58c.02.06.04.12.06.19.1.37.16.65.17.86.05.1.1.23.14.38.18.68.23 1.07.09 1.27.08.49.16.97.23 1.46.06.26.13.59.2 1.01.03.08.07.17.1.28.16.59.21.96.13 1.18.01.19 0 .32-.03.4.04.25.07.49.1.74.15.46.28 1.26.47 2.62.09.65.12 1.01.07 1.21.02.26-.01.4-.11.47.03.32.05.64.08.97.24.37.4 1.08.4 1.98 0 .39-.06.62-.22.73.04.7.08 1.42.11 2.17.28.38.42 1.23.42 2.49 0 .46-.02.77-.08.96.05.54.08 1.24.08 2.12 0 1.35-.03 1.89-.22 2.1v.6c.2.32.22 1.25.22 3.84 0 2.43-.01 3.39-.18 3.77v2.85c.16.19.18.62.18 1.56s-.03 1.4-.2 1.58c0 .64 0 1.3-.01 1.97v.97c.21.82.22 3.54.22 12.6 0 5.19 0 8.3-.04 10.16.07 1.66.16 2.79.29 3.61.02.06.04.13.06.2.25.71.83 1.88 1.3 2.62l.41.59c.15.18.31.36.48.55l.87.93.58.39c.46.34 1.57.86 2.47 1.17.38.14.74.3 1.02.45.2.02.47.07.8.16 1.03.11 2.53.15 5.09.16.24-.02.57-.03 1.01-.03s.8 0 1.04.03h6.11s.08-.03.12-.03c.16 0 1-.73 2.06-1.74.07-.09.15-.17.22-.26l1.39-1.54v.2c1.42-1.46 1.96-1.98 2.2-1.96.43-.36.87-.7 1.3-1.01l.11-.09c.27-.24.74-.57 1.29-.91.66-.52 2.39-1.48 3.52-1.9.34-.14.54-.21.66-.18.16-.11.37-.22.63-.34.44-.18 1.14-.4 1.93-.62.3-.23.84-.41 1.42-.43.34-.18.84-.31 1.36-.31.04 0 .07.01.1.03h.1c1.16-.5 4.31-.71 6.83-.34l.13.02c.12 0 .26.03.43.06 1.92.29 3.15.59 3.75.9.73.2 2.31.92 3.44 1.53.18 0 .49.16 1.04.48.25.15.45.28.59.4v-.03l.86.62c.46.34 1.33 1.02 1.91 1.54l1.08.93h-.11c.16.16.33.34.5.54.12.01.31.17.58.49.3.28.77.91 1.5 1.93 1.46 2.02 2.61 4.32 3.45 6.83.08.12.16.29.22.51.08.28.13.51.15.69.35 1.22.63 2.48.83 3.78.07.4.1.68.09.88.03.21.02.37-.03.48.01.28-.03.43-.14.5.01.42.02.85.02 1.29 0 .33 0 .66-.02.99.13.09.16.28.13.72.09.18.05.55-.05 1.28-.25 1.85-1.08 5.3-1.48 6.04-.03.05-.05.1-.08.14-.33.96-.64 1.66-.87 1.85-.23.49-.47.97-.73 1.44l-.16.35c.05.16-.12.48-.47 1.1-.23.37-.41.62-.56.75-.09.11-.19.23-.31.36l-.17.19c-.54.74-1.08 1.39-1.46 1.7-.5.56-1.03 1.1-1.58 1.61l-.07.07s.03.02.03.03c0 .25-3.15 2.65-3.45 2.65h-.03c-1.05.69-2.56 1.55-2.81 1.55-.01 0-.03 0-.04-.03-.58.31-1.43.66-2.27.95-.39.2-.72.3-.97.3-.25.07-.48.12-.69.16-.21.04-.38.08-.52.1-.1.07-.23.14-.38.18-.3.07-1.16.14-2.14.17h-.04c-.09.06-.19.1-.29.14-.38.09-1.18.13-2.01.14-.15.03-.28.04-.4.02-.02 0-.05-.01-.08-.02-.76-.01-1.48-.07-1.83-.16a.782.782 0 0 1-.35-.18l-.7-.06c-.12.09-.3.12-.56.1-.36.03-.99-.1-2.03-.41-.47-.14-.89-.26-1.27-.38-.49-.15-.9-.29-1.24-.42 0 .02-.01.03-.02.03l-1.2-.49c-.26 0-.81-.28-2.04-.9-.91-.46-1.71-.93-2.06-1.21-.31-.19-.6-.37-.85-.55 0 .04-.01.06-.02.06-.06 0-.83-.56-1.7-1.26-.89-.68-1.63-1.3-1.63-1.36 0-.02.02-.04.07-.06-.62-.55-1.21-1.12-1.74-1.7l-.02.22-.83-1.08-.56-.7-.29-.32c-.43-.25-2.51-.3-7.5-.24-6.49.08-8.39 0-8.77-.52h-.15c-.1.17-.33.23-.76.21-.15 0-.31-.02-.47-.04-.09.02-.2.03-.33.02-.31.05-.81-.04-1.61-.26-.49-.12-1.45-.34-2.07-.43-.13-.02-.25-.05-.36-.08-.21-.05-.38-.12-.51-.19-.4-.06-.97-.21-1.75-.44-.2-.06-.37-.12-.54-.18-.07-.02-.13-.05-.2-.07-1.28-.47-2.21-.86-2.78-1.18 0 .07-.02.1-.03.1-.06 0-.55-.25-1.08-.49-.5-.24-.81-.45-.92-.62-.11-.06-.23-.12-.34-.18-.19.02-.51-.15-1.05-.49-.28-.17-.49-.31-.62-.44-.14-.03-.34-.13-.6-.3-.01.04-.02.06-.04.06-.03 0-.52-.37-1.07-.87l-.11-.09s-.01.03-.02.03c-.06 0-.89-.62-1.85-1.39-.99-.77-1.79-1.45-1.79-1.54 0-.01 0-.02.02-.03l-.48-.4h.06l-.37-.31h.18l-.47-.47-.02.28-.3-.39v.08l-.49-.62c-.23-.23-.62-.68-1.03-1.2-1.3-1.54-3.89-5.43-3.89-5.8v-.03c-.03-.06-.07-.12-.1-.19-.42-.77-.67-1.22-.75-1.49-.13-.27-.26-.52-.37-.77-.05-.04-.1-.1-.14-.18-.06-.12-.43-.96-.77-1.85l-.65-1.6h.15c-.11-.16-.2-.39-.32-.74-.1-.11-.2-.3-.27-.55-.12-.46-.18-.79-.17-1.02l-.02-.06v-.04c-.1-.2-.18-.44-.25-.73a18 18 0 0 1-.22-1l-.27-.94v-.61l-.03-.23c-.14-.89-.16-1.25 0-1.39-.02-.23-.04-.45-.05-.66-.09-.12-.17-.26-.22-.42-.09-.4-.19-12.06-.19-25.91 0-15.55 0-21.52.15-23.8v-.37c-.21-.87-.22-1.54-.06-1.92v-.19a90.52 90.52 0 0 0-.2-2.95l-.02-.06c-.02-.09-.05-.18-.06-.26-.09-.38-.12-.65-.1-.84-.02-.17-.01-.31.02-.41-.02-.23-.05-.46-.08-.69-.03-.08-.07-.17-.09-.27-.17-.64-.22-1.08-.16-1.37-.02-.16-.02-.28 0-.38-.09-.66-.18-1.31-.28-1.95 0-.05-.02-.1-.03-.15l-.07-.38-.07-.35v-.04c-.11-.37-.17-.65-.18-.87-.56-2.8-.91-4.22-1.74-7.15-.59-2-1.39-4.53-1.82-5.64l-.74-2h.04l-.04-.09c-.21-.52-.42-1.05-.64-1.56-.06-.13-.13-.27-.19-.41-3.55-8.11-8.08-15.45-13.45-21.81-1.42-1.67-2.9-3.42-3.3-3.92l-.2-.24c-.59-.62-1.19-1.24-1.79-1.85-.44-.42-.93-.88-1.43-1.37-.44-.43-.89-.86-1.34-1.28-.34-.27-.8-.66-1.43-1.21l-.47-.41c-1.54-1.33-4.07-3.33-5.64-4.5l-.08-.06-.35-.25c-.71-.5-1.36-.99-1.84-1.36-.56-.39-1.13-.76-1.71-1.14-.42-.21-1.18-.67-2-1.2-.47-.28-.9-.56-1.24-.8-.42-.25-.84-.49-1.26-.73-.15-.04-.36-.15-.63-.32-.24-.06-.61-.26-1.18-.59-.15-.09-.29-.17-.42-.25-.14-.09-.26-.17-.36-.25-1.07-.56-2.16-1.09-3.25-1.61-.16-.05-1.03-.43-2.05-.86a12.1 12.1 0 0 1-.88-.41l-.3-.15c-.85-.36-1.71-.7-2.57-1.03-.33-.07-.87-.26-1.75-.58l-.14-.05c-1.3-.46-3.27-1.08-4.38-1.39-.17-.05-.33-.09-.48-.14-.08-.03-.16-.05-.24-.08-.18-.05-.38-.11-.6-.18-.31-.09-.58-.18-.81-.27-.17-.05-.35-.09-.52-.14-.07.03-.15.04-.24.04-.31 0-.65-.06-.71-.15-.14-.12-2.12-.54-4.33-.94-1.61-.29-3.34-.57-4.58-.73-1.61-.21-2.66-.35-3.34-.47-.88-.08-1.77-.15-2.66-.2l-.84-.03c-.31-.01-.7-.03-1.12-.04-.19.07-.51.09-1.04.07-.69-.03-1.47-.08-1.79-.17h-2.29c-.43.12-1.03.19-1.78.19-.28 0-.5-.01-.67-.04-.39.06-.66.05-.84-.04-.92.05-1.83.11-2.75.19l-.06.02c-.67.18-1.06.22-1.27.11l-.4.04h-.05c-.69.09-1.41.19-2.14.3-.65.11-1.49.25-2.23.36-3.14.52-6.05 1.14-8.76 1.87a66.422 66.422 0 0 0-5.12 1.59c-1.17.41-2 .7-2.58.88-.17.05-.32.09-.45.13-.64.26-1.4.57-2.32.93-.19.1-.4.21-.62.31l-.09.04c-1.54.65-2.44 1.05-3.55 1.6-.04.02-.08 0-.11-.02-.69.38-1.52.8-1.92.95-.11.07-.23.14-.37.21-.13.07-.25.13-.36.18-.26.13-.45.21-.58.23-.45.24-.9.48-1.35.73-.46.3-1.08.67-1.89 1.14l-.25.15c-.39.26-.85.56-1.35.87-1.86 1.08-6.05 4.03-8.8 6.13-.11.08-.21.17-.32.25-2.2 1.79-4.33 3.7-6.39 5.74h.03l-1.23 1.24-.38.36c-.83.86-1.65 1.73-2.46 2.63l-.06.07c-.35.49-.61.78-.78.88a90.11 90.11 0 0 0-3.01 3.66c-.3.4-.54.73-.74.98-.34.46-.68.92-1.02 1.39l-1.54 2.36c-.57.87-1.11 1.65-1.5 2.18-.42.68-.84 1.36-1.25 2.06 0 .03-.02.07-.04.1-.08.18-.22.43-.42.78-.1.17-.19.31-.28.43-.16.27-.32.54-.47.81-.11.21-.23.41-.34.62-.05.23-.25.61-.6 1.23-.11.19-.21.36-.3.51v.02c-.23.49-.43.88-.61 1.17s0 .04 0 .06c-.11.23-.21.43-.31.62-.06.12-.12.24-.18.34-.15.3-.29.61-.43.91-.02.21-.21.59-.56 1.27l-.12.24c-.14.32-.29.65-.43.97-.04.11-.09.24-.16.39-.03.06-.05.12-.08.18s-.05.11-.08.16c-.07.18-.15.35-.22.53-.03.15-.11.36-.25.68-.07.17-.14.32-.21.46-.13.34-.27.68-.4 1.02h.02l-1.02 3.02c-.22.61-.46 1.35-.69 2.11-.4 1.29-.78 2.65-1.03 3.59-.19.75-.36 1.36-.52 1.8l-.11.46c0 .3-.1.77-.27 1.5l-.03.14c.05.26-.04.75-.25 1.65a24.611 24.611 0 0 0-.49 2.46c-.02.12-.04.23-.06.33-.11.62-.19 1.08-.27 1.42-.07.59-.14 1.2-.2 1.82.08.17.1.42.05.77.05.23.03.56-.07 1.01-.02.11-.05.23-.09.36-.03.1-.06.19-.1.28-.01.22-.03.44-.04.67v.23c.05.27.04.66-.06 1.16-.2 4.85-.23 12.08-.23 25.11 0 9.13 0 15.48-.1 20.11h.1v2.87c0 .93-.05 1.87-.13 2.81.2.23.13.81-.15 2.25-.15.8-.37 2-.49 2.65-.04.23-.1.43-.18.61-.02.2-.08.46-.16.78-.03.12-.07.23-.12.32l-.04.15c0 .28-.11.74-.34 1.47-.09.33-.21.59-.33.79-.08.35-.26.82-.53 1.46-.11.26-.22.49-.32.68-.47 1.19-1 2.35-1.58 3.47-.01.15-.13.39-.34.77-.06.19-.22.46-.45.86-.22.37-.41.62-.55.75-.58.93-1.18 1.82-1.75 2.62h.08l-.65.93c-.5.71-.81 1.05-1 1.05-.45.51-.84.89-1.15 1.11-.16.17-.33.34-.49.51 0 .09-.07.21-.17.38-.22.31-.62.71-.93.93-.12.07-.21.12-.29.15-.06.05-.11.11-.17.16-.05.19-.39.49-1.05.96l-.54.38c-.15.24-.6.61-1.37 1.19-.67.47-1.1.74-1.37.82-.6.41-1.28.82-1.61.96-.1.06-.22.13-.35.2-.41.22-.69.35-.87.4-.22.18-.62.41-1.19.68-1.56.73-2.27 1.05-2.6 1.04-.32.12-.66.23-.99.34-.11.11-.3.21-.57.29-.46.12-.78.18-1.01.17l-.48.12c-.01.12-.03.2-.05.2-.03 0-.29.04-.71.12l-.76.13h-.06v.01c-.36.06-.75.13-1.17.2-1.4.25-2.17.4-2.59.42-.23.03-.4.03-.52 0-.34.02-.49-.02-.55-.13l-.52.03c-.48.37-2.19.45-7.3.45-3.31 0-4.83 0-5.52-.12l-1.74-.02h-.78l-.89.92-.3.32-.57.61v-.05l-.03.02c-.47.5-1.03 1.04-1.65 1.6 0 .06-.05.14-.14.25-.12.15-.32.34-.58.56a.55.55 0 0 1-.07.09c-.22.28-.8.77-1.3 1.14l-.89.62v-.04l-.89.63v-.11c-.22.15-.44.29-.66.43-.15.24-.76.6-1.87 1.13-.03.01-.06 0-.08 0s-.1.05-.1.05c-.67.48-2.5 1.33-3.33 1.52-.31.16-.77.32-1.34.47-.47.12-1.01.24-1.62.34-.18.03-.33.06-.46.08-.11.08-.27.15-.47.2-.59.16-.96.21-1.19.14-.16.03-.27.04-.33.04s-.1-.06-.15-.16l-.33.03c-.12.1-.29.2-.48.26-.26.06-.76.11-1.38.12-.21.02-.43.02-.66.01-1.02 0-2.17-.05-2.99-.17-1.07-.15-2.43-.48-3.56-.84-.39-.11-.7-.21-.84-.28-.23-.08-.43-.16-.61-.24-.29 0-.68-.11-1.15-.34v.07l-1.3-.65c-.46-.23-.8-.42-1.01-.59-.16-.04-.79-.44-1.6-1.01-.01.06-.03.09-.04.09-.03 0-.56-.4-1.14-.93l-.06-.05s-.02.05-.03.05c-.03 0-.56-.4-1.14-.93l-1.08-.89h.01c-.11-.1-.17-.16-.17-.19s.05-.05.13-.08c-.17-.17-.34-.34-.5-.51-.06.14-.19.05-.44-.21-.16-.14-.71-.81-1.32-1.61-.65-.89-1.63-2.47-2.16-3.45-.33-.62-.52-1.09-.57-1.41v-.02a.717.717 0 0 1-.23-.23c-.09-.19-.37-.86-.62-1.54-.21-.59-.31-.9-.29-1.07-.02-.07-.05-.15-.07-.24-.14-.24-.26-.61-.37-1.1-.19-.83-.4-2.13-.52-2.93-.1-.7-.13-1.07-.05-1.27 0-.21.03-.34.1-.42-.03-.45-.05-.9-.05-1.35-.03-.11-.04-.37-.02-.75 0-.39.02-.64.05-.7 0-.17.02-.33.03-.5-.11-.07-.17-.16-.17-.25 0-.25.03-.5.08-.72.02-.14.04-.31.07-.51.22-1.59.37-2.36.55-2.72.08-.31.17-.62.26-.94a.415.415 0 0 1-.03-.16c0-.37.18-.86.4-1.21.08-.25.18-.49.29-.67.03-.07.05-.15.08-.22-.06-.12.03-.37.24-.86.11-.26.21-.47.32-.64.15-.37.33-.75.52-1.1v-.02c0-.14.38-.8.9-1.6.14-.24.33-.53.55-.84.84-1.26 1.79-2.57 2.1-2.83.3-.37.5-.5.61-.41.32-.34.63-.67.95-.98-.05-.04-.06-.09-.02-.15.03-.04.08-.11.16-.18.21-.6 6.18-4.44 6.93-4.44.01 0 .03 0 .04.02.71-.34 1.48-.64 1.81-.64.03 0 .05 0 .08.01l.23-.07c.1-.03.21-.06.32-.09.28-.2.99-.35 2.7-.65.18-.03.32-.05.45-.06.2-.04.41-.06.63-.06.09 0 .19.07.26.19.11 0 .22-.01.33-.02.02-.02.05-.04.08-.06Z" class="cls-3"/>
  <path d="M312.01 228.08v-.38c0-1.02-.03-1.02-1.6-1.23-.89-.09-2.1-.19-2.62-.19-.55 0-1.02-.12-1.02-.31 0-.15-.25-.31-.56-.31s-1.14-.28-1.85-.62c-.68-.34-1.45-.62-1.67-.62s-.96-.49-1.63-1.11c-.68-.59-1.6-1.33-2.07-1.6-.49-.28-.86-.62-.86-.74 0-.62-2.1-3.27-2.84-3.61-.46-.22-1.02-.86-1.26-1.51-.52-1.23-5.09-6.23-5.74-6.23-.19 0-.43-.22-.52-.46-.09-.25-.43-.52-.77-.62-.31-.12-.59-.34-.59-.55 0-.46-3.98-4.29-5.74-5.49-.8-.52-1.91-1.51-2.47-2.13-.59-.65-1.48-1.33-1.97-1.54-.52-.22-.93-.49-.93-.62 0-.15-.59-.52-1.3-.89-.74-.34-1.79-1.05-2.34-1.57-.56-.49-1.23-.93-1.48-.93s-.68-.28-.96-.62c-.31-.34-.68-.62-.83-.62s-.59-.28-.93-.59c-.55-.52-3.02-1.91-5.89-3.36-.49-.28-.99-.56-1.08-.68-.18-.22-1.85-.99-3.7-1.73-.77-.28-1.6-.71-1.88-.96-.25-.22-.77-.4-1.11-.4s-.8-.22-1.02-.46c-.22-.25-.65-.46-.96-.46-.34 0-.59-.12-.59-.31 0-.15-.34-.31-.74-.31-.43 0-.86-.12-.96-.31-.09-.15-.49-.31-.89-.31-.37 0-.8-.12-.99-.25-.15-.15-1.17-.59-2.28-.96-1.11-.37-2.41-.89-2.87-1.14-.46-.28-1.6-.56-2.53-.65-.93-.09-1.7-.31-1.7-.43 0-.15-.46-.28-1.05-.28s-1.14-.12-1.23-.25c-.12-.25-1.73-.65-4.19-1.11-.43-.09-1.33-.31-2-.49-.68-.22-2.28-.49-3.55-.62-1.26-.15-4.19-.59-6.48-.96-2.5-.4-5.58-.68-7.71-.68-3.21-.03-10.33-.03-13.88 0-1.3 0-3.36.25-8.94 1.02-1.26.15-3.27.4-4.41.49-1.14.12-2.16.34-2.25.46-.09.15-.55.28-1.05.28s-1.2.12-1.6.28c-.4.15-1.73.46-2.93.68-1.23.22-2.25.49-2.25.65 0 .12-.31.25-.68.25-.65 0-2.16.4-3.49.96-.34.12-1.79.65-3.24 1.17-6.63 2.31-9.25 3.39-9.25 3.82 0 .12-.28.22-.62.22s-.62.15-.62.31c0 .19-.4.31-.93.31-.49 0-.93.15-.93.31 0 .19-.28.31-.62.31s-.62.15-.62.31c0 .19-.25.31-.52.31-.31 0-.89.28-1.33.62-.43.34-1.02.62-1.3.62-.31 0-.56.12-.56.28s-.4.43-.93.65c-.49.22-.93.49-.93.65s-.28.28-.59.28c-.34 0-.8.19-1.02.4-.68.62-3.92 2.68-4.26 2.68-.15 0-.31.09-.31.25 0 .12-.4.4-.89.62-.49.22-1.23.71-1.63 1.08-.4.37-1.42 1.14-2.28 1.7-.83.52-1.85 1.33-2.25 1.76-.4.43-.89.77-1.14.77s-.43.15-.43.31c0 .19-.19.31-.4.31s-1.02.56-1.76 1.26c-.77.68-1.85 1.6-2.37 2.04-.55.43-1.02.99-1.02 1.2 0 .25-.19.43-.4.43s-1.08.8-1.94 1.76c-.83.99-2 2.19-2.59 2.71-.59.49-1.36 1.23-1.7 1.63-.34.4-1.36 1.45-2.22 2.37-.89.93-1.63 1.76-1.63 1.85 0 .28-3.18 4.29-3.61 4.56-.22.12-.62.74-.89 1.33-.31.62-1.02 1.57-1.6 2.16-1.2 1.17-1.91 2.37-1.91 3.24 0 .34-.12.59-.28.59-.37 0-2.19 2.65-2.19 3.18 0 .22-.28.56-.62.77s-.62.59-.62.83c0 .46-.59 1.7-.96 2-.43.34-2.74 5.49-2.74 6.11 0 .37-.12.68-.31.68-.15 0-.31.28-.31.62s-.12.62-.31.62c-.15 0-.31.15-.31.37 0 .59-1.33 3.33-1.6 3.33-.12 0-.25.34-.25.74 0 .43-.12.86-.31.96-.15.09-.31.59-.31 1.11 0 .49-.12.89-.31.89-.15 0-.31.43-.31.93 0 .52-.12.93-.31.93-.15 0-.31.43-.31.93 0 .52-.12.93-.31.93-.15 0-.31.43-.31.93 0 .52-.12.93-.31.93-.15 0-.31.43-.31.93 0 .52-.09.93-.25.93-.28 0-.99 2.9-.99 4.07 0 .46-.12.89-.28.99-.15.09-.34.71-.43 1.33-.09.65-.37 2.16-.62 3.33-2.16 10.18-2.34 13.79-2.37 42.04 0 15.45-.09 23.5-.31 23.5-.15 0-.31.34-.31.71 0 .86-.8 2.59-1.36 2.9-.22.15-.62.62-.93 1.05-.62.96-2.53 1.94-4.75 2.41-.93.18-4.1.34-7.06.34h-5.43l-.71-.83c-.4-.49-.74-.99-.74-1.11 0-.31-.19-.49-2.65-2.62-1.02-.86-2-1.6-2.16-1.6-.19 0-.59-.25-.93-.52-.86-.77-1.88-1.33-2.44-1.33-.25 0-.46-.12-.46-.31 0-.15-.22-.31-.46-.31-.28 0-.56-.22-.65-.46-.12-.25-1.11-.74-2.25-1.11-4.1-1.3-8.6-1.63-13.14-.93-1.36.19-3.02.43-3.67.56-.68.09-1.42.37-1.67.59-.22.25-.77.52-1.23.65-.46.09-.89.28-.99.4-.09.09-.65.52-1.23.93-1.63 1.14-2.13 1.54-4.04 3.33-1.67 1.54-4.6 5.49-4.6 6.17 0 .18-.09.37-.22.43-.4.15-2.16 4.63-2.53 6.38-.19.93-.43 3.33-.56 5.34-.22 4.07.4 8.85 1.48 11.26.34.74.59 1.54.59 1.79s.12.46.28.46.62.71.99 1.54c.37.86.8 1.54.93 1.54s.34.28.43.62.4.62.65.62.43.22.43.46c0 .83 1.97 2.65 5.18 4.81 1.76 1.17 3.55 2.13 3.95 2.13s.74.15.74.31c0 .19.34.31.74.31.43 0 .86.15.96.31.09.19.77.31 1.42.31s1.2.12 1.2.28.37.37.86.43c1.63.25 5.8.19 7.93-.12 1.2-.15 2.74-.37 3.49-.46.71-.12 1.3-.31 1.3-.46s.34-.28.77-.28 1.02-.12 1.33-.28c.28-.19 1.33-.68 2.28-1.11.96-.46 2.16-1.17 2.62-1.57.46-.4 1.05-.74 1.26-.74.19 0 .37-.12.37-.31 0-.15.19-.31.4-.31.56 0 4.26-3.64 4.81-4.72l.46-.83 9.31.06c7.16.06 9.44 0 9.72-.28.22-.22.96-.4 1.7-.4s1.42-.12 1.51-.31c.09-.15.59-.31 1.05-.31s1.42-.28 2.13-.62c.68-.34 1.42-.62 1.6-.62.31 0 1.54-.62 1.85-.93.37-.37 1.57-.93 1.97-.93.25 0 .49-.09.56-.22.12-.31 1.76-1.3 2.5-1.54.28-.09.52-.37.52-.59 0-.25.12-.43.28-.43s.8-.49 1.45-1.08c.65-.59 1.33-1.08 1.48-1.08.4 0 1.88-1.82 2.41-2.9.19-.43.49-.8.65-.8.4 0 1.76-1.6 1.76-2.07 0-.22.12-.4.28-.4s.43-.4.65-.93c.22-.49.49-.93.65-.93s.28-.19.28-.4c0-.52.71-2.07.96-2.07.09 0 .49-.74.86-1.6.4-.89.83-1.88.99-2.16.15-.31.28-.83.28-1.17s.19-.96.43-1.33c.56-.89 1.11-3.58 1.11-5.46 0-.83.19-1.88.4-2.37.28-.65.43-7.31.59-27.85.09-15.54.34-28.1.52-29.61.71-5.83.89-7 1.39-8.33.25-.77.49-1.76.49-2.22 0-.43.28-1.45.62-2.25.34-.8.62-1.7.62-2.04 0-.31.09-.59.25-.59.22 0 .99-2.16.99-2.87 0-.56.71-2.07 1.02-2.07.12 0 .22-.22.22-.49 0-.55 1.26-2.99 1.63-3.15.12-.06.22-.31.22-.56s.28-1.05.62-1.73c.34-.71.62-1.48.62-1.7s.15-.4.31-.4c.19 0 .31-.28.31-.62s.12-.62.25-.62c.15 0 .46-.37.68-.83.25-.49.68-1.23.99-1.7.31-.43.56-.96.56-1.14 0-.22.34-.71.74-1.11.43-.4.83-1.05.96-1.39.09-.34.34-.62.49-.62s.28-.25.28-.56c0-.28.28-.71.62-.93s.62-.62.62-.93.28-.74.62-.99c.34-.25.62-.68.62-.99s.22-.56.56-.56c.28 0 .86-.52 1.3-1.17.4-.62 1.14-1.51 1.6-2 .49-.46.86-.96.86-1.11 0-.49 6.23-6.45 7.12-6.75.15-.06.28-.31.28-.52s.52-.77 1.17-1.26c.62-.46 1.36-1.11 1.63-1.42s.68-.55.86-.55c.62 0 1.88-.96 1.88-1.42 0-.25.22-.43.46-.43.28 0 .83-.34 1.23-.74.4-.43 1.05-.83 1.39-.96.34-.09.62-.31.62-.43s.65-.59 1.48-.99c.8-.4 1.67-.99 1.94-1.26.28-.31.74-.56 1.02-.56s.49-.12.49-.31c0-.15.37-.31.8-.31.46 0 1.05-.25 1.33-.56.62-.65 1.6-1.14 3.36-1.63.71-.22 1.3-.49 1.3-.65 0-.12.28-.25.62-.25s.62-.12.62-.31c0-.15.43-.31.93-.31.52 0 .93-.12.93-.28s.46-.43 1.02-.65c.52-.18 1.57-.62 2.31-.96.71-.31 1.67-.59 2.07-.59.43 0 .77-.12.77-.31 0-.15.4-.31.89-.31.52 0 1.02-.12 1.11-.31.09-.15.56-.31 1.02-.31s1.67-.28 2.65-.62c1.02-.34 2.22-.62 2.68-.62s.93-.12 1.02-.28c.09-.12 1.17-.34 2.41-.43 1.23-.12 3.42-.37 4.87-.59 3.64-.49 14.65-.49 17.73 0 1.36.25 3.27.55 4.26.71 6.29.99 7.28 1.2 7.49 1.54.09.15.74.28 1.39.28s1.2.15 1.2.31c0 .19.31.31.68.31.83 0 2.53.52 4.04 1.26.68.34 1.48.59 1.79.59.34 0 .89.28 1.26.62.4.37 1.11.62 1.7.62.55 0 1.02.15 1.02.31 0 .19.19.31.4.31.46 0 3.52 1.51 5 2.44.52.34 1.17.62 1.45.62.28.03.56.12.62.28.06.12.71.56 1.48.96.77.43 1.45.83 1.54.96.34.4 2.13 1.54 2.44 1.54s1.36.77 2.56 1.94c.31.28.71.52.86.52.19 0 .31.12.31.25 0 .15.37.46.83.71.46.25 1.7 1.23 2.71 2.22 1.02.96 2 1.76 2.22 1.76s.4.19.4.43c0 .62 2.65 3.27 3.24 3.27.25 0 .46.28.46.62s.12.62.31.62c.15 0 .83.56 1.51 1.23.68.68 1.36 1.23 1.54 1.23s.34.22.34.46c0 .28.15.65.31.86 1.2 1.42 1.54 1.88 1.54 2.13 0 .12.22.25.46.25s.46.12.46.28.19.49.4.71c.22.22.74.89 1.14 1.48.69 1 4.61 7.31 4.69 7.34.12.06.25.28.25.46 0 .22.34.77.77 1.26.43.52.86 1.26.99 1.7.09.43.86 2.16 1.7 3.79.8 1.67 1.48 3.21 1.48 3.49 0 .25.15.46.31.46.19 0 .31.34.31.74 0 .43.15.86.31.96.19.09.31.49.31.89 0 .37.25 1.23.59 1.91.31.65.65 1.73.74 2.34.09.62.37 1.6.62 2.16.65 1.45 1.08 3.24 1.3 5.18.12.93.31 1.76.43 1.85.12.09.49 2.37.83 5.09.49 4.38.59 8.11.74 33.74.12 22.67.25 28.84.56 28.96.22.06.37.62.37 1.33 0 .65.15 1.2.31 1.2.19 0 .31.4.31.89 0 .52.15 1.02.31 1.11.15.09.31.46.31.8 0 .62.49 1.67 1.14 2.34.19.22.46.68.55 1.02.09.34.34.62.49.62s.28.28.28.62.15.62.31.62c.19 0 .31.28.31.62s.15.62.31.62c.19 0 .31.19.31.4s.56 1.02 1.23 1.76c.68.77 1.23 1.48 1.23 1.63 0 .31 2.68 2.99 2.99 2.99.15.03.99.68 1.85 1.51.89.8 2.25 1.79 3.02 2.19.77.4 1.39.83 1.39.99 0 .12.28.25.59.25.34 0 .65.09.71.25.19.4 4.04 2.22 4.75 2.22.37 0 .77.12.86.28.19.28 1.05.49 3.89.96.93.15 2.41.4 3.24.59.93.19 4.32.22 8.54.12 8.05-.22 8.17-.18 10.42 2.37 1.45 1.63 4.47 4.13 5.74 4.69.4.19.74.46.74.62 0 .12.22.25.46.25.28 0 .77.28 1.14.62.37.34.99.62 1.39.62.37 0 1.14.25 1.73.59 1.45.8 2.99 1.02 9.28 1.17 3.61.06 5.64 0 5.86-.22.15-.15.77-.31 1.33-.31s1.02-.12 1.02-.31c0-.15.43-.31.93-.31.52 0 .93-.12.93-.31 0-.15.28-.31.62-.31s.62-.12.62-.31c0-.15.28-.31.62-.31s.62-.12.62-.31c0-.15.19-.31.4-.31s.68-.25 1.02-.56c1.02-.93 2.53-1.91 2.93-1.91.52 0 1.82-1.23 1.82-1.73 0-.22.52-.93 1.17-1.57 1.48-1.48 2.53-2.99 2.53-3.61 0-.28.09-.49.25-.49.25 0 .99-1.51.99-2.07 0-.22.25-.83.59-1.39.31-.59.65-1.51.77-2.1.8-3.92 1.3-10.33.86-10.89-.15-.22-.4-1.05-.52-1.88-.25-1.85-2.19-7.4-2.62-7.53-.15-.06-.31-.46-.31-.86 0-.43-.19-.83-.43-.93-.25-.09-.59-.56-.8-1.02-.18-.49-.68-1.05-1.11-1.26-.4-.25-.74-.68-.74-.99s-.12-.56-.31-.56c-.15 0-.31-.12-.31-.31 0-.4-1.14-1.54-1.54-1.54-.15 0-.31-.12-.31-.31 0-.15-.19-.31-.37-.31-.22 0-.77-.34-1.23-.74-.46-.37-1.51-1.05-2.31-1.45-.83-.4-1.6-.93-1.73-1.11-.12-.22-.59-.4-.99-.4-.43 0-.77-.12-.77-.31 0-.15-.4-.31-.93-.31-.49 0-.93-.12-.93-.28 0-.34-3.24-.65-6.94-.71-3.7-.09-8.27.68-10.24 1.7-.55.31-1.14.52-1.33.52s-.62.28-.99.62-.89.62-1.14.62c-.28 0-.83.28-1.26.62-.43.34-.89.62-1.02.62s-.59.34-1.02.77c-.43.43-.92.77-1.08.77-.19 0-1.51 1.17-2.93 2.62l-2.59 2.62h-3.77c-4.63 0-9.13-.46-10.18-1.02-.43-.22-1.17-.83-1.63-1.39-.46-.52-1.2-1.2-1.7-1.51-.68-.4-.93-.8-1.08-1.91-.12-.77-.34-14.13-.43-29.64-.15-21.16-.31-28.56-.62-29.61-.22-.77-.49-2.56-.62-4.01-.15-1.45-.49-3.58-.77-4.78-.77-3.36-.71-3.79.68-4.1.62-.15 9.53-.31 19.8-.37 10.27-.03 18.81-.15 18.97-.25.19-.12 1.14-.31 2.16-.43 2-.25 4.23-.65 6.17-1.14.68-.18 1.79-.43 2.47-.59.68-.15 1.76-.49 2.44-.77.65-.31 1.39-.52 1.63-.52s.65-.22.93-.46c.25-.28.86-.59 1.36-.68.49-.09.89-.28.89-.43s.28-.28.62-.28.62-.12.62-.31c0-.15.34-.31.71-.31.93 0 2.68-.86 2.9-1.42.09-.25.43-.43.74-.43s.59-.12.59-.31c0-.15.25-.31.56-.31s.74-.28.99-.62c.25-.34.65-.62.93-.62s.68-.28.93-.62c.25-.34.62-.62.8-.62s.93-.56 1.63-1.23c.68-.68 1.48-1.23 1.73-1.23s.59-.28.77-.62.52-.62.8-.62c.25 0 .52-.22.65-.49.25-.68 1.57-1.97 2-1.97.52 0 1.79-1.26 1.79-1.76s1.36-1.94 1.85-1.94c.15 0 .31-.12.31-.25 0-.15.34-.68.77-1.17.43-.49.77-1.02.77-1.14s.34-.59.74-.99c.43-.43 1.02-1.17 1.3-1.7.31-.49.65-.93.77-.93s.37-.4.59-.93c.22-.52.49-.93.65-.93s.28-.28.28-.62.15-.62.31-.62c.19 0 .31-.19.31-.4s.28-.71.62-1.08c.34-.37.62-.86.62-1.14 0-.25.15-.46.31-.46.19 0 .31-.28.31-.62s.15-.62.31-.62c.19 0 .31-.4.31-.93 0-.49.12-.93.25-.93.37 0 1.2-1.88 1.45-3.21.12-.62.34-1.2.49-1.3.15-.09.28-.49.28-.93 0-.4.15-.74.31-.74.19 0 .31-.46.31-1.05s.15-1.17.31-1.26c.19-.09.31-.89.31-1.73s.12-1.51.28-1.51.34-.59.43-1.3c.12-.74.37-2.44.56-3.79.49-3.18.49-10.76.03-12.21-.34-.96-.59-2.68-1.2-8.36-.09-.83-.28-1.48-.43-1.48s-.28-.4-.28-.93c0-.49-.34-1.67-.74-2.59-.4-.89-.83-2.07-.93-2.59-.12-.49-.49-1.2-.8-1.54-.34-.37-.62-.93-.62-1.26s-.12-.71-.31-.8c-.15-.09-.31-.43-.31-.71 0-.31-.28-.74-.62-.99s-.62-.62-.62-.8c0-.22-.56-1.3-1.23-2.41-.68-1.11-1.23-2.13-1.23-2.25 0-.15-.55-.59-1.23-1.02-.68-.4-1.23-.93-1.23-1.14s-.12-.4-.31-.4c-.15 0-.31-.19-.31-.4 0-.49-6.35-6.69-6.88-6.69-.43 0-1.14-1.39-1.14-2.25 0-.31-.19-.77-.43-.99-.25-.25-.68-1.23-.99-2.22-.28-.99-.8-2.31-1.11-2.93-.31-.65-.56-1.39-.56-1.7 0-.34-.4-1.05-.93-1.63-.49-.59-.89-1.17-.93-1.3 0-.12-.4-.89-.93-1.7-.49-.8-.93-1.73-.93-2.1s-.25-.93-.52-1.26c-.31-.31-.89-1.11-1.33-1.73-.43-.65-.86-1.17-.99-1.17-.15 0-.25-.28-.25-.62s-.12-.62-.31-.62c-.15 0-.31-.4-.31-.93 0-.49-.09-.93-.25-.93-.12 0-.37-.31-.52-.71-.19-.37-.62-.8-.99-.99-.4-.15-.71-.49-.71-.71 0-.25-.43-.83-.93-1.3-.52-.46-.93-1.02-.93-1.23s-.4-.77-.93-1.23c-.49-.46-.93-1.02-.93-1.2s-.28-.46-.62-.65c-.34-.18-.62-.49-.65-.71 0-.22-.99-1.26-2.16-2.37-1.2-1.11-3.02-2.81-4.04-3.76-.99-.99-1.97-1.79-2.13-1.79s-.28-.12-.28-.25-.37-.46-.83-.74c-.77-.46-1.6-1.08-2.87-2.16a4.91 4.91 0 0 0-1.33-.77c-.49-.22-1.14-.71-1.45-1.11-.31-.4-2.04-1.45-3.82-2.34-1.79-.89-3.27-1.76-3.27-1.91s-.52-.52-1.14-.77c-.65-.28-1.42-.62-1.7-.77-.31-.15-.74-.28-1.02-.28-.25 0-.93-.28-1.54-.62-.62-.34-1.3-.62-1.54-.62s-.46-.12-.46-.31c0-.15-.22-.31-.46-.31-.4 0-2.31-.77-3.92-1.57-.31-.15-1.08-.28-1.76-.28s-1.33-.12-1.42-.31c-.09-.15-.52-.31-.93-.31s-.8-.12-.89-.28c-.19-.28-1.39-.49-5.43-.96-1.26-.15-3.55-.49-5.09-.77-2.16-.4-3.95-.46-8.17-.34-2.96.09-6.2.25-7.16.37-1.76.19-1.76.15-2.41-.86-.37-.65-.62-1.54-.62-2.47 0-.83-.09-1.48-.25-1.48-.12 0-.4-.93-.62-2.1-.22-1.14-.52-2.19-.71-2.37-.15-.15-.28-.49-.28-.77 0-.25-.43-1.48-.93-2.75-.52-1.23-.93-2.59-.93-2.96 0-.4-.15-.83-.31-.93-.15-.09-.31-.46-.31-.77 0-.34-.4-1.26-.93-2.07-.49-.8-.93-1.7-.93-1.97 0-.31-.12-.62-.28-.71-.15-.09-.99-1.6-1.88-3.33-.89-1.76-1.73-3.24-1.88-3.27-.15-.06-.28-.37-.28-.71 0-.31-.12-.59-.31-.59-.15 0-.31-.19-.31-.4 0-.74-1.48-3.42-2.28-4.19-.46-.4-.8-.89-.8-1.14s-.12-.43-.31-.43c-.15 0-.31-.22-.31-.46 0-.28-.28-.77-.62-1.14-.34-.37-.62-.86-.62-1.08s-.12-.4-.31-.4c-.15 0-.31-.28-.31-.59 0-.34-.37-.93-.83-1.33-.49-.4-1.05-1.08-1.26-1.48-.22-.43-.71-.93-1.08-1.08-.37-.19-.8-.62-.99-1.02-.15-.37-.56-.77-.83-.86-.31-.09-.56-.34-.56-.52-.03-.49-1.11-1.76-1.48-1.76-.19 0-.4-.25-.49-.52-.09-.31-.52-.93-.93-1.36-.4-.43-.83-1.08-.96-1.45-.09-.4-.59-.93-1.02-1.23-.46-.28-1.33-1.02-1.91-1.63-.62-.59-1.67-1.39-2.34-1.79-.68-.4-1.51-1.11-1.79-1.6s-.68-.89-.83-.89c-.34 0-.96-.46-1.76-1.33-.28-.28-.59-.52-.71-.52s-.8-.59-1.54-1.26c-.74-.71-2.07-1.76-2.9-2.28-.86-.56-1.76-1.23-1.97-1.51-.22-.28-.68-.49-.99-.49-.34 0-.59-.09-.59-.22 0-.25-1.48-1.02-1.94-1.02-.12 0-.62-.4-1.05-.93-.4-.49-1.08-.93-1.42-.93-.37 0-1.02-.28-1.45-.62-.43-.34-1.08-.62-1.45-.62-.4 0-.71-.12-.71-.31 0-.15-.22-.31-.46-.31s-.46-.12-.46-.31c0-.15-.31-.31-.71-.31-.37 0-.89-.28-1.14-.62-.25-.34-.62-.62-.83-.62s-.83-.28-1.39-.62c-.55-.34-1.23-.62-1.48-.62s-.8-.28-1.23-.62c-.43-.34-1.08-.62-1.45-.62s-.89-.22-1.14-.49c-.28-.25-1.02-.56-1.63-.65-.65-.12-1.63-.46-2.19-.77s-1.57-.65-2.31-.74c-.71-.12-1.97-.49-2.84-.89-.83-.37-2.59-.83-3.86-1.05-1.26-.22-3.49-.65-4.93-.96-1.45-.31-3.79-.68-5.24-.77-1.45-.12-4.19-.4-6.11-.65-4.41-.56-7.49-.56-14.25.03-6.01.52-7.43.71-14.03 1.97-.83.15-2.1.37-2.78.49-1.6.28-2.93.77-2.93 1.11 0 .15-.46.28-1.05.28s-1.14.12-1.23.28c-.09.15-.68.37-1.26.46-.59.09-1.57.28-2.16.37-.59.09-1.08.28-1.08.4 0 .15-.8.43-1.76.68-.99.22-2.07.65-2.37.96-.34.31-.8.56-1.02.56s-.4.12-.4.25c0 .15-.68.46-1.54.68-.83.22-1.54.52-1.54.68 0 .12-.4.25-.89.25s-1.11.19-1.33.4-1.2.8-2.16 1.3c-.99.49-1.79 1.02-1.79 1.14s-.22.25-.49.25c-.55 0-2.81 1.17-3.45 1.76-.22.22-.83.59-1.39.86-.56.25-1.48.86-2.07 1.39-.59.49-1.26.93-1.45.93-.22 0-.4.15-.4.31 0 .19-.25.31-.56.31s-.86.34-1.2.74c-.34.4-1.08.99-1.6 1.3-.52.31-.96.68-.96.8s-.18.25-.43.25-1.42.96-2.59 2.13c-1.2 1.17-2.37 2.25-2.65 2.41-.62.34-5 4.29-5.86 5.27-.37.4-1.2 1.3-1.88 2-.71.71-1.6 1.79-2 2.37s-.96 1.3-1.23 1.54c-.4.37-1.91 2.28-2.84 3.55-.12.19-.86 1.08-1.63 2-.74.93-1.63 2.22-1.91 2.84-.31.65-.65 1.17-.77 1.17-.15 0-.25.28-.25.59s-.19.65-.4.74c-.65.25-2.68 3.45-2.68 4.19 0 .37-.12.65-.31.65-.15 0-.31.15-.31.31 0 .19-.55 1.23-1.23 2.34-.68 1.11-1.23 2.16-1.23 2.31s-.12.52-.31.83c-.65 1.2-1.54 3.3-1.54 3.67 0 .22-.12.4-.31.4-.15 0-.31.19-.31.43 0 .37-.43 1.36-1.57 3.64-.15.31-.28.8-.28 1.11 0 .34-.22 1.05-.49 1.57l-.49 1.02-1.88-.22c-1.05-.12-5.64-.22-10.24-.22-7.74-.03-12.71.34-14.19.96-.34.15-1.67.59-2.93.99-1.26.37-2.44.8-2.62.96-.15.12-.59.25-.99.25s-.71.15-.71.31c0 .19-.46.31-1.05.31s-1.17.15-1.26.31c-.09.19-.46.31-.8.31-.31 0-.59.09-.59.25 0 .12-.96.71-2.16 1.3-1.17.59-2.16 1.17-2.16 1.33 0 .12-.28.22-.59.22-.34 0-.8.28-1.02.59-.25.34-.8.77-1.26.99-.46.22-.83.49-.83.65 0 .12-.22.25-.49.25s-.74.25-1.02.56c-.28.31-1.2 1.05-2.07 1.67-.86.65-1.82 1.51-2.16 1.94-.31.43-.83.77-1.11.77-.31 0-.56.09-.56.25 0 .19-.83 1.2-2.9 3.45-.37.43-1.17 1.39-1.76 2.16s-1.14 1.45-1.23 1.54c-.4.37-2.13 3.05-2.13 3.33 0 .19-.19.37-.43.46-.25.09-.93 1.14-1.51 2.31-1.26 2.47-1.85 3.55-2.1 3.76-.09.09-.49 1.23-.93 2.53-.4 1.33-.83 2.41-.96 2.41-.15 0-.25.25-.25.56 0 .34-.22 1.05-.49 1.6-.49.96-.68 1.6-1.39 4.47-.71 2.93-.93 3.79-1.2 5.37-.52 2.93-1.2 4.66-1.88 4.66-.31 0-.59.15-.59.31 0 .19-.19.31-.4.31-.56 0-2.07.74-2.07 1.02 0 .12-.15.22-.37.22-.71 0-2.71 1.05-2.71 1.45 0 .22-.25.4-.59.4-.31 0-.89.25-1.3.59-.4.31-1.14.77-1.67 1.05-.49.25-1.42.93-2 1.51-.62.56-1.63 1.45-2.31 1.94-1.7 1.3-3.86 3.42-3.86 3.82 0 .18-.18.34-.43.34-.22 0-.96.65-1.6 1.48-.65.8-1.39 1.67-1.67 1.91-.25.25-.83.96-1.26 1.54-.46.59-1.11 1.42-1.48 1.82-.34.4-.65.83-.65.96s-.34.62-.77 1.11c-.43.49-.77 1.02-.77 1.14s-.34.59-.77 1.02c-.43.43-.86 1.2-.99 1.7-.09.49-.28.89-.43.89s-.28.28-.28.62-.12.62-.31.62c-.15 0-.31.19-.31.4 0 .56-.74 2.07-.99 2.07-.15 0-.25.22-.25.49 0 .25-.22.68-.46.93s-.52.96-.65 1.6c-.12.62-.31 1.2-.4 1.3-.12.09-.52 1.2-.96 2.47-.4 1.26-.96 2.81-1.23 3.39-.31.59-.62 1.85-.74 2.78-.93 7.65-1.11 9.56-1.26 12.95-.15 3.58.06 7.62.77 13.26.68 5.49.55 4.9 1.7 7.49.28.65.59 1.67.68 2.25.09.59.31 1.14.43 1.23.15.09.28.49.28.93 0 .4.09.74.25.74.12 0 .4.52.62 1.17 1.02 2.81 1.14 3.15 1.36 3.15.15 0 .25.19.25.4s.25.68.56 1.02c.31.31 1.02 1.45 1.57 2.47.55 1.05 1.54 2.5 2.22 3.24.65.74 1.2 1.51 1.2 1.73s.09.4.25.4c.12 0 .49.43.83.93s.77.93.93.93c.19.03.83.86 1.51 1.85.65 1.02 1.36 1.85 1.54 1.85.22 0 .68.31 1.02.71.34.37 1.23 1.17 1.94 1.76.74.59 1.67 1.39 2.04 1.79.4.37.86.68 1.02.68.18 0 .46.28.65.62.19.34.49.62.71.62s.59.28.83.62c.25.34.68.62.99.62s.56.12.56.25c0 .15.37.46.86.71.46.25 1.11.68 1.42.99.34.28.8.52 1.02.52s.4.15.4.31c0 .19.22.31.46.31s.46.15.46.31c0 .19.43.31.93.31.52 0 1.23.28 1.6.62.37.34.93.62 1.2.62.31 0 .65.15.74.31.09.19.46.31.8.31.31 0 .59.15.59.31 0 .19.34.31.77.31s1.08.28 1.42.59c.37.34 1.3.65 2.07.74 2.07.25 3.52.52 4.23.83.34.15 1.23.34 2 .43.77.09 2.16.31 3.08.46 3.61.71 10.79 1.02 19.74.83 5.8-.09 9.13-.28 9.19-.49.06-.15.31-.31.56-.31s.52-.4.65-.93c.09-.49.28-.93.43-.93s.28-.46.28-.99c0-.56.28-1.76.62-2.65.34-.89.62-2.1.62-2.68s.12-1.08.25-1.08c.37 0 .99-1.45.99-2.31 0-.43.09-.77.25-.77.31 0 .99-2.28.99-3.39 0-.49.12-.93.25-.93.34 0 .99-1.39.99-2.04 0-.28.25-.86.59-1.3.31-.46.74-1.39.99-2.07.25-.68.49-1.3.59-1.39.09-.09.34-.71.56-1.39.55-1.7 1.05-2.68 1.7-3.36.28-.34.52-.8.52-1.02s.15-.4.31-.4c.19 0 .31-.28.31-.62s.15-.62.31-.62c.19 0 .31-.4.31-.93 0-.49.15-.93.31-.93.19 0 .31-.19.31-.4s.25-.68.56-1.02c.28-.31.86-1.23 1.3-2.04.43-.83.86-1.48.99-1.48.15 0 .25-.28.25-.62s.12-.62.25-.62.71-.8 1.3-1.76c.59-.99 1.3-2 1.6-2.28.31-.28.56-.8.56-1.2 0-.37.46-1.11 1.02-1.67 1.42-1.33 2.68-3.05 2.68-3.67 0-.31.22-.52.46-.52s.46-.12.46-.31c0-.15.46-.77 1.02-1.33.52-.59 1.17-1.42 1.42-1.85.25-.46.55-.83.71-.83.12 0 .59-.52 1.02-1.17.43-.68 1.14-1.39 1.54-1.6.43-.22.77-.62.77-.83 0-.56 6.38-6.88 6.97-6.88.25 0 .43-.22.43-.46 0-.49 1.33-2 1.76-2 .12 0 1.14-.83 2.25-1.85s2.1-1.85 2.22-1.85c.15 0 .77-.49 1.39-1.08.62-.59 1.26-1.08 1.39-1.08s.71-.49 1.3-1.08c.62-.59 1.3-1.08 1.57-1.08.25 0 .46-.09.46-.22 0-.15.55-.52 1.23-.83.68-.34 1.23-.77 1.23-1.02 0-.22.25-.4.56-.4s.74-.28.99-.62c.25-.34.68-.62.99-.62s.56-.12.56-.31c0-.15.25-.31.56-.31s.74-.28.99-.62c.25-.34.74-.62 1.08-.62s1.11-.43 1.7-.93c.59-.49 1.26-.93 1.48-.93.19 0 .37-.12.37-.31 0-.15.28-.31.62-.31s.62-.09.62-.22c0-.28 1.48-1.02 2.04-1.02.52 0 2.9-1.3 2.9-1.6 0-.12.28-.25.62-.25s.62-.12.62-.31c0-.15.22-.31.46-.31s.93-.28 1.54-.62 1.51-.62 2-.62 1.08-.19 1.3-.4c.37-.4 1.57-.99 3.64-1.82.43-.19 1.02-.43 1.3-.59.31-.15.89-.28 1.3-.28.43 0 .86-.12.96-.31.09-.19.46-.31.8-.31.31 0 .83-.12 1.14-.28 1.3-.65 4.13-1.6 6.69-2.25 1.54-.4 2.84-.8 2.87-.93.06-.15.96-.25 1.94-.25s1.82-.12 1.82-.28c0-.28 1.02-.52 3.64-.83.71-.12 1.3-.28 1.3-.43 0-.12 1.42-.34 3.18-.46 1.73-.09 4.53-.4 6.23-.65 4.53-.65 16.69-.89 22.05-.43 7.49.62 8.02.68 8.02.93 0 .15 1.02.34 2.25.43 3.48.25 6.38.68 8.33 1.23.99.28 2.19.49 2.68.49.52 0 .93.15.93.31 0 .19.4.31.89.31.52 0 1.02.15 1.11.31.09.19.68.31 1.26.31 1.02 0 6.32 1.54 7.59 2.19.31.15.89.28 1.3.28.43 0 .86.15.96.31.09.19.52.31.96.31.4 0 .74.12.74.28 0 .34 1.67.65 4.56.86 1.91.12 2.22.06 2.22-.37 0-.28.28-1.08.62-1.76.34-.71.62-1.76.62-2.31s.12-1.02.25-1.02c.43 0 .99-1.48.99-2.56 0-.56.12-1.14.28-1.3.15-.19.56-1.08.89-2 .34-.93 1.05-2.53 1.57-3.55s.96-2.1.96-2.37c0-.31.12-.56.25-.56.15 0 .49-.49.77-1.08.28-.62.74-1.17.99-1.26.25-.12.46-.4.46-.62 0-.25.28-.74.62-1.11.34-.37.62-.99.62-1.39 0-.43.19-.71.46-.71.25 0 .46-.12.46-.31 0-.15.49-.77 1.08-1.36.59-.62 1.08-1.2 1.08-1.36s.55-.71 1.23-1.26c.68-.52 1.23-1.17 1.23-1.42s.22-.46.46-.46.62-.28.83-.62c.22-.34.49-.62.62-.62s.74-.52 1.39-1.14c.65-.65 1.54-1.36 2.04-1.6.46-.25.83-.55.83-.71 0-.12.25-.25.55-.25.34 0 .83-.28 1.14-.62.31-.34.71-.62.89-.62.22 0 .56-.28.8-.62.25-.34.68-.62.99-.62s.56-.12.56-.31c0-.15.28-.31.62-.31s.62-.12.62-.31c0-.15.28-.31.62-.31s.62-.09.62-.22c0-.28 1.48-1.02 2-1.02.19 0 .52-.28.77-.62.25-.37.8-.62 1.3-.62.46 0 .86-.12.86-.31 0-.15.28-.31.59-.31.34 0 .71-.12.8-.31s.74-.31 1.39-.31 1.82-.28 2.62-.62c.8-.34 1.88-.62 2.44-.62s1.11-.12 1.3-.28c.15-.15 1.39-.37 2.74-.43 1.36-.09 3.58-.31 4.93-.49 2.68-.37 9.72-.15 9.72.31 0 .15 1.11.28 2.47.28 1.45 0 2.47.12 2.47.31s.68.31 1.54.31 1.54.15 1.54.31c0 .19.28.31.59.31.34 0 .71.15.8.31.09.19.68.31 1.26.31s1.05.15 1.05.31c0 .19.43.31.93.31.52 0 .93.15.93.31 0 .19.43.31.93.31.52 0 .93.09.93.25 0 .25 1.51.99 2.07.99.22 0 .4.09.4.25 0 .12.46.4 1.02.62 2.13.86 3.92 1.76 3.92 2 0 .12.15.22.34.22.37 0 3.18 1.85 3.3 2.22.06.12.28.25.52.25.34 0 2.04 1.39 5.64 4.66.71.65 1.3 1.39 1.3 1.67 0 .25.19.46.4.46.46 0 3.3 2.65 3.3 3.12 0 .18.31.71.71 1.17.37.46.96 1.23 1.3 1.7.34.49.77 1.05.96 1.23.22.22.74 1.14 1.2 2.07.46.93.93 1.73 1.05 1.82.37.31.96 1.54.96 2 0 .25.15.46.31.46.19 0 .31.28.31.62s.12.62.25.62.43.83.65 1.85c.25 1.02.49 1.85.62 1.85.25 0 .96 2.28.96 3.08 0 .34.12.62.28.62.12 0 .37.8.49 1.79.12.96.37 2.74.52 3.92.46 3.08.46 10.12 0 12.65-.22 1.2-.46 2.65-.52 3.24-.25 1.57-.86 3.52-1.17 3.73-.15.09-.59 1.33-.99 2.71-.68 2.31-1.45 4.01-3.58 8.05-.4.77-.89 1.57-1.11 1.79s-.62.8-.93 1.3c-.28.52-.65.93-.77.93s-.43.4-.71.93c-.77 1.48-6.6 7.06-9.28 8.88-.68.43-1.39.96-1.6 1.17-.19.22-.65.49-.99.59-.34.09-.62.34-.62.49s-.15.28-.34.28-.93.43-1.67.93c-.74.52-1.57.93-1.82.93-.28 0-.49.12-.49.28s-.49.37-1.08.46c-.59.12-1.17.4-1.3.62-.15.22-.52.46-.86.56-.34.09-1.57.56-2.78.99-1.17.43-2.44.8-2.78.8-.37 0-.77.12-.96.25-.15.15-1.23.43-2.44.65-1.17.22-3.21.65-4.47.96-1.26.31-3.45.65-4.84.77l-6.98.24.42 1.4Z" style="fill:url(#linear-gradient);fill-rule:evenodd"/>
  <path d="M342.42 90.3c.25.43 5.09-.06 6.45-.65.34-.15 1.11-.34 1.7-.4.59-.06 1.7-.34 2.47-.62.77-.28 2-.65 2.78-.83.77-.22 1.88-.65 2.5-.96.59-.31 2-.74 3.15-.96 1.14-.22 2.07-.49 2.07-.62 0-.15.34-.25.74-.25.43 0 .86-.12.96-.31.09-.15.86-.31 1.67-.31 1.05 0 1.7-.19 2.19-.62.4-.34 1.05-.62 1.45-.62s.96-.12 1.26-.28c.28-.15 1.33-.52 2.31-.8.99-.28 1.97-.71 2.22-.96.22-.25.59-.43.77-.43.83 0 2.56-2.99 2.96-5.12.25-1.33-.86-5.37-1.48-5.37-.15 0-.25-.22-.25-.49 0-.62-.74-1.36-1.36-1.36-.28 0-.49-.12-.49-.28 0-.68-4.66-.93-7.25-.4-3.73.8-7.99 2-8.11 2.31-.06.12-.4.22-.77.22-.34 0-1.42.25-2.34.59-.96.31-2.5.74-3.42.96-2 .43-3.79 1.02-4.01 1.26-.09.09-.74.28-1.48.4-.71.09-2.34.55-3.61.96-1.23.43-2.62.77-3.05.77s-.86.15-.96.31c-.09.19-.4.31-.65.31-.62 0-3.21 2.59-3.21 3.21 0 .28-.12.49-.31.49-.56 0-.37 5.46.22 7.12.31.83.68 1.51.83 1.51s.49.25.77.56c.68.74 1.76 1.3 2.47 1.3.34 0 .71.15.83.34ZM319.11 65.6c0 .19 1.33.31 3.39.31s3.39-.12 3.39-.31c0-.15.22-.31.49-.31.31 0 1.2-.68 2-1.54.8-.83 1.6-1.54 1.79-1.54.46 0 1.88-1.51 1.88-2 0-.25.15-.46.31-.46.19 0 .31-.28.31-.62 0-.4.22-.62.56-.62.31 0 .77-.4 1.08-.89.65-1.08 2.22-2.81 2.59-2.81.28 0 1.94-1.79 1.94-2.07 0-.09.37-.56.86-.99.46-.46 1.02-1.2 1.26-1.63.22-.46.83-.99 1.3-1.2.56-.22.89-.59.89-.93s.19-.59.4-.59c.55-.03 2.07-1.45 2.07-2 0-.25.22-.46.46-.46s.46-.12.46-.28.74-1.02 1.67-1.94c.89-.93 1.7-1.85 1.76-2 .25-.65 2.78-3.18 3.18-3.18.22 0 .59-.37.83-.83.25-.49 1.23-1.67 2.22-2.62.96-.96 1.76-1.91 1.76-2.1 0-.22.37-.74.86-1.2.46-.43 1.02-1.11 1.23-1.51.46-.83.52-7.16.06-7.16-.15 0-.31-.4-.31-.86 0-.96-1.73-2.84-2.59-2.84-.25 0-.55-.12-.65-.31-.09-.15-.52-.31-.96-.31-.4 0-.74-.12-.74-.31 0-.43-3.45-.37-4.93.06-.68.22-1.23.49-1.23.62 0 .15-.25.25-.59.25-.31 0-1.05.52-1.6 1.17-.59.65-1.91 2.16-2.99 3.36-1.08 1.2-2.74 3.02-3.7 4.04-2.44 2.56-3.45 3.7-3.45 4.01 0 .15-.34.46-.77.68-.4.22-.83.65-.96.99-.09.31-.37.56-.65.56-.49 0-3.79 3.24-3.79 3.73 0 .46-2.71 3.55-6.01 6.88-1.51 1.54-3.27 3.39-3.86 4.13-.59.71-1.26 1.3-1.45 1.3-.22 0-.4.12-.4.28s-.56.89-1.23 1.63c-.65.71-1.39 1.51-1.57 1.76-1.2 1.36-1.63 6.45-.74 8.57.56 1.3 2.93 3.79 3.67 3.79.28 0 .49.15.49.31ZM290.12 44.62c0 .46 5.74.4 6.54-.06 1.14-.68 3.24-2.84 3.49-3.64.12-.4.43-.93.65-1.17.25-.22.43-.96.43-1.63s.15-1.48.31-1.82c.19-.34.46-.89.62-1.23.19-.34.31-.93.31-1.33 0-.37.28-1.23.62-1.91.34-.68.62-1.6.62-2.07s.09-.86.25-.86c.28 0 .99-2.93.99-4.1 0-.46.09-.83.25-.83.28 0 .99-2.25.99-3.21 0-.43.15-.86.31-.96.19-.09.31-.46.31-.83 0-.74.83-3.45 1.42-4.63.25-.43.43-1.26.43-1.88s.15-1.2.31-1.3c.19-.12.31-1.63.31-3.55s-.12-3.42-.31-3.55c-.15-.09-.31-.46-.31-.8 0-1.2-2.04-2.56-4.56-3.08-2.28-.46-5.27 0-6.32.99-.34.31-.74.59-.86.59-.49 0-1.51 2.16-2.59 5.4-.59 1.88-1.23 3.67-1.39 4.01-.25.59-.49 1.63-.8 3.86-.09.59-.28 1.36-.4 1.7-.15.34-.86 2.5-1.57 4.78-.71 2.28-1.42 4.41-1.57 4.69-.15.31-.28.93-.28 1.39 0 .77-.37 2.16-.96 3.64-.31.83-.59 2.07-.96 4.72-.43 3.08.19 5.8 1.73 7.34.59.59 1.26 1.05 1.54 1.05s.49.15.49.31Z" class="cls-3"/>
  <path d="M134.69 376.83c.34-.49 2.28-2.59 4.32-4.69l3.08-3.21c.36-.48.53-.81.61-1.06 1.71-2.54 1.44-2.54 1.71-2.54.15 0 .96-.77 1.82-1.7.8-.89 1.6-1.63 1.82-1.69.08-.22.24-.3.55-.31.1-.08.19-.15.27-.2.05-.05.11-.09.16-.14.19-.2.4-.4.61-.6.08-.23.24-.38.49-.46.44-.41.9-.8 1.32-1.14a.46.46 0 0 1 .2-.16c.54-.43 1.01-.77 1.28-.91.06-.26.25-.37.6-.39.05-.14.41-.48.99-.95.06-.13.17-.22.32-.26.29-.23.62-.49.99-.77a.82.82 0 0 1 .63-.48c.25-.19.52-.38.79-.58.05-.2.21-.35.42-.35h.07c.16-.12.33-.24.49-.36.02-.03.04-.07.06-.1.07-.2.32-.35.67-.42.48-.34.96-.68 1.44-1.01.08-.16.2-.26.35-.26h.02c.18-.13.36-.25.54-.37.02-.03.04-.06.05-.09.09-.25.37-.46.65-.46.05 0 .09 0 .14-.01l.31-.21s.02-.06.02-.09c0-.15.19-.31.43-.31.06 0 .13 0 .19-.02.13-.08.26-.17.38-.25.4-.66 6.79-4.52 11.41-6.87.07-.14.21-.21.46-.24 1.01-.51 2.09-1.03 3.21-1.54.07-.24.26-.31.73-.33.49-.22.98-.43 1.48-.65.3-.44 1.32-.9 2.07-.9h.08c.17-.07.34-.14.5-.2.02-.03.03-.07.03-.1 0-.14.44-.29 1-.31.53-.21 1.06-.41 1.59-.61.22-.37.75-.57 1.67-.62.58-.21 1.15-.41 1.71-.6.15-.24.48-.4 1.09-.58.78-.24 1.42-.35 1.88-.37.58-.18 1.15-.34 1.7-.49l.12-.03c.36-.2.85-.38 1.39-.51.14-.15.42-.2.93-.2.1 0 .21 0 .3-.01.28-.08.56-.15.84-.22.01-.01.02-.03.03-.04.15-.4 7.62-2.1 13.69-3.11 4.26-.71 5.92-.97 6.55-.87.28-.03.55-.07.83-.1.22-.18.7-.27 1.72-.39 1.82-.19 2.57-.23 2.87-.09.49-.05.99-.09 1.48-.13.13-.22.48-.27 1.32-.27.34 0 .62.04.85.09.61-.05 1.22-.09 1.84-.13.14-.24.54-.27 1.63-.27.59 0 1.01.03 1.28.09 1.57-.09 3.2-.17 4.9-.24.18-.13.54-.16 1.22-.16.32 0 .59.03.81.09l4.89-.18c1.99-.03 2.1.04 2.04 1.26-.09 1.82-.28 5.61-.37 8.48-.1 2.52-.16 3.81-.28 4.48v.92l.03 5.15.08.2c.29.1.41.42.53 1.19l.02.11.41.97.07.16c.08.04.15.21.19.44.52 1.2 1.16 2.47 1.5 3 .32.52.58 1.04.67 1.32.11.16.22.32.33.47h.02c.15 0 .26.17.3.42.22.28.51.61.83.98.14.07.24.18.3.34 1.39 1.56 3.3 3.53 4.07 4.2.17.05.27.13.33.23.11 0 .49.28.93.67.15.06.26.16.31.28.23.2.5.41.77.6.22.02.35.11.42.29.18.12.34.21.47.29.46.25.83.56.83.71 0 .04.02.07.04.11.07.04.15.08.23.13.04 0 .09.01.13.01.22 0 .71.28 1.08.62.37.34.8.62.99.62.15 0 .31.12.31.25 0 .02 0 .04.03.06l.08.05c.62.08 1 .28 1.1.59.44.18.81.4.92.55l.14.08c.65.09 1.21.4 1.51.79.11.06.22.11.33.17.36.08.84.23 1.23.4.27.11.57.27.89.47.25.03.6.15.93.31.08 0 .15.02.21.04.05-.03.12-.05.19-.05.25 0 .46.15.46.37s.37.77.83 1.23l.72.74.46.4h-.04c.21.19.42.39.63.59.41.32 1.07.95 2.18 2l2.78 2.65h-.14c.64.63 1.29 1.26 1.97 1.91l.24.23c.33.12 1.05.81 2.71 2.42l2.93 2.84h-.15c.32.31.61.6.88.87l.18.17v-.12l1.34 1.11c1.61 1.39 1.99 2.02 1.61 2.83v.02c0 .16-.07.29-.18.41-.05.08-.12.15-.2.23-.01.01-.06.02-.13.03-.26.22-.58.34-.89.34-.13 0-.24 0-.33-.02-.38.02-.68-.04-.74-.2-.44 0-.96.02-1.55.03v.19h-4.01v-.15h-1.21l-.02.01H278.88c-.15.12-.42.14-.9.14s-.72-.01-.88-.12c-6.97.05-17.77.09-33.63.1-.1.01-.22.02-.34.02s-.25 0-.36-.02h-2.91c-.13.01-.28.02-.43.02s-.28 0-.42-.01h-3.54c-.12 0-.24.01-.36.01H169.44c-11.21 0-19.71-.01-26.18-.03-.15.03-.36.03-.64.03s-.51 0-.66-.04c-2.11 0-3.99-.01-5.66-.02v.06h-9.56v-.17h-.31v.17H124.17c-.19 0-.39 0-.6-.03-.7-.06-1.25-.18-1.4-.33-.22-.22-.33-.46-.36-.75-.03-.1-.03-.2-.01-.32v-.04c0-.04.03-.12.08-.21.15-.51.52-1.08 1.12-1.73l1.23-1.36.02.12c.25-.27.53-.57.83-.89.04-.07.09-.15.17-.25.22-.34 2.44-2.68 4.9-5.27 1.59-1.65 2.62-2.71 3.31-3.36l.64-.68.62-.83Zm76.12 15.95h-.13.14Z" style="fill:url(#linear-gradient-2);fill-rule:evenodd"/>
  <path d="M223.7 331.74c-.46.17-1.31.3-2.83.47-.64.08-1.03.12-1.27.09l-.83.12c-.06.02-.13.05-.21.07-.62.16-1 .21-1.22.13h-.08c-.15.04-.31.07-.48.11l-48.76 15.81.03-16.84c0-5.37.03-10.28.09-13.03-.02-1.24-.04-2.74-.05-4.47-.03-1.17-.05-3.1-.05-5.38-.04-.08-.08-.16-.11-.25-.25-.93-.25-4.81 0-5.71.03-.11.08-.22.13-.31.03-4.42.1-8.82.18-11.12.01-.56.03-1.08.04-1.57 0-.24.01-.47.02-.69-.12-.08-.18-.27-.19-.5a.24.24 0 0 1-.06-.15c0-.55.14-1.08.34-1.42.01-.2.03-.39.04-.57-.06-.16-.03-.45.05-.94.15-.88.26-1.5.37-1.93.03-.15.06-.29.1-.45l.04-.17v-.05c0-.63.3-1.69.61-2.38.15-.57.29-1.03.38-1.29h-.06l.55-1.45c.18-.48.36-.85.53-1.11-.08-.12.05-.4.31-1.04.36-.84.83-1.78 1.39-2.76.02-.33.74-1.49 1.12-1.85.25-.39.51-.78.77-1.16.05-.13.16-.3.3-.49h-.06l.62-.83c.34-.49 1.11-1.42 1.7-2.1l1.08-1.23c.07-.06.13-.12.19-.17l.12-.14c.18-.19.31-.28.41-.28.21-.21.44-.43.7-.67-.03-.04-.03-.08 0-.13 0 0 .01-.02.02-.03h-.02l.09-.08c.11-.12.29-.28.51-.46 0-.02 0-.03.02-.05.09-.15.59-.59 1.08-.93l.13-.09c.68-.57 1.43-1.2 1.81-1.48l.86-.65v.04l.88-.62c.4-.34.68-.52.88-.55.54-.37 1.14-.74 1.49-.9.15-.09.3-.17.43-.24.32-.19.74-.42 1.22-.66.49-.35 1.15-.72 1.36-.72.01 0 .03 0 .04.02.17-.08.35-.17.55-.27.02 0 .04-.01.05 0 1.51-.72 2.24-1.05 2.6-1.1.34-.12.64-.2.83-.2h.06c.2-.06.4-.13.6-.19.29-.23.82-.4 1.39-.43.8-.31 2.25-.66 4.15-.98.33-.16.79-.26 1.26-.26.05 0 .1.02.15.06h.15c.16-.02.28-.02.38-.01.14-.02.28-.04.43-.04.34-.18.84-.31 1.36-.31.02 0 .05 0 .07.01.19-.02.34-.02.47 0 .12-.01.25-.02.38-.02h.31c.02 0 .05 0 .07.01.19-.02.34-.02.47 0 .12-.01.25-.02.38-.02.04 0 .08.01.11.03.22-.02.46-.03.72-.03.28 0 .54.01.77.04.1-.03.22-.03.38-.01.09-.01.19-.01.31 0 .09-.01.19-.01.31 0 .08-.01.19-.01.31 0 .09-.01.19-.01.31 0 .23-.03.58.02 1.1.16.15.04.27.09.37.14h.08c.09-.01.19-.01.31 0 .09-.01.19-.01.31 0 .16-.02.38 0 .67.06.12.02.26.04.43.07 1.79.31 3.13.61 4.02.88.09.02.19.05.3.07.14.04.25.08.35.13.34.03.81.18 1.26.37v-.07l1.45.56c.34.13.64.25.87.38.06.03.13.05.21.09.28.11.5.23.67.33.27.11.48.2.63.28.03-.04.07-.05.11-.03.77.37 1.31.66 1.61.88.23.07.71.33 1.24.65.19.04.48.2.95.47.28.17.5.32.64.45.2.03.48.21.89.55l.91.64c.29.2.51.37.68.52.05.03.11.08.18.13.39.3.79.63 1.17.95.11.09.21.17.29.24 1.33 1.13 2.49 2.24 2.76 2.69.07.11.13.2.18.27.09.08.2.18.31.29s.1.11.1.11c.13.14.27.3.4.46.02 0 .03 0 .05.01.09.06.24.21.44.43.19.13.46.46.83.99l.41.59c.24.19.59.66 1.13 1.44l.96 1.36h-.11c.06.08.11.18.18.28.09.15.16.28.23.4 1.07 1.45 3.69 6.83 3.69 7.84 0 .05 0 .09-.03.13.06.1.11.24.15.39l.06.23c.04.11.08.22.12.35.05.1.09.22.13.35.04.15.08.29.1.42l.02.08c.38 1.37.59 2.13.63 2.57.04.26.05.44 0 .57l.07.4c.04.08.07.18.1.29.16.59.21.96.13 1.18.01.14.01.24 0 .32.01.17.02.37.03.59.05.1.1.23.14.38.13.5.19.84.16 1.06.05.36.05.64-.01.85.07.45.03.75-.11.91.09 1.45.13 2.95.12 4.48 0 1.59-.04 2.78-.09 3.57l.05 7.63c0 2.02.01 3.81 0 5.38.03 2.31.06 5.25.06 8.28v9.85c.05.1.09.2.12.33.12.46.19.86.12.89-.06.06-.96.22-2.04.34-.73.07-1.19.11-1.47.09-.53.08-.91.04-1.13-.1l-.69.03c-.12.08-.3.16-.53.22-1.03.27-1.68.26-1.95-.03l-.21.03c-.89.09-2.84.19-4.29.19h-.39c-.41.19-1.09.31-1.96.31-.26 0-.46-.01-.62-.05-.28.03-.59.05-.93.05s-.58-.02-.74-.09h-.15c-.12.08-.28.15-.5.21-.77.2-1.33.25-1.67.14-.24.03-.51.05-.79.05-.26 0-.46-.03-.59-.09-.25.02-.49.05-.74.08Z" style="fill-rule:evenodd;fill:url(#linear-gradient-3)"/>
  <path d="M269.47 339.73c.15 4.78.23 15.55.08 16.25-.03.14-.06.25-.09.34-.01 5.78-.04 10.01-.08 11.79.11.11.14.31.1.62.02.11.03.25.03.41 0 .7-.1 1.29-.26 1.69-.04.58-.09 1.02-.17 1.33.08.1.12.24.12.43 0 .62-.06.65-.99.4a.92.92 0 0 1-.42-.22c-.35-.08-.79-.22-1.33-.43-.44-.17-.78-.33-1.02-.48-.02.07-.04.11-.06.11-.06 0-1.05-.49-2.16-1.08-1.6-.85-2.56-1.4-3.01-1.75 0 .02-.01.02-.02.02-.06 0-.77-.46-1.6-1.05-.39-.28-.8-.57-1.15-.84 0 .04-.01.07-.02.07-.06 0-1.11-.77-2.31-1.73-1.23-.93-2.25-1.76-2.25-1.82 0-.01 0-.02.02-.03l-.48-.4h.1c-1.06-.98-2.01-1.99-2.87-3.03v.07l-.84-1.08-.86-1.08.15-.02c-.32-.48-.62-.97-.9-1.48-.14-.11-.3-.35-.48-.73-.25-.49-.49-.96-.56-1.08-.02-.05 0-.09.05-.13-.09-.19-.17-.39-.26-.58-.15-.23-.32-.56-.5-.98-.34-.83-.71-1.85-.8-2.31-.07-.36-.09-.57-.03-.7-.22-1.07-.37-2.18-.37-2.85 0-.32.08-.52.24-.63v-.78c-.19-.12-.25-.39-.25-.91 0-.9.11-1.59.31-2 .03-1.06.08-2.22.13-3.37-.09-.11-.13-.28-.13-.49 0-.58.09-1.09.23-1.47.04-.65.07-1.28.11-1.87.06-1.01.11-2.18.16-3.51-.14-.13-.19-.38-.19-.8l-.06-.62-.87-3.08s.03 0 .04-.01l-.02-2.76h-.02c-.19 0-.31-1.14-.31-2.78s.12-2.7.29-2.77v-1.86c-.16-.06-.29-.53-.29-1.07s.12-.98.26-1.06l-.03-4.06c-.32-.29-.31-2.42-.02-3.19v-.58c-.27-.37-.27-1.48-.02-1.95v-1.65c-.21-2.6-.27-8.6-.16-12.11-.04-1.61-.09-2.93-.16-4.05-.13-.1-.19-.28-.19-.56 0-.27-.04-.83-.1-1.44-.06-.29-.11-.63-.18-1.03-.09-.57-.17-1.07-.24-1.52-.09-.15-.16-.36-.22-.61-.08-.44-.16-1.06-.18-1.49l-.03-.08c-.19-.09-.26-.31-.28-.75-.01-.04-.03-.08-.04-.13-.13-.06-.25-.46-.27-.94-.05-.15-.1-.29-.14-.43-.09-.09-.14-.24-.16-.45-.05-.13-.1-.26-.15-.4-.06-.07-.11-.21-.14-.37l-.08-.2c-.09-.06-.17-.26-.21-.53-.08-.19-.16-.39-.24-.58-.09-.15-.19-.37-.28-.63-.09-.19-.17-.38-.26-.57-.31-.28-.62-.9-.74-1.48-.06-.1-.11-.21-.17-.31a.95.95 0 0 1-.1-.17l-.03-.06c-.25-.06-.34-.22-.37-.62-.14-.06-.23-.23-.28-.51l-.09-.15c-.18-.12-.35-.39-.44-.7s-.13-.21-.13-.21c-.13-.06-.21-.18-.26-.39l-.12-.18c-.1-.03-.18-.16-.22-.32l-.06-.09c-.17-.08-.26-.2-.26-.36-.05-.08-.11-.16-.16-.23a.444.444 0 0 1-.08-.11l-.09-.13c-.05-.02-.1-.09-.14-.19l-.12-.16c-.18-.06-.27-.18-.3-.39l-.3-.39c-.07-.07-.13-.14-.18-.22-.07-.09-.15-.18-.22-.27a.36.36 0 0 1-.17-.21l-.04-.04c-.14-.05-.23-.15-.28-.33-.39-.45-.79-.9-1.21-1.35-.17-.11-.35-.31-.52-.55-.14-.15-.29-.3-.43-.45-.23-.12-.44-.28-.62-.46-.12-.13-.24-.3-.34-.48-.6-.57-1.22-1.12-1.85-1.65-.13-.04-.21-.1-.26-.21l-.16-.13s-.07-.05-.09-.08c-.35-.28-.7-.55-1.05-.82a.347.347 0 0 1-.2-.15c-.21-.16-.43-.31-.64-.46-.24-.05-.39-.14-.39-.24v-.04c-.13-.09-.26-.18-.4-.27h-.06c-.17 0-.3-.1-.38-.29-.19-.12-.37-.24-.56-.36-.2-.04-.31-.1-.37-.23l-.75-.45c-.65-.18-1.42-.59-1.47-.81l-.09-.04c-.24-.03-.38-.09-.45-.23-.09-.05-.18-.09-.28-.14-.03 0-.05-.01-.08-.02-.41-.08-.9-.3-1.2-.53-.39-.02-.56-.1-.63-.3l-.19-.08c-.35-.03-.68-.08-.85-.13a.724.724 0 0 1-.43-.34c-.1-.04-.21-.07-.31-.11-.38-.02-.78-.07-1.12-.17a.703.703 0 0 1-.42-.33c-.18-.06-.36-.11-.53-.16-.65-.07-1.5-.23-2.59-.46-.12-.03-.23-.05-.34-.07-.21-.02-.35-.05-.46-.11-.27-.07-.49-.13-.68-.19-.47 0-.75-.04-.91-.15-.37-.05-.7-.11-.99-.17-.08 0-.17.01-.27.01h-.62c-.43 0-.71-.03-.87-.13-.6-.02-1.23-.03-1.91-.03-.54 0-1.08.01-1.62.04-.16.09-.43.12-.85.12h-.85c-.57.05-1.13.12-1.69.19-.1.06-.25.09-.45.1-.43.12-1.04.25-1.89.41-.93.17-1.64.3-2.18.38l-.56.15c-.08.18-.28.26-.66.29-.26.13-.65.22-1.15.27-.13.04-.26.09-.39.13-.11.15-.3.21-.62.22l-.33.12c-.08.09-.21.14-.43.16l-.07.03c0 .14-.3.24-.7.28-.31.13-.61.26-.91.4-.08.11-.24.18-.47.21l-.15.07c-.08.15-.23.22-.52.25l-.09.04c-.07.17-.22.24-.53.27l-.07.04c-.08.18-.25.34-.45.41-.17.07-.38.12-.6.15l-.22.12c-.06.06-.16.12-.27.16-.22.12-.43.25-.64.38-.08.2-.22.3-.39.3-.05 0-.09 0-.14.02l-.11.07s-.11.09-.18.13c-.02.03-.03.06-.03.09 0 .13-.23.22-.56.27l-.13.09c-.06.1-.15.17-.3.2-.23.16-.47.32-.7.49-.07.07-.14.12-.21.15-.06.19-.18.28-.43.31l-.16.12c-.04.06-.1.11-.2.15-.1.08-.21.16-.31.24-.08.15-.19.23-.37.29-.29.23-.58.47-.87.71-.1.13-.22.23-.34.29l-.12.11c-.05.11-.13.18-.25.22l-.02.02c-.04.16-.13.25-.32.3-.05.19-.15.28-.37.33-.84.78-1.64 1.6-2.41 2.45a.39.39 0 0 1-.28.31l-.06.07c-.04.12-.11.19-.2.23l-.16.19s-.03.04-.05.06c-.39.45-.76.91-1.13 1.39-.03.08-.08.14-.14.18-.27.35-.54.71-.8 1.08a.56.56 0 0 1-.1.15c-.06.09-.12.18-.19.26-.01.03-.03.05-.05.07-.09.13-.18.27-.28.4-.05.18-.12.29-.2.31-.11.16-.22.33-.32.5-.01.15-.1.29-.23.37-.25.4-.5.81-.74 1.22-.09.48-.28.82-.53.95l-.07.13c-.03.25-.08.49-.15.66-.05.15-.2.28-.39.37l-.06.13c-.06.58-.23.93-.53 1.1l-.11.24c-.05.26-.12.45-.22.5l-.06.15c-.03.21-.1.38-.18.44-.04.09-.07.19-.11.28 0 .3-.07.47-.21.57-.04.12-.09.24-.13.37-.03.3-.08.61-.15.91-.05.19-.16.34-.3.46-.48 1.56-.9 3.25-1.22 4.93-.06.66-.15 1.22-.23 1.49.06.18.09.43.09.74 0 .66-.07.94-.33 1.04-.03.76-.06 1.75-.08 2.92.07.59.1 1.61.1 3.29 0 1.91-.02 2.97-.12 3.51 0 1.21 0 2.57-.01 4.01.1.48.14 1.42.14 3.12 0 1.87-.04 2.82-.17 3.25 0 .79-.01 1.57-.02 2.35.15 1.52.18 5.54.18 15.04 0 8.73.09 16.07.19 16.35l.09 4.69c.03.08.04.19.04.31 0 .05-.01.09-.03.13l.02 1.15c-5.58 3.75-11.71 7.92-16.78 12.03-.61.51-1.24 1.03-1.88 1.56-.92.79-1.79 1.57-2.61 2.34-.4.38-.77.72-1.11 1.02.02.18-.33.5-1.05 1.01l-.93.65v-.05c-.55.37-.93.5-1.14.42-.27-.11-.37-6.27-.4-28.3v-11.24c0-18.84.07-35.19.15-39.68-.11-.15-.15-.4-.15-.82 0-.32.01-.61.04-.87a.464.464 0 0 1-.04-.21c0-.13 0-.26.02-.38-.01-.03-.02-.05-.02-.08v-.31c0-.25.03-.5.08-.72.02-.14.04-.31.07-.51.12-.84.21-1.45.3-1.89.05-.32.1-.69.17-1.09 0-.1.02-.2.03-.3-.02-.04-.04-.08-.04-.12v-.15s0-.06.01-.11c.01-.17.04-.34.08-.5.09-.5.22-1.24.37-2.04.25-1.33.46-2.5.46-2.56 0-.03.04-.05.1-.07.06-.23.14-.44.24-.6.05-.26.15-.68.28-1.17.02-.58.19-1.12.42-1.42.04-.1.07-.2.11-.29.1-.33.21-.67.33-1.01.03-.08.06-.16.08-.24a.585.585 0 0 1-.02-.13c0-.4.21-.93.45-1.29 0-.14.1-.38.26-.75.09-.22.18-.4.26-.56h-.05l.31-.77v-.03c0-.42.23-.98.49-1.34.41-1.02.76-1.79 1.05-2.31l.03-.09c.27-.72.76-1.7 1.21-2.47.09-.37.78-1.59 1.31-2.41.17-.39.56-1.01.87-1.38.12-.39.66-1.24 1.01-1.64.16-.24.35-.53.56-.82h-.08l.65-.93c.28-.39.5-.67.67-.85l.59-.82c.52-.77 1.36-1.85 1.85-2.41l.86-1.02v.04c.28-.33.59-.69.89-1.03l.06-.09c.47-.66.77-1.01.96-1.05l.58-.65v.03c.41-.43.88-.89 1.33-1.29l.04-.04s0-.06.02-.09c.04-.07.16-.2.33-.34.06-.07.17-.18.31-.31.14-.18.6-.57 1.05-.89l.48-.34h-.02l.08-.07c.11-.12.29-.29.52-.46 0-.02 0-.03.02-.05.04-.07.17-.2.34-.35.31-.4 1.96-1.65 3.87-3.01.14-.1.28-.21.42-.31l1.39-.99v.03c.64-.44 1.26-.86 1.85-1.25.07-.06.16-.12.25-.17.05-.03.1-.06.16-.1 1.41-.92 2.51-1.57 2.74-1.57h.01c.44-.29.97-.57 1.24-.61.4-.21.74-.38.97-.49.39-.22.84-.45 1.27-.63.47-.32 1.26-.71 2.15-1.05l.1-.04c.23-.12.49-.23.76-.33l1.45-.56v.07c.47-.19 1.12-.41 1.98-.7.47-.21 1.14-.46 1.97-.72 1.55-.46 2.4-.71 2.88-.76.34-.21.88-.35 1.44-.35h.02c.6-.21 1.83-.46 4.3-.93.79-.15 1.3-.24 1.63-.27.17-.03.35-.04.53-.04h.31c.05 0 .11.02.15.06.4-.05.61-.03.72.06.13-.01.27-.03.41-.04.12-.08.26-.16.42-.21.6-.16 1.03-.22 1.31-.16.12-.01.25-.02.38-.02h.31c.07 0 .13.04.19.1.49-.04.89-.04 1.02.04.34-.02.67-.03 1.01-.04h.35c.17-.11.38-.19.61-.25.94-.2 2.12-.08 2.7.22.66.01 1.3.04 1.95.07.12 0 .24 0 .38.02.1-.11.28-.15.57-.12.09-.01.21-.01.34 0 .29-.07.73-.01 1.37.16.21.06.37.13.48.2h.08c.13-.07.34-.08.64-.04H214.89c.22-.08.6-.03 1.2.13.1.03.19.06.27.1.59.11 1 .2 1.29.28l.62.11c.22-.08.6-.03 1.21.13.2.06.35.13.47.2.13.02.28.04.46.08.21.04.51.11.88.19.18.03.4.08.66.15.1.03.18.06.26.09.4.11.83.22 1.28.35.25 0 .59.08.98.28 1.19.35 2.37.71 3.21 1.01.2.07.38.14.53.21.12.03.26.08.42.13.25.08.49.18.68.3.07.02.15.05.23.08.13-.05.37.04.85.24.25.1.46.21.62.3 1.03.42 2.11.99 2.65 1.39.07.04.15.08.21.12.16-.06.47.09 1.07.41.15.08.28.16.4.23.14.05.34.15.6.3.14.06.35.17.61.31.15.05.36.15.65.32.19.06.46.22.86.45.25.15.45.29.59.4l1.08.68c1.39.68 8.69 6.28 9.68 7.46.1.12.17.21.2.28l.91.8h-.03c.17.17.33.32.46.46l.13.14s.04.03.06.05c.14.11.34.32.54.56.02.02.05.04.07.06.28.22.77.8 1.11 1.3l.53.74c.1 0 .24.11.42.32.1.1.21.23.35.39.27.2.71.76 1.41 1.72l.86 1.21c.93 1.26 1.89 2.61 2.57 3.62.04.06.08.11.11.16.32.47.56.86.69 1.11.83 1.25 2.28 3.74 2.28 4.04.69 1.28 1.3 2.48 1.51 3.05l.03.08c.28.5.62 1.24 1.02 2.23.07.09.14.2.21.34.23.44.33.81.29 1.08l.27.68s.03.06.05.09c.23.45.33.82.29 1.09.1.21.21.46.32.75.16.32.26.6.29.83.09.26.18.55.27.85.48 1.57.77 2.51.88 3.08.08.33.11.57.09.75l.03.11c.05.12.09.25.14.41.11.12.21.31.29.59.16.6.21.97.13 1.18.11.55.23 1.19.36 1.93l.07.41c.02.05.04.11.05.17.15.57.21.94.14 1.15v.15c.05.33.04.57-.02.74l.03.33c.06.1.11.24.15.39.14.51.19.85.16 1.07.01.12.01.22 0 .31.04.28.03.5-.02.66.06.11.12.26.17.43.14.51.19.85.16 1.07.02.17.01.3-.02.4.03.29.05.63.05 1 0 .28-.01.49-.04.65.05.33.02.53-.08.65 0 .71-.04 1.18-.17 1.48.13 6.57.15 16.83.2 34.14.01 3.52.03 6.98.03 10.32.02.27.02.57 0 .83v3.48Zm-126.4 28.95c0 .56.06.59.31.22.4-.59.4-.93 0-.93-.15 0-.31.31-.31.71Z" style="fill:url(#linear-gradient-4);fill-rule:evenodd"/>
</svg>
