<?xml version="1.0" encoding="UTF-8"?>
<svg id="Layer_1" xmlns="http://www.w3.org/2000/svg" version="1.1" xmlns:xlink="http://www.w3.org/1999/xlink" viewBox="0 0 210.92 201.37">
  <!-- Generator: Adobe Illustrator 29.4.0, SVG Export Plug-In . SVG Version: 2.1.0 Build 152)  -->
  <defs>
    <style>
      .st0 {
        fill: url(#linear-gradient1);
      }

      .st0, .st1, .st2, .st3, .st4 {
        fill-rule: evenodd;
      }

      .st1 {
        fill: #f78e1e;
      }

      .st2 {
        fill: url(#linear-gradient3);
      }

      .st3 {
        fill: url(#linear-gradient);
      }

      .st4 {
        fill: url(#linear-gradient2);
      }
    </style>
    <linearGradient id="linear-gradient" x1="105.46" y1="204.9" x2="105.46" y2="377.85" gradientTransform="translate(0 394) scale(1 -1)" gradientUnits="userSpaceOnUse">
      <stop offset=".02" stop-color="#f36e21"/>
      <stop offset="1" stop-color="#f79324"/>
    </linearGradient>
    <linearGradient id="linear-gradient1" x1="98.59" y1="192.97" x2="139.96" y2="238.91" gradientTransform="translate(0 394) scale(1 -1)" gradientUnits="userSpaceOnUse">
      <stop offset=".02" stop-color="#f6891f"/>
      <stop offset=".11" stop-color="#f6851f"/>
      <stop offset=".51" stop-color="#f37321"/>
      <stop offset="1" stop-color="#f15f22"/>
    </linearGradient>
    <linearGradient id="linear-gradient2" x1="89.26" y1="221.38" x2="121.57" y2="261.29" gradientTransform="translate(0 394) scale(1 -1)" gradientUnits="userSpaceOnUse">
      <stop offset=".02" stop-color="#da4d27"/>
      <stop offset=".37" stop-color="#be3b26"/>
      <stop offset=".71" stop-color="#91321e"/>
      <stop offset="1" stop-color="#6b2d1e"/>
    </linearGradient>
    <linearGradient id="linear-gradient3" x1="75.51" y1="243.84" x2="135.99" y2="243.84" gradientTransform="translate(0 394) scale(1 -1)" gradientUnits="userSpaceOnUse">
      <stop offset=".02" stop-color="#e25726"/>
      <stop offset="1" stop-color="#e25a26"/>
    </linearGradient>
  </defs>
  <path class="st1" d="M29.49,164.83h-.07s.09,0,.09,0c.08-.05.18-.09.28-.12.44-.1.98-.02,1.21.13.06,0,.12,0,.18,0,.07-.07.19-.08.41-.04.08,0,.19.02.31.04.55.09,1.09.21,1.63.38.11.01.23.05.37.12.94.33,1.86.79,2.8,1.4.06.03.14.08.22.15l.15.11v-.08s.5.45.5.45c.13.1.26.21.39.32v-.04l.31.31c.67.57,1.28,1.18,1.55,1.55l.23.34.09.1.27.3h1.85c.07,0,.16-.01.27-.01s.2,0,.27.01h1.09c1.45,0,2.82-.04,3.53-.09h.01c.08-.02.16-.04.25-.06.08-.04.17-.07.28-.09.25-.06.6-.21.76-.31.17-.12.29-.19.37-.19.27-.2.73-.6,1.08-.96l.08-.09c.53-.73.72-1.14.89-1.89.02-.09.04-.16.07-.23.06-.4.11-.76.13-1.13-.03-.08-.04-.2-.04-.36,0-.13,0-.22.02-.3,0-.13,0-.28,0-.44,0-.82,0-1.2.04-1.39,0-.13,0-.27-.01-.41-.06-1.82-.08-2.34.03-2.49v-1.4c-.06-.84-.05-2.43-.06-5.48-.01-2.75,0-5.09.07-7.1-.05-.04-.08-.11-.08-.18,0-.1,0-.19.02-.28-.01-.09-.02-.22-.02-.38,0-.53.05-.9.15-1.11.02-.4.04-.78.06-1.14-.04-.03-.06-.07-.06-.11,0-.06,0-.12,0-.18,0-.04,0-.08,0-.11,0-.32.06-.61.14-.79.02-.25.04-.5.06-.73-.03-.02-.05-.06-.06-.1,0-.07,0-.14.01-.21,0-.1.01-.25.04-.45.1-.67.16-1.06.23-1.27.01-.1.02-.2.04-.3-.02-.01-.04-.03-.04-.05,0-.02,0-.1.03-.21,0-.09,0-.23.05-.46.16-.99.64-3.37.88-4.53.08-.32.15-.58.22-.75,0-.07.07-.39.18-.77.14-.67.83-2.96,1.18-3.93.08-.22.15-.4.22-.55.06-.22.14-.45.22-.65h-.04l.35-.94c.28-.74.46-1.16.6-1.38.08-.2.16-.39.23-.55,0,0,0-.01,0-.02,0-.02.02-.09.06-.18.28-.7,1.51-3.11,1.98-3.9.06-.11.12-.22.18-.33h0c0-.14.27-.59.46-.82.04-.08.09-.16.14-.24,0,0,0-.02,0-.03,0-.16,2.06-3.37,2.99-4.66.19-.26.48-.64.82-1.07.05-.07.1-.12.14-.17.31-.38.65-.81,1-1.23.07-.09.14-.17.21-.26h.01c.44-.54.88-1.07,1.28-1.52.55-.64,1-1.15,1.2-1.33l.46-.44v.08c.14-.15.29-.29.44-.44.11-.11.22-.22.33-.33h-.11l.88-.83.18-.17.28-.25c1.45-1.29,3.47-2.91,5.01-4,1.49-1.05,4.92-3.15,5.13-3.15,0,0,0,0,.01,0l.77-.42c.14-.11.38-.25.67-.4l.07-.04c.72-.36,1.06-.53,1.21-.54.2-.1.4-.19.59-.28.22-.16.62-.37,1.09-.55.13-.05.22-.08.28-.07.45-.2.9-.38,1.36-.56.7-.32,2.07-.83,3.43-1.29,1.31-.43,2.61-.82,3.31-.96.09-.01.16-.03.22-.04.28-.07.55-.14.84-.21.47-.17,1.47-.38,3.3-.7,1.33-.24,1.87-.33,2.08-.27h.05c.5-.08.86-.12,1.11-.13.11-.01.23-.02.34-.03.15-.11.42-.16.82-.16.1,0,.17,0,.22.04.2-.03.38-.04.47,0,.19-.01.38-.02.57-.04.23-.1.68-.13,1.48-.14h1.72v.03c.76-.05,2.07-.05,2.77.01.12-.07.36-.06.74.04.05.01.09.03.13.04.2,0,.4.02.6.04.1-.02.27-.02.59,0,.11-.04.35-.02.82.03,5.2.57,10.63,1.84,14.84,3.51,5.58,2.19,10.76,5.24,14.97,8.78.43.36.85.73,1.26,1.1.22.2.43.4.64.59l1.18,1.12h-.04c.22.21.46.45.7.71h0s.53.5.53.5c.26.23.93.97,1.58,1.72l.04.04c.06.05.13.14.22.26l.02.03c.75.86,1.41,1.62,1.51,1.73.91,1.05,2.36,2.38,2.99,2.73.13.08.26.16.37.23.17.08.35.16.54.23s.81.22.81.22c.19.05.35.11.47.17.31.07.64.12.98.17.04,0,.08,0,.13,0,.12,0,.23,0,.33.01.17-.04.43-.02.77.07.02,0,.04.01.06.02.18,0,.36.01.55.01.97.01.79,0,2.04-.02.44,0,.85-.02,1.23-.04.15-.04.33-.06.54-.06.04,0,.08,0,.11,0,.06,0,.12,0,.18,0,0,0,.02,0,.03,0,.34-.02.67-.06.99-.09.06-.01.12-.03.18-.05.58-.12.88-.18,1.03-.13.29-.05.57-.11.86-.17.12-.05.28-.1.47-.14.37-.08.61-.12.76-.14.15-.04.31-.08.47-.12.19-.07.41-.13.68-.21l.32-.09c.17-.07.36-.14.57-.21l1.18-.4c.12-.05.21-.08.28-.1.25-.1.5-.21.75-.32.78-.45,2.09-1.14,2.39-1.22h.01c.31-.18.97-.61,1.57-1.01.17-.13.36-.27.57-.42.08-.06.17-.12.25-.18.51-.38,1.13-.87,1.47-1.18l.74-.66v.03c.55-.52,1.08-1.06,1.59-1.62v-.02c1.05-1.27,2.26-2.93,2.72-3.76.12-.22.25-.42.35-.57.12-.24.25-.48.37-.74,0-.03.02-.06.03-.09.22-.55.45-1.07.64-1.44.13-.33.26-.67.38-1l.31-.99v-.04c.07-.18.12-.34.18-.49.04-.15.08-.32.13-.52.05-.21.11-.42.15-.63,0,0,0-.02,0-.03,0-.23.09-.6.2-.9v-.07c.02-.07.03-.13.05-.19.03-.19.06-.37.09-.56-.02-.09-.01-.24.02-.51v-.13c.07-.47.11-.8.16-1.04,0-.09.01-.19.02-.28.02-.47.03-.95.03-1.45,0-.45,0-.92-.02-1.37,0-.24-.02-.48-.03-.71,0-.06,0-.11-.01-.17-.04-.27-.09-.64-.12-.95-.04-.32-.06-.5-.04-.62-.06-.42-.12-.84-.2-1.25-.28-1.38-.76-3.08-1.06-3.78-.15-.36-.26-.62-.33-.81-.26-.57-.54-1.12-.84-1.67h0c-.07-.14-.13-.24-.17-.32-.19-.32-.38-.65-.58-.98-.08-.11-.18-.25-.27-.4-.32-.5-1.19-1.69-2.29-3.13-.14-.17-.29-.33-.43-.5-.46-.51-.95-1-1.45-1.48-.11-.11-.23-.22-.35-.33-.25-.23-.51-.45-.76-.68-.97-.8-2.76-2.05-3.89-2.71-.28-.15-.53-.31-.73-.44-.25-.13-.51-.26-.76-.39h-.01l-.07-.04s0,.01,0,.01c-.03-.01-.23-.11-.49-.21-.17-.07-.47-.21-.77-.34l-.33-.15c-1.96-.9-5.93-1.86-8.33-2.04-.55-.03-1.13-.09-1.48-.13h-.02c-.75-.03-1.51-.04-2.26,0-.33.05-.84.09-1.62.14-3.11.23-6.66,1.25-9.87,2.84-.62.31-1.19.59-1.58.78-.55.33-1.09.67-1.62,1.04l-1,.78c-.74.56-1.87,1.58-2.55,2.27l-.92.93c-.38.43-.74.86-1.09,1.31-.47.67-1.18,1.74-1.69,2.53-.17.27-.32.51-.43.69-.06.11-.12.22-.18.32s0,.03-.02.04l-.2.39c-.25.51-.5,1.03-.73,1.56l-.1.23c-.59,1.46-1.18,3.27-1.47,4.6-.09.37-.18.72-.25.97,0,.04-.02.08-.03.11-.01.04-.02.09-.04.12-.04.11-.07.19-.09.2,0,0-.05.01-.11,0-.01,0-.02,0-.03,0-.15-.03-.4-.1-.68-.2-.07-.02-.14-.05-.22-.08-.94-.35-1.24-.44-4.2-1.36-1.43-.44-3.74-1.06-4.5-1.22-.21-.04-1.06-.21-1.92-.38-1.52-.31-2.38-.46-4.57-.75-.55-.08-.95-.13-1.23-.19-.49-.05-.97-.1-1.46-.14-.1.02-.24,0-.43-.03-2.59-.21-5.15-.26-7.58-.16-.18.05-.41.08-.67.08-.11,0-.2,0-.26-.03-.33.02-.66.04-.99.07-.02,0-.05.01-.07.02-.34.09-.53.11-.63.04-.32.03-.63.06-.93.09-.02,0-.04.01-.06.02-.34.09-.57.11-.7.06-.29.03-.57.06-.85.1-.26.04-.76.11-1.25.2-.09.01-.18.03-.27.04-.6.09-1.43.22-1.81.3-.5.1-.78.14-.94.11-.38.07-.75.14-1.12.22-.17.05-.39.11-.65.17-1.85.41-4.36,1.08-5.73,1.55h-.04c-.53.19-.88.31-1.13.37-.31.11-.61.22-.92.33-.04.04-.09.07-.14.09-.11.02-.43.13-.76.27-.09.04-.19.08-.28.11l-.78.31v-.03c-.34.13-.68.27-1.02.41-.24.13-.57.29-.97.46-1.8.79-2.62,1.19-4.15,2.02-.23.12-.48.26-.76.41-.37.21-.73.4-1.02.56-.47.28-.95.56-1.42.85-.29.21-.71.46-1,.63-.19.12-.38.24-.56.36-.49.32-.97.65-1.45.97-.54.42-1.51,1.14-3.31,2.48-.02.02-.05.03-.07.05l-.05.04c-.45.37-.81.67-1.09.89-.4.37-.93.81-1.15.98l-.1.07c-.34.31-.68.63-1.04.96-.01.04-.04.08-.09.13-.14.17-.43.42-.65.58-.41.41-.83.83-1.24,1.25-.19.27-.32.41-.4.42-.11.12-.22.24-.34.36-.18.2-.38.42-.59.64-.22.24-.44.49-.66.74-.31.36-.68.8-.86.99l-.24.29-.03.04c-.08.13-.22.32-.45.6v.02s-.02,0-.02.02c-.06.07-.12.15-.19.23l-.08.1c-.17.22-.4.52-.63.83-.27.34-.52.65-.68.82-.06.09-.14.2-.22.31h.01l-.31.44c-.11.15-.19.26-.26.34-.11.16-.23.32-.34.47l-.87,1.37c-.34.54-.7,1.08-.96,1.46l-.11.19h.03l-.56.93c-.31.5-.78,1.33-1.05,1.84-.1.19-.18.34-.26.46-.19.36-.38.71-.55,1.05-.41.8-.78,1.58-1.14,2.34v.03c-.05.09-.09.16-.12.22-.21.46-.41.91-.6,1.37h.01l-.31.76c-.17.43-.27.68-.35.82,0,.07-.05.18-.12.36-.03.08-.06.14-.1.21-.06.15-.11.3-.16.44.01.13-.03.31-.14.52-.02.03-.04.07-.06.1-.03.1-.07.19-.11.26-.1.27-.19.54-.28.82,0,.1-.04.22-.1.35-.01.07-.05.17-.09.3-.03.09-.06.18-.1.25-.04.11-.07.23-.11.35-.01.07-.04.16-.09.28-.19.62-.37,1.26-.54,1.92v.03c0,.06-.02.13-.03.22-.01.07-.03.15-.06.24-.02.09-.05.15-.09.21-.02.13-.07.32-.15.57-.04.13-.08.23-.13.32,0,.02,0,.05,0,.08,0,.07-.02.15-.06.23-.05.11-.14.23-.23.32l-.03.03-.11.19h-4.2c-.08,0-.15,0-.22-.01h-.94c-.66,0-1.29,0-1.87-.02-.51,0-1,0-1.45,0-.39.02-1.01.01-1.73-.03-.06.04-.16.06-.3.04-.17.04-.43.02-.79-.05-.12-.03-.47-.09-.76-.15-.03,0-.06,0-.09-.01-.25-.03-.5-.07-.75-.11-.2.07-.68-.02-1.74-.28-.35-.08-.63-.16-.82-.23-.26-.07-.52-.13-.78-.21-.22,0-.65-.11-1.42-.38-.38-.12-.69-.26-.89-.37-.11-.01-.25-.06-.43-.12,0,0,0,0,0,0-.03-.01-.27-.11-.52-.22-.14-.06-.24-.11-.32-.17-.11-.06-.21-.11-.28-.17-.07-.03-.14-.06-.21-.1,0,.04-.01.06-.02.06-.03,0-.47-.21-.96-.46-.45-.23-.73-.4-.84-.52-.06-.03-.11-.06-.17-.1-.07.01-.19-.03-.39-.15-.1-.02-.23-.1-.43-.23-.14-.09-.24-.16-.31-.22-.28-.18-.49-.34-.54-.41-.26-.17-.51-.34-.76-.52,0,.05-.01.08-.03.08s-.57-.43-1.21-.94c-.65-.52-1.44-1.18-1.77-1.47l-.59-.53h.12c-.09-.08-.17-.16-.26-.24v.14s-.57-.65-.57-.65c-.14-.1-.43-.43-1.02-1.13-.82-.98-1.55-1.96-2.2-2.96-.12-.16-.2-.28-.23-.36-1.18-1.88-2.08-3.85-2.76-6.02-.02-.07-.05-.15-.07-.22-.19-.61-.35-1.23-.51-1.88-.05-.15-.08-.27-.09-.37l-.1-.45c-.15-.68-.5-2.87-.5-3.13,0-.08.02-.15.07-.19-.08-1.12-.1-2.3-.05-3.48,0-.43.02-.78.04-1.06-.07-.08-.06-.3,0-.86.28-2.67.88-5.35,1.7-7.57.47-1.33,1.49-3.5,1.83-3.96.14-.26.29-.52.43-.78,0-.03,0-.08.02-.13.21-.56,2.09-3.18,3.11-4.36.52-.6.86-.96,1.1-1.14.14-.14.27-.29.42-.43.22-.22.45-.44.67-.66-.02-.03.02-.09.09-.18.91-1.09,5.06-3.9,7.3-4.94.57-.27,1.09-.52,1.17-.56,0,0,0,0,.01,0h0s.09-.48.09-.48c0-.03-.01-.08-.01-.13,0-.53.71-3.57,1.24-5.3,1.47-4.84,4.05-8.98,7.48-12.2.06-.07.2-.21.41-.38,3.48-3.13,7.8-5.33,12.71-6.39,1.2-.26,1.76-.35,3.15-.38.38-.08.84-.12.92-.05.01.01.02.03.03.04h.22c.13-.06.39-.1.72-.1.58,0,1.17.05,1.58.12,2.16.05,3.43.21,4.67.56.37.11.38.07,1.51-2.81,1.59-4.16,3.8-8.12,6.54-11.79,7.3-9.8,18.43-16.54,30.51-18.62.01-.01.03-.02.05-.02.01,0,.06,0,.13-.01.84-.14,1.68-.26,2.52-.35.61-.07,1.38-.13,2.21-.17.12-.01.24-.02.32-.01.47-.02.96-.04,1.45-.05.58-.05,1.26-.06,1.64-.02,1.69,0,3.29.05,4.28.16,6.34.74,10.89,2.08,16.38,4.8,9.14,4.57,16.7,12.22,21.55,21.82,1.73,3.44,2.77,6.28,3.79,10.25.36,1.42.52,2.05.69,2.31.15.09.49.09,1.24.05.18,0,.46-.02.81-.03h.4c.17-.03.32-.05.44-.07.34-.04.56-.04.65,0,.47-.03,1.14-.05,1.87-.05.05,0,.11,0,.16,0,.06,0,.12,0,.18,0,.55,0,1.13.02,1.68.04.14,0,.28,0,.42,0,.18-.03.53-.01.99.03.43.02.78.04,1.01.07,7.64.94,15.2,4.76,21,10.61,1.96,1.96,3.74,4.21,4.88,6.13.81,1.36,2.05,3.67,2.05,3.8h0c.18.36.36.71.53,1.06.11.13.27.41.47.84,0,.02,0,.04-.03.06.08.18.16.35.24.52.26.36.66,1.27,1.15,2.63.31.88.57,1.36.93,1.65,2.26,1.97,3.18,2.95,4.57,4.79.03.04.05.08.04.1.1.14.22.31.34.49l.32.47h-.04c.29.37.87,1.3.91,1.5.16.26.3.54.3.62,0,0,0,.02,0,.03.27.54.53,1.1.76,1.66.07.09.15.23.24.43.1.22.14.34.11.41l.03.08c.03.08.06.16.09.23.01.02.03.04.05.07.12.21.8,2.64.8,2.89,0,.02,0,.05-.02.07.04.16.08.33.11.51.04.06.08.14.11.25.09.32.11.5.05.6.04.26.08.52.11.77.08.29.09.45.04.55,0,.05,0,.08,0,.11l.03.26c.03.05.06.12.08.22.1.34.12.6.07.77.02.13,0,.22-.02.28.03.4.04.88.03,1.43,0,.46-.02.91-.05,1.38.05.05.06.14.05.27,0,.11-.01.27-.05.52-.04.28-.07.51-.11.7,0,.04-.01.08-.02.12-.03.17-.06.31-.1.4-.02.17-.04.32-.07.48.05.07.04.21,0,.5-.19,1.09-.31,1.65-.43,1.91-.06.29-.13.56-.21.84,0,.05-.03.12-.06.2-.06.21-.12.42-.19.63h.03l-.34,1c-.13.38-.33.88-.56,1.4-.02.07-.07.17-.13.3-.38.83-.79,1.64-1.02,1.99-.21.4-.42.77-.63,1.14-.04.11-.1.21-.17.29-.06.21-.32.59-.83,1.32-.52.76-.82,1.16-.97,1.27-.11.14-.23.28-.35.43h.03l-.31.44c-.23.33-.38.5-.47.5l-.4.45v-.07s-.07.07-.1.11c-.01.11-.2.31-.59.69-.42.42-.62.61-.71.59-.05.05-.1.1-.15.15-.1.11-.24.25-.43.42.02.03-.02.09-.09.18-.11.13-.38.37-.62.54l-.35.24-.1.09c-.31.27-.96.76-1.44,1.1l-.88.62v-.05c-.48.36-1.99,1.29-2.4,1.45-.04.02-.08.02-.11.03-.43.25-1.01.55-1.42.72-.08.05-.19.1-.31.15-.21.09-.32.13-.39.12-.37.16-.74.31-1.12.45-.09.06-.2.11-.33.16-.03.02-.06.04-.1.06-.23.12-.42.16-.55.13-.08.03-.16.05-.24.08-.2.11-.51.23-.89.3-.08.01-.15.02-.21.03h-.02c-.58.25-2.03.58-3.81.85-1.06.15-1.59.22-1.85.2-.14.02-.24.02-.31-.01-.68.05-1.18.05-1.36-.02-1.83.05-4.27.06-7.78.06h-1.45c-3.73,0-5.82.02-6.84.07-.2.01-.35.02-.45.04-.18.11-.27.32-.27.62,0,.07,0,.15.01.26.01.06.03.11.04.18.11.54.17.84.14,1l.05.28s.02.06.03.09c.05.18.08.31.08.41.02.05.05.11.07.18.09.32.11.51.04.61.04.23.08.46.11.7.03.12.06.28.1.48.01.04.03.08.05.13.08.28.1.46.06.56,0,.09,0,.15-.01.19.02.12.03.23.05.35.07.22.13.6.22,1.25.04.31.06.48.03.58,0,.12,0,.19-.05.22.01.15.02.31.04.46.11.18.19.52.19.95,0,.19-.03.3-.11.35.02.33.04.68.05,1.04.13.18.2.59.2,1.19,0,.22,0,.37-.04.46.02.26.04.59.04,1.01,0,.65-.01.9-.11,1v.29c.1.15.11.6.11,1.84,0,1.16,0,1.62-.09,1.8v1.36c.08.09.09.3.09.75s-.01.67-.1.76c0,.31,0,.62,0,.94v.46c.1.39.11,1.69.11,6.02,0,2.48,0,3.97-.02,4.86.03.79.08,1.33.14,1.73,0,.03.02.06.03.1.12.34.4.9.62,1.25l.2.28c.07.09.15.17.23.26l.42.44.28.19c.22.16.75.41,1.18.56.18.07.35.14.49.22.1,0,.22.03.38.08.49.05,1.21.07,2.43.08.11,0,.27-.01.48-.01s.38,0,.5.01h2.92s.04-.01.06-.01c.08,0,.48-.35.98-.83.03-.04.07-.08.11-.12l.66-.74v.1c.68-.7.94-.95,1.05-.94.21-.17.42-.33.62-.48l.05-.04c.13-.11.35-.27.62-.43.32-.25,1.14-.71,1.68-.91.16-.07.26-.1.32-.09.08-.05.18-.11.3-.16.21-.09.54-.19.92-.3.14-.11.4-.2.68-.21.16-.09.4-.15.65-.15.02,0,.03,0,.05.01h.05c.55-.24,2.06-.34,3.26-.16h.06c.06,0,.12.02.21.04.92.14,1.51.28,1.79.43.35.1,1.1.44,1.64.73.09,0,.23.08.5.23.12.07.22.13.28.19h0s.41.28.41.28c.22.16.64.49.91.74l.52.44h-.05c.08.08.16.16.24.26.06,0,.15.08.28.23.14.13.37.43.72.92.7.97,1.25,2.06,1.65,3.26.04.06.08.14.11.24.04.13.06.24.07.33.17.58.3,1.19.4,1.81.03.19.05.32.04.42.01.1,0,.18-.01.23,0,.13-.01.21-.07.24,0,.2,0,.41,0,.62,0,.16,0,.32,0,.47.06.04.08.13.06.34.04.09.02.26-.02.61-.12.88-.52,2.53-.71,2.89-.01.02-.02.05-.04.07-.16.46-.31.79-.42.88-.11.23-.22.46-.35.69l-.08.17c.02.08-.06.23-.22.53-.11.18-.2.3-.27.36-.04.05-.09.11-.15.17l-.08.09c-.26.35-.52.66-.7.81-.24.27-.49.53-.76.77l-.03.03s.01,0,.01.01c0,.12-1.51,1.27-1.65,1.27h-.01c-.5.33-1.22.74-1.34.74,0,0-.01,0-.02-.01-.28.15-.68.32-1.08.45-.19.1-.34.14-.46.14-.12.03-.23.06-.33.08s-.18.04-.25.05c-.05.03-.11.07-.18.09-.14.03-.55.07-1.02.08h-.02s-.09.05-.14.07c-.18.04-.56.06-.96.07-.07.01-.13.02-.19,0,0,0-.02,0-.04,0-.36,0-.71-.03-.87-.08-.06-.01-.12-.04-.17-.09l-.33-.03c-.06.04-.14.06-.27.05-.17.01-.47-.05-.97-.2-.22-.07-.43-.12-.61-.18-.23-.07-.43-.14-.59-.2,0,0,0,.01,0,.01l-.57-.23c-.12,0-.39-.13-.97-.43-.43-.22-.82-.44-.98-.58-.15-.09-.29-.18-.41-.26,0,.02,0,.03,0,.03-.03,0-.4-.27-.81-.6-.43-.32-.78-.62-.78-.65,0,0,0-.02.03-.03-.3-.26-.58-.54-.83-.81v.11s-.41-.52-.41-.52l-.27-.33-.14-.15c-.21-.12-1.2-.14-3.58-.11-3.1.04-4.01,0-4.19-.25h-.07c-.05.08-.16.11-.36.1-.07,0-.15,0-.22-.02-.04,0-.1.01-.16,0-.15.02-.39-.02-.77-.12-.23-.06-.69-.16-.99-.21-.06,0-.12-.02-.17-.04-.1-.02-.18-.06-.24-.09-.19-.03-.46-.1-.84-.21-.1-.03-.18-.06-.26-.09-.03,0-.06-.02-.1-.03-.61-.22-1.06-.41-1.33-.56,0,.03,0,.05-.01.05-.03,0-.26-.12-.52-.23-.24-.11-.39-.22-.44-.3-.05-.03-.11-.06-.16-.09-.09,0-.24-.07-.5-.23-.13-.08-.23-.15-.3-.21-.07-.01-.16-.06-.29-.14,0,.02,0,.03-.02.03-.01,0-.25-.18-.51-.42l-.05-.04s0,.01,0,.01c-.03,0-.43-.3-.88-.66-.47-.37-.86-.69-.86-.74,0,0,0,0,0-.01l-.23-.19h.03l-.18-.15h.09l-.22-.22v.13s-.15-.19-.15-.19v.04l-.23-.3c-.11-.11-.3-.32-.49-.57-.62-.74-1.86-2.59-1.86-2.77h0s-.03-.07-.05-.11c-.2-.37-.32-.58-.36-.71-.06-.13-.12-.25-.18-.37-.02-.02-.05-.05-.07-.09-.03-.06-.21-.46-.37-.88l-.31-.76h.07c-.05-.08-.1-.19-.15-.35-.05-.05-.1-.14-.13-.26-.06-.22-.09-.38-.08-.49v-.03s0-.02,0-.02c-.05-.1-.09-.21-.12-.35-.04-.16-.07-.32-.11-.48l-.13-.45v-.4c-.08-.43-.09-.6-.01-.66,0-.11-.02-.22-.02-.32-.04-.06-.08-.12-.11-.2-.04-.19-.09-5.76-.09-12.38,0-7.43,0-10.28.07-11.37v-.18c-.1-.42-.11-.74-.03-.92v-.09c-.02-.47-.06-.94-.1-1.41v-.03s-.03-.09-.04-.12c-.04-.18-.06-.31-.05-.4,0-.08,0-.15,0-.2,0-.11-.02-.22-.04-.33-.01-.04-.03-.08-.04-.13-.08-.31-.11-.52-.08-.65,0-.08,0-.13,0-.18-.04-.32-.09-.63-.13-.93,0-.02,0-.05-.01-.07l-.03-.18-.03-.17v-.02c-.05-.18-.08-.31-.09-.42-.27-1.34-.43-2.02-.83-3.42-.28-.96-.66-2.16-.87-2.7l-.35-.96h.02l-.02-.04c-.1-.25-.2-.5-.31-.75-.03-.06-.06-.13-.09-.2-1.7-3.88-3.86-7.38-6.43-10.42-.68-.8-1.39-1.63-1.58-1.87l-.1-.11c-.28-.3-.57-.59-.86-.88-.21-.2-.44-.42-.68-.65-.21-.21-.43-.41-.64-.61-.16-.13-.38-.32-.68-.58l-.22-.2c-.74-.64-1.94-1.59-2.7-2.15l-.04-.03-.17-.12c-.34-.24-.65-.47-.88-.65-.27-.19-.54-.36-.82-.54-.2-.1-.56-.32-.96-.57-.22-.13-.43-.27-.59-.38-.2-.12-.4-.23-.6-.35-.07-.02-.17-.07-.3-.15-.11-.03-.29-.12-.56-.28-.07-.04-.14-.08-.2-.12-.07-.04-.12-.08-.17-.12-.51-.27-1.03-.52-1.55-.77-.08-.02-.49-.21-.98-.41-.14-.06-.28-.13-.42-.2l-.14-.07c-.41-.17-.82-.33-1.23-.49-.16-.03-.42-.12-.84-.28l-.07-.02c-.62-.22-1.56-.52-2.09-.66-.08-.02-.16-.04-.23-.07-.04-.01-.08-.02-.11-.04-.09-.02-.18-.05-.29-.09-.15-.04-.28-.09-.39-.13-.08-.02-.17-.04-.25-.07-.03.01-.07.02-.11.02-.15,0-.31-.03-.34-.07-.07-.06-1.01-.26-2.07-.45-.77-.14-1.6-.27-2.19-.35-.77-.1-1.27-.17-1.6-.22-.42-.04-.85-.07-1.27-.1h-.4c-.15-.02-.33-.03-.54-.03-.09.03-.24.04-.5.03-.33-.01-.7-.04-.86-.08h-1.09c-.21.06-.49.09-.85.09-.13,0-.24,0-.32-.02-.19.03-.32.02-.4-.02-.44.02-.87.05-1.31.09h-.03c-.32.1-.51.11-.61.06l-.19.02h-.02c-.33.04-.67.09-1.02.14-.31.05-.71.12-1.07.17-1.5.25-2.89.54-4.19.89-.83.22-1.64.47-2.45.76-.56.2-.96.33-1.23.42-.08.02-.15.04-.22.06-.31.12-.67.27-1.11.44-.09.05-.19.1-.3.15l-.04.02c-.74.31-1.17.5-1.7.76-.02,0-.04,0-.05,0-.33.18-.73.38-.92.45-.05.03-.11.07-.18.1-.06.03-.12.06-.17.09-.12.06-.22.1-.28.11-.22.11-.43.23-.65.35-.22.14-.52.32-.9.54l-.12.07c-.19.12-.41.27-.65.42-.89.52-2.89,1.93-4.21,2.93-.05.04-.1.08-.15.12-1.05.86-2.07,1.77-3.05,2.74h.01l-.59.59-.18.17c-.4.41-.79.83-1.18,1.26l-.03.03c-.17.23-.29.37-.37.42-.49.57-.97,1.15-1.44,1.75-.14.19-.26.35-.35.47-.16.22-.32.44-.49.66l-.74,1.13c-.27.42-.53.79-.72,1.04-.2.32-.4.65-.6.98,0,.01,0,.03-.02.05-.04.09-.11.21-.2.37-.05.08-.09.15-.13.21-.08.13-.15.26-.22.39-.05.1-.11.2-.16.3-.02.11-.12.29-.29.59-.05.09-.1.17-.14.24h0c-.11.24-.21.43-.29.57s0,.02,0,.03c-.05.11-.1.21-.15.3-.03.06-.06.11-.09.16-.07.14-.14.29-.21.43,0,.1-.1.28-.27.61l-.06.11c-.07.15-.14.31-.21.46-.02.05-.04.11-.08.19-.01.03-.02.06-.04.09s-.02.05-.04.08c-.03.09-.07.17-.11.25-.01.07-.05.17-.12.32-.03.08-.07.15-.1.22-.06.16-.13.32-.19.49h0l-.49,1.44c-.11.29-.22.65-.33,1.01-.19.62-.37,1.27-.49,1.72-.09.36-.17.65-.25.86l-.05.22c0,.14-.05.37-.13.72v.07c0,.12-.03.36-.13.79-.1.39-.18.78-.23,1.18,0,.06-.02.11-.03.16-.05.3-.09.52-.13.68-.03.28-.07.57-.1.87.04.08.05.2.02.37.02.11.01.27-.03.48,0,.05-.02.11-.04.17-.01.05-.03.09-.05.13,0,.11-.01.21-.02.32v.11c.02.13.02.32-.03.55-.1,2.32-.11,5.77-.11,12,0,4.36,0,7.4-.05,9.61h.05v1.37c0,.44-.02.89-.06,1.34.1.11.06.39-.07,1.08-.07.38-.18.96-.23,1.27-.02.11-.05.21-.09.29,0,.1-.04.22-.08.37-.01.06-.03.11-.06.15l-.02.07c0,.13-.05.35-.16.7-.04.16-.1.28-.16.38-.04.17-.12.39-.25.7-.05.12-.11.23-.15.32-.22.57-.48,1.12-.76,1.66,0,.07-.06.19-.16.37-.03.09-.11.22-.22.41-.11.18-.2.3-.26.36-.28.44-.56.87-.84,1.25h.04l-.31.44c-.24.34-.39.5-.48.5-.22.24-.4.43-.55.53-.08.08-.16.16-.23.24,0,.04-.03.1-.08.18-.11.15-.3.34-.44.44-.06.03-.1.06-.14.07-.03.02-.05.05-.08.08-.02.09-.19.23-.5.46l-.26.18c-.07.11-.29.29-.65.57-.32.22-.53.35-.65.39-.29.2-.61.39-.77.46-.05.03-.11.06-.17.1-.2.11-.33.17-.42.19-.11.09-.3.2-.57.32-.75.35-1.08.5-1.24.5-.15.06-.32.11-.47.16-.05.05-.14.1-.27.14-.22.06-.37.09-.48.08l-.23.06c0,.06-.01.1-.02.1-.01,0-.14.02-.34.06l-.36.06h-.03c-.17.03-.36.07-.56.1-.67.12-1.04.19-1.24.2-.11.01-.19.01-.25,0-.16,0-.23,0-.26-.06h-.25c-.23.19-1.05.23-3.49.23-1.58,0-2.31,0-2.64-.06h-.83s-.37,0-.37,0l-.43.44-.14.15-.27.29v-.02h-.01c-.22.25-.49.51-.79.77,0,.03-.02.07-.07.12-.06.07-.15.16-.28.27,0,.02-.02.03-.03.04-.11.13-.38.37-.62.54l-.43.3v-.02l-.43.3v-.05c-.11.07-.21.14-.32.21-.07.11-.36.29-.89.54-.01,0-.03,0-.04,0s-.05.02-.05.02c-.32.23-1.19.64-1.59.73-.15.08-.37.15-.64.22-.22.06-.48.11-.77.16-.09.01-.16.03-.22.04-.05.04-.13.07-.22.1-.28.08-.46.1-.57.07-.08.01-.13.02-.16.02s-.05-.03-.07-.08h-.16c-.06.06-.14.11-.23.14-.12.03-.36.05-.66.06-.1,0-.21,0-.32,0-.49,0-1.04-.02-1.43-.08-.51-.07-1.16-.23-1.7-.4-.19-.05-.33-.1-.4-.13-.11-.04-.21-.08-.29-.11-.14,0-.32-.05-.55-.16v.03l-.62-.31c-.22-.11-.38-.2-.48-.28-.08-.02-.38-.21-.76-.48,0,.03-.01.04-.02.04-.01,0-.27-.19-.54-.44l-.03-.02s0,.02-.01.02c-.01,0-.27-.19-.54-.44l-.52-.43h0c-.05-.05-.08-.08-.08-.09s.02-.02.06-.04c-.08-.08-.16-.16-.24-.24-.03.07-.09.02-.21-.1-.08-.07-.34-.39-.63-.77-.31-.43-.78-1.18-1.03-1.65-.16-.3-.25-.52-.27-.67h0s-.08-.07-.11-.12c-.04-.09-.18-.41-.3-.74-.1-.28-.15-.43-.14-.51,0-.03-.02-.07-.03-.11-.07-.11-.12-.29-.18-.53-.09-.4-.19-1.02-.25-1.4-.05-.33-.06-.51-.02-.61,0-.1.01-.16.05-.2-.01-.22-.02-.43-.02-.65-.01-.05-.02-.18,0-.36,0-.19,0-.31.02-.33,0-.08,0-.16.01-.24-.05-.03-.08-.08-.08-.12,0-.12.01-.24.04-.34,0-.07.02-.15.03-.24.11-.76.18-1.13.26-1.3.04-.15.08-.3.12-.45,0-.02-.01-.05-.01-.08,0-.18.09-.41.19-.58.04-.12.09-.23.14-.32.01-.03.02-.07.04-.11-.03-.06.01-.18.11-.41.05-.12.1-.22.15-.31.07-.18.16-.36.25-.53h0c0-.08.18-.39.43-.77.07-.11.16-.25.26-.4.4-.6.86-1.23,1-1.35.14-.18.24-.24.29-.2.15-.16.3-.32.45-.47-.02-.02-.03-.04,0-.07.01-.02.04-.05.08-.09.1-.29,2.95-2.12,3.31-2.12,0,0,.01,0,.02,0,.34-.16.71-.31.86-.31.01,0,.02,0,.04,0l.11-.03s.1-.03.15-.04c.13-.1.47-.17,1.29-.31.09-.01.15-.02.22-.03.1-.02.2-.03.3-.03.04,0,.09.03.12.09.05,0,.11,0,.16,0,0,0,.02-.02.04-.03l-.04-.07Z"/>
  <path class="st3" d="M156.25,115.82v-.18c0-.49-.01-.49-.76-.59-.43-.04-1-.09-1.25-.09-.26,0-.49-.06-.49-.15,0-.07-.12-.15-.27-.15s-.54-.13-.88-.3c-.32-.16-.69-.3-.8-.3s-.46-.23-.78-.53c-.32-.28-.76-.64-.99-.76-.23-.13-.41-.3-.41-.35,0-.3-1-1.56-1.36-1.73-.22-.11-.49-.41-.6-.72-.25-.59-2.43-2.98-2.74-2.98-.09,0-.21-.11-.25-.22-.04-.12-.21-.25-.37-.3-.15-.06-.28-.16-.28-.26,0-.22-1.9-2.05-2.74-2.62-.38-.25-.91-.72-1.18-1.02-.28-.31-.71-.64-.94-.74-.25-.11-.44-.23-.44-.3,0-.07-.28-.25-.62-.43-.35-.16-.86-.5-1.12-.75-.27-.23-.59-.44-.71-.44s-.32-.13-.46-.3c-.15-.16-.32-.3-.4-.3s-.28-.13-.44-.28c-.26-.25-1.44-.91-2.81-1.61-.23-.13-.47-.27-.52-.32-.09-.11-.88-.47-1.77-.83-.37-.13-.76-.34-.9-.46-.12-.11-.37-.19-.53-.19s-.38-.11-.49-.22c-.11-.12-.31-.22-.46-.22-.16,0-.28-.06-.28-.15,0-.07-.16-.15-.35-.15-.21,0-.41-.06-.46-.15-.04-.07-.23-.15-.43-.15-.18,0-.38-.06-.47-.12-.07-.07-.56-.28-1.09-.46-.53-.18-1.15-.43-1.37-.54-.22-.13-.76-.27-1.21-.31s-.81-.15-.81-.21c0-.07-.22-.13-.5-.13s-.54-.06-.59-.12c-.06-.12-.83-.31-2-.53-.21-.04-.64-.15-.96-.23-.32-.11-1.09-.23-1.7-.3-.6-.07-2-.28-3.1-.46-1.19-.19-2.67-.32-3.68-.32-1.53-.01-4.94-.01-6.63,0-.62,0-1.61.12-4.27.49-.6.07-1.56.19-2.11.23-.54.06-1.03.16-1.08.22-.04.07-.26.13-.5.13s-.57.06-.76.13c-.19.07-.83.22-1.4.32-.59.11-1.08.23-1.08.31,0,.06-.15.12-.32.12-.31,0-1.03.19-1.67.46-.16.06-.86.31-1.55.56-3.17,1.1-4.42,1.62-4.42,1.83,0,.06-.13.11-.3.11s-.3.07-.3.15c0,.09-.19.15-.44.15-.23,0-.44.07-.44.15,0,.09-.13.15-.3.15s-.3.07-.3.15c0,.09-.12.15-.25.15-.15,0-.43.13-.64.3-.21.16-.49.3-.62.3-.15,0-.27.06-.27.13s-.19.21-.44.31c-.23.11-.44.23-.44.31s-.13.13-.28.13c-.16,0-.38.09-.49.19-.32.3-1.87,1.28-2.04,1.28-.07,0-.15.04-.15.12,0,.06-.19.19-.43.3s-.59.34-.78.52c-.19.18-.68.54-1.09.81-.4.25-.88.64-1.08.84s-.43.37-.54.37-.21.07-.21.15c0,.09-.09.15-.19.15s-.49.27-.84.6c-.37.32-.88.76-1.13.97-.26.21-.49.47-.49.57,0,.12-.09.21-.19.21s-.52.38-.93.84c-.4.47-.96,1.05-1.24,1.3-.28.23-.65.59-.81.78-.16.19-.65.69-1.06,1.13-.43.44-.78.84-.78.88,0,.13-1.52,2.05-1.73,2.18-.11.06-.3.35-.43.64-.15.3-.49.75-.76,1.03-.57.56-.91,1.13-.91,1.55,0,.16-.06.28-.13.28-.18,0-1.05,1.27-1.05,1.52,0,.11-.13.27-.3.37s-.3.28-.3.4c0,.22-.28.81-.46.96-.21.16-1.31,2.62-1.31,2.92,0,.18-.06.32-.15.32-.07,0-.15.13-.15.3s-.06.3-.15.3c-.07,0-.15.07-.15.18,0,.28-.64,1.59-.76,1.59-.06,0-.12.16-.12.35,0,.21-.06.41-.15.46-.07.04-.15.28-.15.53,0,.23-.06.43-.15.43-.07,0-.15.21-.15.44s-.06.44-.15.44c-.07,0-.15.21-.15.44s-.06.44-.15.44c-.07,0-.15.21-.15.44s-.06.44-.15.44c-.07,0-.15.21-.15.44s-.04.44-.12.44c-.13,0-.47,1.39-.47,1.94,0,.22-.06.43-.13.47-.07.04-.16.34-.21.64-.04.31-.18,1.03-.3,1.59-1.03,4.86-1.12,6.59-1.13,20.09,0,7.38-.04,11.23-.15,11.23-.07,0-.15.16-.15.34,0,.41-.38,1.24-.65,1.39-.11.07-.3.3-.44.5-.3.46-1.21.93-2.27,1.15-.44.09-1.96.16-3.37.16h-2.59l-.34-.4c-.19-.23-.35-.47-.35-.53,0-.15-.09-.23-1.27-1.25-.49-.41-.96-.76-1.03-.76-.09,0-.28-.12-.44-.25-.41-.37-.9-.64-1.17-.64-.12,0-.22-.06-.22-.15,0-.07-.11-.15-.22-.15-.13,0-.27-.11-.31-.22-.06-.12-.53-.35-1.08-.53-1.96-.62-4.11-.78-6.28-.44-.65.09-1.44.21-1.75.27-.32.04-.68.18-.8.28-.11.12-.37.25-.59.31-.22.04-.43.13-.47.19-.04.04-.31.25-.59.44-.78.54-1.02.74-1.93,1.59-.8.74-2.2,2.62-2.2,2.95,0,.09-.04.18-.11.21-.19.07-1.03,2.21-1.21,3.05-.09.44-.21,1.59-.27,2.55-.11,1.94.19,4.23.71,5.38.16.35.28.74.28.86s.06.22.13.22.3.34.47.74c.18.41.38.74.44.74s.16.13.21.3.19.3.31.3.21.11.21.22c0,.4.94,1.27,2.48,2.3.84.56,1.7,1.02,1.89,1.02s.35.07.35.15c0,.09.16.15.35.15.21,0,.41.07.46.15.04.09.37.15.68.15s.57.06.57.13.18.18.41.21c.78.12,2.77.09,3.79-.06.57-.07,1.31-.18,1.67-.22.34-.06.62-.15.62-.22s.16-.13.37-.13.49-.06.64-.13c.13-.09.64-.32,1.09-.53.46-.22,1.03-.56,1.25-.75s.5-.35.6-.35c.09,0,.18-.06.18-.15,0-.07.09-.15.19-.15.27,0,2.04-1.74,2.3-2.26l.22-.4,4.45.03c3.42.03,4.51,0,4.65-.13.11-.11.46-.19.81-.19s.68-.06.72-.15c.04-.07.28-.15.5-.15s.68-.13,1.02-.3c.32-.16.68-.3.76-.3.15,0,.74-.3.88-.44.18-.18.75-.44.94-.44.12,0,.23-.04.27-.11.06-.15.84-.62,1.19-.74.13-.04.25-.18.25-.28,0-.12.06-.21.13-.21s.38-.23.69-.52c.31-.28.64-.52.71-.52.19,0,.9-.87,1.15-1.39.09-.21.23-.38.31-.38.19,0,.84-.76.84-.99,0-.11.06-.19.13-.19s.21-.19.31-.44c.11-.23.23-.44.31-.44s.13-.09.13-.19c0-.25.34-.99.46-.99.04,0,.23-.35.41-.76.19-.43.4-.9.47-1.03.07-.15.13-.4.13-.56s.09-.46.21-.64c.27-.43.53-1.71.53-2.61,0-.4.09-.9.19-1.13.13-.31.21-3.49.28-13.31.04-7.43.16-13.43.25-14.15.34-2.79.43-3.35.66-3.98.12-.37.23-.84.23-1.06,0-.21.13-.69.3-1.08.16-.38.3-.81.3-.97,0-.15.04-.28.12-.28.11,0,.47-1.03.47-1.37,0-.27.34-.99.49-.99.06,0,.11-.11.11-.23,0-.26.6-1.43.78-1.51.06-.03.11-.15.11-.27s.13-.5.3-.83c.16-.34.3-.71.3-.81s.07-.19.15-.19c.09,0,.15-.13.15-.3s.06-.3.12-.3c.07,0,.22-.18.32-.4.12-.23.32-.59.47-.81.15-.21.27-.46.27-.54,0-.11.16-.34.35-.53.21-.19.4-.5.46-.66.04-.16.16-.3.23-.3s.13-.12.13-.27c0-.13.13-.34.3-.44s.3-.3.3-.44.13-.35.3-.47.3-.32.3-.47.11-.27.27-.27c.13,0,.41-.25.62-.56.19-.3.54-.72.76-.96.23-.22.41-.46.41-.53,0-.23,2.98-3.08,3.4-3.23.07-.03.13-.15.13-.25s.25-.37.56-.6c.3-.22.65-.53.78-.68s.32-.26.41-.26c.3,0,.9-.46.9-.68,0-.12.11-.21.22-.21.13,0,.4-.16.59-.35.19-.21.5-.4.66-.46.16-.04.3-.15.3-.21s.31-.28.71-.47c.38-.19.8-.47.93-.6.13-.15.35-.27.49-.27s.23-.06.23-.15c0-.07.18-.15.38-.15.22,0,.5-.12.64-.27.3-.31.76-.54,1.61-.78.34-.11.62-.23.62-.31,0-.06.13-.12.3-.12s.3-.06.3-.15c0-.07.21-.15.44-.15s.44-.06.44-.13.22-.21.49-.31c.25-.09.75-.3,1.1-.46.34-.15.8-.28.99-.28.21,0,.37-.06.37-.15,0-.07.19-.15.43-.15.25,0,.49-.06.53-.15.04-.07.27-.15.49-.15s.8-.13,1.27-.3c.49-.16,1.06-.3,1.28-.3s.44-.06.49-.13c.04-.06.56-.16,1.15-.21.59-.06,1.63-.18,2.33-.28,1.74-.23,7-.23,8.47,0,.65.12,1.56.26,2.04.34,3.01.47,3.48.57,3.58.74.04.07.35.13.66.13s.57.07.57.15c0,.09.15.15.32.15.4,0,1.21.25,1.93.6.32.16.71.28.86.28.16,0,.43.13.6.3.19.18.53.3.81.3.26,0,.49.07.49.15,0,.09.09.15.19.15.22,0,1.68.72,2.39,1.17.25.16.56.3.69.3.13.01.27.06.3.13.03.06.34.27.71.46.37.21.69.4.74.46.16.19,1.02.74,1.17.74s.65.37,1.22.93c.15.13.34.25.41.25.09,0,.15.06.15.12,0,.07.18.22.4.34s.81.59,1.3,1.06c.49.46.96.84,1.06.84s.19.09.19.21c0,.3,1.27,1.56,1.55,1.56.12,0,.22.13.22.3s.06.3.15.3c.07,0,.4.27.72.59.32.32.65.59.74.59s.16.11.16.22c0,.13.07.31.15.41.57.68.74.9.74,1.02,0,.06.11.12.22.12s.22.06.22.13.09.23.19.34c.11.11.35.43.54.71.33.48,2.2,3.49,2.24,3.51.06.03.12.13.12.22,0,.11.16.37.37.6.21.25.41.6.47.81.04.21.41,1.03.81,1.81.38.8.71,1.53.71,1.67,0,.12.07.22.15.22.09,0,.15.16.15.35,0,.21.07.41.15.46.09.04.15.23.15.43,0,.18.12.59.28.91.15.31.31.83.35,1.12.04.3.18.76.3,1.03.31.69.52,1.55.62,2.48.06.44.15.84.21.88s.23,1.13.4,2.43c.23,2.09.28,3.88.35,16.12.06,10.83.12,13.78.27,13.84.11.03.18.3.18.64,0,.31.07.57.15.57.09,0,.15.19.15.43,0,.25.07.49.15.53.07.04.15.22.15.38,0,.3.23.8.54,1.12.09.11.22.32.26.49s.16.3.23.3.13.13.13.3.07.3.15.3c.09,0,.15.13.15.3s.07.3.15.3c.09,0,.15.09.15.19s.27.49.59.84c.32.37.59.71.59.78,0,.15,1.28,1.43,1.43,1.43.07.01.47.32.88.72.43.38,1.08.86,1.44,1.05s.66.4.66.47c0,.06.13.12.28.12.16,0,.31.04.34.12.09.19,1.93,1.06,2.27,1.06.18,0,.37.06.41.13.09.13.5.23,1.86.46.44.07,1.15.19,1.55.28.44.09,2.06.11,4.08.06,3.85-.11,3.9-.09,4.98,1.13.69.78,2.14,1.97,2.74,2.24.19.09.35.22.35.3,0,.06.11.12.22.12.13,0,.37.13.54.3.18.16.47.3.66.3.18,0,.54.12.83.28.69.38,1.43.49,4.43.56,1.73.03,2.7,0,2.8-.11.07-.07.37-.15.64-.15s.49-.06.49-.15c0-.07.21-.15.44-.15s.44-.06.44-.15c0-.07.13-.15.3-.15s.3-.06.3-.15c0-.07.13-.15.3-.15s.3-.06.3-.15c0-.07.09-.15.19-.15s.32-.12.49-.27c.49-.44,1.21-.91,1.4-.91.25,0,.87-.59.87-.83,0-.11.25-.44.56-.75.71-.71,1.21-1.43,1.21-1.73,0-.13.04-.23.12-.23.12,0,.47-.72.47-.99,0-.11.12-.4.28-.66.15-.28.31-.72.37-1,.38-1.87.62-4.94.41-5.2-.07-.11-.19-.5-.25-.9-.12-.88-1.05-3.54-1.25-3.6-.07-.03-.15-.22-.15-.41,0-.21-.09-.4-.21-.44-.12-.04-.28-.27-.38-.49-.09-.23-.32-.5-.53-.6-.19-.12-.35-.32-.35-.47s-.06-.27-.15-.27c-.07,0-.15-.06-.15-.15,0-.19-.54-.74-.74-.74-.07,0-.15-.06-.15-.15,0-.07-.09-.15-.18-.15-.11,0-.37-.16-.59-.35-.22-.18-.72-.5-1.1-.69-.4-.19-.76-.44-.83-.53-.06-.11-.28-.19-.47-.19-.21,0-.37-.06-.37-.15,0-.07-.19-.15-.44-.15-.23,0-.44-.06-.44-.13,0-.16-1.55-.31-3.32-.34-1.77-.04-3.95.32-4.89.81-.26.15-.54.25-.64.25s-.3.13-.47.3-.43.3-.54.3c-.13,0-.4.13-.6.3-.21.16-.43.3-.49.3s-.28.16-.49.37-.44.37-.52.37c-.09,0-.72.56-1.4,1.25l-1.24,1.25h-1.8c-2.21,0-4.36-.22-4.86-.49-.21-.11-.56-.4-.78-.66-.22-.25-.57-.57-.81-.72-.32-.19-.44-.38-.52-.91-.06-.37-.16-6.75-.21-14.16-.07-10.11-.15-13.65-.3-14.15-.11-.37-.23-1.22-.3-1.92-.07-.69-.23-1.71-.37-2.28-.37-1.61-.34-1.81.32-1.96.3-.07,4.55-.15,9.46-.18,4.91-.01,8.99-.07,9.07-.12.09-.06.54-.15,1.03-.21.96-.12,2.02-.31,2.95-.54.32-.09.86-.21,1.18-.28.32-.07.84-.23,1.17-.37.31-.15.66-.25.78-.25s.31-.11.44-.22c.12-.13.41-.28.65-.32.23-.04.43-.13.43-.21s.13-.13.3-.13.3-.06.3-.15c0-.07.16-.15.34-.15.44,0,1.28-.41,1.39-.68.04-.12.21-.21.35-.21s.28-.06.28-.15c0-.07.12-.15.27-.15s.35-.13.47-.3.31-.3.44-.3.32-.13.44-.3.3-.3.38-.3.44-.27.78-.59c.32-.32.71-.59.83-.59s.28-.13.37-.3.25-.3.38-.3c.12,0,.25-.11.31-.23.12-.32.75-.94.96-.94.25,0,.86-.6.86-.84s.65-.93.88-.93c.07,0,.15-.06.15-.12,0-.07.16-.32.37-.56s.37-.49.37-.54.16-.28.35-.47c.21-.21.49-.56.62-.81.15-.23.31-.44.37-.44s.18-.19.28-.44c.11-.25.23-.44.31-.44s.13-.13.13-.3.07-.3.15-.3c.09,0,.15-.09.15-.19s.13-.34.3-.52.3-.41.3-.54c0-.12.07-.22.15-.22.09,0,.15-.13.15-.3s.07-.3.15-.3c.09,0,.15-.19.15-.44,0-.23.06-.44.12-.44.18,0,.57-.9.69-1.53.06-.3.16-.57.23-.62.07-.04.13-.23.13-.44,0-.19.07-.35.15-.35.09,0,.15-.22.15-.5s.07-.56.15-.6c.09-.04.15-.43.15-.83s.06-.72.13-.72.16-.28.21-.62c.06-.35.18-1.17.27-1.81.23-1.52.23-5.14.01-5.83-.16-.46-.28-1.28-.57-4-.04-.4-.13-.71-.21-.71s-.13-.19-.13-.44c0-.23-.16-.8-.35-1.24-.19-.43-.4-.99-.44-1.24-.06-.23-.23-.57-.38-.74-.16-.18-.3-.44-.3-.6s-.06-.34-.15-.38c-.07-.04-.15-.21-.15-.34,0-.15-.13-.35-.3-.47s-.3-.3-.3-.38c0-.11-.27-.62-.59-1.15-.32-.53-.59-1.02-.59-1.08,0-.07-.26-.28-.59-.49-.32-.19-.59-.44-.59-.54s-.06-.19-.15-.19c-.07,0-.15-.09-.15-.19,0-.23-3.03-3.2-3.29-3.2-.21,0-.54-.66-.54-1.08,0-.15-.09-.37-.21-.47-.12-.12-.32-.59-.47-1.06-.13-.47-.38-1.1-.53-1.4-.15-.31-.27-.66-.27-.81,0-.16-.19-.5-.44-.78-.23-.28-.43-.56-.44-.62,0-.06-.19-.43-.44-.81-.23-.38-.44-.83-.44-1s-.12-.44-.25-.6c-.15-.15-.43-.53-.64-.83-.21-.31-.41-.56-.47-.56-.07,0-.12-.13-.12-.3s-.06-.3-.15-.3c-.07,0-.15-.19-.15-.44,0-.23-.04-.44-.12-.44-.06,0-.18-.15-.25-.34-.09-.18-.3-.38-.47-.47-.19-.07-.34-.23-.34-.34,0-.12-.21-.4-.44-.62-.25-.22-.44-.49-.44-.59s-.19-.37-.44-.59c-.23-.22-.44-.49-.44-.57s-.13-.22-.3-.31c-.16-.09-.3-.23-.31-.34,0-.11-.47-.6-1.03-1.13-.57-.53-1.44-1.34-1.93-1.8-.47-.47-.94-.86-1.02-.86s-.13-.06-.13-.12-.18-.22-.4-.35c-.37-.22-.76-.52-1.37-1.03-.19-.16-.41-.28-.64-.37-.23-.11-.54-.34-.69-.53s-.97-.69-1.83-1.12c-.86-.43-1.56-.84-1.56-.91s-.25-.25-.54-.37c-.31-.13-.68-.3-.81-.37-.15-.07-.35-.13-.49-.13-.12,0-.44-.13-.74-.3-.3-.16-.62-.3-.74-.3s-.22-.06-.22-.15c0-.07-.11-.15-.22-.15-.19,0-1.1-.37-1.87-.75-.15-.07-.52-.13-.84-.13s-.64-.06-.68-.15c-.04-.07-.25-.15-.44-.15s-.38-.06-.43-.13c-.09-.13-.66-.23-2.59-.46-.6-.07-1.7-.23-2.43-.37-1.03-.19-1.89-.22-3.9-.16-1.41.04-2.96.12-3.42.18-.84.09-.84.07-1.15-.41-.18-.31-.3-.74-.3-1.18,0-.4-.04-.71-.12-.71-.06,0-.19-.44-.3-1-.11-.54-.25-1.05-.34-1.13-.07-.07-.13-.23-.13-.37,0-.12-.21-.71-.44-1.31-.25-.59-.44-1.24-.44-1.41,0-.19-.07-.4-.15-.44-.07-.04-.15-.22-.15-.37,0-.16-.19-.6-.44-.99-.23-.38-.44-.81-.44-.94,0-.15-.06-.3-.13-.34-.07-.04-.47-.76-.9-1.59-.43-.84-.83-1.55-.9-1.56-.07-.03-.13-.18-.13-.34,0-.15-.06-.28-.15-.28-.07,0-.15-.09-.15-.19,0-.35-.71-1.63-1.09-2-.22-.19-.38-.43-.38-.54s-.06-.21-.15-.21c-.07,0-.15-.11-.15-.22,0-.13-.13-.37-.3-.54-.16-.18-.3-.41-.3-.52s-.06-.19-.15-.19c-.07,0-.15-.13-.15-.28,0-.16-.18-.44-.4-.64-.23-.19-.5-.52-.6-.71-.11-.21-.34-.44-.52-.52-.18-.09-.38-.3-.47-.49-.07-.18-.27-.37-.4-.41-.15-.04-.27-.16-.27-.25-.01-.23-.53-.84-.71-.84-.09,0-.19-.12-.23-.25-.04-.15-.25-.44-.44-.65-.19-.21-.4-.52-.46-.69-.04-.19-.28-.44-.49-.59-.22-.13-.64-.49-.91-.78-.3-.28-.8-.66-1.12-.86-.32-.19-.72-.53-.86-.76s-.32-.43-.4-.43c-.16,0-.46-.22-.84-.64-.13-.13-.28-.25-.34-.25s-.38-.28-.74-.6c-.35-.34-.99-.84-1.39-1.09-.41-.27-.84-.59-.94-.72-.11-.13-.32-.23-.47-.23-.16,0-.28-.04-.28-.11,0-.12-.71-.49-.93-.49-.06,0-.3-.19-.5-.44-.19-.23-.52-.44-.68-.44-.18,0-.49-.13-.69-.3s-.52-.3-.69-.3c-.19,0-.34-.06-.34-.15,0-.07-.11-.15-.22-.15s-.22-.06-.22-.15c0-.07-.15-.15-.34-.15-.18,0-.43-.13-.54-.3s-.3-.3-.4-.3-.4-.13-.66-.3c-.26-.16-.59-.3-.71-.3s-.38-.13-.59-.3-.52-.3-.69-.3-.43-.11-.54-.23c-.13-.12-.49-.27-.78-.31-.31-.06-.78-.22-1.05-.37s-.75-.31-1.1-.35c-.34-.06-.94-.23-1.36-.43-.4-.18-1.24-.4-1.84-.5-.6-.11-1.67-.31-2.36-.46-.69-.15-1.81-.32-2.5-.37-.69-.06-2-.19-2.92-.31-2.11-.27-3.58-.27-6.81.01-2.87.25-3.55.34-6.7.94-.4.07-1,.18-1.33.23-.76.13-1.4.37-1.4.53,0,.07-.22.13-.5.13s-.54.06-.59.13c-.04.07-.32.18-.6.22-.28.04-.75.13-1.03.18s-.52.13-.52.19c0,.07-.38.21-.84.32-.47.11-.99.31-1.13.46-.16.15-.38.27-.49.27s-.19.06-.19.12c0,.07-.32.22-.74.32-.4.11-.74.25-.74.32,0,.06-.19.12-.43.12s-.53.09-.64.19-.57.38-1.03.62c-.47.23-.86.49-.86.54s-.11.12-.23.12c-.26,0-1.34.56-1.65.84-.11.11-.4.28-.66.41-.27.12-.71.41-.99.66-.28.23-.6.44-.69.44-.11,0-.19.07-.19.15,0,.09-.12.15-.27.15s-.41.16-.57.35-.52.47-.76.62c-.25.15-.46.32-.46.38s-.09.12-.21.12-.68.46-1.24,1.02c-.57.56-1.13,1.08-1.27,1.15-.3.16-2.39,2.05-2.8,2.52-.18.19-.57.62-.9.96-.34.34-.76.86-.96,1.13s-.46.62-.59.74c-.19.18-.91,1.09-1.36,1.7-.06.09-.41.52-.78.96-.35.44-.78,1.06-.91,1.36-.15.31-.31.56-.37.56-.07,0-.12.13-.12.28s-.09.31-.19.35c-.31.12-1.28,1.65-1.28,2,0,.18-.06.31-.15.31-.07,0-.15.07-.15.15,0,.09-.26.59-.59,1.12-.32.53-.59,1.03-.59,1.1s-.06.25-.15.4c-.31.57-.74,1.58-.74,1.75,0,.11-.06.19-.15.19-.07,0-.15.09-.15.21,0,.18-.21.65-.75,1.74-.07.15-.13.38-.13.53,0,.16-.11.5-.23.75l-.23.49-.9-.11c-.5-.06-2.7-.11-4.89-.11-3.7-.01-6.07.16-6.78.46-.16.07-.8.28-1.4.47-.6.18-1.17.38-1.25.46-.07.06-.28.12-.47.12s-.34.07-.34.15c0,.09-.22.15-.5.15s-.56.07-.6.15c-.04.09-.22.15-.38.15-.15,0-.28.04-.28.12,0,.06-.46.34-1.03.62-.56.28-1.03.56-1.03.64,0,.06-.13.11-.28.11-.16,0-.38.13-.49.28-.12.16-.38.37-.6.47-.22.11-.4.23-.4.31,0,.06-.11.12-.23.12s-.35.12-.49.27-.57.5-.99.8c-.41.31-.87.72-1.03.93-.15.21-.4.37-.53.37-.15,0-.27.04-.27.12,0,.09-.4.57-1.39,1.65-.18.21-.56.66-.84,1.03s-.54.69-.59.74c-.19.18-1.02,1.46-1.02,1.59,0,.09-.09.18-.21.22-.12.04-.44.54-.72,1.1-.6,1.18-.88,1.7-1,1.8-.04.04-.23.59-.44,1.21-.19.64-.4,1.15-.46,1.15-.07,0-.12.12-.12.27,0,.16-.11.5-.23.76-.23.46-.32.76-.66,2.14-.34,1.4-.44,1.81-.57,2.57-.25,1.4-.57,2.23-.9,2.23-.15,0-.28.07-.28.15,0,.09-.09.15-.19.15-.27,0-.99.35-.99.49,0,.06-.07.11-.18.11-.34,0-1.3.5-1.3.69,0,.11-.12.19-.28.19-.15,0-.43.12-.62.28-.19.15-.54.37-.8.5-.23.12-.68.44-.96.72-.3.27-.78.69-1.1.93-.81.62-1.84,1.63-1.84,1.83,0,.09-.09.16-.21.16-.11,0-.46.31-.76.71-.31.38-.66.8-.8.91-.12.12-.4.46-.6.74-.22.28-.53.68-.71.87-.16.19-.31.4-.31.46s-.16.3-.37.53-.37.49-.37.54-.16.28-.37.49c-.21.21-.41.57-.47.81-.04.23-.13.43-.21.43s-.13.13-.13.3-.06.3-.15.3c-.07,0-.15.09-.15.19,0,.27-.35.99-.47.99-.07,0-.12.11-.12.23,0,.12-.11.32-.22.44s-.25.46-.31.76c-.06.3-.15.57-.19.62-.06.04-.25.57-.46,1.18-.19.6-.46,1.34-.59,1.62-.15.28-.3.88-.35,1.33-.44,3.66-.53,4.57-.6,6.19-.07,1.71.03,3.64.37,6.34.32,2.62.26,2.34.81,3.58.13.31.28.8.32,1.08.04.28.15.54.21.59.07.04.13.23.13.44,0,.19.04.35.12.35.06,0,.19.25.3.56.49,1.34.54,1.51.65,1.51.07,0,.12.09.12.19s.12.32.27.49c.15.15.49.69.75,1.18.26.5.74,1.19,1.06,1.55.31.35.57.72.57.83s.04.19.12.19c.06,0,.23.21.4.44s.37.44.44.44c.09.01.4.41.72.88.31.49.65.88.74.88.11,0,.32.15.49.34.16.18.59.56.93.84.35.28.8.66.97.86.19.18.41.32.49.32.09,0,.22.13.31.3s.23.3.34.3.28.13.4.3c.12.16.32.3.47.3s.27.06.27.12c0,.07.18.22.41.34.22.12.53.32.68.47.16.13.38.25.49.25s.19.07.19.15c0,.09.11.15.22.15s.22.07.22.15c0,.09.21.15.44.15s.59.13.76.3.44.3.57.3c.15,0,.31.07.35.15.04.09.22.15.38.15.15,0,.28.07.28.15,0,.09.16.15.37.15s.52.13.68.28c.18.16.62.31.99.35.99.12,1.68.25,2.02.4.16.07.59.16.96.21s1.03.15,1.47.22c1.73.34,5.16.49,9.43.4,2.77-.04,4.36-.13,4.39-.23.03-.07.15-.15.27-.15s.25-.19.31-.44c.04-.23.13-.44.21-.44s.13-.22.13-.47c0-.27.13-.84.3-1.27.16-.43.3-1,.3-1.28s.06-.52.12-.52c.18,0,.47-.69.47-1.1,0-.21.04-.37.12-.37.15,0,.47-1.09.47-1.62,0-.23.06-.44.12-.44.16,0,.47-.66.47-.97,0-.13.12-.41.28-.62.15-.22.35-.66.47-.99.12-.32.23-.62.28-.66.04-.04.16-.34.27-.66.26-.81.5-1.28.81-1.61.13-.16.25-.38.25-.49s.07-.19.15-.19c.09,0,.15-.13.15-.3s.07-.3.15-.3c.09,0,.15-.19.15-.44,0-.23.07-.44.15-.44.09,0,.15-.09.15-.19s.12-.32.27-.49c.13-.15.41-.59.62-.97.21-.4.41-.71.47-.71.07,0,.12-.13.12-.3s.06-.3.12-.3.34-.38.62-.84c.28-.47.62-.96.76-1.09.15-.13.27-.38.27-.57,0-.18.22-.53.49-.8.68-.64,1.28-1.46,1.28-1.75,0-.15.11-.25.22-.25s.22-.06.22-.15c0-.07.22-.37.49-.64.25-.28.56-.68.68-.88.12-.22.26-.4.34-.4.06,0,.28-.25.49-.56.21-.32.54-.66.74-.76.21-.11.37-.3.37-.4,0-.27,3.05-3.29,3.33-3.29.12,0,.21-.11.21-.22,0-.23.64-.96.84-.96.06,0,.54-.4,1.08-.88s1-.88,1.06-.88c.07,0,.37-.23.66-.52s.6-.52.66-.52.34-.23.62-.52c.3-.28.62-.52.75-.52.12,0,.22-.04.22-.11,0-.07.26-.25.59-.4.32-.16.59-.37.59-.49,0-.11.12-.19.27-.19s.35-.13.47-.3.32-.3.47-.3.27-.06.27-.15c0-.07.12-.15.27-.15s.35-.13.47-.3.35-.3.52-.3.53-.21.81-.44c.28-.23.6-.44.71-.44.09,0,.18-.06.18-.15,0-.07.13-.15.3-.15s.3-.04.3-.11c0-.13.71-.49.97-.49.25,0,1.39-.62,1.39-.76,0-.06.13-.12.3-.12s.3-.06.3-.15c0-.07.11-.15.22-.15s.44-.13.74-.3.72-.3.96-.3.52-.09.62-.19c.18-.19.75-.47,1.74-.87.21-.09.49-.21.62-.28.15-.07.43-.13.62-.13s.41-.06.46-.15c.04-.09.22-.15.38-.15.15,0,.4-.06.54-.13.62-.31,1.97-.76,3.2-1.08.74-.19,1.36-.38,1.37-.44.03-.07.46-.12.93-.12s.87-.06.87-.13c0-.13.49-.25,1.74-.4.34-.06.62-.13.62-.21,0-.06.68-.16,1.52-.22.83-.04,2.16-.19,2.98-.31,2.16-.31,7.98-.43,10.54-.21,3.58.3,3.83.32,3.83.44,0,.07.49.16,1.08.21,1.66.12,3.05.32,3.98.59.47.13,1.05.23,1.28.23.25,0,.44.07.44.15,0,.09.19.15.43.15.25,0,.49.07.53.15.04.09.32.15.6.15.49,0,3.02.74,3.63,1.05.15.07.43.13.62.13s.41.07.46.15c.04.09.25.15.46.15.19,0,.35.06.35.13,0,.16.8.31,2.18.41.91.06,1.06.03,1.06-.18,0-.13.13-.52.3-.84.16-.34.3-.84.3-1.1s.06-.49.12-.49c.21,0,.47-.71.47-1.22,0-.27.06-.54.13-.62.07-.09.27-.52.43-.96.16-.44.5-1.21.75-1.7s.46-1,.46-1.13c0-.15.06-.27.12-.27.07,0,.23-.23.37-.52.13-.3.35-.56.47-.6.12-.06.22-.19.22-.3,0-.12.13-.35.3-.53s.3-.47.3-.66c0-.21.09-.34.22-.34.12,0,.22-.06.22-.15,0-.07.23-.37.52-.65.28-.3.52-.57.52-.65s.26-.34.59-.6c.32-.25.59-.56.59-.68s.11-.22.22-.22.3-.13.4-.3c.11-.16.23-.3.3-.3s.35-.25.66-.54c.31-.31.74-.65.97-.76.22-.12.4-.26.4-.34,0-.06.12-.12.26-.12.16,0,.4-.13.54-.3.15-.16.34-.3.43-.3.11,0,.27-.13.38-.3.12-.16.32-.3.47-.3s.27-.06.27-.15c0-.07.13-.15.3-.15s.3-.06.3-.15c0-.07.13-.15.3-.15s.3-.04.3-.11c0-.13.71-.49.96-.49.09,0,.25-.13.37-.3.12-.18.38-.3.62-.3.22,0,.41-.06.41-.15,0-.07.13-.15.28-.15.16,0,.34-.06.38-.15s.35-.15.66-.15.87-.13,1.25-.3.9-.3,1.17-.3.53-.06.62-.13c.07-.07.66-.18,1.31-.21.65-.04,1.71-.15,2.36-.23,1.28-.18,4.65-.07,4.65.15,0,.07.53.13,1.18.13.69,0,1.18.06,1.18.15s.32.15.74.15.74.07.74.15c0,.09.13.15.28.15.16,0,.34.07.38.15.04.09.32.15.6.15s.5.07.5.15c0,.09.21.15.44.15s.44.07.44.15c0,.09.21.15.44.15s.44.04.44.12c0,.12.72.47.99.47.11,0,.19.04.19.12,0,.06.22.19.49.3,1.02.41,1.87.84,1.87.96,0,.06.07.11.16.11.18,0,1.52.88,1.58,1.06.03.06.13.12.25.12.16,0,.97.66,2.7,2.23.34.31.62.66.62.8,0,.12.09.22.19.22.22,0,1.58,1.27,1.58,1.49,0,.09.15.34.34.56.18.22.46.59.62.81.16.23.37.5.46.59.11.11.35.54.57.99.22.44.44.83.5.87.18.15.46.74.46.96,0,.12.07.22.15.22.09,0,.15.13.15.3s.06.3.12.3.21.4.31.88c.12.49.23.88.3.88.12,0,.46,1.09.46,1.47,0,.16.06.3.13.3.06,0,.18.38.23.86.06.46.18,1.31.25,1.87.22,1.47.22,4.84,0,6.05-.11.57-.22,1.27-.25,1.55-.12.75-.41,1.68-.56,1.78-.07.04-.28.64-.47,1.3-.32,1.1-.69,1.92-1.71,3.85-.19.37-.43.75-.53.86s-.3.38-.44.62c-.13.25-.31.44-.37.44s-.21.19-.34.44c-.37.71-3.15,3.37-4.43,4.24-.32.21-.66.46-.76.56-.09.11-.31.23-.47.28-.16.04-.3.16-.3.23s-.07.13-.16.13-.44.21-.8.44c-.35.25-.75.44-.87.44-.13,0-.23.06-.23.13s-.23.18-.52.22c-.28.06-.56.19-.62.3-.07.11-.25.22-.41.27-.16.04-.75.27-1.33.47-.56.21-1.17.38-1.33.38-.18,0-.37.06-.46.12-.07.07-.59.21-1.17.31-.56.11-1.53.31-2.14.46-.6.15-1.65.31-2.31.37l-3.34.11.2.67-.09.04Z"/>
  <path class="st1" d="M170.78,49.97c.12.21,2.43-.03,3.08-.31.16-.07.53-.16.81-.19.28-.03.81-.16,1.18-.3.37-.13.96-.31,1.33-.4.37-.11.9-.31,1.19-.46.28-.15.96-.35,1.51-.46.54-.11.99-.23.99-.3,0-.07.16-.12.35-.12.21,0,.41-.06.46-.15.04-.07.41-.15.8-.15.5,0,.81-.09,1.05-.3.19-.16.5-.3.69-.3s.46-.06.6-.13c.13-.07.64-.25,1.1-.38.47-.13.94-.34,1.06-.46.11-.12.28-.21.37-.21.4,0,1.22-1.43,1.41-2.45.12-.64-.41-2.57-.71-2.57-.07,0-.12-.11-.12-.23,0-.3-.35-.65-.65-.65-.13,0-.23-.06-.23-.13,0-.32-2.23-.44-3.46-.19-1.78.38-3.82.96-3.88,1.1-.03.06-.19.11-.37.11-.16,0-.68.12-1.12.28-.46.15-1.19.35-1.63.46-.96.21-1.81.49-1.92.6-.04.04-.35.13-.71.19-.34.04-1.12.26-1.73.46-.59.21-1.25.37-1.46.37s-.41.07-.46.15c-.04.09-.19.15-.31.15-.3,0-1.53,1.24-1.53,1.53,0,.13-.06.23-.15.23-.27,0-.18,2.61.11,3.4.15.4.32.72.4.72s.23.12.37.27c.32.35.84.62,1.18.62.16,0,.34.07.4.16h0ZM159.64,38.17c0,.09.64.15,1.62.15s1.62-.06,1.62-.15c0-.07.11-.15.23-.15.15,0,.57-.32.96-.74.38-.4.76-.74.86-.74.22,0,.9-.72.9-.96,0-.12.07-.22.15-.22.09,0,.15-.13.15-.3,0-.19.11-.3.27-.3.15,0,.37-.19.52-.43.31-.52,1.06-1.34,1.24-1.34.13,0,.93-.86.93-.99,0-.04.18-.27.41-.47.22-.22.49-.57.6-.78.11-.22.4-.47.62-.57.27-.11.43-.28.43-.44s.09-.28.19-.28c.26-.01.99-.69.99-.96,0-.12.11-.22.22-.22s.22-.06.22-.13.35-.49.8-.93c.43-.44.81-.88.84-.96.12-.31,1.33-1.52,1.52-1.52.11,0,.28-.18.4-.4.12-.23.59-.8,1.06-1.25.46-.46.84-.91.84-1,0-.11.18-.35.41-.57.22-.21.49-.53.59-.72.22-.4.25-3.42.03-3.42-.07,0-.15-.19-.15-.41,0-.46-.83-1.36-1.24-1.36-.12,0-.26-.06-.31-.15-.04-.07-.25-.15-.46-.15-.19,0-.35-.06-.35-.15,0-.21-1.65-.18-2.36.03-.32.11-.59.23-.59.3,0,.07-.12.12-.28.12-.15,0-.5.25-.76.56-.28.31-.91,1.03-1.43,1.61s-1.31,1.44-1.77,1.93c-1.17,1.22-1.65,1.77-1.65,1.92,0,.07-.16.22-.37.32-.19.11-.4.31-.46.47-.04.15-.18.27-.31.27-.23,0-1.81,1.55-1.81,1.78,0,.22-1.3,1.7-2.87,3.29-.72.74-1.56,1.62-1.84,1.97-.28.34-.6.62-.69.62-.11,0-.19.06-.19.13s-.27.43-.59.78c-.31.34-.66.72-.75.84-.57.65-.78,3.08-.35,4.1.27.62,1.4,1.81,1.75,1.81.13,0,.23.07.23.15h0ZM145.79,28.14c0,.22,2.74.19,3.13-.03.54-.32,1.55-1.36,1.67-1.74.06-.19.21-.44.31-.56.12-.11.21-.46.21-.78s.07-.71.15-.87c.09-.16.22-.43.3-.59.09-.16.15-.44.15-.64,0-.18.13-.59.3-.91s.3-.76.3-.99.04-.41.12-.41c.13,0,.47-1.4.47-1.96,0-.22.04-.4.12-.4.13,0,.47-1.08.47-1.53,0-.21.07-.41.15-.46.09-.04.15-.22.15-.4,0-.35.4-1.65.68-2.21.12-.21.21-.6.21-.9s.07-.57.15-.62c.09-.06.15-.78.15-1.7s-.06-1.63-.15-1.7c-.07-.04-.15-.22-.15-.38,0-.57-.97-1.22-2.18-1.47-1.09-.22-2.52,0-3.02.47-.16.15-.35.28-.41.28-.23,0-.72,1.03-1.24,2.58-.28.9-.59,1.75-.66,1.92-.12.28-.23.78-.38,1.84-.04.28-.13.65-.19.81-.07.16-.41,1.19-.75,2.28-.34,1.09-.68,2.11-.75,2.24-.07.15-.13.44-.13.66,0,.37-.18,1.03-.46,1.74-.15.4-.28.99-.46,2.26-.21,1.47.09,2.77.83,3.51.28.28.6.5.74.5s.23.07.23.15h-.02Z"/>
  <path class="st0" d="M71.51,186.9c.16-.23,1.09-1.24,2.06-2.24l1.47-1.53c.17-.23.25-.39.29-.51.82-1.21.69-1.21.82-1.21.07,0,.46-.37.87-.81.38-.43.76-.78.87-.81.04-.11.11-.14.26-.15.05-.04.09-.07.13-.1.02-.02.05-.04.08-.07.09-.1.19-.19.29-.29.04-.11.11-.18.23-.22.21-.2.43-.38.63-.54.02-.03.06-.06.1-.08.26-.21.48-.37.61-.43.03-.12.12-.18.29-.19.02-.07.2-.23.47-.45.03-.06.08-.11.15-.12.14-.11.3-.23.47-.37.05-.12.17-.21.3-.23.12-.09.25-.18.38-.28.02-.1.1-.17.2-.17h.03c.08-.06.16-.11.23-.17,0-.01.02-.03.03-.05.03-.1.15-.17.32-.2.23-.16.46-.32.69-.48.04-.08.1-.12.17-.12h0c.09-.06.17-.12.26-.18,0-.01.02-.03.02-.04.04-.12.18-.22.31-.22.02,0,.04,0,.07,0l.15-.1s0-.03,0-.04c0-.07.09-.15.21-.15.03,0,.06,0,.09,0,.06-.04.12-.08.18-.12.19-.32,3.24-2.16,5.45-3.28.03-.07.1-.1.22-.11.48-.24,1-.49,1.53-.74.03-.11.12-.15.35-.16.23-.11.47-.21.71-.31.14-.21.63-.43.99-.43h.04c.08-.03.16-.07.24-.1,0-.01.01-.03.01-.05,0-.07.21-.14.48-.15.25-.1.51-.2.76-.29.11-.18.36-.27.8-.3.28-.1.55-.2.82-.29.07-.11.23-.19.52-.28.37-.11.68-.17.9-.18.28-.09.55-.16.81-.23h.06c.17-.11.41-.2.66-.26.07-.07.2-.1.44-.1.05,0,.1,0,.14,0,.13-.04.27-.07.4-.11,0,0,0-.01.01-.02.07-.19,3.64-1,6.54-1.49,2.04-.34,2.83-.46,3.13-.42.13-.01.26-.03.4-.05.11-.09.33-.13.82-.19.87-.09,1.23-.11,1.37-.04.23-.02.47-.04.71-.06.06-.11.23-.13.63-.13.16,0,.3.02.41.04.29-.02.58-.04.88-.06.07-.11.26-.13.78-.13.28,0,.48.01.61.04.75-.04,1.53-.08,2.34-.11.09-.06.26-.08.58-.08.15,0,.28.01.39.04l2.34-.09c.95-.01,1,.02.97.6-.04.87-.13,2.68-.18,4.05-.05,1.2-.08,1.82-.13,2.14v2.9s.05.1.05.1c.14.05.2.2.25.57v.05s.21.46.21.46l.03.08s.07.1.09.21c.25.57.55,1.18.72,1.43.15.25.28.5.32.63.05.08.11.15.16.22h0c.07,0,.12.08.14.2.11.13.24.29.4.47.07.03.11.09.14.16.66.75,1.58,1.69,1.94,2.01.08.02.13.06.16.11.05,0,.23.13.44.32.07.03.12.08.15.13.11.1.24.2.37.29.11,0,.17.05.2.14.09.06.16.1.22.14.22.12.4.27.4.34,0,.02,0,.03.02.05.03.02.07.04.11.06.02,0,.04,0,.06,0,.11,0,.34.13.52.3s.38.3.47.3c.07,0,.15.06.15.12,0,0,0,.02.01.03l.04.02c.3.04.48.13.53.28.21.09.39.19.44.26l.07.04c.31.04.58.19.72.38.05.03.11.05.16.08.17.04.4.11.59.19.13.05.27.13.43.22.12.01.29.07.44.15.04,0,.07,0,.1.02.02-.01.06-.02.09-.02.12,0,.22.07.22.18s.18.37.4.59l.34.35.22.19h-.02c.1.09.2.19.3.28.2.15.51.45,1.04.96l1.33,1.27h-.07c.31.3.62.6.94.91l.11.11c.16.06.5.39,1.3,1.16l1.4,1.36h-.07c.15.15.29.29.42.42l.09.08v-.06l.64.53c.77.66.95.97.77,1.35h0c0,.09-.03.15-.09.21-.02.04-.06.07-.1.11,0,0-.03,0-.06.01-.12.11-.28.16-.43.16-.06,0-.11,0-.16,0-.18,0-.32-.02-.35-.1-.21,0-.46,0-.74.01v.09h-1.92v-.07h-.59s-.08,0-.08,0c-.07.06-.2.07-.43.07s-.34,0-.42-.06c-3.33.02-8.49.04-16.07.05-.05,0-.11,0-.16,0s-.12,0-.17,0h-1.39c-.06,0-.13,0-.21,0s-.13,0-.2,0h-1.69c-.06,0-.11,0-.17,0h-31.38c-5.36,0-9.42,0-12.51-.01-.07.01-.17.01-.31.01s-.24,0-.32-.02c-1.01,0-1.91,0-2.7,0v.03h-4.57v-.08h-.15v.08h-1.08c-.09,0-.19,0-.29-.01-.33-.03-.6-.09-.67-.16-.11-.11-.16-.22-.17-.36-.01-.05-.01-.1,0-.15v-.02s.01-.06.04-.1c.07-.24.25-.52.54-.83l.59-.65v.06c.13-.13.26-.27.41-.43.02-.03.04-.07.08-.12.11-.16,1.17-1.28,2.34-2.52.76-.79,1.25-1.3,1.58-1.61l.31-.32.3-.4v-.03ZM107.88,194.52h-.06.07,0Z"/>
  <path class="st4" d="M114.04,165.35c-.22.08-.63.14-1.35.22-.31.04-.49.06-.61.04l-.4.06s-.06.02-.1.03c-.3.08-.48.1-.58.06h-.04c-.07.02-.15.03-.23.05l-23.3,7.56v-8.05c.01-2.57.03-4.91.06-6.23,0-.59-.02-1.31-.02-2.14-.01-.56-.02-1.48-.02-2.57-.02-.04-.04-.08-.05-.12-.12-.44-.12-2.3,0-2.73.01-.05.04-.11.06-.15.01-2.11.05-4.21.09-5.31,0-.27.01-.52.02-.75,0-.11,0-.22,0-.33-.06-.04-.09-.13-.09-.24-.02-.02-.03-.05-.03-.07,0-.26.07-.52.16-.68,0-.1.01-.19.02-.27-.03-.08-.01-.22.02-.45.07-.42.12-.72.18-.92.01-.07.03-.14.05-.22l.02-.08v-.02c0-.3.14-.81.29-1.14.07-.27.14-.49.18-.62h-.03l.26-.69c.09-.23.17-.41.25-.53-.04-.06.02-.19.15-.5.17-.4.4-.85.66-1.32,0-.16.35-.71.54-.88.12-.19.24-.37.37-.55.02-.06.08-.14.14-.23h-.03l.3-.4c.16-.23.53-.68.81-1l.52-.59s.06-.06.09-.08l.06-.07c.09-.09.15-.13.2-.13.1-.1.21-.21.33-.32-.01-.02-.01-.04,0-.06,0,0,0,0,0-.01h0l.04-.04c.05-.06.14-.13.24-.22,0,0,0-.01,0-.02.04-.07.28-.28.52-.44l.06-.04c.32-.27.68-.57.86-.71l.41-.31v.02l.42-.3c.19-.16.32-.25.42-.26.26-.18.54-.35.71-.43.07-.04.14-.08.21-.11.15-.09.35-.2.58-.32.23-.17.55-.34.65-.34,0,0,.01,0,.02,0,.08-.04.17-.08.26-.13,0,0,.02,0,.02,0,.72-.34,1.07-.5,1.24-.53.16-.06.31-.1.4-.1h.03c.1-.03.19-.06.29-.09.14-.11.39-.19.66-.21.38-.15,1.08-.32,1.98-.47.16-.08.38-.12.6-.12.02,0,.05,0,.07.03h.07c.08,0,.13,0,.18,0,.07,0,.13-.02.21-.02.16-.09.4-.15.65-.15,0,0,.02,0,.03,0,.09,0,.16,0,.22,0,.06,0,.12,0,.18,0h.15s.02,0,.03,0c.09,0,.16,0,.22,0,.06,0,.12,0,.18,0,.02,0,.04,0,.05.01.11,0,.22-.01.34-.01.13,0,.26,0,.37.02.05-.01.11-.01.18,0,.04,0,.09,0,.15,0,.04,0,.09,0,.15,0,.04,0,.09,0,.15,0,.04,0,.09,0,.15,0,.11-.01.28,0,.53.08.07.02.13.04.18.07h.04s.09,0,.15,0c.04,0,.09,0,.15,0,.08,0,.18,0,.32.03.06,0,.12.02.21.03.86.15,1.5.29,1.92.42.04,0,.09.02.14.03.07.02.12.04.17.06.16.01.39.09.6.18v-.03l.69.27c.16.06.31.12.42.18.03.01.06.02.1.04.13.05.24.11.32.16.13.05.23.1.3.13.01-.02.03-.02.05-.01.37.18.63.32.77.42.11.03.34.16.59.31.09.02.23.1.45.22.13.08.24.15.31.22.1.01.23.1.43.26l.43.31c.14.1.24.18.32.25.02.01.05.04.09.06.19.14.38.3.56.45.05.04.1.08.14.11.64.54,1.19,1.07,1.32,1.29.03.05.06.1.09.13.04.04.1.09.15.14s.05.05.05.05c.06.07.13.14.19.22,0,0,.01,0,.02,0,.04.03.11.1.21.21.09.06.22.22.4.47l.2.28c.11.09.28.32.54.69l.46.65h-.05s.05.09.09.13c.04.07.08.13.11.19.51.69,1.76,3.26,1.76,3.75,0,.02,0,.04-.01.06.03.05.05.11.07.19l.03.11c.02.05.04.11.06.17.02.05.04.11.06.17.02.07.04.14.05.2v.04c.19.65.29,1.02.31,1.23.02.12.02.21,0,.27l.03.19s.03.09.05.14c.08.28.1.46.06.56,0,.07,0,.11,0,.15,0,.08,0,.18.01.28.02.05.05.11.07.18.06.24.09.4.08.51.02.17.02.31,0,.41.03.22.01.36-.05.43.04.69.06,1.41.06,2.14,0,.76-.02,1.33-.04,1.71l.02,3.65c0,.97,0,1.82,0,2.57.01,1.1.03,2.51.03,3.96v4.71s.04.1.06.16c.06.22.09.41.06.43-.03.03-.46.11-.97.16-.35.03-.57.05-.7.04-.25.04-.43.02-.54-.05h-.33c-.06.05-.14.09-.25.12-.49.13-.8.12-.93-.01h-.1c-.43.06-1.36.11-2.05.11h-.19c-.2.09-.52.15-.94.15-.12,0-.22,0-.3-.02-.13.01-.28.02-.44.02s-.28,0-.35-.04h-.07c-.06.04-.13.07-.24.1-.37.1-.64.12-.8.07-.11.01-.24.02-.38.02-.12,0-.22-.01-.28-.04-.12,0-.23.02-.35.04h0Z"/>
  <path class="st2" d="M135.92,169.17c.07,2.28.11,7.43.04,7.77-.01.07-.03.12-.04.16,0,2.76-.02,4.78-.04,5.63.05.05.07.15.05.3,0,.05.01.12.01.2,0,.33-.05.62-.12.81-.02.28-.04.49-.08.64.04.05.06.11.06.21,0,.3-.03.31-.47.19-.07-.02-.14-.05-.2-.11-.17-.04-.38-.11-.64-.21-.21-.08-.37-.16-.49-.23,0,.03-.02.05-.03.05-.03,0-.5-.23-1.03-.52-.76-.41-1.22-.67-1.44-.84,0,0,0,0,0,0-.03,0-.37-.22-.76-.5-.19-.13-.38-.27-.55-.4,0,.02,0,.03,0,.03-.03,0-.53-.37-1.1-.83-.59-.44-1.08-.84-1.08-.87,0,0,0,0,0-.01l-.23-.19h.05c-.51-.47-.96-.95-1.37-1.45v.03l-.4-.52-.41-.52h.07c-.15-.24-.3-.47-.43-.72-.07-.05-.14-.17-.23-.35-.12-.23-.23-.46-.27-.52,0-.02,0-.04.02-.06-.04-.09-.08-.19-.12-.28-.07-.11-.15-.27-.24-.47-.16-.4-.34-.88-.38-1.1-.03-.17-.04-.27-.01-.33-.11-.51-.18-1.04-.18-1.36,0-.15.04-.25.11-.3v-.37c-.09-.06-.12-.19-.12-.43,0-.43.05-.76.15-.96.01-.51.04-1.06.06-1.61-.04-.05-.06-.13-.06-.23,0-.28.04-.52.11-.7.02-.31.03-.61.05-.89.03-.48.05-1.04.08-1.68-.07-.06-.09-.18-.09-.38l-.03-.3-.42-1.47s.01,0,.02,0v-1.32h-.02c-.09,0-.15-.54-.15-1.33s.06-1.29.14-1.32v-.89c-.08-.03-.14-.25-.14-.51s.06-.47.12-.51v-1.94c-.17-.14-.16-1.16-.02-1.52v-.28c-.13-.18-.13-.71,0-.93v-.79c-.1-1.24-.13-4.11-.08-5.79-.02-.77-.04-1.4-.08-1.94-.06-.05-.09-.13-.09-.27s-.02-.4-.05-.69c-.03-.14-.05-.3-.09-.49-.04-.27-.08-.51-.11-.73-.04-.07-.08-.17-.11-.29-.04-.21-.08-.51-.09-.71v-.04c-.11-.04-.14-.15-.15-.36,0-.02-.01-.04-.02-.06-.06-.03-.12-.22-.13-.45-.02-.07-.05-.14-.07-.21-.04-.04-.07-.11-.08-.22-.02-.06-.05-.12-.07-.19-.03-.03-.05-.1-.07-.18l-.04-.1s-.08-.12-.1-.25c-.04-.09-.08-.19-.11-.28-.04-.07-.09-.18-.13-.3-.04-.09-.08-.18-.12-.27-.15-.13-.3-.43-.35-.71-.03-.05-.05-.1-.08-.15-.02-.03-.03-.05-.05-.08v-.03c-.13-.03-.18-.11-.19-.3-.07-.03-.11-.11-.13-.24l-.04-.07c-.09-.06-.17-.19-.21-.33s-.06-.1-.06-.1c-.06-.03-.1-.09-.12-.19l-.06-.09s-.09-.08-.11-.15l-.03-.04c-.08-.04-.12-.1-.12-.17-.02-.04-.05-.08-.08-.11-.02-.02-.03-.03-.04-.05l-.04-.06s-.05-.04-.07-.09l-.06-.08c-.09-.03-.13-.09-.14-.19l-.14-.19s-.06-.07-.09-.11c-.03-.04-.07-.09-.11-.13-.04-.02-.07-.06-.08-.1l-.02-.02c-.07-.02-.11-.07-.13-.16-.19-.22-.38-.43-.58-.65-.08-.05-.17-.15-.25-.26-.07-.07-.14-.14-.21-.22-.11-.06-.21-.13-.3-.22-.06-.06-.11-.14-.16-.23-.29-.27-.58-.54-.88-.79-.06-.02-.1-.05-.12-.1l-.08-.06s-.03-.02-.04-.04c-.17-.13-.33-.26-.5-.39-.04-.01-.07-.04-.1-.07-.1-.08-.21-.15-.31-.22-.11-.02-.19-.07-.19-.11v-.02c-.06-.04-.12-.09-.19-.13h-.03c-.08,0-.14-.05-.18-.14-.09-.06-.18-.11-.27-.17-.1-.02-.15-.05-.18-.11l-.36-.22c-.31-.09-.68-.28-.7-.39l-.04-.02c-.11-.01-.18-.04-.22-.11-.04-.02-.09-.04-.13-.07-.01,0-.02,0-.04,0-.2-.04-.43-.14-.57-.25-.19,0-.27-.05-.3-.14l-.09-.04c-.17-.01-.32-.04-.41-.06-.09-.03-.16-.08-.21-.16-.05-.02-.1-.03-.15-.05-.18,0-.37-.03-.54-.08-.09-.02-.16-.08-.2-.16-.09-.03-.17-.05-.25-.08-.31-.03-.72-.11-1.24-.22-.06-.01-.11-.02-.16-.03-.1,0-.17-.02-.22-.05-.13-.03-.23-.06-.32-.09-.22,0-.36-.02-.43-.07-.18-.02-.33-.05-.47-.08-.04,0-.08,0-.13,0h-.3c-.21,0-.34-.01-.42-.06-.29,0-.59-.01-.91-.01-.26,0-.52,0-.77.02-.08.04-.21.06-.41.06h-.41c-.27.02-.54.06-.81.09-.05.03-.12.04-.22.05-.21.06-.5.12-.9.2-.44.08-.78.14-1.04.18l-.27.07c-.04.09-.13.12-.32.14-.12.06-.31.11-.55.13-.06.02-.12.04-.19.06-.05.07-.14.1-.3.11l-.16.06s-.1.07-.21.08h-.03c0,.08-.14.13-.33.15-.15.06-.29.12-.43.19-.04.05-.11.09-.22.1l-.07.03c-.04.07-.11.11-.25.12l-.04.02c-.03.08-.11.11-.25.13l-.03.02c-.04.09-.12.16-.22.2-.08.03-.18.06-.29.07l-.11.06s-.08.06-.13.08c-.11.06-.21.12-.31.18-.04.1-.11.14-.19.14-.02,0-.04,0-.07,0l-.05.03s-.05.04-.09.06c0,.01-.01.03-.01.04,0,.06-.11.11-.27.13l-.06.04s-.07.08-.14.1c-.11.08-.22.15-.33.23-.03.03-.07.06-.1.07-.03.09-.09.13-.21.15l-.08.06s-.05.05-.1.07c-.05.04-.1.08-.15.11-.04.07-.09.11-.18.14-.14.11-.28.22-.42.34-.05.06-.11.11-.16.14l-.06.05c-.02.05-.06.09-.12.11h0c-.02.09-.06.13-.15.15-.02.09-.07.13-.18.16-.4.37-.78.76-1.15,1.17-.01.07-.06.13-.13.15l-.03.03c-.02.06-.05.09-.1.11l-.08.09s-.01.02-.02.03c-.19.22-.36.43-.54.66-.01.04-.04.07-.07.09-.13.17-.26.34-.38.52-.01.03-.03.05-.05.07-.03.04-.06.09-.09.12,0,.01-.01.02-.02.03-.04.06-.09.13-.13.19-.02.09-.06.14-.1.15-.05.08-.11.16-.15.24,0,.07-.05.14-.11.18-.12.19-.24.39-.35.58-.04.23-.13.39-.25.45l-.03.06c-.01.12-.04.23-.07.32-.02.07-.1.13-.19.18l-.03.06c-.03.28-.11.44-.25.53l-.05.11c-.02.12-.06.22-.11.24l-.03.07c-.01.1-.05.18-.09.21-.02.04-.03.09-.05.13,0,.14-.03.22-.1.27-.02.06-.04.11-.06.18-.01.14-.04.29-.07.43-.02.09-.08.16-.14.22-.23.75-.43,1.55-.58,2.36-.03.32-.07.58-.11.71.03.09.04.21.04.35,0,.32-.03.45-.16.5-.01.36-.03.84-.04,1.4.03.28.05.77.05,1.57,0,.91,0,1.42-.06,1.68,0,.58,0,1.23,0,1.92.05.23.07.68.07,1.49,0,.89-.02,1.35-.08,1.55,0,.38,0,.75,0,1.12.07.73.09,2.65.09,7.19,0,4.17.04,7.68.09,7.81l.04,2.24s.02.09.02.15c0,.02,0,.04-.01.06v.55c-2.66,1.79-5.59,3.78-8.01,5.75-.29.24-.59.49-.9.75-.44.38-.86.75-1.25,1.12-.19.18-.37.34-.53.49,0,.09-.16.24-.5.48l-.44.31v-.02c-.26.18-.44.24-.54.2-.13-.05-.18-3-.19-13.52v-5.37c0-9,.03-16.82.07-18.96-.05-.07-.07-.19-.07-.39,0-.15,0-.29.02-.42-.01-.03-.02-.07-.02-.1,0-.06,0-.12,0-.18,0-.01,0-.02,0-.04v-.15c0-.12.01-.24.04-.34,0-.07.02-.15.03-.24.06-.4.1-.69.14-.9.02-.15.05-.33.08-.52,0-.05,0-.1.01-.14,0-.02-.02-.04-.02-.06v-.07s0-.03,0-.05c0-.08.02-.16.04-.24.04-.24.11-.59.18-.97.12-.64.22-1.19.22-1.22,0-.01.02-.02.05-.03.03-.11.07-.21.11-.29.02-.12.07-.32.13-.56,0-.28.09-.54.2-.68.02-.05.03-.1.05-.14.05-.16.1-.32.16-.48.01-.04.03-.08.04-.11,0-.02,0-.04,0-.06,0-.19.1-.44.22-.62,0-.07.05-.18.12-.36.04-.11.09-.19.12-.27h-.02l.15-.37h0c0-.22.11-.48.23-.65.2-.49.36-.86.5-1.1v-.04c.14-.34.38-.81.59-1.18.04-.18.37-.76.63-1.15.08-.19.27-.48.42-.66.06-.19.32-.59.48-.78.08-.11.17-.25.27-.39h-.04l.31-.44c.13-.19.24-.32.32-.41l.28-.39c.25-.37.65-.88.88-1.15l.41-.49v.02c.13-.16.28-.33.43-.49l.03-.04c.22-.32.37-.48.46-.5l.28-.31h0c.2-.19.42-.41.64-.6l.02-.02s0-.03,0-.04c.02-.03.08-.1.16-.16.03-.03.08-.09.15-.15.07-.09.29-.27.5-.43l.23-.16h0l.04-.03c.05-.06.14-.14.25-.22,0,0,0-.01,0-.02.02-.03.08-.1.16-.17.15-.19.94-.79,1.85-1.44.07-.05.13-.1.2-.15l.66-.47h0c.31-.2.6-.4.88-.58.03-.03.08-.06.12-.08.02-.01.05-.03.08-.05.67-.44,1.2-.75,1.31-.75h0c.21-.14.46-.27.59-.29.19-.1.35-.18.46-.23.19-.11.4-.22.61-.3.22-.15.6-.34,1.03-.5l.05-.02c.11-.06.23-.11.36-.16l.69-.27v.03c.22-.09.54-.2.95-.33.22-.1.54-.22.94-.34.74-.22,1.15-.34,1.38-.36.16-.1.42-.17.69-.17h0c.29-.1.87-.22,2.05-.44.38-.07.62-.11.78-.13.08-.01.17-.02.25-.02h.15s.05,0,.07.03c.19-.02.29-.01.34.03.06,0,.13-.01.2-.02.06-.04.12-.08.2-.1.29-.08.49-.11.63-.08.06,0,.12,0,.18,0h.15s.06.02.09.05c.23-.02.43-.02.49.02.16,0,.32-.01.48-.02h.17c.08-.05.18-.09.29-.12.45-.1,1.01-.04,1.29.11.32,0,.62.02.93.03.06,0,.11,0,.18,0,.05-.05.13-.07.27-.06.04,0,.1,0,.16,0,.14-.03.35,0,.65.08.1.03.18.06.23.1h.04c.06-.03.16-.04.31-.02h.17c.11-.04.29-.01.57.06.05.01.09.03.13.05.28.05.48.1.62.13l.3.05c.11-.04.29-.01.58.06.1.03.17.06.22.1.06,0,.13.02.22.04.1.02.24.05.42.09.09.01.19.04.32.07.05.01.09.03.12.04.19.05.4.11.61.17.12,0,.28.04.47.13.57.17,1.13.34,1.53.48.1.03.18.07.25.1.06.01.12.04.2.06.12.04.23.09.32.14.03,0,.07.02.11.04.06-.02.18.02.41.11.12.05.22.1.3.14.49.2,1.01.47,1.27.66.03.02.07.04.1.06.08-.03.22.04.51.2.07.04.13.08.19.11.07.02.16.07.29.14.07.03.17.08.29.15.07.02.17.07.31.15.09.03.22.11.41.22.12.07.22.14.28.19l.52.32c.66.32,4.15,3,4.63,3.57.05.06.08.1.1.13l.43.38h-.01c.08.08.16.15.22.22l.06.07s.02.01.03.02c.07.05.16.15.26.27,0,0,.02.02.03.03.13.11.37.38.53.62l.25.35s.11.05.2.15c.05.05.1.11.17.19.13.1.34.36.67.82l.41.58c.44.6.9,1.25,1.23,1.73.02.03.04.05.05.08.15.22.27.41.33.53.4.6,1.09,1.79,1.09,1.93.33.61.62,1.19.72,1.46v.04c.15.24.31.59.5,1.07.03.04.07.1.1.16.11.21.16.39.14.52l.13.32s.01.03.02.04c.11.22.16.39.14.52.05.1.1.22.15.36.08.15.12.29.14.4.04.12.09.26.13.41.23.75.37,1.2.42,1.47.04.16.05.27.04.36v.05c.04.06.06.12.08.2.05.06.1.15.14.28.08.29.1.46.06.56.05.26.11.57.17.92l.03.2s.02.05.02.08c.07.27.1.45.07.55v.07c.02.16.02.27,0,.35v.16s.07.11.09.19c.07.24.09.41.08.51,0,.06,0,.11,0,.15.02.13.01.24,0,.32.03.05.06.12.08.21.07.24.09.41.08.51,0,.08,0,.14,0,.19.01.14.02.3.02.48,0,.13,0,.23-.02.31.02.16,0,.25-.04.31,0,.34-.02.56-.08.71.06,3.14.07,8.04.1,16.31,0,1.68.01,3.34.01,4.93,0,.13,0,.27,0,.4v1.66l.03.02ZM75.51,183.01c0,.27.03.28.15.11.19-.28.19-.44,0-.44-.07,0-.15.15-.15.34Z"/>
</svg>
